solid ToolforBoardHousing_Final_Body_v3
facet normal 0.0 0.0 -1.0
outer loop
vertex -26.3271722750469 15.2 0.0
vertex -28.0 3.42901103761259e-15 0.0
vertex -29.3641451191877 7.86809897111665 0.0
endloop
endfacet
facet normal 0.0 0.0 -1.0
outer loop
vertex -28.0 3.42901103761259e-15 0.0
vertex -26.3271722750469 15.2 0.0
vertex -27.0459231360939 7.24693326287059 0.0
endloop
endfacet
facet normal 0.0 0.0 -1.0
outer loop
vertex -27.0459231360939 7.24693326287059 0.0
vertex -26.3271722750469 15.2 0.0
vertex -24.2487113059643 14.0 0.0
endloop
endfacet
facet normal 0.0 0.0 -1.0
outer loop
vertex -24.2487113059643 14.0 0.0
vertex -26.3271722750469 15.2 0.0
vertex -21.496046148071 21.4960461480711 0.0
endloop
endfacet
facet normal 0.0 0.0 -1.0
outer loop
vertex -24.2487113059643 14.0 0.0
vertex -21.496046148071 21.4960461480711 0.0
vertex -19.7989898732233 19.7989898732233 0.0
endloop
endfacet
facet normal 0.0 0.0 -1.0
outer loop
vertex -19.7989898732233 19.7989898732233 0.0
vertex -21.496046148071 21.4960461480711 0.0
vertex -15.2 26.3271722750469 0.0
endloop
endfacet
facet normal 0.0 0.0 -1.0
outer loop
vertex -19.7989898732233 19.7989898732233 0.0
vertex -15.2 26.3271722750469 0.0
vertex -14.0 24.2487113059643 0.0
endloop
endfacet
facet normal 0.0 0.0 -1.0
outer loop
vertex -14.0 24.2487113059643 0.0
vertex -15.2 26.3271722750469 0.0
vertex -7.86809897111662 29.3641451191877 0.0
endloop
endfacet
facet normal 0.0 0.0 -1.0
outer loop
vertex -14.0 24.2487113059643 0.0
vertex -7.86809897111662 29.3641451191877 0.0
vertex -7.24693326287058 27.0459231360939 0.0
endloop
endfacet
facet normal 0.0 0.0 -1.0
outer loop
vertex -7.24693326287058 27.0459231360939 0.0
vertex -7.86809897111662 29.3641451191877 0.0
vertex 5.58438940411193e-15 30.4 0.0
endloop
endfacet
facet normal 0.0 0.0 -1.0
outer loop
vertex -7.24693326287058 27.0459231360939 0.0
vertex 5.58438940411193e-15 30.4 0.0
vertex 1.71450551880629e-15 28.0 0.0
endloop
endfacet
facet normal 0.0 0.0 -1.0
outer loop
vertex 1.71450551880629e-15 28.0 0.0
vertex 5.58438940411193e-15 30.4 0.0
vertex 7.24693326287059 27.0459231360939 0.0
endloop
endfacet
facet normal 0.0 0.0 -1.0
outer loop
vertex 7.24693326287059 27.0459231360939 0.0
vertex 5.58438940411193e-15 30.4 0.0
vertex 7.86809897111665 29.3641451191877 0.0
endloop
endfacet
facet normal 0.0 0.0 -1.0
outer loop
vertex 7.24693326287059 27.0459231360939 0.0
vertex 7.86809897111665 29.3641451191877 0.0
vertex 14.0 24.2487113059643 0.0
endloop
endfacet
facet normal 0.0 0.0 -1.0
outer loop
vertex 14.0 24.2487113059643 0.0
vertex 7.86809897111665 29.3641451191877 0.0
vertex 15.2 26.3271722750469 0.0
endloop
endfacet
facet normal 0.0 0.0 -1.0
outer loop
vertex 14.0 24.2487113059643 0.0
vertex 15.2 26.3271722750469 0.0
vertex 19.7989898732233 19.7989898732233 0.0
endloop
endfacet
facet normal 0.0 0.0 -1.0
outer loop
vertex 19.7989898732233 19.7989898732233 0.0
vertex 15.2 26.3271722750469 0.0
vertex 21.4960461480711 21.496046148071 0.0
endloop
endfacet
facet normal 0.0 0.0 -1.0
outer loop
vertex 19.7989898732233 19.7989898732233 0.0
vertex 21.4960461480711 21.496046148071 0.0
vertex 24.2487113059643 14.0 0.0
endloop
endfacet
facet normal 0.0 0.0 -1.0
outer loop
vertex 24.2487113059643 14.0 0.0
vertex 21.4960461480711 21.496046148071 0.0
vertex 26.3271722750469 15.2 0.0
endloop
endfacet
facet normal 0.0 0.0 -1.0
outer loop
vertex 24.2487113059643 14.0 0.0
vertex 26.3271722750469 15.2 0.0
vertex 27.0459231360939 7.24693326287058 0.0
endloop
endfacet
facet normal 0.0 0.0 -1.0
outer loop
vertex 27.0459231360939 7.24693326287058 0.0
vertex 26.3271722750469 15.2 0.0
vertex 29.3641451191877 7.86809897111662 0.0
endloop
endfacet
facet normal 0.0 0.0 -1.0
outer loop
vertex 27.0459231360939 7.24693326287058 0.0
vertex 29.3641451191877 7.86809897111662 0.0
vertex 28.0 0.0 0.0
endloop
endfacet
facet normal 0.0 0.0 -1.0
outer loop
vertex 28.0 0.0 0.0
vertex 29.3641451191877 7.86809897111662 0.0
vertex 29.3641451191877 -7.86809897111664 0.0
endloop
endfacet
facet normal 0.0 0.0 -1.0
outer loop
vertex 29.3641451191877 -7.86809897111664 0.0
vertex 29.3641451191877 7.86809897111662 0.0
vertex 30.4 -3.72292626940795e-15 0.0
endloop
endfacet
facet normal 0.0 0.0 -1.0
outer loop
vertex -29.3641451191877 7.86809897111665 0.0
vertex -29.3641451191877 -7.86809897111663 0.0
vertex -30.4 0.0 0.0
endloop
endfacet
facet normal 0.0 0.0 -1.0
outer loop
vertex -29.3641451191877 -7.86809897111663 0.0
vertex -29.3641451191877 7.86809897111665 0.0
vertex -26.3271722750469 -15.2 0.0
endloop
endfacet
facet normal 0.0 0.0 -1.0
outer loop
vertex -26.3271722750469 -15.2 0.0
vertex -29.3641451191877 7.86809897111665 0.0
vertex -28.0 3.42901103761259e-15 0.0
endloop
endfacet
facet normal 0.0 0.0 -1.0
outer loop
vertex -26.3271722750469 -15.2 0.0
vertex -28.0 3.42901103761259e-15 0.0
vertex -27.0459231360939 -7.24693326287057 0.0
endloop
endfacet
facet normal 0.0 0.0 -1.0
outer loop
vertex -26.3271722750469 -15.2 0.0
vertex -27.0459231360939 -7.24693326287057 0.0
vertex -24.2487113059643 -14.0 0.0
endloop
endfacet
facet normal 0.0 0.0 -1.0
outer loop
vertex -26.3271722750469 -15.2 0.0
vertex -24.2487113059643 -14.0 0.0
vertex -21.496046148071 -21.496046148071 0.0
endloop
endfacet
facet normal 0.0 0.0 -1.0
outer loop
vertex -21.496046148071 -21.496046148071 0.0
vertex -24.2487113059643 -14.0 0.0
vertex -19.7989898732233 -19.7989898732233 0.0
endloop
endfacet
facet normal 0.0 0.0 -1.0
outer loop
vertex -21.496046148071 -21.496046148071 0.0
vertex -19.7989898732233 -19.7989898732233 0.0
vertex -15.2 -26.3271722750469 0.0
endloop
endfacet
facet normal 0.0 0.0 -1.0
outer loop
vertex -15.2 -26.3271722750469 0.0
vertex -19.7989898732233 -19.7989898732233 0.0
vertex -14.0 -24.2487113059643 0.0
endloop
endfacet
facet normal 0.0 0.0 -1.0
outer loop
vertex -15.2 -26.3271722750469 0.0
vertex -14.0 -24.2487113059643 0.0
vertex -7.86809897111664 -29.3641451191877 0.0
endloop
endfacet
facet normal 0.0 0.0 -1.0
outer loop
vertex -7.86809897111664 -29.3641451191877 0.0
vertex -14.0 -24.2487113059643 0.0
vertex -7.2469332628706 -27.0459231360939 0.0
endloop
endfacet
facet normal 0.0 0.0 -1.0
outer loop
vertex -7.86809897111664 -29.3641451191877 0.0
vertex -7.2469332628706 -27.0459231360939 0.0
vertex -1.86146313470398e-15 -30.4 0.0
endloop
endfacet
facet normal 0.0 0.0 -1.0
outer loop
vertex -1.86146313470398e-15 -30.4 0.0
vertex -7.2469332628706 -27.0459231360939 0.0
vertex -5.14351655641888e-15 -28.0 0.0
endloop
endfacet
facet normal 0.0 0.0 -1.0
outer loop
vertex -1.86146313470398e-15 -30.4 0.0
vertex -5.14351655641888e-15 -28.0 0.0
vertex 7.24693326287057 -27.0459231360939 0.0
endloop
endfacet
facet normal 0.0 0.0 -1.0
outer loop
vertex -1.86146313470398e-15 -30.4 0.0
vertex 7.24693326287057 -27.0459231360939 0.0
vertex 7.86809897111663 -29.3641451191877 0.0
endloop
endfacet
facet normal 0.0 0.0 -1.0
outer loop
vertex 7.86809897111663 -29.3641451191877 0.0
vertex 7.24693326287057 -27.0459231360939 0.0
vertex 14.0 -24.2487113059643 0.0
endloop
endfacet
facet normal 0.0 0.0 -1.0
outer loop
vertex 7.86809897111663 -29.3641451191877 0.0
vertex 14.0 -24.2487113059643 0.0
vertex 15.2 -26.3271722750469 0.0
endloop
endfacet
facet normal 0.0 0.0 -1.0
outer loop
vertex 15.2 -26.3271722750469 0.0
vertex 14.0 -24.2487113059643 0.0
vertex 19.7989898732233 -19.7989898732233 0.0
endloop
endfacet
facet normal 0.0 0.0 -1.0
outer loop
vertex 15.2 -26.3271722750469 0.0
vertex 19.7989898732233 -19.7989898732233 0.0
vertex 21.496046148071 -21.496046148071 0.0
endloop
endfacet
facet normal 0.0 0.0 -1.0
outer loop
vertex 21.496046148071 -21.496046148071 0.0
vertex 19.7989898732233 -19.7989898732233 0.0
vertex 24.2487113059643 -14.0 0.0
endloop
endfacet
facet normal 0.0 0.0 -1.0
outer loop
vertex 21.496046148071 -21.496046148071 0.0
vertex 24.2487113059643 -14.0 0.0
vertex 26.3271722750469 -15.2 0.0
endloop
endfacet
facet normal 0.0 0.0 -1.0
outer loop
vertex 26.3271722750469 -15.2 0.0
vertex 24.2487113059643 -14.0 0.0
vertex 27.0459231360939 -7.2469332628706 0.0
endloop
endfacet
facet normal 0.0 0.0 -1.0
outer loop
vertex 26.3271722750469 -15.2 0.0
vertex 27.0459231360939 -7.2469332628706 0.0
vertex 29.3641451191877 -7.86809897111664 0.0
endloop
endfacet
facet normal 0.0 0.0 -1.0
outer loop
vertex 29.3641451191877 -7.86809897111664 0.0
vertex 27.0459231360939 -7.2469332628706 0.0
vertex 28.0 0.0 0.0
endloop
endfacet
facet normal -0.496125272134338 -0.859314178255607 0.124253198745629
outer loop
vertex -11.7000000000001 -20.2649944485559 55.9
vertex -21.496046148071 -21.496046148071 0.0
vertex -15.2 -26.3271722750469 0.0
endloop
endfacet
facet normal -0.701627088488422 -0.701627088488421 0.124253198745629
outer loop
vertex -21.496046148071 -21.496046148071 0.0
vertex -11.7000000000001 -20.2649944485559 55.9
vertex -16.5462986797653 -16.5462986797652 55.9
endloop
endfacet
facet normal 0.859314178255607 -0.496125272134337 0.124253198745629
outer loop
vertex 26.3271722750469 -15.2 0.0
vertex 16.5462986797652 -16.5462986797653 55.9
vertex 21.496046148071 -21.496046148071 0.0
endloop
endfacet
facet normal 0.701627088488422 -0.701627088488422 0.124253198745629
outer loop
vertex 16.5462986797652 -16.5462986797653 55.9
vertex 26.3271722750469 -15.2 0.0
vertex 20.2649944485559 -11.7 55.9
endloop
endfacet
facet normal -0.701627088488422 -0.701627088488421 0.124253198745629
outer loop
vertex -16.5462986797653 -16.5462986797652 55.9
vertex -26.3271722750469 -15.2 0.0
vertex -21.496046148071 -21.496046148071 0.0
endloop
endfacet
facet normal -0.859314178255607 -0.496125272134337 0.124253198745629
outer loop
vertex -26.3271722750469 -15.2 0.0
vertex -16.5462986797653 -16.5462986797652 55.9
vertex -20.2649944485559 -11.7 55.9
endloop
endfacet
facet normal -0.701627088488421 0.701627088488422 0.124253198745629
outer loop
vertex -16.5462986797652 16.5462986797653 55.9
vertex -15.2 26.3271722750469 0.0
vertex -21.496046148071 21.4960461480711 0.0
endloop
endfacet
facet normal -0.496125272134337 0.859314178255607 0.124253198745629
outer loop
vertex -15.2 26.3271722750469 0.0
vertex -16.5462986797652 16.5462986797653 55.9
vertex -11.7 20.2649944485559 55.9
endloop
endfacet
facet normal -0.496125272134337 0.859314178255607 0.124253198745629
outer loop
vertex -11.7 20.2649944485559 55.9
vertex -7.86809897111662 29.3641451191877 0.0
vertex -15.2 26.3271722750469 0.0
endloop
endfacet
facet normal -0.256813338370074 0.958440426858496 0.124253198745629
outer loop
vertex -7.86809897111662 29.3641451191877 0.0
vertex -11.7 20.2649944485559 55.9
vertex -6.056365655399 22.6026643351642 55.9
endloop
endfacet
facet normal -0.256813338370075 0.958440426858496 0.124253198745629
outer loop
vertex -6.056365655399 22.6026643351642 55.9
vertex 5.58438940411193e-15 30.4 0.0
vertex -7.86809897111662 29.3641451191877 0.0
endloop
endfacet
facet normal 2.88092666587181e-16 0.992250544268674 0.124253198745629
outer loop
vertex 5.58438940411193e-15 30.4 0.0
vertex -6.056365655399 22.6026643351642 55.9
vertex 0.0 23.4000000000001 55.9
endloop
endfacet
facet normal 2.9102303722956e-16 0.992250544268674 0.124253198745629
outer loop
vertex 0.0 23.4000000000001 55.9
vertex 7.86809897111665 29.3641451191877 0.0
vertex 5.58438940411193e-15 30.4 0.0
endloop
endfacet
facet normal 0.256813338370075 0.958440426858496 0.124253198745629
outer loop
vertex 7.86809897111665 29.3641451191877 0.0
vertex 0.0 23.4000000000001 55.9
vertex 6.056365655399 22.6026643351642 55.9
endloop
endfacet
facet normal 0.256813338370075 0.958440426858496 0.124253198745629
outer loop
vertex 6.056365655399 22.6026643351642 55.9
vertex 15.2 26.3271722750469 0.0
vertex 7.86809897111665 29.3641451191877 0.0
endloop
endfacet
facet normal 0.496125272134337 0.859314178255607 0.124253198745629
outer loop
vertex 15.2 26.3271722750469 0.0
vertex 6.056365655399 22.6026643351642 55.9
vertex 11.7 20.2649944485559 55.9
endloop
endfacet
facet normal 0.496125272134337 0.859314178255607 0.124253198745629
outer loop
vertex 11.7 20.2649944485559 55.9
vertex 21.4960461480711 21.496046148071 0.0
vertex 15.2 26.3271722750469 0.0
endloop
endfacet
facet normal 0.701627088488422 0.701627088488422 0.124253198745629
outer loop
vertex 21.4960461480711 21.496046148071 0.0
vertex 11.7 20.2649944485559 55.9
vertex 16.5462986797653 16.5462986797652 55.9
endloop
endfacet
facet normal 0.701627088488422 -0.701627088488422 0.124253198745629
outer loop
vertex 16.5462986797652 -16.5462986797653 55.9
vertex 15.2 -26.3271722750469 0.0
vertex 21.496046148071 -21.496046148071 0.0
endloop
endfacet
facet normal 0.496125272134337 -0.859314178255607 0.124253198745629
outer loop
vertex 15.2 -26.3271722750469 0.0
vertex 16.5462986797652 -16.5462986797653 55.9
vertex 11.7 -20.2649944485559 55.9
endloop
endfacet
facet normal 0.496125272134337 -0.859314178255607 0.124253198745629
outer loop
vertex 11.7 -20.2649944485559 55.9
vertex 7.86809897111663 -29.3641451191877 0.0
vertex 15.2 -26.3271722750469 0.0
endloop
endfacet
facet normal 0.256813338370074 -0.958440426858497 0.124253198745629
outer loop
vertex 7.86809897111663 -29.3641451191877 0.0
vertex 11.7 -20.2649944485559 55.9
vertex 6.05636565539899 -22.6026643351643 55.9
endloop
endfacet
facet normal 0.256813338370074 -0.958440426858497 0.124253198745629
outer loop
vertex 6.05636565539899 -22.6026643351643 55.9
vertex -1.86146313470398e-15 -30.4 0.0
vertex 7.86809897111663 -29.3641451191877 0.0
endloop
endfacet
facet normal -5.04162166527567e-16 -0.992250544268674 0.124253198745629
outer loop
vertex -1.86146313470398e-15 -30.4 0.0
vertex 6.05636565539899 -22.6026643351643 55.9
vertex -1.19848575508286e-14 -23.4000000000001 55.9
endloop
endfacet
facet normal -5.29132794962837e-16 -0.992250544268674 0.124253198745629
outer loop
vertex -1.19848575508286e-14 -23.4000000000001 55.9
vertex -7.86809897111664 -29.3641451191877 0.0
vertex -1.86146313470398e-15 -30.4 0.0
endloop
endfacet
facet normal -0.256813338370075 -0.958440426858496 0.124253198745629
outer loop
vertex -7.86809897111664 -29.3641451191877 0.0
vertex -1.19848575508286e-14 -23.4000000000001 55.9
vertex -6.05636565539906 -22.6026643351642 55.9
endloop
endfacet
facet normal -0.256813338370075 -0.958440426858496 0.124253198745629
outer loop
vertex -6.05636565539906 -22.6026643351642 55.9
vertex -15.2 -26.3271722750469 0.0
vertex -7.86809897111664 -29.3641451191877 0.0
endloop
endfacet
facet normal -0.496125272134338 -0.859314178255607 0.124253198745629
outer loop
vertex -15.2 -26.3271722750469 0.0
vertex -6.05636565539906 -22.6026643351642 55.9
vertex -11.7000000000001 -20.2649944485559 55.9
endloop
endfacet
facet normal 0.958440426858497 0.256813338370074 0.124253198745629
outer loop
vertex 29.3641451191877 7.86809897111662 0.0
vertex 20.2649944485559 11.7 55.9
vertex 22.6026643351643 6.05636565539898 55.9
endloop
endfacet
facet normal 0.859314178255608 0.496125272134337 0.124253198745629
outer loop
vertex 20.2649944485559 11.7 55.9
vertex 29.3641451191877 7.86809897111662 0.0
vertex 26.3271722750469 15.2 0.0
endloop
endfacet
facet normal 0.992250544268674 -5.13165062358416e-16 0.124253198745629
outer loop
vertex 30.4 -3.72292626940795e-15 0.0
vertex 22.6026643351643 6.05636565539898 55.9
vertex 23.4000000000001 -2.04447569984723e-14 55.9
endloop
endfacet
facet normal 0.958440426858497 0.256813338370074 0.124253198745629
outer loop
vertex 22.6026643351643 6.05636565539898 55.9
vertex 30.4 -3.72292626940795e-15 0.0
vertex 29.3641451191877 7.86809897111662 0.0
endloop
endfacet
facet normal -0.859314178255607 0.496125272134337 0.124253198745629
outer loop
vertex -20.2649944485559 11.7 55.9
vertex -29.3641451191877 7.86809897111665 0.0
vertex -22.6026643351642 6.05636565539901 55.9
endloop
endfacet
facet normal -0.958440426858496 0.256813338370075 0.124253198745629
outer loop
vertex -29.3641451191877 7.86809897111665 0.0
vertex -20.2649944485559 11.7 55.9
vertex -26.3271722750469 15.2 0.0
endloop
endfacet
facet normal -0.701627088488421 0.701627088488422 0.124253198745629
outer loop
vertex -16.5462986797652 16.5462986797653 55.9
vertex -26.3271722750469 15.2 0.0
vertex -20.2649944485559 11.7 55.9
endloop
endfacet
facet normal -0.859314178255607 0.496125272134337 0.124253198745629
outer loop
vertex -26.3271722750469 15.2 0.0
vertex -16.5462986797652 16.5462986797653 55.9
vertex -21.496046148071 21.4960461480711 0.0
endloop
endfacet
facet normal -0.859314178255607 -0.496125272134337 0.124253198745629
outer loop
vertex -20.2649944485559 -11.7 55.9
vertex -29.3641451191877 -7.86809897111663 0.0
vertex -26.3271722750469 -15.2 0.0
endloop
endfacet
facet normal -0.958440426858497 -0.256813338370074 0.124253198745629
outer loop
vertex -29.3641451191877 -7.86809897111663 0.0
vertex -20.2649944485559 -11.7 55.9
vertex -22.6026643351643 -6.05636565539897 55.9
endloop
endfacet
facet normal -0.958440426858497 -0.256813338370074 0.124253198745629
outer loop
vertex -22.6026643351643 -6.05636565539897 55.9
vertex -30.4 0.0 0.0
vertex -29.3641451191877 -7.86809897111663 0.0
endloop
endfacet
facet normal -0.992250544268674 5.85188229005211e-16 0.124253198745629
outer loop
vertex -30.4 0.0 0.0
vertex -22.6026643351643 -6.05636565539897 55.9
vertex -23.4000000000001 2.25597318603832e-14 55.9
endloop
endfacet
facet normal -0.992250544268674 6.70234873619594e-16 0.124253198745629
outer loop
vertex -23.4000000000001 2.25597318603832e-14 55.9
vertex -29.3641451191877 7.86809897111665 0.0
vertex -30.4 0.0 0.0
endloop
endfacet
facet normal -0.958440426858496 0.256813338370075 0.124253198745629
outer loop
vertex -29.3641451191877 7.86809897111665 0.0
vertex -23.4000000000001 2.25597318603832e-14 55.9
vertex -22.6026643351642 6.05636565539901 55.9
endloop
endfacet
facet normal 0.992250544268674 -5.13165062358416e-16 0.124253198745629
outer loop
vertex 30.4 -3.72292626940795e-15 0.0
vertex 22.6026643351642 -6.05636565539902 55.9
vertex 29.3641451191877 -7.86809897111664 0.0
endloop
endfacet
facet normal 0.958440426858496 -0.256813338370075 0.124253198745629
outer loop
vertex 22.6026643351642 -6.05636565539902 55.9
vertex 30.4 -3.72292626940795e-15 0.0
vertex 23.4000000000001 -2.04447569984723e-14 55.9
endloop
endfacet
facet normal 0.958440426858496 -0.256813338370075 0.124253198745629
outer loop
vertex 29.3641451191877 -7.86809897111664 0.0
vertex 20.2649944485559 -11.7 55.9
vertex 26.3271722750469 -15.2 0.0
endloop
endfacet
facet normal 0.859314178255607 -0.496125272134337 0.124253198745629
outer loop
vertex 20.2649944485559 -11.7 55.9
vertex 29.3641451191877 -7.86809897111664 0.0
vertex 22.6026643351642 -6.05636565539902 55.9
endloop
endfacet
facet normal 0.859314178255607 0.496125272134336 0.124253198745629
outer loop
vertex 26.3271722750469 15.2 0.0
vertex 16.5462986797653 16.5462986797652 55.9
vertex 20.2649944485559 11.7 55.9
endloop
endfacet
facet normal 0.701627088488422 0.701627088488421 0.124253198745629
outer loop
vertex 16.5462986797653 16.5462986797652 55.9
vertex 26.3271722750469 15.2 0.0
vertex 21.4960461480711 21.496046148071 0.0
endloop
endfacet
facet normal 8.82264249130644e-32 -2.0759158803074e-32 1.0
outer loop
vertex -21.8299236741329 -5.84931041931695 69.5
vertex -21.8299236741329 5.849310419317 69.5
vertex -22.6 2.39697151016571e-14 69.5
endloop
endfacet
facet normal 8.82264249130644e-32 -2.0759158803074e-32 1.0
outer loop
vertex -21.8299236741329 5.849310419317 69.5
vertex -21.8299236741329 -5.84931041931695 69.5
vertex -19.5721741255283 -11.3 69.5
endloop
endfacet
facet normal 8.82264249130644e-32 -2.0759158803074e-32 1.0
outer loop
vertex -21.8299236741329 5.849310419317 69.5
vertex -19.5721741255283 -11.3 69.5
vertex -19.5721741255283 11.3 69.5
endloop
endfacet
facet normal 8.82264249130644e-32 -2.0759158803074e-32 1.0
outer loop
vertex -19.5721741255283 11.3 69.5
vertex -19.5721741255283 -11.3 69.5
vertex -15.980613254816 -15.980613254816 69.5
endloop
endfacet
facet normal 8.82264249130644e-32 -2.0759158803074e-32 1.0
outer loop
vertex -19.5721741255283 11.3 69.5
vertex -15.980613254816 -15.980613254816 69.5
vertex -15.9806132548159 15.980613254816 69.5
endloop
endfacet
facet normal 8.82264249130644e-32 -2.0759158803074e-32 1.0
outer loop
vertex -15.9806132548159 15.980613254816 69.5
vertex -15.980613254816 -15.980613254816 69.5
vertex -11.3 -19.5721741255283 69.5
endloop
endfacet
facet normal 8.82264249130644e-32 -2.0759158803074e-32 1.0
outer loop
vertex -15.9806132548159 15.980613254816 69.5
vertex -11.3 -19.5721741255283 69.5
vertex -11.3 19.5721741255283 69.5
endloop
endfacet
facet normal 8.82264249130644e-32 -2.0759158803074e-32 1.0
outer loop
vertex -11.3 19.5721741255283 69.5
vertex -11.3 -19.5721741255283 69.5
vertex -10.4 2.21992045780793e-14 69.5
endloop
endfacet
facet normal 8.82264249130644e-32 -2.0759158803074e-32 1.0
outer loop
vertex -10.4 2.21992045780793e-14 69.5
vertex -11.3 -19.5721741255283 69.5
vertex -10.0456285934063 -2.6917180690662 69.5
endloop
endfacet
facet normal 8.82264249130644e-32 -2.0759158803074e-32 1.0
outer loop
vertex -10.0456285934063 -2.6917180690662 69.5
vertex -11.3 -19.5721741255283 69.5
vertex -5.84931041931696 -21.8299236741329 69.5
endloop
endfacet
facet normal 8.82264249130644e-32 -2.0759158803074e-32 1.0
outer loop
vertex -10.0456285934063 -2.6917180690662 69.5
vertex -5.84931041931696 -21.8299236741329 69.5
vertex -9.00666419935815 -5.19999999999998 69.5
endloop
endfacet
facet normal 8.82264249130644e-32 -2.0759158803074e-32 1.0
outer loop
vertex -9.00666419935815 -5.19999999999998 69.5
vertex -5.84931041931696 -21.8299236741329 69.5
vertex -7.35391052434009 -7.35391052434008 69.5
endloop
endfacet
facet normal 8.82264249130644e-32 -2.0759158803074e-32 1.0
outer loop
vertex -7.35391052434009 -7.35391052434008 69.5
vertex -5.84931041931696 -21.8299236741329 69.5
vertex -5.19999999999999 -9.00666419935815 69.5
endloop
endfacet
facet normal 8.82264249130644e-32 -2.0759158803074e-32 1.0
outer loop
vertex -5.19999999999999 -9.00666419935815 69.5
vertex -5.84931041931696 -21.8299236741329 69.5
vertex 1.97397653778353e-14 -22.6 69.5
endloop
endfacet
facet normal 8.82264249130644e-32 -2.0759158803074e-32 1.0
outer loop
vertex -5.19999999999999 -9.00666419935815 69.5
vertex 1.97397653778353e-14 -22.6 69.5
vertex -2.69171806906621 -10.0456285934063 69.5
endloop
endfacet
facet normal 8.82264249130644e-32 -2.0759158803074e-32 1.0
outer loop
vertex -2.69171806906621 -10.0456285934063 69.5
vertex 1.97397653778353e-14 -22.6 69.5
vertex 2.67690419225021e-15 -10.4 69.5
endloop
endfacet
facet normal 8.82264249130644e-32 -2.0759158803074e-32 1.0
outer loop
vertex 2.67690419225021e-15 -10.4 69.5
vertex 1.97397653778353e-14 -22.6 69.5
vertex 2.69171806906622 -10.0456285934063 69.5
endloop
endfacet
facet normal 8.82264249130644e-32 -2.0759158803074e-32 1.0
outer loop
vertex 2.69171806906622 -10.0456285934063 69.5
vertex 1.97397653778353e-14 -22.6 69.5
vertex 5.84931041931698 -21.829923674133 69.5
endloop
endfacet
facet normal 8.82264249130644e-32 -2.0759158803074e-32 1.0
outer loop
vertex 2.69171806906622 -10.0456285934063 69.5
vertex 5.84931041931698 -21.829923674133 69.5
vertex 5.20000000000001 -9.00666419935817 69.5
endloop
endfacet
facet normal 8.82264249130644e-32 -2.0759158803074e-32 1.0
outer loop
vertex 5.20000000000001 -9.00666419935817 69.5
vertex 5.84931041931698 -21.829923674133 69.5
vertex 7.3539105243401 -7.35391052434011 69.5
endloop
endfacet
facet normal 8.82264249130644e-32 -2.0759158803074e-32 1.0
outer loop
vertex 7.3539105243401 -7.35391052434011 69.5
vertex 5.84931041931698 -21.829923674133 69.5
vertex 11.3 -19.5721741255283 69.5
endloop
endfacet
facet normal 8.82264249130644e-32 -2.0759158803074e-32 1.0
outer loop
vertex 7.3539105243401 -7.35391052434011 69.5
vertex 11.3 -19.5721741255283 69.5
vertex 9.00666419935818 -5.20000000000002 69.5
endloop
endfacet
facet normal 8.82264249130644e-32 -2.0759158803074e-32 1.0
outer loop
vertex 9.00666419935818 -5.20000000000002 69.5
vertex 11.3 -19.5721741255283 69.5
vertex 10.0456285934063 -2.69171806906624 69.5
endloop
endfacet
facet normal 8.82264249130644e-32 -2.0759158803074e-32 1.0
outer loop
vertex 10.0456285934063 -2.69171806906624 69.5
vertex 11.3 -19.5721741255283 69.5
vertex 10.4 -2.24272480365844e-14 69.5
endloop
endfacet
facet normal 8.82264249130644e-32 -2.0759158803074e-32 1.0
outer loop
vertex -11.3 19.5721741255283 69.5
vertex -10.0456285934063 2.69171806906623 69.5
vertex -5.84931041931692 21.829923674133 69.5
endloop
endfacet
facet normal 8.82264249130644e-32 -2.0759158803074e-32 1.0
outer loop
vertex -10.0456285934063 2.69171806906623 69.5
vertex -11.3 19.5721741255283 69.5
vertex -10.4 2.21992045780793e-14 69.5
endloop
endfacet
facet normal 8.82264249130644e-32 -2.0759158803074e-32 1.0
outer loop
vertex -5.84931041931692 21.829923674133 69.5
vertex -10.0456285934063 2.69171806906623 69.5
vertex -9.00666419935813 5.20000000000002 69.5
endloop
endfacet
facet normal 8.82264249130644e-32 -2.0759158803074e-32 1.0
outer loop
vertex -5.84931041931692 21.829923674133 69.5
vertex -9.00666419935813 5.20000000000002 69.5
vertex -7.35391052434006 7.35391052434011 69.5
endloop
endfacet
facet normal 8.82264249130644e-32 -2.0759158803074e-32 1.0
outer loop
vertex -5.84931041931692 21.829923674133 69.5
vertex -7.35391052434006 7.35391052434011 69.5
vertex -5.19999999999996 9.00666419935817 69.5
endloop
endfacet
facet normal 8.82264249130644e-32 -2.0759158803074e-32 1.0
outer loop
vertex -5.84931041931692 21.829923674133 69.5
vertex -5.19999999999996 9.00666419935817 69.5
vertex 4.93494134445882e-14 22.6 69.5
endloop
endfacet
facet normal 8.82264249130644e-32 -2.0759158803074e-32 1.0
outer loop
vertex 4.93494134445882e-14 22.6 69.5
vertex -5.19999999999996 9.00666419935817 69.5
vertex -2.69171806906618 10.0456285934063 69.5
endloop
endfacet
facet normal 8.82264249130644e-32 -2.0759158803074e-32 1.0
outer loop
vertex 4.93494134445882e-14 22.6 69.5
vertex -2.69171806906618 10.0456285934063 69.5
vertex 4.60297241358006e-14 10.4 69.5
endloop
endfacet
facet normal 8.82264249130644e-32 -2.0759158803074e-32 1.0
outer loop
vertex 4.93494134445882e-14 22.6 69.5
vertex 4.60297241358006e-14 10.4 69.5
vertex 2.69171806906626 10.0456285934063 69.5
endloop
endfacet
facet normal 8.82264249130644e-32 -2.0759158803074e-32 1.0
outer loop
vertex 4.93494134445882e-14 22.6 69.5
vertex 2.69171806906626 10.0456285934063 69.5
vertex 5.84931041931702 21.8299236741329 69.5
endloop
endfacet
facet normal 8.82264249130644e-32 -2.0759158803074e-32 1.0
outer loop
vertex 5.84931041931702 21.8299236741329 69.5
vertex 2.69171806906626 10.0456285934063 69.5
vertex 5.20000000000004 9.00666419935815 69.5
endloop
endfacet
facet normal 8.82264249130644e-32 -2.0759158803074e-32 1.0
outer loop
vertex 5.84931041931702 21.8299236741329 69.5
vertex 5.20000000000004 9.00666419935815 69.5
vertex 7.35391052434014 7.35391052434008 69.5
endloop
endfacet
facet normal 8.82264249130644e-32 -2.0759158803074e-32 1.0
outer loop
vertex 5.84931041931702 21.8299236741329 69.5
vertex 7.35391052434014 7.35391052434008 69.5
vertex 11.3000000000001 19.5721741255283 69.5
endloop
endfacet
facet normal 8.82264249130644e-32 -2.0759158803074e-32 1.0
outer loop
vertex 11.3000000000001 19.5721741255283 69.5
vertex 7.35391052434014 7.35391052434008 69.5
vertex 9.00666419935819 5.19999999999999 69.5
endloop
endfacet
facet normal 8.82264249130644e-32 -2.0759158803074e-32 1.0
outer loop
vertex 11.3000000000001 19.5721741255283 69.5
vertex 9.00666419935819 5.19999999999999 69.5
vertex 10.0456285934063 2.6917180690662 69.5
endloop
endfacet
facet normal 8.82264249130644e-32 -2.0759158803074e-32 1.0
outer loop
vertex 11.3000000000001 19.5721741255283 69.5
vertex 10.0456285934063 2.6917180690662 69.5
vertex 10.4 -2.24272480365844e-14 69.5
endloop
endfacet
facet normal 8.82264249130644e-32 -2.0759158803074e-32 1.0
outer loop
vertex 11.3000000000001 19.5721741255283 69.5
vertex 10.4 -2.24272480365844e-14 69.5
vertex 11.3 -19.5721741255283 69.5
endloop
endfacet
facet normal 8.82264249130644e-32 -2.0759158803074e-32 1.0
outer loop
vertex 11.3000000000001 19.5721741255283 69.5
vertex 11.3 -19.5721741255283 69.5
vertex 15.980613254816 -15.980613254816 69.5
endloop
endfacet
facet normal 8.82264249130644e-32 -2.0759158803074e-32 1.0
outer loop
vertex 11.3000000000001 19.5721741255283 69.5
vertex 15.980613254816 -15.980613254816 69.5
vertex 15.980613254816 15.9806132548159 69.5
endloop
endfacet
facet normal 8.82264249130644e-32 -2.0759158803074e-32 1.0
outer loop
vertex 15.980613254816 15.9806132548159 69.5
vertex 15.980613254816 -15.980613254816 69.5
vertex 19.5721741255283 -11.3 69.5
endloop
endfacet
facet normal 8.82264249130644e-32 -2.0759158803074e-32 1.0
outer loop
vertex 15.980613254816 15.9806132548159 69.5
vertex 19.5721741255283 -11.3 69.5
vertex 19.5721741255284 11.2999999999999 69.5
endloop
endfacet
facet normal 8.82264249130644e-32 -2.0759158803074e-32 1.0
outer loop
vertex 19.5721741255284 11.2999999999999 69.5
vertex 19.5721741255283 -11.3 69.5
vertex 21.829923674133 -5.84931041931701 69.5
endloop
endfacet
facet normal 8.82264249130644e-32 -2.0759158803074e-32 1.0
outer loop
vertex 19.5721741255284 11.2999999999999 69.5
vertex 21.829923674133 -5.84931041931701 69.5
vertex 21.829923674133 5.84931041931692 69.5
endloop
endfacet
facet normal 8.82264249130644e-32 -2.0759158803074e-32 1.0
outer loop
vertex 21.829923674133 5.84931041931692 69.5
vertex 21.829923674133 -5.84931041931701 69.5
vertex 22.6 -4.93494134445882e-14 69.5
endloop
endfacet
facet normal 0.864530967116534 0.499137186587497 0.0587220219514723
outer loop
vertex 20.2649944485559 11.7 55.9
vertex 15.980613254816 15.9806132548159 69.5
vertex 19.5721741255284 11.2999999999999 69.5
endloop
endfacet
facet normal 0.705886578756791 0.705886578756788 0.0587220219514726
outer loop
vertex 15.980613254816 15.9806132548159 69.5
vertex 20.2649944485559 11.7 55.9
vertex 16.5462986797653 16.5462986797652 55.9
endloop
endfacet
facet normal -0.258372420015471 -0.964258998772259 0.0587220219514743
outer loop
vertex -5.84931041931696 -21.8299236741329 69.5
vertex -11.7000000000001 -20.2649944485559 55.9
vertex -6.05636565539906 -22.6026643351642 55.9
endloop
endfacet
facet normal -0.499137186587499 -0.864530967116532 0.0587220219514748
outer loop
vertex -11.7000000000001 -20.2649944485559 55.9
vertex -5.84931041931696 -21.8299236741329 69.5
vertex -11.3 -19.5721741255283 69.5
endloop
endfacet
facet normal -0.70588657875679 -0.705886578756789 0.0587220219514752
outer loop
vertex -15.980613254816 -15.980613254816 69.5
vertex -20.2649944485559 -11.7 55.9
vertex -16.5462986797653 -16.5462986797652 55.9
endloop
endfacet
facet normal -0.864530967116534 -0.499137186587497 0.0587220219514756
outer loop
vertex -20.2649944485559 -11.7 55.9
vertex -15.980613254816 -15.980613254816 69.5
vertex -19.5721741255283 -11.3 69.5
endloop
endfacet
facet normal -0.499137186587499 -0.864530967116533 0.0587220219514748
outer loop
vertex -11.3 -19.5721741255283 69.5
vertex -16.5462986797653 -16.5462986797652 55.9
vertex -11.7000000000001 -20.2649944485559 55.9
endloop
endfacet
facet normal -0.705886578756791 -0.705886578756788 0.0587220219514752
outer loop
vertex -16.5462986797653 -16.5462986797652 55.9
vertex -11.3 -19.5721741255283 69.5
vertex -15.980613254816 -15.980613254816 69.5
endloop
endfacet
facet normal -0.705886578756789 0.70588657875679 0.058722021951475
outer loop
vertex -15.9806132548159 15.980613254816 69.5
vertex -20.2649944485559 11.7 55.9
vertex -19.5721741255283 11.3 69.5
endloop
endfacet
facet normal -0.864530967116533 0.499137186587499 0.0587220219514754
outer loop
vertex -20.2649944485559 11.7 55.9
vertex -15.9806132548159 15.980613254816 69.5
vertex -16.5462986797652 16.5462986797653 55.9
endloop
endfacet
facet normal 0.96425899877226 0.258372420015469 0.0587220219514721
outer loop
vertex 22.6026643351643 6.05636565539898 55.9
vertex 19.5721741255284 11.2999999999999 69.5
vertex 21.829923674133 5.84931041931692 69.5
endloop
endfacet
facet normal 0.864530967116534 0.499137186587496 0.0587220219514723
outer loop
vertex 19.5721741255284 11.2999999999999 69.5
vertex 22.6026643351643 6.05636565539898 55.9
vertex 20.2649944485559 11.7 55.9
endloop
endfacet
facet normal 0.998274373174996 -1.25363596426809e-15 0.058722021951472
outer loop
vertex 23.4000000000001 -2.04447569984723e-14 55.9
vertex 21.829923674133 5.84931041931692 69.5
vertex 22.6 -4.93494134445882e-14 69.5
endloop
endfacet
facet normal 0.96425899877226 0.258372420015468 0.0587220219514721
outer loop
vertex 21.829923674133 5.84931041931692 69.5
vertex 23.4000000000001 -2.04447569984723e-14 55.9
vertex 22.6026643351643 6.05636565539898 55.9
endloop
endfacet
facet normal 0.998274373174996 -1.25363596426809e-15 0.058722021951472
outer loop
vertex 23.4000000000001 -2.04447569984723e-14 55.9
vertex 21.829923674133 -5.84931041931701 69.5
vertex 22.6026643351642 -6.05636565539902 55.9
endloop
endfacet
facet normal 0.964258998772259 -0.258372420015471 0.058722021951472
outer loop
vertex 21.829923674133 -5.84931041931701 69.5
vertex 23.4000000000001 -2.04447569984723e-14 55.9
vertex 22.6 -4.93494134445882e-14 69.5
endloop
endfacet
facet normal 8.77890223773291e-16 0.998274373174996 0.058722021951474
outer loop
vertex 4.93494134445882e-14 22.6 69.5
vertex 6.056365655399 22.6026643351642 55.9
vertex 0.0 23.4000000000001 55.9
endloop
endfacet
facet normal 0.25837242001547 0.96425899877226 0.0587220219514735
outer loop
vertex 6.056365655399 22.6026643351642 55.9
vertex 4.93494134445882e-14 22.6 69.5
vertex 5.84931041931702 21.8299236741329 69.5
endloop
endfacet
facet normal -0.96425899877226 -0.258372420015469 0.0587220219514758
outer loop
vertex -21.8299236741329 -5.84931041931695 69.5
vertex -23.4000000000001 2.25597318603832e-14 55.9
vertex -22.6026643351643 -6.05636565539897 55.9
endloop
endfacet
facet normal -0.998274373174996 7.87999748968517e-16 0.0587220219514758
outer loop
vertex -23.4000000000001 2.25597318603832e-14 55.9
vertex -21.8299236741329 -5.84931041931695 69.5
vertex -22.6 2.39697151016571e-14 69.5
endloop
endfacet
facet normal -4.52246478913513e-16 -0.998274373174996 0.0587220219514738
outer loop
vertex 1.97397653778353e-14 -22.6 69.5
vertex -6.05636565539906 -22.6026643351642 55.9
vertex -1.19848575508286e-14 -23.4000000000001 55.9
endloop
endfacet
facet normal -0.258372420015471 -0.964258998772259 0.0587220219514743
outer loop
vertex -6.05636565539906 -22.6026643351642 55.9
vertex 1.97397653778353e-14 -22.6 69.5
vertex -5.84931041931696 -21.8299236741329 69.5
endloop
endfacet
facet normal 0.499137186587497 -0.864530967116533 0.058722021951473
outer loop
vertex 11.3 -19.5721741255283 69.5
vertex 6.05636565539899 -22.6026643351643 55.9
vertex 11.7 -20.2649944485559 55.9
endloop
endfacet
facet normal 0.258372420015469 -0.96425899877226 0.0587220219514734
outer loop
vertex 6.05636565539899 -22.6026643351643 55.9
vertex 11.3 -19.5721741255283 69.5
vertex 5.84931041931698 -21.829923674133 69.5
endloop
endfacet
facet normal -0.499137186587497 0.864530967116533 0.0587220219514747
outer loop
vertex -11.3 19.5721741255283 69.5
vertex -6.056365655399 22.6026643351642 55.9
vertex -11.7 20.2649944485559 55.9
endloop
endfacet
facet normal -0.25837242001547 0.96425899877226 0.0587220219514744
outer loop
vertex -6.056365655399 22.6026643351642 55.9
vertex -11.3 19.5721741255283 69.5
vertex -5.84931041931692 21.829923674133 69.5
endloop
endfacet
facet normal -0.258372420015469 0.96425899877226 0.0587220219514744
outer loop
vertex -5.84931041931692 21.829923674133 69.5
vertex 0.0 23.4000000000001 55.9
vertex -6.056365655399 22.6026643351642 55.9
endloop
endfacet
facet normal 2.68636278057449e-16 0.998274373174996 0.058722021951474
outer loop
vertex 0.0 23.4000000000001 55.9
vertex -5.84931041931692 21.829923674133 69.5
vertex 4.93494134445882e-14 22.6 69.5
endloop
endfacet
facet normal -0.864530967116534 -0.499137186587497 0.0587220219514756
outer loop
vertex -19.5721741255283 -11.3 69.5
vertex -22.6026643351643 -6.05636565539897 55.9
vertex -20.2649944485559 -11.7 55.9
endloop
endfacet
facet normal -0.96425899877226 -0.258372420015469 0.0587220219514758
outer loop
vertex -22.6026643351643 -6.05636565539897 55.9
vertex -19.5721741255283 -11.3 69.5
vertex -21.8299236741329 -5.84931041931695 69.5
endloop
endfacet
facet normal -0.705886578756789 0.70588657875679 0.058722021951475
outer loop
vertex -15.9806132548159 15.980613254816 69.5
vertex -11.7 20.2649944485559 55.9
vertex -16.5462986797652 16.5462986797653 55.9
endloop
endfacet
facet normal -0.499137186587498 0.864530967116533 0.0587220219514747
outer loop
vertex -11.7 20.2649944485559 55.9
vertex -15.9806132548159 15.980613254816 69.5
vertex -11.3 19.5721741255283 69.5
endloop
endfacet
facet normal 0.258372420015469 -0.96425899877226 0.0587220219514734
outer loop
vertex 5.84931041931698 -21.829923674133 69.5
vertex -1.19848575508286e-14 -23.4000000000001 55.9
vertex 6.05636565539899 -22.6026643351643 55.9
endloop
endfacet
facet normal -8.32772461978092e-16 -0.998274373174996 0.0587220219514738
outer loop
vertex -1.19848575508286e-14 -23.4000000000001 55.9
vertex 5.84931041931698 -21.829923674133 69.5
vertex 1.97397653778353e-14 -22.6 69.5
endloop
endfacet
facet normal -0.864530967116532 0.499137186587499 0.0587220219514754
outer loop
vertex -19.5721741255283 11.3 69.5
vertex -22.6026643351642 6.05636565539901 55.9
vertex -21.8299236741329 5.849310419317 69.5
endloop
endfacet
facet normal -0.964258998772259 0.258372420015471 0.0587220219514756
outer loop
vertex -22.6026643351642 6.05636565539901 55.9
vertex -19.5721741255283 11.3 69.5
vertex -20.2649944485559 11.7 55.9
endloop
endfacet
facet normal 0.258372420015471 0.964258998772259 0.0587220219514735
outer loop
vertex 5.84931041931702 21.8299236741329 69.5
vertex 11.7 20.2649944485559 55.9
vertex 6.056365655399 22.6026643351642 55.9
endloop
endfacet
facet normal 0.499137186587498 0.864530967116533 0.058722021951473
outer loop
vertex 11.7 20.2649944485559 55.9
vertex 5.84931041931702 21.8299236741329 69.5
vertex 11.3000000000001 19.5721741255283 69.5
endloop
endfacet
facet normal 0.864530967116533 -0.499137186587499 0.0587220219514722
outer loop
vertex 20.2649944485559 -11.7 55.9
vertex 15.980613254816 -15.980613254816 69.5
vertex 16.5462986797652 -16.5462986797653 55.9
endloop
endfacet
facet normal 0.705886578756789 -0.70588657875679 0.0587220219514726
outer loop
vertex 15.980613254816 -15.980613254816 69.5
vertex 20.2649944485559 -11.7 55.9
vertex 19.5721741255283 -11.3 69.5
endloop
endfacet
facet normal 0.499137186587499 0.864530967116533 0.058722021951473
outer loop
vertex 11.3000000000001 19.5721741255283 69.5
vertex 16.5462986797653 16.5462986797652 55.9
vertex 11.7 20.2649944485559 55.9
endloop
endfacet
facet normal 0.70588657875679 0.705886578756789 0.0587220219514726
outer loop
vertex 16.5462986797653 16.5462986797652 55.9
vertex 11.3000000000001 19.5721741255283 69.5
vertex 15.980613254816 15.9806132548159 69.5
endloop
endfacet
facet normal -0.998274373174996 8.06949599629994e-16 0.0587220219514758
outer loop
vertex -22.6 2.39697151016571e-14 69.5
vertex -22.6026643351642 6.05636565539901 55.9
vertex -23.4000000000001 2.25597318603832e-14 55.9
endloop
endfacet
facet normal -0.964258998772259 0.258372420015471 0.0587220219514756
outer loop
vertex -22.6026643351642 6.05636565539901 55.9
vertex -22.6 2.39697151016571e-14 69.5
vertex -21.8299236741329 5.849310419317 69.5
endloop
endfacet
facet normal 0.705886578756789 -0.70588657875679 0.0587220219514726
outer loop
vertex 15.980613254816 -15.980613254816 69.5
vertex 11.7 -20.2649944485559 55.9
vertex 16.5462986797652 -16.5462986797653 55.9
endloop
endfacet
facet normal 0.499137186587497 -0.864530967116533 0.058722021951473
outer loop
vertex 11.7 -20.2649944485559 55.9
vertex 15.980613254816 -15.980613254816 69.5
vertex 11.3 -19.5721741255283 69.5
endloop
endfacet
facet normal 0.964258998772259 -0.258372420015471 0.058722021951472
outer loop
vertex 22.6026643351642 -6.05636565539902 55.9
vertex 19.5721741255283 -11.3 69.5
vertex 20.2649944485559 -11.7 55.9
endloop
endfacet
facet normal 0.864530967116533 -0.499137186587499 0.0587220219514722
outer loop
vertex 19.5721741255283 -11.3 69.5
vertex 22.6026643351642 -6.05636565539902 55.9
vertex 21.829923674133 -5.84931041931701 69.5
endloop
endfacet
facet normal -0.500000000000001 -0.866025403784438 1.53350401301734e-15
outer loop
vertex 5.20000000000004 9.00666419935815 69.5
vertex 2.69171806906623 10.0456285934063 55.9
vertex 5.20000000000001 9.00666419935815 55.9
endloop
endfacet
facet normal -0.258819045102522 -0.965925826289068 1.1104908331789e-15
outer loop
vertex 2.69171806906623 10.0456285934063 55.9
vertex 5.20000000000004 9.00666419935815 69.5
vertex 2.69171806906626 10.0456285934063 69.5
endloop
endfacet
facet normal -0.258819045102523 -0.965925826289068 1.1104908331789e-15
outer loop
vertex 2.69171806906626 10.0456285934063 69.5
vertex 2.16581928075457e-14 10.4 55.9
vertex 2.69171806906623 10.0456285934063 55.9
endloop
endfacet
facet normal -1.41686647340786e-15 -1.0 6.7494005291225e-16
outer loop
vertex 2.16581928075457e-14 10.4 55.9
vertex 2.69171806906626 10.0456285934063 69.5
vertex 4.60297241358006e-14 10.4 69.5
endloop
endfacet
facet normal -0.965925826289068 0.258819045102522 2.42394844784943e-15
outer loop
vertex 10.0456285934063 -2.69171806906624 69.5
vertex 9.00666419935816 -5.19999999999999 55.9
vertex 9.00666419935818 -5.20000000000002 69.5
endloop
endfacet
facet normal -0.866025403784438 0.500000000000001 2.21492833623002e-15
outer loop
vertex 9.00666419935816 -5.19999999999999 55.9
vertex 10.0456285934063 -2.69171806906624 69.5
vertex 10.0456285934063 -2.69171806906621 55.9
endloop
endfacet
facet normal -0.866025403784438 0.500000000000001 2.21492833623002e-15
outer loop
vertex 9.00666419935818 -5.20000000000002 69.5
vertex 7.35391052434009 -7.35391052434008 55.9
vertex 7.3539105243401 -7.35391052434011 69.5
endloop
endfacet
facet normal -0.707106781186547 0.707106781186548 1.93800427591488e-15
outer loop
vertex 7.35391052434009 -7.35391052434008 55.9
vertex 9.00666419935818 -5.20000000000002 69.5
vertex 9.00666419935816 -5.19999999999999 55.9
endloop
endfacet
facet normal -0.499999999999999 0.866025403784439 1.5374052916555e-15
outer loop
vertex 5.20000000000001 -9.00666419935817 69.5
vertex 7.35391052434009 -7.35391052434008 55.9
vertex 5.2 -9.00666419935815 55.9
endloop
endfacet
facet normal -0.707106781186547 0.707106781186548 1.93800427591488e-15
outer loop
vertex 7.35391052434009 -7.35391052434008 55.9
vertex 5.20000000000001 -9.00666419935817 69.5
vertex 7.3539105243401 -7.35391052434011 69.5
endloop
endfacet
facet normal -0.25881904510252 0.965925826289068 1.03445820607576e-15
outer loop
vertex 2.69171806906622 -10.0456285934063 69.5
vertex 5.2 -9.00666419935815 55.9
vertex 2.69171806906622 -10.0456285934063 55.9
endloop
endfacet
facet normal -0.499999999999999 0.866025403784439 1.5374052916555e-15
outer loop
vertex 5.2 -9.00666419935815 55.9
vertex 2.69171806906622 -10.0456285934063 69.5
vertex 5.20000000000001 -9.00666419935817 69.5
endloop
endfacet
facet normal 9.35666539042925e-16 1.0 6.00793203664047e-16
outer loop
vertex 2.67690419225021e-15 -10.4 69.5
vertex 2.69171806906622 -10.0456285934063 55.9
vertex 2.70807877577078e-15 -10.4 55.9
endloop
endfacet
facet normal -0.25881904510252 0.965925826289068 1.03445820607576e-15
outer loop
vertex 2.69171806906622 -10.0456285934063 55.9
vertex 2.67690419225021e-15 -10.4 69.5
vertex 2.69171806906622 -10.0456285934063 69.5
endloop
endfacet
facet normal 0.258819045102522 0.965925826289068 1.79318724471956e-16
outer loop
vertex -2.69171806906621 -10.0456285934063 69.5
vertex 2.70807877577078e-15 -10.4 55.9
vertex -2.69171806906621 -10.0456285934063 55.9
endloop
endfacet
facet normal 9.35666539042925e-16 1.0 6.00793203664047e-16
outer loop
vertex 2.70807877577078e-15 -10.4 55.9
vertex -2.69171806906621 -10.0456285934063 69.5
vertex 2.67690419225021e-15 -10.4 69.5
endloop
endfacet
facet normal 0.500000000000001 0.866025403784438 -2.77365512829397e-16
outer loop
vertex -5.19999999999999 -9.00666419935815 69.5
vertex -2.69171806906621 -10.0456285934063 55.9
vertex -5.2 -9.00666419935815 55.9
endloop
endfacet
facet normal 0.258819045102522 0.965925826289068 1.79318724471956e-16
outer loop
vertex -2.69171806906621 -10.0456285934063 55.9
vertex -5.19999999999999 -9.00666419935815 69.5
vertex -2.69171806906621 -10.0456285934063 69.5
endloop
endfacet
facet normal -0.707106781186549 -0.707106781186546 1.94707687285111e-15
outer loop
vertex 7.35391052434014 7.35391052434008 69.5
vertex 9.00666419935816 5.19999999999999 55.9
vertex 9.00666419935819 5.19999999999999 69.5
endloop
endfacet
facet normal -0.866025403784439 -0.499999999999999 2.28784668441586e-15
outer loop
vertex 9.00666419935816 5.19999999999999 55.9
vertex 7.35391052434014 7.35391052434008 69.5
vertex 7.3539105243401 7.35391052434008 55.9
endloop
endfacet
facet normal 0.707106781186548 0.707106781186547 -6.6076690573127e-16
outer loop
vertex -7.35391052434009 -7.35391052434008 69.5
vertex -5.2 -9.00666419935815 55.9
vertex -7.35391052434009 -7.35391052434009 55.9
endloop
endfacet
facet normal 0.500000000000001 0.866025403784438 -2.77365512829397e-16
outer loop
vertex -5.2 -9.00666419935815 55.9
vertex -7.35391052434009 -7.35391052434008 69.5
vertex -5.19999999999999 -9.00666419935815 69.5
endloop
endfacet
facet normal 0.866025403784439 0.499999999999999 -9.8419513300657e-16
outer loop
vertex -9.00666419935816 -5.19999999999999 55.9
vertex -7.35391052434009 -7.35391052434008 69.5
vertex -7.35391052434009 -7.35391052434009 55.9
endloop
endfacet
facet normal 0.707106781186548 0.707106781186547 -6.6076690573127e-16
outer loop
vertex -7.35391052434009 -7.35391052434008 69.5
vertex -9.00666419935816 -5.19999999999999 55.9
vertex -9.00666419935815 -5.19999999999998 69.5
endloop
endfacet
facet normal 0.965925826289069 0.25881904510252 -1.22280784223079e-15
outer loop
vertex -10.0456285934063 -2.69171806906621 55.9
vertex -9.00666419935815 -5.19999999999998 69.5
vertex -9.00666419935816 -5.19999999999999 55.9
endloop
endfacet
facet normal 0.866025403784439 0.499999999999999 -9.8419513300657e-16
outer loop
vertex -9.00666419935815 -5.19999999999998 69.5
vertex -10.0456285934063 -2.69171806906621 55.9
vertex -10.0456285934063 -2.6917180690662 69.5
endloop
endfacet
facet normal 1.0 -8.55466549982103e-16 -1.25993438295766e-15
outer loop
vertex -10.4 3.58289656233357e-15 55.9
vertex -10.0456285934063 -2.6917180690662 69.5
vertex -10.0456285934063 -2.69171806906621 55.9
endloop
endfacet
facet normal 0.965925826289069 0.25881904510252 -1.22280784223079e-15
outer loop
vertex -10.0456285934063 -2.6917180690662 69.5
vertex -10.4 3.58289656233357e-15 55.9
vertex -10.4 2.21992045780793e-14 69.5
endloop
endfacet
facet normal 0.965925826289068 -0.258819045102522 -1.16404730710042e-15
outer loop
vertex -10.0456285934063 2.69171806906622 55.9
vertex -10.4 2.21992045780793e-14 69.5
vertex -10.4 3.58289656233357e-15 55.9
endloop
endfacet
facet normal 1.0 -1.06933318747763e-15 -1.25993438295766e-15
outer loop
vertex -10.4 2.21992045780793e-14 69.5
vertex -10.0456285934063 2.69171806906622 55.9
vertex -10.0456285934063 2.69171806906623 69.5
endloop
endfacet
facet normal -0.707106781186549 -0.707106781186546 1.94707687285111e-15
outer loop
vertex 7.35391052434014 7.35391052434008 69.5
vertex 5.20000000000001 9.00666419935815 55.9
vertex 7.3539105243401 7.35391052434008 55.9
endloop
endfacet
facet normal -0.500000000000001 -0.866025403784438 1.53350401301734e-15
outer loop
vertex 5.20000000000001 9.00666419935815 55.9
vertex 7.35391052434014 7.35391052434008 69.5
vertex 5.20000000000004 9.00666419935815 69.5
endloop
endfacet
facet normal 0.866025403784438 -0.500000000000001 -9.8705402242212e-16
outer loop
vertex -9.00666419935815 5.2 55.9
vertex -10.0456285934063 2.69171806906623 69.5
vertex -10.0456285934063 2.69171806906622 55.9
endloop
endfacet
facet normal 0.965925826289068 -0.258819045102522 -1.16404730710042e-15
outer loop
vertex -10.0456285934063 2.69171806906623 69.5
vertex -9.00666419935815 5.2 55.9
vertex -9.00666419935813 5.20000000000002 69.5
endloop
endfacet
facet normal -0.965925826289069 -0.25881904510252 2.43121754941102e-15
outer loop
vertex 10.0456285934063 2.6917180690662 69.5
vertex 10.4 -2.54726534222649e-15 55.9
vertex 10.4 -2.24272480365844e-14 69.5
endloop
endfacet
facet normal -1.0 9.98044308312453e-16 2.48123170496172e-15
outer loop
vertex 10.4 -2.54726534222649e-15 55.9
vertex 10.0456285934063 2.6917180690662 69.5
vertex 10.0456285934063 2.69171806906621 55.9
endloop
endfacet
facet normal 0.707106781186547 -0.707106781186548 -6.84916608540923e-16
outer loop
vertex -7.35391052434009 7.35391052434009 55.9
vertex -9.00666419935813 5.20000000000002 69.5
vertex -9.00666419935815 5.2 55.9
endloop
endfacet
facet normal 0.866025403784438 -0.500000000000001 -9.8705402242212e-16
outer loop
vertex -9.00666419935813 5.20000000000002 69.5
vertex -7.35391052434009 7.35391052434009 55.9
vertex -7.35391052434006 7.35391052434011 69.5
endloop
endfacet
facet normal -0.866025403784439 -0.499999999999999 2.28784668441586e-15
outer loop
vertex 9.00666419935819 5.19999999999999 69.5
vertex 10.0456285934063 2.69171806906621 55.9
vertex 10.0456285934063 2.6917180690662 69.5
endloop
endfacet
facet normal -0.965925826289069 -0.25881904510252 2.43121754941102e-15
outer loop
vertex 10.0456285934063 2.69171806906621 55.9
vertex 9.00666419935819 5.19999999999999 69.5
vertex 9.00666419935816 5.19999999999999 55.9
endloop
endfacet
facet normal 0.499999999999999 -0.866025403784439 -2.71140577145753e-16
outer loop
vertex -5.19999999999996 9.00666419935817 69.5
vertex -7.35391052434009 7.35391052434009 55.9
vertex -5.19999999999999 9.00666419935815 55.9
endloop
endfacet
facet normal 0.707106781186547 -0.707106781186548 -6.84916608540923e-16
outer loop
vertex -7.35391052434009 7.35391052434009 55.9
vertex -5.19999999999996 9.00666419935817 69.5
vertex -7.35391052434006 7.35391052434011 69.5
endloop
endfacet
facet normal 0.258819045102519 -0.965925826289069 2.18983412345587e-16
outer loop
vertex -2.69171806906618 10.0456285934063 69.5
vertex -5.19999999999999 9.00666419935815 55.9
vertex -2.69171806906621 10.0456285934063 55.9
endloop
endfacet
facet normal 0.5 -0.866025403784439 -2.71140577145754e-16
outer loop
vertex -5.19999999999999 9.00666419935815 55.9
vertex -2.69171806906618 10.0456285934063 69.5
vertex -5.19999999999996 9.00666419935817 69.5
endloop
endfacet
facet normal -1.0 1.23864427549492e-15 2.48123170496172e-15
outer loop
vertex 10.4 -2.24272480365844e-14 69.5
vertex 10.0456285934063 -2.69171806906621 55.9
vertex 10.0456285934063 -2.69171806906624 69.5
endloop
endfacet
facet normal -0.965925826289068 0.258819045102522 2.42394844784943e-15
outer loop
vertex 10.0456285934063 -2.69171806906621 55.9
vertex 10.4 -2.24272480365844e-14 69.5
vertex 10.4 -2.54726534222649e-15 55.9
endloop
endfacet
facet normal -1.71984420985985e-15 -1.0 6.74940052912251e-16
outer loop
vertex 4.60297241358006e-14 10.4 69.5
vertex -2.69171806906621 10.0456285934063 55.9
vertex 2.16581928075457e-14 10.4 55.9
endloop
endfacet
facet normal 0.25881904510252 -0.965925826289069 2.18983412345586e-16
outer loop
vertex -2.69171806906621 10.0456285934063 55.9
vertex 4.60297241358006e-14 10.4 69.5
vertex -2.69171806906618 10.0456285934063 69.5
endloop
endfacet
facet normal 2.75936898771234e-31 5.47032799318412e-31 -1.0
outer loop
vertex -11.7 20.2649944485559 55.9
vertex -10.0456285934063 2.69171806906622 55.9
vertex -10.4 3.58289656233357e-15 55.9
endloop
endfacet
facet normal 2.75936898771234e-31 5.47032799318412e-31 -1.0
outer loop
vertex -10.0456285934063 2.69171806906622 55.9
vertex -11.7 20.2649944485559 55.9
vertex -6.056365655399 22.6026643351642 55.9
endloop
endfacet
facet normal 2.75936898771234e-31 5.47032799318412e-31 -1.0
outer loop
vertex -10.0456285934063 2.69171806906622 55.9
vertex -6.056365655399 22.6026643351642 55.9
vertex -9.00666419935815 5.2 55.9
endloop
endfacet
facet normal 2.75936898771234e-31 5.47032799318412e-31 -1.0
outer loop
vertex -9.00666419935815 5.2 55.9
vertex -6.056365655399 22.6026643351642 55.9
vertex -7.35391052434009 7.35391052434009 55.9
endloop
endfacet
facet normal 2.75936898771234e-31 5.47032799318412e-31 -1.0
outer loop
vertex -7.35391052434009 7.35391052434009 55.9
vertex -6.056365655399 22.6026643351642 55.9
vertex -5.19999999999999 9.00666419935815 55.9
endloop
endfacet
facet normal 2.75936898771234e-31 5.47032799318412e-31 -1.0
outer loop
vertex -5.19999999999999 9.00666419935815 55.9
vertex -6.056365655399 22.6026643351642 55.9
vertex 0.0 23.4000000000001 55.9
endloop
endfacet
facet normal 2.75936898771234e-31 5.47032799318412e-31 -1.0
outer loop
vertex -5.19999999999999 9.00666419935815 55.9
vertex 0.0 23.4000000000001 55.9
vertex -2.69171806906621 10.0456285934063 55.9
endloop
endfacet
facet normal 2.75936898771234e-31 5.47032799318412e-31 -1.0
outer loop
vertex -2.69171806906621 10.0456285934063 55.9
vertex 0.0 23.4000000000001 55.9
vertex 2.16581928075457e-14 10.4 55.9
endloop
endfacet
facet normal 2.75936898771234e-31 5.47032799318412e-31 -1.0
outer loop
vertex 2.16581928075457e-14 10.4 55.9
vertex 0.0 23.4000000000001 55.9
vertex 6.056365655399 22.6026643351642 55.9
endloop
endfacet
facet normal 2.75936898771234e-31 5.47032799318412e-31 -1.0
outer loop
vertex 2.16581928075457e-14 10.4 55.9
vertex 6.056365655399 22.6026643351642 55.9
vertex 2.69171806906623 10.0456285934063 55.9
endloop
endfacet
facet normal 2.75936898771234e-31 5.47032799318412e-31 -1.0
outer loop
vertex 2.69171806906623 10.0456285934063 55.9
vertex 6.056365655399 22.6026643351642 55.9
vertex 5.20000000000001 9.00666419935815 55.9
endloop
endfacet
facet normal 2.75936898771234e-31 5.47032799318412e-31 -1.0
outer loop
vertex 5.20000000000001 9.00666419935815 55.9
vertex 6.056365655399 22.6026643351642 55.9
vertex 7.3539105243401 7.35391052434008 55.9
endloop
endfacet
facet normal 2.75936898771234e-31 5.47032799318412e-31 -1.0
outer loop
vertex 7.3539105243401 7.35391052434008 55.9
vertex 6.056365655399 22.6026643351642 55.9
vertex 11.7 20.2649944485559 55.9
endloop
endfacet
facet normal 2.75936898771234e-31 5.47032799318412e-31 -1.0
outer loop
vertex 7.3539105243401 7.35391052434008 55.9
vertex 11.7 20.2649944485559 55.9
vertex 9.00666419935816 5.19999999999999 55.9
endloop
endfacet
facet normal 2.75936898771234e-31 5.47032799318412e-31 -1.0
outer loop
vertex 9.00666419935816 5.19999999999999 55.9
vertex 11.7 20.2649944485559 55.9
vertex 10.0456285934063 2.69171806906621 55.9
endloop
endfacet
facet normal 2.75936898771234e-31 5.47032799318412e-31 -1.0
outer loop
vertex 10.0456285934063 2.69171806906621 55.9
vertex 11.7 20.2649944485559 55.9
vertex 10.4 -2.54726534222649e-15 55.9
endloop
endfacet
facet normal 2.75936898771234e-31 5.47032799318412e-31 -1.0
outer loop
vertex 10.4 -2.54726534222649e-15 55.9
vertex 11.7 20.2649944485559 55.9
vertex 11.7 -20.2649944485559 55.9
endloop
endfacet
facet normal 2.75936898771234e-31 5.47032799318412e-31 -1.0
outer loop
vertex 11.7 -20.2649944485559 55.9
vertex 11.7 20.2649944485559 55.9
vertex 16.5462986797652 -16.5462986797653 55.9
endloop
endfacet
facet normal 2.75936898771234e-31 5.47032799318412e-31 -1.0
outer loop
vertex 16.5462986797652 -16.5462986797653 55.9
vertex 11.7 20.2649944485559 55.9
vertex 16.5462986797653 16.5462986797652 55.9
endloop
endfacet
facet normal 2.75936898771234e-31 5.47032799318412e-31 -1.0
outer loop
vertex 16.5462986797652 -16.5462986797653 55.9
vertex 16.5462986797653 16.5462986797652 55.9
vertex 20.2649944485559 -11.7 55.9
endloop
endfacet
facet normal 2.75936898771234e-31 5.47032799318412e-31 -1.0
outer loop
vertex 20.2649944485559 -11.7 55.9
vertex 16.5462986797653 16.5462986797652 55.9
vertex 20.2649944485559 11.7 55.9
endloop
endfacet
facet normal 2.75936898771234e-31 5.47032799318412e-31 -1.0
outer loop
vertex 20.2649944485559 -11.7 55.9
vertex 20.2649944485559 11.7 55.9
vertex 22.6026643351642 -6.05636565539902 55.9
endloop
endfacet
facet normal 2.75936898771234e-31 5.47032799318412e-31 -1.0
outer loop
vertex 22.6026643351642 -6.05636565539902 55.9
vertex 20.2649944485559 11.7 55.9
vertex 22.6026643351643 6.05636565539898 55.9
endloop
endfacet
facet normal 2.75936898771234e-31 5.47032799318412e-31 -1.0
outer loop
vertex 22.6026643351642 -6.05636565539902 55.9
vertex 22.6026643351643 6.05636565539898 55.9
vertex 23.4000000000001 -2.04447569984723e-14 55.9
endloop
endfacet
facet normal 2.75936898771234e-31 5.47032799318412e-31 -1.0
outer loop
vertex -22.6026643351642 6.05636565539901 55.9
vertex -22.6026643351643 -6.05636565539897 55.9
vertex -23.4000000000001 2.25597318603832e-14 55.9
endloop
endfacet
facet normal 2.75936898771234e-31 5.47032799318412e-31 -1.0
outer loop
vertex -22.6026643351643 -6.05636565539897 55.9
vertex -22.6026643351642 6.05636565539901 55.9
vertex -20.2649944485559 -11.7 55.9
endloop
endfacet
facet normal 2.75936898771234e-31 5.47032799318412e-31 -1.0
outer loop
vertex -20.2649944485559 -11.7 55.9
vertex -22.6026643351642 6.05636565539901 55.9
vertex -20.2649944485559 11.7 55.9
endloop
endfacet
facet normal 2.75936898771234e-31 5.47032799318412e-31 -1.0
outer loop
vertex -20.2649944485559 -11.7 55.9
vertex -20.2649944485559 11.7 55.9
vertex -16.5462986797653 -16.5462986797652 55.9
endloop
endfacet
facet normal 2.75936898771234e-31 5.47032799318412e-31 -1.0
outer loop
vertex -16.5462986797653 -16.5462986797652 55.9
vertex -20.2649944485559 11.7 55.9
vertex -16.5462986797652 16.5462986797653 55.9
endloop
endfacet
facet normal 2.75936898771234e-31 5.47032799318412e-31 -1.0
outer loop
vertex -16.5462986797653 -16.5462986797652 55.9
vertex -16.5462986797652 16.5462986797653 55.9
vertex -11.7000000000001 -20.2649944485559 55.9
endloop
endfacet
facet normal 2.75936898771234e-31 5.47032799318412e-31 -1.0
outer loop
vertex -11.7000000000001 -20.2649944485559 55.9
vertex -16.5462986797652 16.5462986797653 55.9
vertex -11.7 20.2649944485559 55.9
endloop
endfacet
facet normal 2.75936898771234e-31 5.47032799318412e-31 -1.0
outer loop
vertex -11.7000000000001 -20.2649944485559 55.9
vertex -11.7 20.2649944485559 55.9
vertex -10.4 3.58289656233357e-15 55.9
endloop
endfacet
facet normal 2.75936898771234e-31 5.47032799318412e-31 -1.0
outer loop
vertex -11.7000000000001 -20.2649944485559 55.9
vertex -10.4 3.58289656233357e-15 55.9
vertex -10.0456285934063 -2.69171806906621 55.9
endloop
endfacet
facet normal 2.75936898771234e-31 5.47032799318412e-31 -1.0
outer loop
vertex -11.7000000000001 -20.2649944485559 55.9
vertex -10.0456285934063 -2.69171806906621 55.9
vertex -6.05636565539906 -22.6026643351642 55.9
endloop
endfacet
facet normal 2.75936898771234e-31 5.47032799318412e-31 -1.0
outer loop
vertex -6.05636565539906 -22.6026643351642 55.9
vertex -10.0456285934063 -2.69171806906621 55.9
vertex -9.00666419935816 -5.19999999999999 55.9
endloop
endfacet
facet normal 2.75936898771234e-31 5.47032799318412e-31 -1.0
outer loop
vertex -6.05636565539906 -22.6026643351642 55.9
vertex -9.00666419935816 -5.19999999999999 55.9
vertex -7.35391052434009 -7.35391052434009 55.9
endloop
endfacet
facet normal 2.75936898771234e-31 5.47032799318412e-31 -1.0
outer loop
vertex -6.05636565539906 -22.6026643351642 55.9
vertex -7.35391052434009 -7.35391052434009 55.9
vertex -5.2 -9.00666419935815 55.9
endloop
endfacet
facet normal 2.75936898771234e-31 5.47032799318412e-31 -1.0
outer loop
vertex -6.05636565539906 -22.6026643351642 55.9
vertex -5.2 -9.00666419935815 55.9
vertex -1.19848575508286e-14 -23.4000000000001 55.9
endloop
endfacet
facet normal 2.75936898771234e-31 5.47032799318412e-31 -1.0
outer loop
vertex -1.19848575508286e-14 -23.4000000000001 55.9
vertex -5.2 -9.00666419935815 55.9
vertex -2.69171806906621 -10.0456285934063 55.9
endloop
endfacet
facet normal 2.75936898771234e-31 5.47032799318412e-31 -1.0
outer loop
vertex -1.19848575508286e-14 -23.4000000000001 55.9
vertex -2.69171806906621 -10.0456285934063 55.9
vertex 2.70807877577078e-15 -10.4 55.9
endloop
endfacet
facet normal 2.75936898771234e-31 5.47032799318412e-31 -1.0
outer loop
vertex -1.19848575508286e-14 -23.4000000000001 55.9
vertex 2.70807877577078e-15 -10.4 55.9
vertex 6.05636565539899 -22.6026643351643 55.9
endloop
endfacet
facet normal 2.75936898771234e-31 5.47032799318412e-31 -1.0
outer loop
vertex 6.05636565539899 -22.6026643351643 55.9
vertex 2.70807877577078e-15 -10.4 55.9
vertex 2.69171806906622 -10.0456285934063 55.9
endloop
endfacet
facet normal 2.75936898771234e-31 5.47032799318412e-31 -1.0
outer loop
vertex 6.05636565539899 -22.6026643351643 55.9
vertex 2.69171806906622 -10.0456285934063 55.9
vertex 5.2 -9.00666419935815 55.9
endloop
endfacet
facet normal 2.75936898771234e-31 5.47032799318412e-31 -1.0
outer loop
vertex 6.05636565539899 -22.6026643351643 55.9
vertex 5.2 -9.00666419935815 55.9
vertex 7.35391052434009 -7.35391052434008 55.9
endloop
endfacet
facet normal 2.75936898771234e-31 5.47032799318412e-31 -1.0
outer loop
vertex 6.05636565539899 -22.6026643351643 55.9
vertex 7.35391052434009 -7.35391052434008 55.9
vertex 11.7 -20.2649944485559 55.9
endloop
endfacet
facet normal 2.75936898771234e-31 5.47032799318412e-31 -1.0
outer loop
vertex 11.7 -20.2649944485559 55.9
vertex 7.35391052434009 -7.35391052434008 55.9
vertex 9.00666419935816 -5.19999999999999 55.9
endloop
endfacet
facet normal 2.75936898771234e-31 5.47032799318412e-31 -1.0
outer loop
vertex 11.7 -20.2649944485559 55.9
vertex 9.00666419935816 -5.19999999999999 55.9
vertex 10.0456285934063 -2.69171806906621 55.9
endloop
endfacet
facet normal 2.75936898771234e-31 5.47032799318412e-31 -1.0
outer loop
vertex 11.7 -20.2649944485559 55.9
vertex 10.0456285934063 -2.69171806906621 55.9
vertex 10.4 -2.54726534222649e-15 55.9
endloop
endfacet
facet normal -0.826049843963867 -0.476920099776588 -0.300314624546259
outer loop
vertex 9.00666419935816 5.19999999999999 55.9
vertex 27.0459231360939 7.24693326287058 0.0
vertex 10.0456285934063 2.69171806906621 55.9
endloop
endfacet
facet normal -0.92133888290113 -0.246872009628751 -0.300314624546259
outer loop
vertex 27.0459231360939 7.24693326287058 0.0
vertex 9.00666419935816 5.19999999999999 55.9
vertex 24.2487113059643 14.0 0.0
endloop
endfacet
facet normal -0.24687200962875 0.92133888290113 -0.300314624546259
outer loop
vertex 2.69171806906622 -10.0456285934063 55.9
vertex 14.0 -24.2487113059643 0.0
vertex 7.24693326287057 -27.0459231360939 0.0
endloop
endfacet
facet normal -0.476920099776586 0.826049843963868 -0.300314624546259
outer loop
vertex 14.0 -24.2487113059643 0.0
vertex 2.69171806906622 -10.0456285934063 55.9
vertex 5.2 -9.00666419935815 55.9
endloop
endfacet
facet normal 0.92133888290113 0.24687200962875 -0.300314624546259
outer loop
vertex -27.0459231360939 -7.24693326287057 0.0
vertex -9.00666419935816 -5.19999999999999 55.9
vertex -24.2487113059643 -14.0 0.0
endloop
endfacet
facet normal 0.826049843963868 0.476920099776586 -0.300314624546259
outer loop
vertex -9.00666419935816 -5.19999999999999 55.9
vertex -27.0459231360939 -7.24693326287057 0.0
vertex -10.0456285934063 -2.69171806906621 55.9
endloop
endfacet
facet normal 0.92133888290113 -0.246872009628751 -0.300314624546259
outer loop
vertex -27.0459231360939 7.24693326287059 0.0
vertex -10.4 3.58289656233357e-15 55.9
vertex -28.0 3.42901103761259e-15 0.0
endloop
endfacet
facet normal 0.953840199553174 -3.90933574214044e-16 -0.300314624546259
outer loop
vertex -10.4 3.58289656233357e-15 55.9
vertex -27.0459231360939 7.24693326287059 0.0
vertex -10.0456285934063 2.69171806906622 55.9
endloop
endfacet
facet normal -0.92133888290113 -0.246872009628751 -0.300314624546259
outer loop
vertex 10.0456285934063 2.69171806906621 55.9
vertex 28.0 0.0 0.0
vertex 10.4 -2.54726534222649e-15 55.9
endloop
endfacet
facet normal -0.953840199553174 1.55247605323249e-16 -0.300314624546259
outer loop
vertex 28.0 0.0 0.0
vertex 10.0456285934063 2.69171806906621 55.9
vertex 27.0459231360939 7.24693326287058 0.0
endloop
endfacet
facet normal -0.476920099776588 -0.826049843963867 -0.300314624546259
outer loop
vertex 5.20000000000001 9.00666419935815 55.9
vertex 7.24693326287059 27.0459231360939 0.0
vertex 14.0 24.2487113059643 0.0
endloop
endfacet
facet normal -0.246872009628751 -0.92133888290113 -0.300314624546259
outer loop
vertex 7.24693326287059 27.0459231360939 0.0
vertex 5.20000000000001 9.00666419935815 55.9
vertex 2.69171806906623 10.0456285934063 55.9
endloop
endfacet
facet normal -2.25872731768114e-16 -0.953840199553174 -0.300314624546259
outer loop
vertex 2.16581928075457e-14 10.4 55.9
vertex -7.24693326287058 27.0459231360939 0.0
vertex 1.71450551880629e-15 28.0 0.0
endloop
endfacet
facet normal 0.24687200962875 -0.92133888290113 -0.300314624546259
outer loop
vertex -7.24693326287058 27.0459231360939 0.0
vertex 2.16581928075457e-14 10.4 55.9
vertex -2.69171806906621 10.0456285934063 55.9
endloop
endfacet
facet normal 0.246872009628751 0.92133888290113 -0.300314624546259
outer loop
vertex -2.69171806906621 -10.0456285934063 55.9
vertex -5.14351655641888e-15 -28.0 0.0
vertex -7.2469332628706 -27.0459231360939 0.0
endloop
endfacet
facet normal 3.74420695191366e-16 0.953840199553174 -0.300314624546259
outer loop
vertex -5.14351655641888e-15 -28.0 0.0
vertex -2.69171806906621 -10.0456285934063 55.9
vertex 2.70807877577078e-15 -10.4 55.9
endloop
endfacet
facet normal 0.92133888290113 -0.246872009628751 -0.300314624546259
outer loop
vertex -27.0459231360939 7.24693326287059 0.0
vertex -9.00666419935815 5.2 55.9
vertex -10.0456285934063 2.69171806906622 55.9
endloop
endfacet
facet normal 0.826049843963868 -0.476920099776586 -0.300314624546259
outer loop
vertex -9.00666419935815 5.2 55.9
vertex -27.0459231360939 7.24693326287059 0.0
vertex -24.2487113059643 14.0 0.0
endloop
endfacet
facet normal -0.476920099776586 0.826049843963868 -0.300314624546259
outer loop
vertex 5.2 -9.00666419935815 55.9
vertex 19.7989898732233 -19.7989898732233 0.0
vertex 14.0 -24.2487113059643 0.0
endloop
endfacet
facet normal -0.674466873272379 0.674466873272379 -0.300314624546259
outer loop
vertex 19.7989898732233 -19.7989898732233 0.0
vertex 5.2 -9.00666419935815 55.9
vertex 7.35391052434009 -7.35391052434008 55.9
endloop
endfacet
facet normal 0.24687200962875 -0.92133888290113 -0.300314624546259
outer loop
vertex -2.69171806906621 10.0456285934063 55.9
vertex -14.0 24.2487113059643 0.0
vertex -7.24693326287058 27.0459231360939 0.0
endloop
endfacet
facet normal 0.476920099776586 -0.826049843963868 -0.300314624546259
outer loop
vertex -14.0 24.2487113059643 0.0
vertex -2.69171806906621 10.0456285934063 55.9
vertex -5.19999999999999 9.00666419935815 55.9
endloop
endfacet
facet normal 0.953840199553174 -3.83552907269204e-16 -0.300314624546259
outer loop
vertex -28.0 3.42901103761259e-15 0.0
vertex -10.0456285934063 -2.69171806906621 55.9
vertex -27.0459231360939 -7.24693326287057 0.0
endloop
endfacet
facet normal 0.92133888290113 0.24687200962875 -0.300314624546259
outer loop
vertex -10.0456285934063 -2.69171806906621 55.9
vertex -28.0 3.42901103761259e-15 0.0
vertex -10.4 3.58289656233357e-15 55.9
endloop
endfacet
facet normal 0.476920099776588 0.826049843963867 -0.300314624546259
outer loop
vertex -5.2 -9.00666419935815 55.9
vertex -7.2469332628706 -27.0459231360939 0.0
vertex -14.0 -24.2487113059643 0.0
endloop
endfacet
facet normal 0.246872009628751 0.92133888290113 -0.300314624546259
outer loop
vertex -7.2469332628706 -27.0459231360939 0.0
vertex -5.2 -9.00666419935815 55.9
vertex -2.69171806906621 -10.0456285934063 55.9
endloop
endfacet
facet normal 0.476920099776586 -0.826049843963868 -0.300314624546259
outer loop
vertex -5.19999999999999 9.00666419935815 55.9
vertex -19.7989898732233 19.7989898732233 0.0
vertex -14.0 24.2487113059643 0.0
endloop
endfacet
facet normal 0.67446687327238 -0.674466873272379 -0.300314624546259
outer loop
vertex -19.7989898732233 19.7989898732233 0.0
vertex -5.19999999999999 9.00666419935815 55.9
vertex -7.35391052434009 7.35391052434009 55.9
endloop
endfacet
facet normal 0.826049843963868 0.476920099776586 -0.300314624546259
outer loop
vertex -24.2487113059643 -14.0 0.0
vertex -7.35391052434009 -7.35391052434009 55.9
vertex -19.7989898732233 -19.7989898732233 0.0
endloop
endfacet
facet normal 0.67446687327238 0.674466873272379 -0.300314624546259
outer loop
vertex -7.35391052434009 -7.35391052434009 55.9
vertex -24.2487113059643 -14.0 0.0
vertex -9.00666419935816 -5.19999999999999 55.9
endloop
endfacet
facet normal 3.64871335933107e-16 0.953840199553174 -0.300314624546259
outer loop
vertex 2.70807877577078e-15 -10.4 55.9
vertex 7.24693326287057 -27.0459231360939 0.0
vertex -5.14351655641888e-15 -28.0 0.0
endloop
endfacet
facet normal -0.24687200962875 0.92133888290113 -0.300314624546259
outer loop
vertex 7.24693326287057 -27.0459231360939 0.0
vertex 2.70807877577078e-15 -10.4 55.9
vertex 2.69171806906622 -10.0456285934063 55.9
endloop
endfacet
facet normal -0.92133888290113 0.246872009628751 -0.300314624546259
outer loop
vertex 10.0456285934063 -2.69171806906621 55.9
vertex 28.0 0.0 0.0
vertex 27.0459231360939 -7.2469332628706 0.0
endloop
endfacet
facet normal -0.953840199553174 1.55247605323249e-16 -0.300314624546259
outer loop
vertex 28.0 0.0 0.0
vertex 10.0456285934063 -2.69171806906621 55.9
vertex 10.4 -2.54726534222649e-15 55.9
endloop
endfacet
facet normal 0.67446687327238 0.674466873272379 -0.300314624546259
outer loop
vertex -7.35391052434009 -7.35391052434009 55.9
vertex -14.0 -24.2487113059643 0.0
vertex -19.7989898732233 -19.7989898732233 0.0
endloop
endfacet
facet normal 0.476920099776588 0.826049843963867 -0.300314624546259
outer loop
vertex -14.0 -24.2487113059643 0.0
vertex -7.35391052434009 -7.35391052434009 55.9
vertex -5.2 -9.00666419935815 55.9
endloop
endfacet
facet normal -0.674466873272379 0.674466873272379 -0.300314624546259
outer loop
vertex 7.35391052434009 -7.35391052434008 55.9
vertex 24.2487113059643 -14.0 0.0
vertex 19.7989898732233 -19.7989898732233 0.0
endloop
endfacet
facet normal -0.826049843963867 0.476920099776587 -0.300314624546259
outer loop
vertex 24.2487113059643 -14.0 0.0
vertex 7.35391052434009 -7.35391052434008 55.9
vertex 9.00666419935816 -5.19999999999999 55.9
endloop
endfacet
facet normal -0.674466873272379 -0.674466873272379 -0.300314624546259
outer loop
vertex 7.3539105243401 7.35391052434008 55.9
vertex 14.0 24.2487113059643 0.0
vertex 19.7989898732233 19.7989898732233 0.0
endloop
endfacet
facet normal -0.476920099776588 -0.826049843963867 -0.300314624546259
outer loop
vertex 14.0 24.2487113059643 0.0
vertex 7.3539105243401 7.35391052434008 55.9
vertex 5.20000000000001 9.00666419935815 55.9
endloop
endfacet
facet normal 0.826049843963868 -0.476920099776586 -0.300314624546259
outer loop
vertex -24.2487113059643 14.0 0.0
vertex -7.35391052434009 7.35391052434009 55.9
vertex -9.00666419935815 5.2 55.9
endloop
endfacet
facet normal 0.67446687327238 -0.674466873272379 -0.300314624546259
outer loop
vertex -7.35391052434009 7.35391052434009 55.9
vertex -24.2487113059643 14.0 0.0
vertex -19.7989898732233 19.7989898732233 0.0
endloop
endfacet
facet normal -0.246872009628751 -0.92133888290113 -0.300314624546259
outer loop
vertex 2.69171806906623 10.0456285934063 55.9
vertex 1.71450551880629e-15 28.0 0.0
vertex 7.24693326287059 27.0459231360939 0.0
endloop
endfacet
facet normal -1.36983181167573e-16 -0.953840199553174 -0.300314624546259
outer loop
vertex 1.71450551880629e-15 28.0 0.0
vertex 2.69171806906623 10.0456285934063 55.9
vertex 2.16581928075457e-14 10.4 55.9
endloop
endfacet
facet normal -0.674466873272379 -0.674466873272379 -0.300314624546259
outer loop
vertex 7.3539105243401 7.35391052434008 55.9
vertex 24.2487113059643 14.0 0.0
vertex 9.00666419935816 5.19999999999999 55.9
endloop
endfacet
facet normal -0.826049843963867 -0.476920099776588 -0.300314624546259
outer loop
vertex 24.2487113059643 14.0 0.0
vertex 7.3539105243401 7.35391052434008 55.9
vertex 19.7989898732233 19.7989898732233 0.0
endloop
endfacet
facet normal -0.826049843963867 0.476920099776587 -0.300314624546259
outer loop
vertex 9.00666419935816 -5.19999999999999 55.9
vertex 27.0459231360939 -7.2469332628706 0.0
vertex 24.2487113059643 -14.0 0.0
endloop
endfacet
facet normal -0.92133888290113 0.246872009628751 -0.300314624546259
outer loop
vertex 27.0459231360939 -7.2469332628706 0.0
vertex 9.00666419935816 -5.19999999999999 55.9
vertex 10.0456285934063 -2.69171806906621 55.9
endloop
endfacet
endsolid ToolforBoardHousing_Final_Body_v3
