solid ToolforBoardHousing_Final_chip
facet normal -0.923879532511284 0.382683432365096 0.0
outer loop
vertex -21.1703708685546 -1.2940952255126 2.99999999999999
vertex -21.6698729810778 -2.5 0.0
vertex -21.6698729810778 -2.5 2.99999999999999
endloop
endfacet
facet normal -0.923879532511284 0.382683432365096 0.0
outer loop
vertex -21.6698729810778 -2.5 0.0
vertex -21.1703708685546 -1.2940952255126 2.99999999999999
vertex -21.1703708685546 -1.2940952255126 0.0
endloop
endfacet
facet normal -0.130526192220052 -0.99144486137381 0.0
outer loop
vertex -24.7059047744874 4.82962913144534 2.99999999999999
vertex -26.0 5.0 0.0
vertex -24.7059047744874 4.82962913144534 0.0
endloop
endfacet
facet normal -0.130526192220052 -0.99144486137381 0.0
outer loop
vertex -26.0 5.0 0.0
vertex -24.7059047744874 4.82962913144534 2.99999999999999
vertex -26.0 5.0 2.99999999999999
endloop
endfacet
facet normal 0.923879532511287 -0.382683432365089 -0.0
outer loop
vertex -30.3301270189222 2.5 0.0
vertex -30.8296291314453 1.2940952255126 2.99999999999999
vertex -30.8296291314453 1.2940952255126 0.0
endloop
endfacet
facet normal 0.923879532511287 -0.382683432365089 -0.0
outer loop
vertex -30.8296291314453 1.2940952255126 2.99999999999999
vertex -30.3301270189222 2.5 0.0
vertex -30.3301270189222 2.5 2.99999999999999
endloop
endfacet
facet normal 0.38268343236509 -0.923879532511287 0.0
outer loop
vertex -27.2940952255126 4.82962913144534 2.99999999999999
vertex -28.5 4.3301270189222 0.0
vertex -27.2940952255126 4.82962913144534 0.0
endloop
endfacet
facet normal 0.38268343236509 -0.923879532511287 0.0
outer loop
vertex -28.5 4.3301270189222 0.0
vertex -27.2940952255126 4.82962913144534 2.99999999999999
vertex -28.5 4.3301270189222 2.99999999999999
endloop
endfacet
facet normal -0.991444861373812 0.130526192220039 0.0
outer loop
vertex -21.0 -1.40998324127395e-015 2.99999999999999
vertex -21.1703708685546 -1.2940952255126 0.0
vertex -21.1703708685546 -1.2940952255126 2.99999999999999
endloop
endfacet
facet normal -0.991444861373812 0.130526192220039 0.0
outer loop
vertex -21.1703708685546 -1.2940952255126 0.0
vertex -21.0 -1.40998324127395e-015 2.99999999999999
vertex -21.0 -1.40998324127395e-015 0.0
endloop
endfacet
facet normal -0.0 -0.0 1.0
outer loop
vertex -43.1934797079454 -4.60697900282486 2.99999999999999
vertex -43.1934797079454 4.60697900282487 2.99999999999999
vertex -43.8 4.22994972382185e-015 2.99999999999999
endloop
endfacet
facet normal -0.0 -0.0 1.0
outer loop
vertex -43.1934797079454 4.60697900282487 2.99999999999999
vertex -43.1934797079454 -4.60697900282486 2.99999999999999
vertex -41.415252187363 -8.89999999999999 2.99999999999999
endloop
endfacet
facet normal -0.0 -0.0 1.0
outer loop
vertex -43.1934797079454 4.60697900282487 2.99999999999999
vertex -41.415252187363 -8.89999999999999 2.99999999999999
vertex -41.415252187363 8.90000000000001 2.99999999999999
endloop
endfacet
facet normal -0.0 -0.0 1.0
outer loop
vertex -41.415252187363 8.90000000000001 2.99999999999999
vertex -41.415252187363 -8.89999999999999 2.99999999999999
vertex -38.5865007051205 -12.5865007051205 2.99999999999999
endloop
endfacet
facet normal -0.0 -0.0 1.0
outer loop
vertex -41.415252187363 8.90000000000001 2.99999999999999
vertex -38.5865007051205 -12.5865007051205 2.99999999999999
vertex -38.5865007051205 12.5865007051205 2.99999999999999
endloop
endfacet
facet normal -0.0 -0.0 1.0
outer loop
vertex -38.5865007051205 12.5865007051205 2.99999999999999
vertex -38.5865007051205 -12.5865007051205 2.99999999999999
vertex -34.9 -15.415252187363 2.99999999999999
endloop
endfacet
facet normal -0.0 -0.0 1.0
outer loop
vertex -38.5865007051205 12.5865007051205 2.99999999999999
vertex -34.9 -15.415252187363 2.99999999999999
vertex -34.9 15.415252187363 2.99999999999999
endloop
endfacet
facet normal -0.0 -0.0 1.0
outer loop
vertex -34.9 15.415252187363 2.99999999999999
vertex -34.9 -15.415252187363 2.99999999999999
vertex -30.6069790028249 -17.1934797079454 2.99999999999999
endloop
endfacet
facet normal -0.0 -0.0 1.0
outer loop
vertex -34.9 15.415252187363 2.99999999999999
vertex -30.6069790028249 -17.1934797079454 2.99999999999999
vertex -31.0 1.40998324127395e-015 2.99999999999999
endloop
endfacet
facet normal -0.0 -0.0 1.0
outer loop
vertex -31.0 1.40998324127395e-015 2.99999999999999
vertex -30.6069790028249 -17.1934797079454 2.99999999999999
vertex -30.8296291314453 -1.2940952255126 2.99999999999999
endloop
endfacet
facet normal -0.0 -0.0 1.0
outer loop
vertex -30.8296291314453 -1.2940952255126 2.99999999999999
vertex -30.6069790028249 -17.1934797079454 2.99999999999999
vertex -30.3301270189222 -2.5 2.99999999999999
endloop
endfacet
facet normal -0.0 -0.0 1.0
outer loop
vertex -30.3301270189222 -2.5 2.99999999999999
vertex -30.6069790028249 -17.1934797079454 2.99999999999999
vertex -26.0 -17.8 2.99999999999999
endloop
endfacet
facet normal -0.0 -0.0 1.0
outer loop
vertex -30.3301270189222 -2.5 2.99999999999999
vertex -26.0 -17.8 2.99999999999999
vertex -29.5355339059327 -3.53553390593274 2.99999999999999
endloop
endfacet
facet normal -0.0 -0.0 1.0
outer loop
vertex -29.5355339059327 -3.53553390593274 2.99999999999999
vertex -26.0 -17.8 2.99999999999999
vertex -28.5 -4.33012701892219 2.99999999999999
endloop
endfacet
facet normal -0.0 -0.0 1.0
outer loop
vertex -28.5 -4.33012701892219 2.99999999999999
vertex -26.0 -17.8 2.99999999999999
vertex -27.2940952255126 -4.82962913144534 2.99999999999999
endloop
endfacet
facet normal -0.0 -0.0 1.0
outer loop
vertex -27.2940952255126 -4.82962913144534 2.99999999999999
vertex -26.0 -17.8 2.99999999999999
vertex -26.0 -5.0 2.99999999999999
endloop
endfacet
facet normal -0.0 -0.0 1.0
outer loop
vertex -26.0 -5.0 2.99999999999999
vertex -26.0 -17.8 2.99999999999999
vertex -21.3930209971751 -17.1934797079454 2.99999999999999
endloop
endfacet
facet normal -0.0 -0.0 1.0
outer loop
vertex -26.0 -5.0 2.99999999999999
vertex -21.3930209971751 -17.1934797079454 2.99999999999999
vertex -24.7059047744874 -4.82962913144534 2.99999999999999
endloop
endfacet
facet normal -0.0 -0.0 1.0
outer loop
vertex -24.7059047744874 -4.82962913144534 2.99999999999999
vertex -21.3930209971751 -17.1934797079454 2.99999999999999
vertex -23.5 -4.33012701892219 2.99999999999999
endloop
endfacet
facet normal -0.0 -0.0 1.0
outer loop
vertex -23.5 -4.33012701892219 2.99999999999999
vertex -21.3930209971751 -17.1934797079454 2.99999999999999
vertex -22.4644660940673 -3.53553390593274 2.99999999999999
endloop
endfacet
facet normal -0.0 -0.0 1.0
outer loop
vertex -22.4644660940673 -3.53553390593274 2.99999999999999
vertex -21.3930209971751 -17.1934797079454 2.99999999999999
vertex -21.6698729810778 -2.5 2.99999999999999
endloop
endfacet
facet normal -0.0 -0.0 1.0
outer loop
vertex -21.6698729810778 -2.5 2.99999999999999
vertex -21.3930209971751 -17.1934797079454 2.99999999999999
vertex -21.1703708685546 -1.2940952255126 2.99999999999999
endloop
endfacet
facet normal -0.0 -0.0 1.0
outer loop
vertex -21.1703708685546 -1.2940952255126 2.99999999999999
vertex -21.3930209971751 -17.1934797079454 2.99999999999999
vertex -17.1 -15.415252187363 2.99999999999999
endloop
endfacet
facet normal -0.0 -0.0 1.0
outer loop
vertex -21.1703708685546 -1.2940952255126 2.99999999999999
vertex -17.1 -15.415252187363 2.99999999999999
vertex -21.0 -1.40998324127395e-015 2.99999999999999
endloop
endfacet
facet normal -0.0 -0.0 1.0
outer loop
vertex -31.0 1.40998324127395e-015 2.99999999999999
vertex -30.6069790028248 17.1934797079454 2.99999999999999
vertex -34.9 15.415252187363 2.99999999999999
endloop
endfacet
facet normal -0.0 -0.0 1.0
outer loop
vertex -30.6069790028248 17.1934797079454 2.99999999999999
vertex -31.0 1.40998324127395e-015 2.99999999999999
vertex -30.8296291314453 1.2940952255126 2.99999999999999
endloop
endfacet
facet normal -0.0 -0.0 1.0
outer loop
vertex -30.6069790028248 17.1934797079454 2.99999999999999
vertex -30.8296291314453 1.2940952255126 2.99999999999999
vertex -30.3301270189222 2.5 2.99999999999999
endloop
endfacet
facet normal -0.0 -0.0 1.0
outer loop
vertex -30.6069790028248 17.1934797079454 2.99999999999999
vertex -30.3301270189222 2.5 2.99999999999999
vertex -26.0 17.8 2.99999999999999
endloop
endfacet
facet normal -0.0 -0.0 1.0
outer loop
vertex -26.0 17.8 2.99999999999999
vertex -30.3301270189222 2.5 2.99999999999999
vertex -29.5355339059327 3.53553390593274 2.99999999999999
endloop
endfacet
facet normal -0.0 -0.0 1.0
outer loop
vertex -26.0 17.8 2.99999999999999
vertex -29.5355339059327 3.53553390593274 2.99999999999999
vertex -28.5 4.3301270189222 2.99999999999999
endloop
endfacet
facet normal -0.0 -0.0 1.0
outer loop
vertex -26.0 17.8 2.99999999999999
vertex -28.5 4.3301270189222 2.99999999999999
vertex -27.2940952255126 4.82962913144534 2.99999999999999
endloop
endfacet
facet normal -0.0 -0.0 1.0
outer loop
vertex -26.0 17.8 2.99999999999999
vertex -27.2940952255126 4.82962913144534 2.99999999999999
vertex -26.0 5.0 2.99999999999999
endloop
endfacet
facet normal -0.0 -0.0 1.0
outer loop
vertex -26.0 17.8 2.99999999999999
vertex -26.0 5.0 2.99999999999999
vertex -24.7059047744874 4.82962913144534 2.99999999999999
endloop
endfacet
facet normal -0.0 -0.0 1.0
outer loop
vertex -26.0 17.8 2.99999999999999
vertex -24.7059047744874 4.82962913144534 2.99999999999999
vertex -21.3930209971751 17.1934797079454 2.99999999999999
endloop
endfacet
facet normal -0.0 -0.0 1.0
outer loop
vertex -21.3930209971751 17.1934797079454 2.99999999999999
vertex -24.7059047744874 4.82962913144534 2.99999999999999
vertex -23.5 4.3301270189222 2.99999999999999
endloop
endfacet
facet normal -0.0 -0.0 1.0
outer loop
vertex -21.3930209971751 17.1934797079454 2.99999999999999
vertex -23.5 4.3301270189222 2.99999999999999
vertex -22.4644660940673 3.53553390593274 2.99999999999999
endloop
endfacet
facet normal -0.0 -0.0 1.0
outer loop
vertex -21.3930209971751 17.1934797079454 2.99999999999999
vertex -22.4644660940673 3.53553390593274 2.99999999999999
vertex -21.6698729810778 2.5 2.99999999999999
endloop
endfacet
facet normal -0.0 -0.0 1.0
outer loop
vertex -21.3930209971751 17.1934797079454 2.99999999999999
vertex -21.6698729810778 2.5 2.99999999999999
vertex -21.1703708685547 1.29409522551261 2.99999999999999
endloop
endfacet
facet normal -0.0 -0.0 1.0
outer loop
vertex -21.3930209971751 17.1934797079454 2.99999999999999
vertex -21.1703708685547 1.29409522551261 2.99999999999999
vertex -17.1 15.415252187363 2.99999999999999
endloop
endfacet
facet normal -0.0 -0.0 1.0
outer loop
vertex -17.1 15.415252187363 2.99999999999999
vertex -21.1703708685547 1.29409522551261 2.99999999999999
vertex -21.0 -1.40998324127395e-015 2.99999999999999
endloop
endfacet
facet normal -0.0 -0.0 1.0
outer loop
vertex -17.1 15.415252187363 2.99999999999999
vertex -21.0 -1.40998324127395e-015 2.99999999999999
vertex -17.1 -15.415252187363 2.99999999999999
endloop
endfacet
facet normal -0.0 -0.0 1.0
outer loop
vertex -17.1 15.415252187363 2.99999999999999
vertex -17.1 -15.415252187363 2.99999999999999
vertex -13.4134992948794 -12.5865007051206 2.99999999999999
endloop
endfacet
facet normal -0.0 -0.0 1.0
outer loop
vertex -17.1 15.415252187363 2.99999999999999
vertex -13.4134992948794 -12.5865007051206 2.99999999999999
vertex -13.4134992948794 12.5865007051205 2.99999999999999
endloop
endfacet
facet normal -0.0 -0.0 1.0
outer loop
vertex -13.4134992948794 12.5865007051205 2.99999999999999
vertex -13.4134992948794 -12.5865007051206 2.99999999999999
vertex -10.584747812637 -8.90000000000001 2.99999999999999
endloop
endfacet
facet normal -0.0 -0.0 1.0
outer loop
vertex -13.4134992948794 12.5865007051205 2.99999999999999
vertex -10.584747812637 -8.90000000000001 2.99999999999999
vertex -10.584747812637 8.9 2.99999999999999
endloop
endfacet
facet normal -0.0 -0.0 1.0
outer loop
vertex -10.584747812637 8.9 2.99999999999999
vertex -10.584747812637 -8.90000000000001 2.99999999999999
vertex -8.80652029205454 -4.60697900282488 2.99999999999999
endloop
endfacet
facet normal -0.0 -0.0 1.0
outer loop
vertex -10.584747812637 8.9 2.99999999999999
vertex -8.80652029205454 -4.60697900282488 2.99999999999999
vertex -8.80652029205454 4.60697900282487 2.99999999999999
endloop
endfacet
facet normal -0.0 -0.0 1.0
outer loop
vertex -8.80652029205454 4.60697900282487 2.99999999999999
vertex -8.80652029205454 -4.60697900282488 2.99999999999999
vertex -8.19999999999996 1.40998324127395e-015 2.99999999999999
endloop
endfacet
facet normal 0.38268343236509 0.923879532511287 -0.0
outer loop
vertex -28.5 -4.33012701892219 2.99999999999999
vertex -27.2940952255126 -4.82962913144534 0.0
vertex -28.5 -4.33012701892219 0.0
endloop
endfacet
facet normal 0.38268343236509 0.923879532511287 -0.0
outer loop
vertex -27.2940952255126 -4.82962913144534 0.0
vertex -28.5 -4.33012701892219 2.99999999999999
vertex -27.2940952255126 -4.82962913144534 2.99999999999999
endloop
endfacet
facet normal 0.608761429008723 -0.793353340291233 0.0
outer loop
vertex -28.5 4.3301270189222 2.99999999999999
vertex -29.5355339059327 3.53553390593274 0.0
vertex -28.5 4.3301270189222 0.0
endloop
endfacet
facet normal 0.608761429008723 -0.793353340291233 0.0
outer loop
vertex -29.5355339059327 3.53553390593274 0.0
vertex -28.5 4.3301270189222 2.99999999999999
vertex -29.5355339059327 3.53553390593274 2.99999999999999
endloop
endfacet
facet normal -0.608761429008721 0.793353340291235 -0.0
outer loop
vertex -23.5 -4.33012701892219 2.99999999999999
vertex -22.4644660940673 -3.53553390593274 0.0
vertex -23.5 -4.33012701892219 0.0
endloop
endfacet
facet normal -0.608761429008721 0.793353340291235 -0.0
outer loop
vertex -22.4644660940673 -3.53553390593274 0.0
vertex -23.5 -4.33012701892219 2.99999999999999
vertex -22.4644660940673 -3.53553390593274 2.99999999999999
endloop
endfacet
facet normal 0.130526192220052 -0.99144486137381 0.0
outer loop
vertex -26.0 5.0 2.99999999999999
vertex -27.2940952255126 4.82962913144534 0.0
vertex -26.0 5.0 0.0
endloop
endfacet
facet normal 0.130526192220052 -0.99144486137381 0.0
outer loop
vertex -27.2940952255126 4.82962913144534 0.0
vertex -26.0 5.0 2.99999999999999
vertex -27.2940952255126 4.82962913144534 2.99999999999999
endloop
endfacet
facet normal -0.99144486137381 -0.130526192220055 0.0
outer loop
vertex -21.1703708685547 1.29409522551261 2.99999999999999
vertex -21.0 -1.40998324127395e-015 0.0
vertex -21.0 -1.40998324127395e-015 2.99999999999999
endloop
endfacet
facet normal -0.99144486137381 -0.130526192220055 0.0
outer loop
vertex -21.0 -1.40998324127395e-015 0.0
vertex -21.1703708685547 1.29409522551261 2.99999999999999
vertex -21.1703708685547 1.29409522551261 0.0
endloop
endfacet
facet normal -0.92387953251129 -0.382683432365083 0.0
outer loop
vertex -21.6698729810778 2.5 2.99999999999999
vertex -21.1703708685547 1.29409522551261 0.0
vertex -21.1703708685547 1.29409522551261 2.99999999999999
endloop
endfacet
facet normal -0.92387953251129 -0.382683432365083 0.0
outer loop
vertex -21.1703708685547 1.29409522551261 0.0
vertex -21.6698729810778 2.5 2.99999999999999
vertex -21.6698729810778 2.5 0.0
endloop
endfacet
facet normal 0.608761429008725 0.793353340291232 -0.0
outer loop
vertex -29.5355339059327 -3.53553390593274 2.99999999999999
vertex -28.5 -4.33012701892219 0.0
vertex -29.5355339059327 -3.53553390593274 0.0
endloop
endfacet
facet normal 0.608761429008725 0.793353340291232 -0.0
outer loop
vertex -28.5 -4.33012701892219 0.0
vertex -29.5355339059327 -3.53553390593274 2.99999999999999
vertex -28.5 -4.33012701892219 2.99999999999999
endloop
endfacet
facet normal -0.793353340291232 0.608761429008725 0.0
outer loop
vertex -21.6698729810778 -2.5 2.99999999999999
vertex -22.4644660940673 -3.53553390593274 0.0
vertex -22.4644660940673 -3.53553390593274 2.99999999999999
endloop
endfacet
facet normal -0.793353340291232 0.608761429008725 0.0
outer loop
vertex -22.4644660940673 -3.53553390593274 0.0
vertex -21.6698729810778 -2.5 2.99999999999999
vertex -21.6698729810778 -2.5 0.0
endloop
endfacet
facet normal 0.99144486137381 -0.130526192220056 -0.0
outer loop
vertex -30.8296291314453 1.2940952255126 0.0
vertex -31.0 1.40998324127395e-015 2.99999999999999
vertex -31.0 1.40998324127395e-015 0.0
endloop
endfacet
facet normal 0.99144486137381 -0.130526192220056 -0.0
outer loop
vertex -31.0 1.40998324127395e-015 2.99999999999999
vertex -30.8296291314453 1.2940952255126 0.0
vertex -30.8296291314453 1.2940952255126 2.99999999999999
endloop
endfacet
facet normal 0.793353340291236 -0.60876142900872 -0.0
outer loop
vertex -29.5355339059327 3.53553390593274 0.0
vertex -30.3301270189222 2.5 2.99999999999999
vertex -30.3301270189222 2.5 0.0
endloop
endfacet
facet normal 0.793353340291236 -0.60876142900872 -0.0
outer loop
vertex -30.3301270189222 2.5 2.99999999999999
vertex -29.5355339059327 3.53553390593274 0.0
vertex -29.5355339059327 3.53553390593274 2.99999999999999
endloop
endfacet
facet normal -0.130526192220052 0.99144486137381 -0.0
outer loop
vertex -26.0 -5.0 2.99999999999999
vertex -24.7059047744874 -4.82962913144534 0.0
vertex -26.0 -5.0 0.0
endloop
endfacet
facet normal -0.130526192220052 0.99144486137381 -0.0
outer loop
vertex -24.7059047744874 -4.82962913144534 0.0
vertex -26.0 -5.0 2.99999999999999
vertex -24.7059047744874 -4.82962913144534 2.99999999999999
endloop
endfacet
facet normal -0.793353340291232 -0.608761429008725 0.0
outer loop
vertex -22.4644660940673 3.53553390593274 2.99999999999999
vertex -21.6698729810778 2.5 0.0
vertex -21.6698729810778 2.5 2.99999999999999
endloop
endfacet
facet normal -0.793353340291232 -0.608761429008725 0.0
outer loop
vertex -21.6698729810778 2.5 0.0
vertex -22.4644660940673 3.53553390593274 2.99999999999999
vertex -22.4644660940673 3.53553390593274 0.0
endloop
endfacet
facet normal -0.608761429008721 -0.793353340291235 0.0
outer loop
vertex -22.4644660940673 3.53553390593274 2.99999999999999
vertex -23.5 4.3301270189222 0.0
vertex -22.4644660940673 3.53553390593274 0.0
endloop
endfacet
facet normal -0.608761429008721 -0.793353340291235 0.0
outer loop
vertex -23.5 4.3301270189222 0.0
vertex -22.4644660940673 3.53553390593274 2.99999999999999
vertex -23.5 4.3301270189222 2.99999999999999
endloop
endfacet
facet normal -0.38268343236509 -0.923879532511287 0.0
outer loop
vertex -23.5 4.3301270189222 2.99999999999999
vertex -24.7059047744874 4.82962913144534 0.0
vertex -23.5 4.3301270189222 0.0
endloop
endfacet
facet normal -0.38268343236509 -0.923879532511287 0.0
outer loop
vertex -24.7059047744874 4.82962913144534 0.0
vertex -23.5 4.3301270189222 2.99999999999999
vertex -24.7059047744874 4.82962913144534 2.99999999999999
endloop
endfacet
facet normal 0.99144486137381 0.130526192220056 -0.0
outer loop
vertex -31.0 1.40998324127395e-015 0.0
vertex -30.8296291314453 -1.2940952255126 2.99999999999999
vertex -30.8296291314453 -1.2940952255126 0.0
endloop
endfacet
facet normal 0.99144486137381 0.130526192220056 -0.0
outer loop
vertex -30.8296291314453 -1.2940952255126 2.99999999999999
vertex -31.0 1.40998324127395e-015 0.0
vertex -31.0 1.40998324127395e-015 2.99999999999999
endloop
endfacet
facet normal 0.923879532511287 0.382683432365088 -0.0
outer loop
vertex -30.8296291314453 -1.2940952255126 0.0
vertex -30.3301270189222 -2.5 2.99999999999999
vertex -30.3301270189222 -2.5 0.0
endloop
endfacet
facet normal 0.923879532511287 0.382683432365088 -0.0
outer loop
vertex -30.3301270189222 -2.5 2.99999999999999
vertex -30.8296291314453 -1.2940952255126 0.0
vertex -30.8296291314453 -1.2940952255126 2.99999999999999
endloop
endfacet
facet normal -0.38268343236509 0.923879532511287 -0.0
outer loop
vertex -24.7059047744874 -4.82962913144534 2.99999999999999
vertex -23.5 -4.33012701892219 0.0
vertex -24.7059047744874 -4.82962913144534 0.0
endloop
endfacet
facet normal -0.38268343236509 0.923879532511287 -0.0
outer loop
vertex -23.5 -4.33012701892219 0.0
vertex -24.7059047744874 -4.82962913144534 2.99999999999999
vertex -23.5 -4.33012701892219 2.99999999999999
endloop
endfacet
facet normal 0.793353340291234 0.608761429008722 -0.0
outer loop
vertex -30.3301270189222 -2.5 0.0
vertex -29.5355339059327 -3.53553390593274 2.99999999999999
vertex -29.5355339059327 -3.53553390593274 0.0
endloop
endfacet
facet normal 0.793353340291234 0.608761429008722 -0.0
outer loop
vertex -29.5355339059327 -3.53553390593274 2.99999999999999
vertex -30.3301270189222 -2.5 0.0
vertex -30.3301270189222 -2.5 2.99999999999999
endloop
endfacet
facet normal 0.130526192220052 0.99144486137381 -0.0
outer loop
vertex -27.2940952255126 -4.82962913144534 2.99999999999999
vertex -26.0 -5.0 0.0
vertex -27.2940952255126 -4.82962913144534 0.0
endloop
endfacet
facet normal 0.130526192220052 0.99144486137381 -0.0
outer loop
vertex -26.0 -5.0 0.0
vertex -27.2940952255126 -4.82962913144534 2.99999999999999
vertex -26.0 -5.0 2.99999999999999
endloop
endfacet
facet normal -0.608761429008721 -0.793353340291235 0.0
outer loop
vertex -34.9 -15.415252187363 2.99999999999999
vertex -38.5865007051205 -12.5865007051205 0.0
vertex -34.9 -15.415252187363 0.0
endloop
endfacet
facet normal -0.608761429008721 -0.793353340291235 0.0
outer loop
vertex -38.5865007051205 -12.5865007051205 0.0
vertex -34.9 -15.415252187363 2.99999999999999
vertex -38.5865007051205 -12.5865007051205 2.99999999999999
endloop
endfacet
facet normal -0.130526192220052 -0.99144486137381 0.0
outer loop
vertex -26.0 -17.8 2.99999999999999
vertex -30.6069790028249 -17.1934797079454 0.0
vertex -26.0 -17.8 0.0
endloop
endfacet
facet normal -0.130526192220052 -0.99144486137381 0.0
outer loop
vertex -30.6069790028249 -17.1934797079454 0.0
vertex -26.0 -17.8 2.99999999999999
vertex -30.6069790028249 -17.1934797079454 2.99999999999999
endloop
endfacet
facet normal -0.608761429008722 0.793353340291234 -0.0
outer loop
vertex -38.5865007051205 12.5865007051205 2.99999999999999
vertex -34.9 15.415252187363 0.0
vertex -38.5865007051205 12.5865007051205 0.0
endloop
endfacet
facet normal -0.608761429008722 0.793353340291234 -0.0
outer loop
vertex -34.9 15.415252187363 0.0
vertex -38.5865007051205 12.5865007051205 2.99999999999999
vertex -34.9 15.415252187363 2.99999999999999
endloop
endfacet
facet normal -0.382683432365088 0.923879532511288 -0.0
outer loop
vertex -34.9 15.415252187363 2.99999999999999
vertex -30.6069790028248 17.1934797079454 0.0
vertex -34.9 15.415252187363 0.0
endloop
endfacet
facet normal -0.382683432365088 0.923879532511288 -0.0
outer loop
vertex -30.6069790028248 17.1934797079454 0.0
vertex -34.9 15.415252187363 2.99999999999999
vertex -30.6069790028248 17.1934797079454 2.99999999999999
endloop
endfacet
facet normal 0.923879532511285 0.382683432365094 -0.0
outer loop
vertex -10.584747812637 8.9 0.0
vertex -8.80652029205454 4.60697900282487 2.99999999999999
vertex -8.80652029205454 4.60697900282487 0.0
endloop
endfacet
facet normal 0.923879532511285 0.382683432365094 -0.0
outer loop
vertex -8.80652029205454 4.60697900282487 2.99999999999999
vertex -10.584747812637 8.9 0.0
vertex -10.584747812637 8.9 2.99999999999999
endloop
endfacet
facet normal 0.382683432365087 0.923879532511288 -0.0
outer loop
vertex -21.3930209971751 17.1934797079454 2.99999999999999
vertex -17.1 15.415252187363 0.0
vertex -21.3930209971751 17.1934797079454 0.0
endloop
endfacet
facet normal 0.382683432365087 0.923879532511288 -0.0
outer loop
vertex -17.1 15.415252187363 0.0
vertex -21.3930209971751 17.1934797079454 2.99999999999999
vertex -17.1 15.415252187363 2.99999999999999
endloop
endfacet
facet normal 0.923879532511283 -0.382683432365098 -0.0
outer loop
vertex -8.80652029205454 -4.60697900282488 0.0
vertex -10.584747812637 -8.90000000000001 2.99999999999999
vertex -10.584747812637 -8.90000000000001 0.0
endloop
endfacet
facet normal 0.923879532511283 -0.382683432365098 -0.0
outer loop
vertex -10.584747812637 -8.90000000000001 2.99999999999999
vertex -8.80652029205454 -4.60697900282488 0.0
vertex -8.80652029205454 -4.60697900282488 2.99999999999999
endloop
endfacet
facet normal -0.923879532511286 -0.382683432365092 0.0
outer loop
vertex -43.1934797079454 -4.60697900282486 2.99999999999999
vertex -41.415252187363 -8.89999999999999 0.0
vertex -41.415252187363 -8.89999999999999 2.99999999999999
endloop
endfacet
facet normal -0.923879532511286 -0.382683432365092 0.0
outer loop
vertex -41.415252187363 -8.89999999999999 0.0
vertex -43.1934797079454 -4.60697900282486 2.99999999999999
vertex -43.1934797079454 -4.60697900282486 0.0
endloop
endfacet
facet normal 0.130526192220051 -0.99144486137381 0.0
outer loop
vertex -21.3930209971751 -17.1934797079454 2.99999999999999
vertex -26.0 -17.8 0.0
vertex -21.3930209971751 -17.1934797079454 0.0
endloop
endfacet
facet normal 0.130526192220051 -0.99144486137381 0.0
outer loop
vertex -26.0 -17.8 0.0
vertex -21.3930209971751 -17.1934797079454 2.99999999999999
vertex -26.0 -17.8 2.99999999999999
endloop
endfacet
facet normal -0.130526192220054 0.99144486137381 -0.0
outer loop
vertex -30.6069790028248 17.1934797079454 2.99999999999999
vertex -26.0 17.8 0.0
vertex -30.6069790028248 17.1934797079454 0.0
endloop
endfacet
facet normal -0.130526192220054 0.99144486137381 -0.0
outer loop
vertex -26.0 17.8 0.0
vertex -30.6069790028248 17.1934797079454 2.99999999999999
vertex -26.0 17.8 2.99999999999999
endloop
endfacet
facet normal 0.99144486137381 -0.130526192220051 -0.0
outer loop
vertex -8.19999999999996 1.40998324127395e-015 0.0
vertex -8.80652029205454 -4.60697900282488 2.99999999999999
vertex -8.80652029205454 -4.60697900282488 0.0
endloop
endfacet
facet normal 0.99144486137381 -0.130526192220051 -0.0
outer loop
vertex -8.80652029205454 -4.60697900282488 2.99999999999999
vertex -8.19999999999996 1.40998324127395e-015 0.0
vertex -8.19999999999996 1.40998324127395e-015 2.99999999999999
endloop
endfacet
facet normal 0.793353340291236 -0.608761429008719 -0.0
outer loop
vertex -10.584747812637 -8.90000000000001 0.0
vertex -13.4134992948794 -12.5865007051206 2.99999999999999
vertex -13.4134992948794 -12.5865007051206 0.0
endloop
endfacet
facet normal 0.793353340291236 -0.608761429008719 -0.0
outer loop
vertex -13.4134992948794 -12.5865007051206 2.99999999999999
vertex -10.584747812637 -8.90000000000001 0.0
vertex -10.584747812637 -8.90000000000001 2.99999999999999
endloop
endfacet
facet normal 0.382683432365088 -0.923879532511287 0.0
outer loop
vertex -17.1 -15.415252187363 2.99999999999999
vertex -21.3930209971751 -17.1934797079454 0.0
vertex -17.1 -15.415252187363 0.0
endloop
endfacet
facet normal 0.382683432365088 -0.923879532511287 0.0
outer loop
vertex -21.3930209971751 -17.1934797079454 0.0
vertex -17.1 -15.415252187363 2.99999999999999
vertex -21.3930209971751 -17.1934797079454 2.99999999999999
endloop
endfacet
facet normal 0.608761429008721 0.793353340291235 -0.0
outer loop
vertex -17.1 15.415252187363 2.99999999999999
vertex -13.4134992948794 12.5865007051205 0.0
vertex -17.1 15.415252187363 0.0
endloop
endfacet
facet normal 0.608761429008721 0.793353340291235 -0.0
outer loop
vertex -13.4134992948794 12.5865007051205 0.0
vertex -17.1 15.415252187363 2.99999999999999
vertex -13.4134992948794 12.5865007051205 2.99999999999999
endloop
endfacet
facet normal 0.60876142900872 -0.793353340291236 0.0
outer loop
vertex -13.4134992948794 -12.5865007051206 2.99999999999999
vertex -17.1 -15.415252187363 0.0
vertex -13.4134992948794 -12.5865007051206 0.0
endloop
endfacet
facet normal 0.60876142900872 -0.793353340291236 0.0
outer loop
vertex -17.1 -15.415252187363 0.0
vertex -13.4134992948794 -12.5865007051206 2.99999999999999
vertex -17.1 -15.415252187363 2.99999999999999
endloop
endfacet
facet normal 0.0 0.0 -1.0
outer loop
vertex -30.6069790028248 17.1934797079454 0.0
vertex -31.0 1.40998324127395e-015 0.0
vertex -34.9 15.415252187363 0.0
endloop
endfacet
facet normal 0.0 0.0 -1.0
outer loop
vertex -31.0 1.40998324127395e-015 0.0
vertex -30.6069790028248 17.1934797079454 0.0
vertex -30.8296291314453 1.2940952255126 0.0
endloop
endfacet
facet normal 0.0 0.0 -1.0
outer loop
vertex -30.8296291314453 1.2940952255126 0.0
vertex -30.6069790028248 17.1934797079454 0.0
vertex -30.3301270189222 2.5 0.0
endloop
endfacet
facet normal 0.0 0.0 -1.0
outer loop
vertex -30.3301270189222 2.5 0.0
vertex -30.6069790028248 17.1934797079454 0.0
vertex -26.0 17.8 0.0
endloop
endfacet
facet normal 0.0 0.0 -1.0
outer loop
vertex -30.3301270189222 2.5 0.0
vertex -26.0 17.8 0.0
vertex -29.5355339059327 3.53553390593274 0.0
endloop
endfacet
facet normal 0.0 0.0 -1.0
outer loop
vertex -29.5355339059327 3.53553390593274 0.0
vertex -26.0 17.8 0.0
vertex -28.5 4.3301270189222 0.0
endloop
endfacet
facet normal 0.0 0.0 -1.0
outer loop
vertex -28.5 4.3301270189222 0.0
vertex -26.0 17.8 0.0
vertex -27.2940952255126 4.82962913144534 0.0
endloop
endfacet
facet normal 0.0 0.0 -1.0
outer loop
vertex -27.2940952255126 4.82962913144534 0.0
vertex -26.0 17.8 0.0
vertex -26.0 5.0 0.0
endloop
endfacet
facet normal 0.0 0.0 -1.0
outer loop
vertex -26.0 5.0 0.0
vertex -26.0 17.8 0.0
vertex -21.3930209971751 17.1934797079454 0.0
endloop
endfacet
facet normal 0.0 0.0 -1.0
outer loop
vertex -26.0 5.0 0.0
vertex -21.3930209971751 17.1934797079454 0.0
vertex -24.7059047744874 4.82962913144534 0.0
endloop
endfacet
facet normal 0.0 0.0 -1.0
outer loop
vertex -24.7059047744874 4.82962913144534 0.0
vertex -21.3930209971751 17.1934797079454 0.0
vertex -23.5 4.3301270189222 0.0
endloop
endfacet
facet normal 0.0 0.0 -1.0
outer loop
vertex -23.5 4.3301270189222 0.0
vertex -21.3930209971751 17.1934797079454 0.0
vertex -22.4644660940673 3.53553390593274 0.0
endloop
endfacet
facet normal 0.0 0.0 -1.0
outer loop
vertex -22.4644660940673 3.53553390593274 0.0
vertex -21.3930209971751 17.1934797079454 0.0
vertex -21.6698729810778 2.5 0.0
endloop
endfacet
facet normal 0.0 0.0 -1.0
outer loop
vertex -21.6698729810778 2.5 0.0
vertex -21.3930209971751 17.1934797079454 0.0
vertex -21.1703708685547 1.29409522551261 0.0
endloop
endfacet
facet normal 0.0 0.0 -1.0
outer loop
vertex -21.1703708685547 1.29409522551261 0.0
vertex -21.3930209971751 17.1934797079454 0.0
vertex -17.1 15.415252187363 0.0
endloop
endfacet
facet normal 0.0 0.0 -1.0
outer loop
vertex -21.1703708685547 1.29409522551261 0.0
vertex -17.1 15.415252187363 0.0
vertex -21.0 -1.40998324127395e-015 0.0
endloop
endfacet
facet normal 0.0 0.0 -1.0
outer loop
vertex -43.1934797079454 4.60697900282487 0.0
vertex -43.1934797079454 -4.60697900282486 0.0
vertex -43.8 4.22994972382185e-015 0.0
endloop
endfacet
facet normal 0.0 0.0 -1.0
outer loop
vertex -43.1934797079454 -4.60697900282486 0.0
vertex -43.1934797079454 4.60697900282487 0.0
vertex -41.415252187363 8.90000000000001 0.0
endloop
endfacet
facet normal 0.0 0.0 -1.0
outer loop
vertex -43.1934797079454 -4.60697900282486 0.0
vertex -41.415252187363 8.90000000000001 0.0
vertex -41.415252187363 -8.89999999999999 0.0
endloop
endfacet
facet normal 0.0 0.0 -1.0
outer loop
vertex -41.415252187363 -8.89999999999999 0.0
vertex -41.415252187363 8.90000000000001 0.0
vertex -38.5865007051205 12.5865007051205 0.0
endloop
endfacet
facet normal 0.0 0.0 -1.0
outer loop
vertex -41.415252187363 -8.89999999999999 0.0
vertex -38.5865007051205 12.5865007051205 0.0
vertex -38.5865007051205 -12.5865007051205 0.0
endloop
endfacet
facet normal 0.0 0.0 -1.0
outer loop
vertex -38.5865007051205 -12.5865007051205 0.0
vertex -38.5865007051205 12.5865007051205 0.0
vertex -34.9 -15.415252187363 0.0
endloop
endfacet
facet normal 0.0 0.0 -1.0
outer loop
vertex -34.9 -15.415252187363 0.0
vertex -38.5865007051205 12.5865007051205 0.0
vertex -34.9 15.415252187363 0.0
endloop
endfacet
facet normal 0.0 0.0 -1.0
outer loop
vertex -34.9 -15.415252187363 0.0
vertex -34.9 15.415252187363 0.0
vertex -30.6069790028249 -17.1934797079454 0.0
endloop
endfacet
facet normal 0.0 0.0 -1.0
outer loop
vertex -30.6069790028249 -17.1934797079454 0.0
vertex -34.9 15.415252187363 0.0
vertex -31.0 1.40998324127395e-015 0.0
endloop
endfacet
facet normal 0.0 0.0 -1.0
outer loop
vertex -30.6069790028249 -17.1934797079454 0.0
vertex -31.0 1.40998324127395e-015 0.0
vertex -30.8296291314453 -1.2940952255126 0.0
endloop
endfacet
facet normal 0.0 0.0 -1.0
outer loop
vertex -30.6069790028249 -17.1934797079454 0.0
vertex -30.8296291314453 -1.2940952255126 0.0
vertex -30.3301270189222 -2.5 0.0
endloop
endfacet
facet normal 0.0 0.0 -1.0
outer loop
vertex -30.6069790028249 -17.1934797079454 0.0
vertex -30.3301270189222 -2.5 0.0
vertex -26.0 -17.8 0.0
endloop
endfacet
facet normal 0.0 0.0 -1.0
outer loop
vertex -26.0 -17.8 0.0
vertex -30.3301270189222 -2.5 0.0
vertex -29.5355339059327 -3.53553390593274 0.0
endloop
endfacet
facet normal 0.0 0.0 -1.0
outer loop
vertex -26.0 -17.8 0.0
vertex -29.5355339059327 -3.53553390593274 0.0
vertex -28.5 -4.33012701892219 0.0
endloop
endfacet
facet normal 0.0 0.0 -1.0
outer loop
vertex -26.0 -17.8 0.0
vertex -28.5 -4.33012701892219 0.0
vertex -27.2940952255126 -4.82962913144534 0.0
endloop
endfacet
facet normal 0.0 0.0 -1.0
outer loop
vertex -26.0 -17.8 0.0
vertex -27.2940952255126 -4.82962913144534 0.0
vertex -26.0 -5.0 0.0
endloop
endfacet
facet normal 0.0 0.0 -1.0
outer loop
vertex -26.0 -17.8 0.0
vertex -26.0 -5.0 0.0
vertex -24.7059047744874 -4.82962913144534 0.0
endloop
endfacet
facet normal 0.0 0.0 -1.0
outer loop
vertex -26.0 -17.8 0.0
vertex -24.7059047744874 -4.82962913144534 0.0
vertex -21.3930209971751 -17.1934797079454 0.0
endloop
endfacet
facet normal 0.0 0.0 -1.0
outer loop
vertex -21.3930209971751 -17.1934797079454 0.0
vertex -24.7059047744874 -4.82962913144534 0.0
vertex -23.5 -4.33012701892219 0.0
endloop
endfacet
facet normal 0.0 0.0 -1.0
outer loop
vertex -21.3930209971751 -17.1934797079454 0.0
vertex -23.5 -4.33012701892219 0.0
vertex -22.4644660940673 -3.53553390593274 0.0
endloop
endfacet
facet normal 0.0 0.0 -1.0
outer loop
vertex -21.3930209971751 -17.1934797079454 0.0
vertex -22.4644660940673 -3.53553390593274 0.0
vertex -21.6698729810778 -2.5 0.0
endloop
endfacet
facet normal 0.0 0.0 -1.0
outer loop
vertex -21.3930209971751 -17.1934797079454 0.0
vertex -21.6698729810778 -2.5 0.0
vertex -21.1703708685546 -1.2940952255126 0.0
endloop
endfacet
facet normal 0.0 0.0 -1.0
outer loop
vertex -21.3930209971751 -17.1934797079454 0.0
vertex -21.1703708685546 -1.2940952255126 0.0
vertex -17.1 -15.415252187363 0.0
endloop
endfacet
facet normal 0.0 0.0 -1.0
outer loop
vertex -17.1 -15.415252187363 0.0
vertex -21.1703708685546 -1.2940952255126 0.0
vertex -21.0 -1.40998324127395e-015 0.0
endloop
endfacet
facet normal 0.0 0.0 -1.0
outer loop
vertex -17.1 -15.415252187363 0.0
vertex -21.0 -1.40998324127395e-015 0.0
vertex -17.1 15.415252187363 0.0
endloop
endfacet
facet normal 0.0 0.0 -1.0
outer loop
vertex -17.1 -15.415252187363 0.0
vertex -17.1 15.415252187363 0.0
vertex -13.4134992948794 12.5865007051205 0.0
endloop
endfacet
facet normal 0.0 0.0 -1.0
outer loop
vertex -17.1 -15.415252187363 0.0
vertex -13.4134992948794 12.5865007051205 0.0
vertex -13.4134992948794 -12.5865007051206 0.0
endloop
endfacet
facet normal 0.0 0.0 -1.0
outer loop
vertex -13.4134992948794 -12.5865007051206 0.0
vertex -13.4134992948794 12.5865007051205 0.0
vertex -10.584747812637 8.9 0.0
endloop
endfacet
facet normal 0.0 0.0 -1.0
outer loop
vertex -13.4134992948794 -12.5865007051206 0.0
vertex -10.584747812637 8.9 0.0
vertex -10.584747812637 -8.90000000000001 0.0
endloop
endfacet
facet normal 0.0 0.0 -1.0
outer loop
vertex -10.584747812637 -8.90000000000001 0.0
vertex -10.584747812637 8.9 0.0
vertex -8.80652029205454 -4.60697900282488 0.0
endloop
endfacet
facet normal 0.0 0.0 -1.0
outer loop
vertex -8.80652029205454 -4.60697900282488 0.0
vertex -10.584747812637 8.9 0.0
vertex -8.80652029205454 4.60697900282487 0.0
endloop
endfacet
facet normal 0.0 0.0 -1.0
outer loop
vertex -8.80652029205454 -4.60697900282488 0.0
vertex -8.80652029205454 4.60697900282487 0.0
vertex -8.19999999999996 1.40998324127395e-015 0.0
endloop
endfacet
facet normal 0.130526192220054 0.99144486137381 -0.0
outer loop
vertex -26.0 17.8 2.99999999999999
vertex -21.3930209971751 17.1934797079454 0.0
vertex -26.0 17.8 0.0
endloop
endfacet
facet normal 0.130526192220054 0.99144486137381 -0.0
outer loop
vertex -21.3930209971751 17.1934797079454 0.0
vertex -26.0 17.8 2.99999999999999
vertex -21.3930209971751 17.1934797079454 2.99999999999999
endloop
endfacet
facet normal 0.793353340291234 0.608761429008722 -0.0
outer loop
vertex -13.4134992948794 12.5865007051205 0.0
vertex -10.584747812637 8.9 2.99999999999999
vertex -10.584747812637 8.9 0.0
endloop
endfacet
facet normal 0.793353340291234 0.608761429008722 -0.0
outer loop
vertex -10.584747812637 8.9 2.99999999999999
vertex -13.4134992948794 12.5865007051205 0.0
vertex -13.4134992948794 12.5865007051205 2.99999999999999
endloop
endfacet
facet normal -0.382683432365091 -0.923879532511287 0.0
outer loop
vertex -30.6069790028249 -17.1934797079454 2.99999999999999
vertex -34.9 -15.415252187363 0.0
vertex -30.6069790028249 -17.1934797079454 0.0
endloop
endfacet
facet normal -0.382683432365091 -0.923879532511287 0.0
outer loop
vertex -34.9 -15.415252187363 0.0
vertex -30.6069790028249 -17.1934797079454 2.99999999999999
vertex -34.9 -15.415252187363 2.99999999999999
endloop
endfacet
facet normal -0.991444861373811 -0.130526192220049 0.0
outer loop
vertex -43.8 4.22994972382185e-015 2.99999999999999
vertex -43.1934797079454 -4.60697900282486 0.0
vertex -43.1934797079454 -4.60697900282486 2.99999999999999
endloop
endfacet
facet normal -0.991444861373811 -0.130526192220049 0.0
outer loop
vertex -43.1934797079454 -4.60697900282486 0.0
vertex -43.8 4.22994972382185e-015 2.99999999999999
vertex -43.8 4.22994972382185e-015 0.0
endloop
endfacet
facet normal -0.793353340291237 -0.608761429008719 0.0
outer loop
vertex -41.415252187363 -8.89999999999999 2.99999999999999
vertex -38.5865007051205 -12.5865007051205 0.0
vertex -38.5865007051205 -12.5865007051205 2.99999999999999
endloop
endfacet
facet normal -0.793353340291237 -0.608761429008719 0.0
outer loop
vertex -38.5865007051205 -12.5865007051205 0.0
vertex -41.415252187363 -8.89999999999999 2.99999999999999
vertex -41.415252187363 -8.89999999999999 0.0
endloop
endfacet
facet normal -0.991444861373811 0.130526192220049 0.0
outer loop
vertex -43.1934797079454 4.60697900282487 2.99999999999999
vertex -43.8 4.22994972382185e-015 0.0
vertex -43.8 4.22994972382185e-015 2.99999999999999
endloop
endfacet
facet normal -0.991444861373811 0.130526192220049 0.0
outer loop
vertex -43.8 4.22994972382185e-015 0.0
vertex -43.1934797079454 4.60697900282487 2.99999999999999
vertex -43.1934797079454 4.60697900282487 0.0
endloop
endfacet
facet normal 0.99144486137381 0.130526192220051 -0.0
outer loop
vertex -8.80652029205454 4.60697900282487 0.0
vertex -8.19999999999996 1.40998324127395e-015 2.99999999999999
vertex -8.19999999999996 1.40998324127395e-015 0.0
endloop
endfacet
facet normal 0.99144486137381 0.130526192220051 -0.0
outer loop
vertex -8.19999999999996 1.40998324127395e-015 2.99999999999999
vertex -8.80652029205454 4.60697900282487 0.0
vertex -8.80652029205454 4.60697900282487 2.99999999999999
endloop
endfacet
facet normal -0.923879532511286 0.382683432365091 0.0
outer loop
vertex -41.415252187363 8.90000000000001 2.99999999999999
vertex -43.1934797079454 4.60697900282487 0.0
vertex -43.1934797079454 4.60697900282487 2.99999999999999
endloop
endfacet
facet normal -0.923879532511286 0.382683432365091 0.0
outer loop
vertex -43.1934797079454 4.60697900282487 0.0
vertex -41.415252187363 8.90000000000001 2.99999999999999
vertex -41.415252187363 8.90000000000001 0.0
endloop
endfacet
facet normal -0.793353340291235 0.608761429008722 0.0
outer loop
vertex -38.5865007051205 12.5865007051205 2.99999999999999
vertex -41.415252187363 8.90000000000001 0.0
vertex -41.415252187363 8.90000000000001 2.99999999999999
endloop
endfacet
facet normal -0.793353340291235 0.608761429008722 0.0
outer loop
vertex -41.415252187363 8.90000000000001 0.0
vertex -38.5865007051205 12.5865007051205 2.99999999999999
vertex -38.5865007051205 12.5865007051205 0.0
endloop
endfacet
endsolid ToolforBoardHousing_Final_chip
