 0
SECTION
 2
ENTITIES
  0
3DFACE
 8
Layer0
10
-15.551405803254
20
4.1669866261506
30
99.9193347754836
11
-16.1
21
2.95752201994086e-015
31
105.819334775484
12
-16.1
22
2.95752201994086e-015
32
99.9193347754836
13
-16.1
23
2.95752201994086e-015
33
99.9193347754836
70
1
  0
3DFACE
 8
Layer0
10
-16.1
20
2.95752201994086e-015
30
105.819334775484
11
-15.551405803254
21
4.1669866261506
31
99.9193347754836
12
-15.551405803254
22
4.1669866261506
32
105.819334775484
13
-15.551405803254
23
4.1669866261506
33
105.819334775484
70
1
  0
3DFACE
 8
Layer0
10
-11.3844191771034
20
11.3844191771034
30
99.9193347754836
11
-13.9430090009295
21
8.05000000000001
31
105.819334775484
12
-13.9430090009295
22
8.05000000000001
32
99.9193347754836
13
-13.9430090009295
23
8.05000000000001
33
99.9193347754836
70
1
  0
3DFACE
 8
Layer0
10
-13.9430090009295
20
8.05000000000001
30
105.819334775484
11
-11.3844191771034
21
11.3844191771034
31
99.9193347754836
12
-11.3844191771034
22
11.3844191771034
32
105.819334775484
13
-11.3844191771034
23
11.3844191771034
33
105.819334775484
70
1
  0
3DFACE
 8
Layer0
10
-4.16698662615058
20
15.551405803254
30
105.819334775484
11
-8.05
21
13.9430090009295
31
99.9193347754836
12
-4.16698662615058
22
15.551405803254
32
99.9193347754836
13
-4.16698662615058
23
15.551405803254
33
99.9193347754836
70
1
  0
3DFACE
 8
Layer0
10
-8.05
20
13.9430090009295
30
99.9193347754836
11
-4.16698662615058
21
15.551405803254
31
105.819334775484
12
-8.05
22
13.9430090009295
32
105.819334775484
13
-8.05
23
13.9430090009295
33
105.819334775484
70
1
  0
3DFACE
 8
Layer0
10
1.97168134662724e-015
20
16.1
30
105.819334775484
11
-4.16698662615058
21
15.551405803254
31
99.9193347754836
12
1.97168134662724e-015
22
16.1
32
99.9193347754836
13
1.97168134662724e-015
23
16.1
33
99.9193347754836
70
1
  0
3DFACE
 8
Layer0
10
-4.16698662615058
20
15.551405803254
30
99.9193347754836
11
1.97168134662724e-015
21
16.1
31
105.819334775484
12
-4.16698662615058
22
15.551405803254
32
105.819334775484
13
-4.16698662615058
23
15.551405803254
33
105.819334775484
70
1
  0
3DFACE
 8
Layer0
10
-13.9430090009295
20
-8.04999999999999
30
99.9193347754836
11
-11.3844191771034
21
-11.3844191771034
31
105.819334775484
12
-11.3844191771034
22
-11.3844191771034
32
99.9193347754836
13
-11.3844191771034
23
-11.3844191771034
33
99.9193347754836
70
1
  0
3DFACE
 8
Layer0
10
-11.3844191771034
20
-11.3844191771034
30
105.819334775484
11
-13.9430090009295
21
-8.04999999999999
31
99.9193347754836
12
-13.9430090009295
22
-8.04999999999999
32
105.819334775484
13
-13.9430090009295
23
-8.04999999999999
33
105.819334775484
70
1
  0
3DFACE
 8
Layer0
10
4.16698662615059
20
15.551405803254
30
105.819334775484
11
1.97168134662724e-015
21
16.1
31
99.9193347754836
12
4.16698662615059
22
15.551405803254
32
99.9193347754836
13
4.16698662615059
23
15.551405803254
33
99.9193347754836
70
1
  0
3DFACE
 8
Layer0
10
1.97168134662724e-015
20
16.1
30
99.9193347754836
11
4.16698662615059
21
15.551405803254
31
105.819334775484
12
1.97168134662724e-015
22
16.1
32
105.819334775484
13
1.97168134662724e-015
23
16.1
33
105.819334775484
70
1
  0
3DFACE
 8
Layer0
10
26.1735618131013
20
3.0
30
18.2
11
28.0578718176293
21
3.0
31
15.2
12
26.5578718176293
22
3.0
32
15.2
13
26.5578718176293
23
3.0
33
15.2
70
1
  0
3DFACE
 8
Layer0
10
28.0578718176293
20
3.0
30
15.2
11
26.1735618131013
21
3.0
31
18.2
12
27.6735618131013
22
3.0
32
18.2
13
27.6735618131013
23
3.0
33
18.2
70
1
  0
3DFACE
 8
Layer0
10
-27.6735618131013
20
-3.0
30
18.2
11
-27.6735618131013
21
3.0
31
18.2
12
-28.0685193058635
22
5.41221253406859e-015
32
18.2
13
-28.0685193058635
23
5.41221253406859e-015
33
18.2
70
1
  0
3DFACE
 8
Layer0
10
-27.6735618131013
20
3.0
30
18.2
11
-27.6735618131013
21
-3.0
31
18.2
12
-26.1735618131013
22
-3.0
32
18.2
13
-26.1735618131013
23
-3.0
33
18.2
70
13
  0
3DFACE
 8
Layer0
10
-27.6735618131013
20
3.0
30
18.2
11
-26.1735618131013
21
-3.0
31
18.2
12
-26.5685193058635
22
5.52726836367197e-015
32
18.2
13
-26.5685193058635
23
5.52726836367197e-015
33
18.2
70
13
  0
3DFACE
 8
Layer0
10
-26.1735618131013
20
3.0
30
18.2
11
-27.6735618131013
21
3.0
31
18.2
12
-26.5685193058635
22
5.52726836367197e-015
32
18.2
13
-26.5685193058635
23
5.52726836367197e-015
33
18.2
70
2
  0
3DFACE
 8
Layer0
10
-4.1669866261506
20
-15.551405803254
30
105.819334775484
11
0.0
21
-16.1
31
99.9193347754836
12
-4.1669866261506
22
-15.551405803254
32
99.9193347754836
13
-4.1669866261506
23
-15.551405803254
33
99.9193347754836
70
1
  0
3DFACE
 8
Layer0
10
0.0
20
-16.1
30
99.9193347754836
11
-4.1669866261506
21
-15.551405803254
31
105.819334775484
12
0.0
22
-16.1
32
105.819334775484
13
0.0
23
-16.1
33
105.819334775484
70
1
  0
3DFACE
 8
Layer0
10
-15.551405803254
20
-4.16698662615058
30
99.9193347754836
11
-13.9430090009295
21
-8.04999999999999
31
105.819334775484
12
-13.9430090009295
22
-8.04999999999999
32
99.9193347754836
13
-13.9430090009295
23
-8.04999999999999
33
99.9193347754836
70
1
  0
3DFACE
 8
Layer0
10
-13.9430090009295
20
-8.04999999999999
30
105.819334775484
11
-15.551405803254
21
-4.16698662615058
31
99.9193347754836
12
-15.551405803254
22
-4.16698662615058
32
105.819334775484
13
-15.551405803254
23
-4.16698662615058
33
105.819334775484
70
1
  0
3DFACE
 8
Layer0
10
-26.1735618131013
20
-3.0
30
18.2
11
-28.0578718176293
21
-3.0
31
15.2
12
-26.5578718176293
22
-3.0
32
15.2
13
-26.5578718176293
23
-3.0
33
15.2
70
1
  0
3DFACE
 8
Layer0
10
-28.0578718176293
20
-3.0
30
15.2
11
-26.1735618131013
21
-3.0
31
18.2
12
-27.6735618131013
22
-3.0
32
18.2
13
-27.6735618131013
23
-3.0
33
18.2
70
1
  0
3DFACE
 8
Layer0
10
28.0578718176293
20
3.0
30
15.2
11
26.9528293103915
21
-2.35212809007666e-015
31
15.2
12
26.5578718176293
22
3.0
32
15.2
13
26.5578718176293
23
3.0
33
15.2
70
1
  0
3DFACE
 8
Layer0
10
26.9528293103915
20
-2.35212809007666e-015
30
15.2
11
28.0578718176293
21
-3.0
31
15.2
12
26.5578718176293
22
-3.0
32
15.2
13
26.5578718176293
23
-3.0
33
15.2
70
1
  0
3DFACE
 8
Layer0
10
28.0578718176293
20
-3.0
30
15.2
11
26.9528293103915
21
-2.35212809007666e-015
31
15.2
12
28.0578718176293
22
3.0
32
15.2
13
28.0578718176293
23
3.0
33
15.2
70
15
  0
3DFACE
 8
Layer0
10
28.0578718176293
20
-3.0
30
15.2
11
28.0578718176293
21
3.0
31
15.2
12
28.4528293103915
22
-2.76470761334341e-015
32
15.2
13
28.4528293103915
23
-2.76470761334341e-015
33
15.2
70
1
  0
3DFACE
 8
Layer0
10
27.6735618131013
20
-3.0
30
18.2
11
26.5578718176293
21
-3.0
31
15.2
12
28.0578718176293
22
-3.0
32
15.2
13
28.0578718176293
23
-3.0
33
15.2
70
1
  0
3DFACE
 8
Layer0
10
26.5578718176293
20
-3.0
30
15.2
11
27.6735618131013
21
-3.0
31
18.2
12
26.1735618131013
22
-3.0
32
18.2
13
26.1735618131013
23
-3.0
33
18.2
70
1
  0
3DFACE
 8
Layer0
10
8.05000000000001
20
13.9430090009295
30
105.819334775484
11
4.16698662615059
21
15.551405803254
31
99.9193347754836
12
8.05000000000001
22
13.9430090009295
32
99.9193347754836
13
8.05000000000001
23
13.9430090009295
33
99.9193347754836
70
1
  0
3DFACE
 8
Layer0
10
4.16698662615059
20
15.551405803254
30
99.9193347754836
11
8.05000000000001
21
13.9430090009295
31
105.819334775484
12
4.16698662615059
22
15.551405803254
32
105.819334775484
13
4.16698662615059
23
15.551405803254
33
105.819334775484
70
1
  0
3DFACE
 8
Layer0
10
0.0
20
-16.1
30
105.819334775484
11
4.16698662615058
21
-15.551405803254
31
99.9193347754836
12
0.0
22
-16.1
32
99.9193347754836
13
0.0
23
-16.1
33
99.9193347754836
70
1
  0
3DFACE
 8
Layer0
10
4.16698662615058
20
-15.551405803254
30
99.9193347754836
11
0.0
21
-16.1
31
105.819334775484
12
4.16698662615058
22
-15.551405803254
32
105.819334775484
13
4.16698662615058
23
-15.551405803254
33
105.819334775484
70
1
  0
3DFACE
 8
Layer0
10
-27.6735618131013
20
3.0
30
18.2
11
-26.5578718176293
21
3.0
31
15.2
12
-28.0578718176293
22
3.0
32
15.2
13
-28.0578718176293
23
3.0
33
15.2
70
1
  0
3DFACE
 8
Layer0
10
-26.5578718176293
20
3.0
30
15.2
11
-27.6735618131013
21
3.0
31
18.2
12
-26.1735618131013
22
3.0
32
18.2
13
-26.1735618131013
23
3.0
33
18.2
70
1
  0
3DFACE
 8
Layer0
10
-26.5578718176293
20
3.0
30
15.2
11
-26.9528293103915
21
5.59666220576164e-015
31
15.2
12
-28.0578718176293
22
3.0
32
15.2
13
-28.0578718176293
23
3.0
33
15.2
70
2
  0
3DFACE
 8
Layer0
10
-28.0578718176293
20
3.0
30
15.2
11
-28.0578718176293
21
-3.0
31
15.2
12
-28.4528293103915
22
5.54521739807379e-015
32
15.2
13
-28.4528293103915
23
5.54521739807379e-015
33
15.2
70
1
  0
3DFACE
 8
Layer0
10
-28.0578718176293
20
-3.0
30
15.2
11
-28.0578718176293
21
3.0
31
15.2
12
-26.5578718176293
22
-3.0
32
15.2
13
-26.5578718176293
23
-3.0
33
15.2
70
3
  0
3DFACE
 8
Layer0
10
-26.5578718176293
20
-3.0
30
15.2
11
-28.0578718176293
21
3.0
31
15.2
12
-26.9528293103915
22
5.59666220576164e-015
32
15.2
13
-26.9528293103915
23
5.59666220576164e-015
33
15.2
70
3
  0
3DFACE
 8
Layer0
10
-8.05000000000001
20
-13.9430090009295
30
105.819334775484
11
-4.1669866261506
21
-15.551405803254
31
99.9193347754836
12
-8.05000000000001
22
-13.9430090009295
32
99.9193347754836
13
-8.05000000000001
23
-13.9430090009295
33
99.9193347754836
70
1
  0
3DFACE
 8
Layer0
10
-4.1669866261506
20
-15.551405803254
30
99.9193347754836
11
-8.05000000000001
21
-13.9430090009295
31
105.819334775484
12
-4.1669866261506
22
-15.551405803254
32
105.819334775484
13
-4.1669866261506
23
-15.551405803254
33
105.819334775484
70
1
  0
3DFACE
 8
Layer0
10
-13.9430090009295
20
8.05000000000001
30
99.9193347754836
11
-15.551405803254
21
4.1669866261506
31
105.819334775484
12
-15.551405803254
22
4.1669866261506
32
99.9193347754836
13
-15.551405803254
23
4.1669866261506
33
99.9193347754836
70
1
  0
3DFACE
 8
Layer0
10
-15.551405803254
20
4.1669866261506
30
105.819334775484
11
-13.9430090009295
21
8.05000000000001
31
99.9193347754836
12
-13.9430090009295
22
8.05000000000001
32
105.819334775484
13
-13.9430090009295
23
8.05000000000001
33
105.819334775484
70
1
  0
3DFACE
 8
Layer0
10
-8.05
20
13.9430090009295
30
105.819334775484
11
-11.3844191771034
21
11.3844191771034
31
99.9193347754836
12
-8.05
22
13.9430090009295
32
99.9193347754836
13
-8.05
23
13.9430090009295
33
99.9193347754836
70
1
  0
3DFACE
 8
Layer0
10
-11.3844191771034
20
11.3844191771034
30
99.9193347754836
11
-8.05
21
13.9430090009295
31
105.819334775484
12
-11.3844191771034
22
11.3844191771034
32
105.819334775484
13
-11.3844191771034
23
11.3844191771034
33
105.819334775484
70
1
  0
3DFACE
 8
Layer0
10
27.6735618131013
20
-3.0
30
18.2
11
26.5685193058635
21
-2.3289968093801e-015
31
18.2
12
26.1735618131013
22
-3.0
32
18.2
13
26.1735618131013
23
-3.0
33
18.2
70
1
  0
3DFACE
 8
Layer0
10
26.5685193058635
20
-2.3289968093801e-015
30
18.2
11
27.6735618131013
21
3.0
31
18.2
12
26.1735618131013
22
3.0
32
18.2
13
26.1735618131013
23
3.0
33
18.2
70
1
  0
3DFACE
 8
Layer0
10
27.6735618131013
20
3.0
30
18.2
11
26.5685193058635
21
-2.3289968093801e-015
31
18.2
12
27.6735618131013
22
-3.0
32
18.2
13
27.6735618131013
23
-3.0
33
18.2
70
15
  0
3DFACE
 8
Layer0
10
27.6735618131013
20
3.0
30
18.2
11
27.6735618131013
21
-3.0
31
18.2
12
28.0685193058635
22
-2.80518735456239e-015
32
18.2
13
28.0685193058635
23
-2.80518735456239e-015
33
18.2
70
1
  0
3DFACE
 8
Layer0
10
4.16698662615058
20
-15.551405803254
30
105.819334775484
11
8.05
21
-13.9430090009295
31
99.9193347754836
12
4.16698662615058
22
-15.551405803254
32
99.9193347754836
13
4.16698662615058
23
-15.551405803254
33
99.9193347754836
70
1
  0
3DFACE
 8
Layer0
10
8.05
20
-13.9430090009295
30
99.9193347754836
11
4.16698662615058
21
-15.551405803254
31
105.819334775484
12
8.05
22
-13.9430090009295
32
105.819334775484
13
8.05
23
-13.9430090009295
33
105.819334775484
70
1
  0
3DFACE
 8
Layer0
10
-16.1
20
2.95752201994086e-015
30
99.9193347754836
11
-15.551405803254
21
-4.16698662615058
31
105.819334775484
12
-15.551405803254
22
-4.16698662615058
32
99.9193347754836
13
-15.551405803254
23
-4.16698662615058
33
99.9193347754836
70
1
  0
3DFACE
 8
Layer0
10
-15.551405803254
20
-4.16698662615058
30
105.819334775484
11
-16.1
21
2.95752201994086e-015
31
99.9193347754836
12
-16.1
22
2.95752201994086e-015
32
105.819334775484
13
-16.1
23
2.95752201994086e-015
33
105.819334775484
70
1
  0
3DFACE
 8
Layer0
10
-11.3844191771034
20
-11.3844191771034
30
105.819334775484
11
-8.05000000000001
21
-13.9430090009295
31
99.9193347754836
12
-11.3844191771034
22
-11.3844191771034
32
99.9193347754836
13
-11.3844191771034
23
-11.3844191771034
33
99.9193347754836
70
1
  0
3DFACE
 8
Layer0
10
-8.05000000000001
20
-13.9430090009295
30
99.9193347754836
11
-11.3844191771034
21
-11.3844191771034
31
105.819334775484
12
-8.05000000000001
22
-13.9430090009295
32
105.819334775484
13
-8.05000000000001
23
-13.9430090009295
33
105.819334775484
70
1
  0
3DFACE
 8
Layer0
10
-12.4450793488832
20
12.4450793488832
30
105.819334775484
11
-8.8
21
15.2420471066061
31
99.9193347754836
12
-12.4450793488832
22
12.4450793488832
32
99.9193347754836
13
-12.4450793488832
23
12.4450793488832
33
99.9193347754836
70
1
  0
3DFACE
 8
Layer0
10
-8.8
20
15.2420471066061
30
99.9193347754836
11
-12.4450793488832
21
12.4450793488832
31
105.819334775484
12
-8.8
22
15.2420471066061
32
105.819334775484
13
-8.8
23
15.2420471066061
33
105.819334775484
70
1
  0
3DFACE
 8
Layer0
10
-15.2420471066061
20
8.8
30
105.819334775484
11
-17.0002945426876
21
4.55521519380437
31
99.9193347754836
12
-17.0002945426876
22
4.55521519380437
32
105.819334775484
13
-17.0002945426876
23
4.55521519380437
33
105.819334775484
70
1
  0
3DFACE
 8
Layer0
10
-17.0002945426876
20
4.55521519380437
30
99.9193347754836
11
-15.2420471066061
21
8.8
31
105.819334775484
12
-15.2420471066061
22
8.8
32
99.9193347754836
13
-15.2420471066061
23
8.8
33
99.9193347754836
70
1
  0
3DFACE
 8
Layer0
10
-17.0002945426876
20
-4.55521519380436
30
105.819334775484
11
-15.2420471066061
21
-8.79999999999999
31
99.9193347754836
12
-15.2420471066061
22
-8.79999999999999
32
105.819334775484
13
-15.2420471066061
23
-8.79999999999999
33
105.819334775484
70
1
  0
3DFACE
 8
Layer0
10
-15.2420471066061
20
-8.79999999999999
30
99.9193347754836
11
-17.0002945426876
21
-4.55521519380436
31
105.819334775484
12
-17.0002945426876
22
-4.55521519380436
32
99.9193347754836
13
-17.0002945426876
23
-4.55521519380436
33
99.9193347754836
70
1
  0
3DFACE
 8
Layer0
10
-8.8
20
-15.2420471066061
30
105.819334775484
11
-12.4450793488832
21
-12.4450793488832
31
99.9193347754836
12
-8.8
22
-15.2420471066061
32
99.9193347754836
13
-8.8
23
-15.2420471066061
33
99.9193347754836
70
1
  0
3DFACE
 8
Layer0
10
-12.4450793488832
20
-12.4450793488832
30
99.9193347754836
11
-8.8
21
-15.2420471066061
31
105.819334775484
12
-12.4450793488832
22
-12.4450793488832
32
105.819334775484
13
-12.4450793488832
23
-12.4450793488832
33
105.819334775484
70
1
  0
3DFACE
 8
Layer0
10
-2.15537836649934e-015
20
-17.6
30
105.819334775484
11
-4.55521519380437
21
-17.0002945426876
31
99.9193347754836
12
-2.15537836649934e-015
22
-17.6
32
99.9193347754836
13
-2.15537836649934e-015
23
-17.6
33
99.9193347754836
70
1
  0
3DFACE
 8
Layer0
10
-4.55521519380437
20
-17.0002945426876
30
99.9193347754836
11
-2.15537836649934e-015
21
-17.6
31
105.819334775484
12
-4.55521519380437
22
-17.0002945426876
32
105.819334775484
13
-4.55521519380437
23
-17.0002945426876
33
105.819334775484
70
1
  0
3DFACE
 8
Layer0
10
11.3844191771034
20
11.3844191771034
30
105.819334775484
11
8.05000000000001
21
13.9430090009295
31
99.9193347754836
12
11.3844191771034
22
11.3844191771034
32
99.9193347754836
13
11.3844191771034
23
11.3844191771034
33
99.9193347754836
70
1
  0
3DFACE
 8
Layer0
10
8.05000000000001
20
13.9430090009295
30
99.9193347754836
11
11.3844191771034
21
11.3844191771034
31
105.819334775484
12
8.05000000000001
22
13.9430090009295
32
105.819334775484
13
8.05000000000001
23
13.9430090009295
33
105.819334775484
70
1
  0
3DFACE
 8
Layer0
10
4.55521519380436
20
-17.0002945426876
30
105.819334775484
11
-2.15537836649934e-015
21
-17.6
31
99.9193347754836
12
4.55521519380436
22
-17.0002945426876
32
99.9193347754836
13
4.55521519380436
23
-17.0002945426876
33
99.9193347754836
70
1
  0
3DFACE
 8
Layer0
10
-2.15537836649934e-015
20
-17.6
30
99.9193347754836
11
4.55521519380436
21
-17.0002945426876
31
105.819334775484
12
-2.15537836649934e-015
22
-17.6
32
105.819334775484
13
-2.15537836649934e-015
23
-17.6
33
105.819334775484
70
1
  0
3DFACE
 8
Layer0
10
11.3844191771034
20
11.3844191771034
30
105.819334775484
11
13.9430090009295
21
8.05
31
99.9193347754836
12
13.9430090009295
22
8.05
32
105.819334775484
13
13.9430090009295
23
8.05
33
105.819334775484
70
1
  0
3DFACE
 8
Layer0
10
13.9430090009295
20
8.05
30
99.9193347754836
11
11.3844191771034
21
11.3844191771034
31
105.819334775484
12
11.3844191771034
22
11.3844191771034
32
99.9193347754836
13
11.3844191771034
23
11.3844191771034
33
99.9193347754836
70
1
  0
3DFACE
 8
Layer0
10
13.9430090009295
20
8.05
30
105.819334775484
11
15.551405803254
21
4.16698662615058
31
99.9193347754836
12
15.551405803254
22
4.16698662615058
32
105.819334775484
13
15.551405803254
23
4.16698662615058
33
105.819334775484
70
1
  0
3DFACE
 8
Layer0
10
15.551405803254
20
4.16698662615058
30
99.9193347754836
11
13.9430090009295
21
8.05
31
105.819334775484
12
13.9430090009295
22
8.05
32
99.9193347754836
13
13.9430090009295
23
8.05
33
99.9193347754836
70
1
  0
3DFACE
 8
Layer0
10
-17.0002945426876
20
4.55521519380437
30
105.819334775484
11
-17.6
21
1.07768918324967e-015
31
99.9193347754836
12
-17.6
22
1.07768918324967e-015
32
105.819334775484
13
-17.6
23
1.07768918324967e-015
33
105.819334775484
70
1
  0
3DFACE
 8
Layer0
10
-17.6
20
1.07768918324967e-015
30
99.9193347754836
11
-17.0002945426876
21
4.55521519380437
31
105.819334775484
12
-17.0002945426876
22
4.55521519380437
32
99.9193347754836
13
-17.0002945426876
23
4.55521519380437
33
99.9193347754836
70
1
  0
3DFACE
 8
Layer0
10
-8.8
20
15.2420471066061
30
105.819334775484
11
-4.55521519380436
21
17.0002945426876
31
99.9193347754836
12
-8.8
22
15.2420471066061
32
99.9193347754836
13
-8.8
23
15.2420471066061
33
99.9193347754836
70
1
  0
3DFACE
 8
Layer0
10
-4.55521519380436
20
17.0002945426876
30
99.9193347754836
11
-8.8
21
15.2420471066061
31
105.819334775484
12
-4.55521519380436
22
17.0002945426876
32
105.819334775484
13
-4.55521519380436
23
17.0002945426876
33
105.819334775484
70
1
  0
3DFACE
 8
Layer0
10
-15.2420471066061
20
-8.79999999999999
30
105.819334775484
11
-12.4450793488832
21
-12.4450793488832
31
99.9193347754836
12
-12.4450793488832
22
-12.4450793488832
32
105.819334775484
13
-12.4450793488832
23
-12.4450793488832
33
105.819334775484
70
1
  0
3DFACE
 8
Layer0
10
-12.4450793488832
20
-12.4450793488832
30
99.9193347754836
11
-15.2420471066061
21
-8.79999999999999
31
105.819334775484
12
-15.2420471066061
22
-8.79999999999999
32
99.9193347754836
13
-15.2420471066061
23
-8.79999999999999
33
99.9193347754836
70
1
  0
3DFACE
 8
Layer0
10
-4.55521519380437
20
-17.0002945426876
30
105.819334775484
11
-8.8
21
-15.2420471066061
31
99.9193347754836
12
-4.55521519380437
22
-17.0002945426876
32
99.9193347754836
13
-4.55521519380437
23
-17.0002945426876
33
99.9193347754836
70
1
  0
3DFACE
 8
Layer0
10
-8.8
20
-15.2420471066061
30
99.9193347754836
11
-4.55521519380437
21
-17.0002945426876
31
105.819334775484
12
-8.8
22
-15.2420471066061
32
105.819334775484
13
-8.8
23
-15.2420471066061
33
105.819334775484
70
1
  0
3DFACE
 8
Layer0
10
-17.6
20
1.07768918324967e-015
30
105.819334775484
11
-17.0002945426876
21
-4.55521519380436
31
99.9193347754836
12
-17.0002945426876
22
-4.55521519380436
32
105.819334775484
13
-17.0002945426876
23
-4.55521519380436
33
105.819334775484
70
1
  0
3DFACE
 8
Layer0
10
-17.0002945426876
20
-4.55521519380436
30
99.9193347754836
11
-17.6
21
1.07768918324967e-015
31
105.819334775484
12
-17.6
22
1.07768918324967e-015
32
99.9193347754836
13
-17.6
23
1.07768918324967e-015
33
99.9193347754836
70
1
  0
3DFACE
 8
Layer0
10
8.8
20
-15.2420471066061
30
105.819334775484
11
4.55521519380436
21
-17.0002945426876
31
99.9193347754836
12
8.8
22
-15.2420471066061
32
99.9193347754836
13
8.8
23
-15.2420471066061
33
99.9193347754836
70
1
  0
3DFACE
 8
Layer0
10
4.55521519380436
20
-17.0002945426876
30
99.9193347754836
11
8.8
21
-15.2420471066061
31
105.819334775484
12
4.55521519380436
22
-17.0002945426876
32
105.819334775484
13
4.55521519380436
23
-17.0002945426876
33
105.819334775484
70
1
  0
3DFACE
 8
Layer0
10
15.551405803254
20
4.16698662615058
30
105.819334775484
11
16.1
21
-9.85840673313619e-016
31
99.9193347754836
12
16.1
22
-9.85840673313619e-016
32
105.819334775484
13
16.1
23
-9.85840673313619e-016
33
105.819334775484
70
1
  0
3DFACE
 8
Layer0
10
16.1
20
-9.85840673313619e-016
30
99.9193347754836
11
15.551405803254
21
4.16698662615058
31
105.819334775484
12
15.551405803254
22
4.16698662615058
32
99.9193347754836
13
15.551405803254
23
4.16698662615058
33
99.9193347754836
70
1
  0
3DFACE
 8
Layer0
10
-12.4450793488832
20
12.4450793488832
30
105.819334775484
11
-15.2420471066061
21
8.8
31
99.9193347754836
12
-15.2420471066061
22
8.8
32
105.819334775484
13
-15.2420471066061
23
8.8
33
105.819334775484
70
1
  0
3DFACE
 8
Layer0
10
-15.2420471066061
20
8.8
30
99.9193347754836
11
-12.4450793488832
21
12.4450793488832
31
105.819334775484
12
-12.4450793488832
22
12.4450793488832
32
99.9193347754836
13
-12.4450793488832
23
12.4450793488832
33
99.9193347754836
70
1
  0
3DFACE
 8
Layer0
10
16.1
20
-9.85840673313619e-016
30
105.819334775484
11
15.551405803254
21
-4.16698662615059
31
99.9193347754836
12
15.551405803254
22
-4.16698662615059
32
105.819334775484
13
15.551405803254
23
-4.16698662615059
33
105.819334775484
70
1
  0
3DFACE
 8
Layer0
10
15.551405803254
20
-4.16698662615059
30
99.9193347754836
11
16.1
21
-9.85840673313619e-016
31
105.819334775484
12
16.1
22
-9.85840673313619e-016
32
99.9193347754836
13
16.1
23
-9.85840673313619e-016
33
99.9193347754836
70
1
  0
3DFACE
 8
Layer0
10
13.9430090009295
20
-8.05
30
105.819334775484
11
11.3844191771034
21
-11.3844191771034
31
99.9193347754836
12
11.3844191771034
22
-11.3844191771034
32
105.819334775484
13
11.3844191771034
23
-11.3844191771034
33
105.819334775484
70
1
  0
3DFACE
 8
Layer0
10
11.3844191771034
20
-11.3844191771034
30
99.9193347754836
11
13.9430090009295
21
-8.05
31
105.819334775484
12
13.9430090009295
22
-8.05
32
99.9193347754836
13
13.9430090009295
23
-8.05
33
99.9193347754836
70
1
  0
3DFACE
 8
Layer0
10
8.05
20
-13.9430090009295
30
105.819334775484
11
11.3844191771034
21
-11.3844191771034
31
99.9193347754836
12
8.05
22
-13.9430090009295
32
99.9193347754836
13
8.05
23
-13.9430090009295
33
99.9193347754836
70
1
  0
3DFACE
 8
Layer0
10
11.3844191771034
20
-11.3844191771034
30
99.9193347754836
11
8.05
21
-13.9430090009295
31
105.819334775484
12
11.3844191771034
22
-11.3844191771034
32
105.819334775484
13
11.3844191771034
23
-11.3844191771034
33
105.819334775484
70
1
  0
3DFACE
 8
Layer0
10
15.551405803254
20
-4.16698662615059
30
105.819334775484
11
13.9430090009295
21
-8.05
31
99.9193347754836
12
13.9430090009295
22
-8.05
32
105.819334775484
13
13.9430090009295
23
-8.05
33
105.819334775484
70
1
  0
3DFACE
 8
Layer0
10
13.9430090009295
20
-8.05
30
99.9193347754836
11
15.551405803254
21
-4.16698662615059
31
105.819334775484
12
15.551405803254
22
-4.16698662615059
32
99.9193347754836
13
15.551405803254
23
-4.16698662615059
33
99.9193347754836
70
1
  0
3DFACE
 8
Layer0
10
-15.2420471066061
20
-8.79999999999999
30
99.9193347754836
11
-29.3641451191877
21
-7.86809897111662
31
0.0
12
-26.3271722750469
22
-15.2
32
0.0
13
-26.3271722750469
23
-15.2
33
0.0
70
1
  0
3DFACE
 8
Layer0
10
-29.3641451191877
20
-7.86809897111662
30
0.0
11
-15.2420471066061
21
-8.79999999999999
31
99.9193347754836
12
-17.0002945426876
22
-4.55521519380436
32
99.9193347754836
13
-17.0002945426876
23
-4.55521519380436
33
99.9193347754836
70
1
  0
3DFACE
 8
Layer0
10
4.55521519380438
20
17.0002945426876
30
99.9193347754836
11
15.2
21
26.3271722750469
31
0.0
12
7.86809897111664
22
29.3641451191877
32
0.0
13
7.86809897111664
23
29.3641451191877
33
0.0
70
1
  0
3DFACE
 8
Layer0
10
15.2
20
26.3271722750469
30
0.0
11
4.55521519380438
21
17.0002945426876
31
99.9193347754836
12
8.80000000000001
22
15.2420471066061
32
99.9193347754836
13
8.80000000000001
23
15.2420471066061
33
99.9193347754836
70
1
  0
3DFACE
 8
Layer0
10
8.80000000000001
20
15.2420471066061
30
105.819334775484
11
12.4450793488832
21
12.4450793488832
31
99.9193347754836
12
8.80000000000001
22
15.2420471066061
32
99.9193347754836
13
8.80000000000001
23
15.2420471066061
33
99.9193347754836
70
1
  0
3DFACE
 8
Layer0
10
12.4450793488832
20
12.4450793488832
30
99.9193347754836
11
8.80000000000001
21
15.2420471066061
31
105.819334775484
12
12.4450793488832
22
12.4450793488832
32
105.819334775484
13
12.4450793488832
23
12.4450793488832
33
105.819334775484
70
1
  0
3DFACE
 8
Layer0
10
4.55521519380438
20
17.0002945426876
30
105.819334775484
11
8.80000000000001
21
15.2420471066061
31
99.9193347754836
12
4.55521519380438
22
17.0002945426876
32
99.9193347754836
13
4.55521519380438
23
17.0002945426876
33
99.9193347754836
70
1
  0
3DFACE
 8
Layer0
10
8.80000000000001
20
15.2420471066061
30
99.9193347754836
11
4.55521519380438
21
17.0002945426876
31
105.819334775484
12
8.80000000000001
22
15.2420471066061
32
105.819334775484
13
8.80000000000001
23
15.2420471066061
33
105.819334775484
70
1
  0
3DFACE
 8
Layer0
10
15.2420471066061
20
8.79999999999999
30
99.9193347754836
11
17.0002945426876
21
4.55521519380436
31
105.819334775484
12
17.0002945426876
22
4.55521519380436
32
99.9193347754836
13
17.0002945426876
23
4.55521519380436
33
99.9193347754836
70
1
  0
3DFACE
 8
Layer0
10
17.0002945426876
20
4.55521519380436
30
105.819334775484
11
15.2420471066061
21
8.79999999999999
31
99.9193347754836
12
15.2420471066061
22
8.79999999999999
32
105.819334775484
13
15.2420471066061
23
8.79999999999999
33
105.819334775484
70
1
  0
3DFACE
 8
Layer0
10
-4.55521519380436
20
17.0002945426876
30
105.819334775484
11
0.0
21
17.6
31
99.9193347754836
12
-4.55521519380436
22
17.0002945426876
32
99.9193347754836
13
-4.55521519380436
23
17.0002945426876
33
99.9193347754836
70
1
  0
3DFACE
 8
Layer0
10
0.0
20
17.6
30
99.9193347754836
11
-4.55521519380436
21
17.0002945426876
31
105.819334775484
12
0.0
22
17.6
32
105.819334775484
13
0.0
23
17.6
33
105.819334775484
70
1
  0
3DFACE
 8
Layer0
10
-17.0002945426876
20
-4.55521519380436
30
105.819334775484
11
-17.0002945426876
21
4.55521519380437
31
105.819334775484
12
-17.6
22
1.07768918324967e-015
32
105.819334775484
13
-17.6
23
1.07768918324967e-015
33
105.819334775484
70
1
  0
3DFACE
 8
Layer0
10
-17.0002945426876
20
4.55521519380437
30
105.819334775484
11
-17.0002945426876
21
-4.55521519380436
31
105.819334775484
12
-15.2420471066061
22
-8.79999999999999
32
105.819334775484
13
-15.2420471066061
23
-8.79999999999999
33
105.819334775484
70
13
  0
3DFACE
 8
Layer0
10
-17.0002945426876
20
4.55521519380437
30
105.819334775484
11
-15.2420471066061
21
-8.79999999999999
31
105.819334775484
12
-16.1
22
2.95752201994086e-015
32
105.819334775484
13
-16.1
23
2.95752201994086e-015
33
105.819334775484
70
15
  0
3DFACE
 8
Layer0
10
-16.1
20
2.95752201994086e-015
30
105.819334775484
11
-15.2420471066061
21
-8.79999999999999
31
105.819334775484
12
-15.551405803254
22
-4.16698662615058
32
105.819334775484
13
-15.551405803254
23
-4.16698662615058
33
105.819334775484
70
3
  0
3DFACE
 8
Layer0
10
-15.551405803254
20
-4.16698662615058
30
105.819334775484
11
-15.2420471066061
21
-8.79999999999999
31
105.819334775484
12
-13.9430090009295
22
-8.04999999999999
32
105.819334775484
13
-13.9430090009295
23
-8.04999999999999
33
105.819334775484
70
3
  0
3DFACE
 8
Layer0
10
-13.9430090009295
20
-8.04999999999999
30
105.819334775484
11
-15.2420471066061
21
-8.79999999999999
31
105.819334775484
12
-12.4450793488832
22
-12.4450793488832
32
105.819334775484
13
-12.4450793488832
23
-12.4450793488832
33
105.819334775484
70
13
  0
3DFACE
 8
Layer0
10
-13.9430090009295
20
-8.04999999999999
30
105.819334775484
11
-12.4450793488832
21
-12.4450793488832
31
105.819334775484
12
-11.3844191771034
22
-11.3844191771034
32
105.819334775484
13
-11.3844191771034
23
-11.3844191771034
33
105.819334775484
70
3
  0
3DFACE
 8
Layer0
10
-11.3844191771034
20
-11.3844191771034
30
105.819334775484
11
-12.4450793488832
21
-12.4450793488832
31
105.819334775484
12
-8.8
22
-15.2420471066061
32
105.819334775484
13
-8.8
23
-15.2420471066061
33
105.819334775484
70
13
  0
3DFACE
 8
Layer0
10
-11.3844191771034
20
-11.3844191771034
30
105.819334775484
11
-8.8
21
-15.2420471066061
31
105.819334775484
12
-8.05000000000001
22
-13.9430090009295
32
105.819334775484
13
-8.05000000000001
23
-13.9430090009295
33
105.819334775484
70
3
  0
3DFACE
 8
Layer0
10
-8.05000000000001
20
-13.9430090009295
30
105.819334775484
11
-8.8
21
-15.2420471066061
31
105.819334775484
12
-4.55521519380437
22
-17.0002945426876
32
105.819334775484
13
-4.55521519380437
23
-17.0002945426876
33
105.819334775484
70
13
  0
3DFACE
 8
Layer0
10
-8.05000000000001
20
-13.9430090009295
30
105.819334775484
11
-4.55521519380437
21
-17.0002945426876
31
105.819334775484
12
-4.1669866261506
22
-15.551405803254
32
105.819334775484
13
-4.1669866261506
23
-15.551405803254
33
105.819334775484
70
3
  0
3DFACE
 8
Layer0
10
-4.1669866261506
20
-15.551405803254
30
105.819334775484
11
-4.55521519380437
21
-17.0002945426876
31
105.819334775484
12
-2.15537836649934e-015
22
-17.6
32
105.819334775484
13
-2.15537836649934e-015
23
-17.6
33
105.819334775484
70
13
  0
3DFACE
 8
Layer0
10
-4.1669866261506
20
-15.551405803254
30
105.819334775484
11
-2.15537836649934e-015
21
-17.6
31
105.819334775484
12
0.0
22
-16.1
32
105.819334775484
13
0.0
23
-16.1
33
105.819334775484
70
3
  0
3DFACE
 8
Layer0
10
0.0
20
-16.1
30
105.819334775484
11
-2.15537836649934e-015
21
-17.6
31
105.819334775484
12
4.55521519380436
22
-17.0002945426876
32
105.819334775484
13
4.55521519380436
23
-17.0002945426876
33
105.819334775484
70
13
  0
3DFACE
 8
Layer0
10
0.0
20
-16.1
30
105.819334775484
11
4.55521519380436
21
-17.0002945426876
31
105.819334775484
12
4.16698662615058
22
-15.551405803254
32
105.819334775484
13
4.16698662615058
23
-15.551405803254
33
105.819334775484
70
3
  0
3DFACE
 8
Layer0
10
4.16698662615058
20
-15.551405803254
30
105.819334775484
11
4.55521519380436
21
-17.0002945426876
31
105.819334775484
12
8.05
22
-13.9430090009295
32
105.819334775484
13
8.05
23
-13.9430090009295
33
105.819334775484
70
3
  0
3DFACE
 8
Layer0
10
8.05
20
-13.9430090009295
30
105.819334775484
11
4.55521519380436
21
-17.0002945426876
31
105.819334775484
12
8.8
22
-15.2420471066061
32
105.819334775484
13
8.8
23
-15.2420471066061
33
105.819334775484
70
13
  0
3DFACE
 8
Layer0
10
8.05
20
-13.9430090009295
30
105.819334775484
11
8.8
21
-15.2420471066061
31
105.819334775484
12
11.3844191771034
22
-11.3844191771034
32
105.819334775484
13
11.3844191771034
23
-11.3844191771034
33
105.819334775484
70
3
  0
3DFACE
 8
Layer0
10
11.3844191771034
20
-11.3844191771034
30
105.819334775484
11
8.8
21
-15.2420471066061
31
105.819334775484
12
12.4450793488832
22
-12.4450793488832
32
105.819334775484
13
12.4450793488832
23
-12.4450793488832
33
105.819334775484
70
13
  0
3DFACE
 8
Layer0
10
11.3844191771034
20
-11.3844191771034
30
105.819334775484
11
12.4450793488832
21
-12.4450793488832
31
105.819334775484
12
13.9430090009295
22
-8.05
32
105.819334775484
13
13.9430090009295
23
-8.05
33
105.819334775484
70
3
  0
3DFACE
 8
Layer0
10
13.9430090009295
20
-8.05
30
105.819334775484
11
12.4450793488832
21
-12.4450793488832
31
105.819334775484
12
15.2420471066061
22
-8.80000000000001
32
105.819334775484
13
15.2420471066061
23
-8.80000000000001
33
105.819334775484
70
13
  0
3DFACE
 8
Layer0
10
13.9430090009295
20
-8.05
30
105.819334775484
11
15.2420471066061
21
-8.80000000000001
31
105.819334775484
12
15.551405803254
22
-4.16698662615059
32
105.819334775484
13
15.551405803254
23
-4.16698662615059
33
105.819334775484
70
3
  0
3DFACE
 8
Layer0
10
15.551405803254
20
-4.16698662615059
30
105.819334775484
11
15.2420471066061
21
-8.80000000000001
31
105.819334775484
12
17.0002945426876
22
-4.55521519380438
32
105.819334775484
13
17.0002945426876
23
-4.55521519380438
33
105.819334775484
70
13
  0
3DFACE
 8
Layer0
10
15.551405803254
20
-4.16698662615059
30
105.819334775484
11
17.0002945426876
21
-4.55521519380438
31
105.819334775484
12
16.1
22
-9.85840673313619e-016
32
105.819334775484
13
16.1
23
-9.85840673313619e-016
33
105.819334775484
70
3
  0
3DFACE
 8
Layer0
10
-16.1
20
2.95752201994086e-015
30
105.819334775484
11
-15.2420471066061
21
8.8
31
105.819334775484
12
-17.0002945426876
22
4.55521519380437
32
105.819334775484
13
-17.0002945426876
23
4.55521519380437
33
105.819334775484
70
13
  0
3DFACE
 8
Layer0
10
-15.2420471066061
20
8.8
30
105.819334775484
11
-16.1
21
2.95752201994086e-015
31
105.819334775484
12
-15.551405803254
22
4.1669866261506
32
105.819334775484
13
-15.551405803254
23
4.1669866261506
33
105.819334775484
70
13
  0
3DFACE
 8
Layer0
10
-15.2420471066061
20
8.8
30
105.819334775484
11
-15.551405803254
21
4.1669866261506
31
105.819334775484
12
-13.9430090009295
22
8.05000000000001
32
105.819334775484
13
-13.9430090009295
23
8.05000000000001
33
105.819334775484
70
13
  0
3DFACE
 8
Layer0
10
-15.2420471066061
20
8.8
30
105.819334775484
11
-13.9430090009295
21
8.05000000000001
31
105.819334775484
12
-12.4450793488832
22
12.4450793488832
32
105.819334775484
13
-12.4450793488832
23
12.4450793488832
33
105.819334775484
70
3
  0
3DFACE
 8
Layer0
10
-12.4450793488832
20
12.4450793488832
30
105.819334775484
11
-13.9430090009295
21
8.05000000000001
31
105.819334775484
12
-11.3844191771034
22
11.3844191771034
32
105.819334775484
13
-11.3844191771034
23
11.3844191771034
33
105.819334775484
70
13
  0
3DFACE
 8
Layer0
10
-12.4450793488832
20
12.4450793488832
30
105.819334775484
11
-11.3844191771034
21
11.3844191771034
31
105.819334775484
12
-8.8
22
15.2420471066061
32
105.819334775484
13
-8.8
23
15.2420471066061
33
105.819334775484
70
3
  0
3DFACE
 8
Layer0
10
-8.8
20
15.2420471066061
30
105.819334775484
11
-11.3844191771034
21
11.3844191771034
31
105.819334775484
12
-8.05
22
13.9430090009295
32
105.819334775484
13
-8.05
23
13.9430090009295
33
105.819334775484
70
13
  0
3DFACE
 8
Layer0
10
-8.8
20
15.2420471066061
30
105.819334775484
11
-8.05
21
13.9430090009295
31
105.819334775484
12
-4.55521519380436
22
17.0002945426876
32
105.819334775484
13
-4.55521519380436
23
17.0002945426876
33
105.819334775484
70
3
  0
3DFACE
 8
Layer0
10
-4.55521519380436
20
17.0002945426876
30
105.819334775484
11
-8.05
21
13.9430090009295
31
105.819334775484
12
-4.16698662615058
22
15.551405803254
32
105.819334775484
13
-4.16698662615058
23
15.551405803254
33
105.819334775484
70
13
  0
3DFACE
 8
Layer0
10
-4.55521519380436
20
17.0002945426876
30
105.819334775484
11
-4.16698662615058
21
15.551405803254
31
105.819334775484
12
0.0
22
17.6
32
105.819334775484
13
0.0
23
17.6
33
105.819334775484
70
3
  0
3DFACE
 8
Layer0
10
0.0
20
17.6
30
105.819334775484
11
-4.16698662615058
21
15.551405803254
31
105.819334775484
12
1.97168134662724e-015
22
16.1
32
105.819334775484
13
1.97168134662724e-015
23
16.1
33
105.819334775484
70
13
  0
3DFACE
 8
Layer0
10
0.0
20
17.6
30
105.819334775484
11
1.97168134662724e-015
21
16.1
31
105.819334775484
12
4.55521519380438
22
17.0002945426876
32
105.819334775484
13
4.55521519380438
23
17.0002945426876
33
105.819334775484
70
3
  0
3DFACE
 8
Layer0
10
4.55521519380438
20
17.0002945426876
30
105.819334775484
11
1.97168134662724e-015
21
16.1
31
105.819334775484
12
4.16698662615059
22
15.551405803254
32
105.819334775484
13
4.16698662615059
23
15.551405803254
33
105.819334775484
70
13
  0
3DFACE
 8
Layer0
10
4.55521519380438
20
17.0002945426876
30
105.819334775484
11
4.16698662615059
21
15.551405803254
31
105.819334775484
12
8.05000000000001
22
13.9430090009295
32
105.819334775484
13
8.05000000000001
23
13.9430090009295
33
105.819334775484
70
13
  0
3DFACE
 8
Layer0
10
4.55521519380438
20
17.0002945426876
30
105.819334775484
11
8.05000000000001
21
13.9430090009295
31
105.819334775484
12
8.80000000000001
22
15.2420471066061
32
105.819334775484
13
8.80000000000001
23
15.2420471066061
33
105.819334775484
70
3
  0
3DFACE
 8
Layer0
10
8.80000000000001
20
15.2420471066061
30
105.819334775484
11
8.05000000000001
21
13.9430090009295
31
105.819334775484
12
11.3844191771034
22
11.3844191771034
32
105.819334775484
13
11.3844191771034
23
11.3844191771034
33
105.819334775484
70
13
  0
3DFACE
 8
Layer0
10
8.80000000000001
20
15.2420471066061
30
105.819334775484
11
11.3844191771034
21
11.3844191771034
31
105.819334775484
12
12.4450793488832
22
12.4450793488832
32
105.819334775484
13
12.4450793488832
23
12.4450793488832
33
105.819334775484
70
3
  0
3DFACE
 8
Layer0
10
12.4450793488832
20
12.4450793488832
30
105.819334775484
11
11.3844191771034
21
11.3844191771034
31
105.819334775484
12
13.9430090009295
22
8.05
32
105.819334775484
13
13.9430090009295
23
8.05
33
105.819334775484
70
13
  0
3DFACE
 8
Layer0
10
12.4450793488832
20
12.4450793488832
30
105.819334775484
11
13.9430090009295
21
8.05
31
105.819334775484
12
15.2420471066061
22
8.79999999999999
32
105.819334775484
13
15.2420471066061
23
8.79999999999999
33
105.819334775484
70
3
  0
3DFACE
 8
Layer0
10
15.2420471066061
20
8.79999999999999
30
105.819334775484
11
13.9430090009295
21
8.05
31
105.819334775484
12
15.551405803254
22
4.16698662615058
32
105.819334775484
13
15.551405803254
23
4.16698662615058
33
105.819334775484
70
13
  0
3DFACE
 8
Layer0
10
15.2420471066061
20
8.79999999999999
30
105.819334775484
11
15.551405803254
21
4.16698662615058
31
105.819334775484
12
17.0002945426876
22
4.55521519380436
32
105.819334775484
13
17.0002945426876
23
4.55521519380436
33
105.819334775484
70
3
  0
3DFACE
 8
Layer0
10
17.0002945426876
20
4.55521519380436
30
105.819334775484
11
15.551405803254
21
4.16698662615058
31
105.819334775484
12
16.1
22
-9.85840673313619e-016
32
105.819334775484
13
16.1
23
-9.85840673313619e-016
33
105.819334775484
70
13
  0
3DFACE
 8
Layer0
10
17.0002945426876
20
4.55521519380436
30
105.819334775484
11
16.1
21
-9.85840673313619e-016
31
105.819334775484
12
17.0002945426876
22
-4.55521519380438
32
105.819334775484
13
17.0002945426876
23
-4.55521519380438
33
105.819334775484
70
15
  0
3DFACE
 8
Layer0
10
17.0002945426876
20
4.55521519380436
30
105.819334775484
11
17.0002945426876
21
-4.55521519380438
31
105.819334775484
12
17.6
22
-3.23306754974901e-015
32
105.819334775484
13
17.6
23
-3.23306754974901e-015
33
105.819334775484
70
1
  0
3DFACE
 8
Layer0
10
4.55521519380436
20
-17.0002945426876
30
99.9193347754836
11
0.0
21
-30.4
31
0.0
12
7.86809897111663
22
-29.3641451191877
32
0.0
13
7.86809897111663
23
-29.3641451191877
33
0.0
70
1
  0
3DFACE
 8
Layer0
10
0.0
20
-30.4
30
0.0
11
4.55521519380436
21
-17.0002945426876
31
99.9193347754836
12
-2.15537836649934e-015
22
-17.6
32
99.9193347754836
13
-2.15537836649934e-015
23
-17.6
33
99.9193347754836
70
1
  0
3DFACE
 8
Layer0
10
26.3271722750469
20
15.2
30
0.0
11
12.4450793488832
21
12.4450793488832
31
99.9193347754836
12
15.2420471066061
22
8.79999999999999
32
99.9193347754836
13
15.2420471066061
23
8.79999999999999
33
99.9193347754836
70
1
  0
3DFACE
 8
Layer0
10
12.4450793488832
20
12.4450793488832
30
99.9193347754836
11
26.3271722750469
21
15.2
31
0.0
12
21.496046148071
22
21.496046148071
32
0.0
13
21.496046148071
23
21.496046148071
33
0.0
70
1
  0
3DFACE
 8
Layer0
10
8.8
20
-15.2420471066061
30
99.9193347754836
11
7.86809897111663
21
-29.3641451191877
31
0.0
12
15.2
22
-26.3271722750469
32
0.0
13
15.2
23
-26.3271722750469
33
0.0
70
1
  0
3DFACE
 8
Layer0
10
7.86809897111663
20
-29.3641451191877
30
0.0
11
8.8
21
-15.2420471066061
31
99.9193347754836
12
4.55521519380436
22
-17.0002945426876
32
99.9193347754836
13
4.55521519380436
23
-17.0002945426876
33
99.9193347754836
70
1
  0
3DFACE
 8
Layer0
10
-4.55521519380436
20
17.0002945426876
30
99.9193347754836
11
3.72292626940795e-015
21
30.4
31
0.0
12
-7.86809897111662
22
29.3641451191877
32
0.0
13
-7.86809897111662
23
29.3641451191877
33
0.0
70
1
  0
3DFACE
 8
Layer0
10
3.72292626940795e-015
20
30.4
30
0.0
11
-4.55521519380436
21
17.0002945426876
31
99.9193347754836
12
0.0
22
17.6
32
99.9193347754836
13
0.0
23
17.6
33
99.9193347754836
70
1
  0
3DFACE
 8
Layer0
10
0.0
20
17.6
30
99.9193347754836
11
7.86809897111664
21
29.3641451191877
31
0.0
12
3.72292626940795e-015
22
30.4
32
0.0
13
3.72292626940795e-015
23
30.4
33
0.0
70
1
  0
3DFACE
 8
Layer0
10
7.86809897111664
20
29.3641451191877
30
0.0
11
0.0
21
17.6
31
99.9193347754836
12
4.55521519380438
22
17.0002945426876
32
99.9193347754836
13
4.55521519380438
23
17.0002945426876
33
99.9193347754836
70
1
  0
3DFACE
 8
Layer0
10
29.3641451191877
20
-7.86809897111664
30
0.0
11
15.2420471066061
21
-8.80000000000001
31
99.9193347754836
12
26.3271722750469
22
-15.2
32
0.0
13
26.3271722750469
23
-15.2
33
0.0
70
1
  0
3DFACE
 8
Layer0
10
15.2420471066061
20
-8.80000000000001
30
99.9193347754836
11
29.3641451191877
21
-7.86809897111664
31
0.0
12
17.0002945426876
22
-4.55521519380438
32
99.9193347754836
13
17.0002945426876
23
-4.55521519380438
33
99.9193347754836
70
1
  0
3DFACE
 8
Layer0
10
17.0002945426876
20
-4.55521519380438
30
99.9193347754836
11
15.2420471066061
21
-8.80000000000001
31
105.819334775484
12
15.2420471066061
22
-8.80000000000001
32
99.9193347754836
13
15.2420471066061
23
-8.80000000000001
33
99.9193347754836
70
1
  0
3DFACE
 8
Layer0
10
15.2420471066061
20
-8.80000000000001
30
105.819334775484
11
17.0002945426876
21
-4.55521519380438
31
99.9193347754836
12
17.0002945426876
22
-4.55521519380438
32
105.819334775484
13
17.0002945426876
23
-4.55521519380438
33
105.819334775484
70
1
  0
3DFACE
 8
Layer0
10
12.4450793488832
20
12.4450793488832
30
99.9193347754836
11
15.2420471066061
21
8.79999999999999
31
105.819334775484
12
15.2420471066061
22
8.79999999999999
32
99.9193347754836
13
15.2420471066061
23
8.79999999999999
33
99.9193347754836
70
1
  0
3DFACE
 8
Layer0
10
15.2420471066061
20
8.79999999999999
30
105.819334775484
11
12.4450793488832
21
12.4450793488832
31
99.9193347754836
12
12.4450793488832
22
12.4450793488832
32
105.819334775484
13
12.4450793488832
23
12.4450793488832
33
105.819334775484
70
1
  0
3DFACE
 8
Layer0
10
26.3271722750469
20
-15.2
30
0.0
11
12.4450793488832
21
-12.4450793488832
31
99.9193347754836
12
21.496046148071
22
-21.496046148071
32
0.0
13
21.496046148071
23
-21.496046148071
33
0.0
70
1
  0
3DFACE
 8
Layer0
10
12.4450793488832
20
-12.4450793488832
30
99.9193347754836
11
26.3271722750469
21
-15.2
31
0.0
12
15.2420471066061
22
-8.80000000000001
32
99.9193347754836
13
15.2420471066061
23
-8.80000000000001
33
99.9193347754836
70
1
  0
3DFACE
 8
Layer0
10
15.2420471066061
20
-8.80000000000001
30
99.9193347754836
11
12.4450793488832
21
-12.4450793488832
31
105.819334775484
12
12.4450793488832
22
-12.4450793488832
32
99.9193347754836
13
12.4450793488832
23
-12.4450793488832
33
99.9193347754836
70
1
  0
3DFACE
 8
Layer0
10
12.4450793488832
20
-12.4450793488832
30
105.819334775484
11
15.2420471066061
21
-8.80000000000001
31
99.9193347754836
12
15.2420471066061
22
-8.80000000000001
32
105.819334775484
13
15.2420471066061
23
-8.80000000000001
33
105.819334775484
70
1
  0
3DFACE
 8
Layer0
10
-12.4450793488832
20
12.4450793488832
30
99.9193347754836
11
-26.3271722750469
21
15.2
31
0.0
12
-15.2420471066061
22
8.8
32
99.9193347754836
13
-15.2420471066061
23
8.8
33
99.9193347754836
70
1
  0
3DFACE
 8
Layer0
10
-26.3271722750469
20
15.2
30
0.0
11
-12.4450793488832
21
12.4450793488832
31
99.9193347754836
12
-21.496046148071
22
21.4960461480711
32
0.0
13
-21.496046148071
23
21.4960461480711
33
0.0
70
1
  0
3DFACE
 8
Layer0
10
-17.0002945426876
20
4.55521519380437
30
99.9193347754836
11
-28.0685193058635
21
5.41221253406859e-015
31
18.2
12
-17.6
22
1.07768918324967e-015
32
99.9193347754836
13
-17.6
23
1.07768918324967e-015
33
99.9193347754836
70
1
  0
3DFACE
 8
Layer0
10
-28.0685193058635
20
5.41221253406859e-015
30
18.2
11
-17.0002945426876
21
4.55521519380437
31
99.9193347754836
12
-27.6735618131013
22
3.0
32
18.2
13
-27.6735618131013
23
3.0
33
18.2
70
3
  0
3DFACE
 8
Layer0
10
-27.6735618131013
20
3.0
30
18.2
11
-17.0002945426876
21
4.55521519380437
31
99.9193347754836
12
-28.0578718176293
22
3.0
32
15.2
13
-28.0578718176293
23
3.0
33
15.2
70
3
  0
3DFACE
 8
Layer0
10
-28.0578718176293
20
3.0
30
15.2
11
-30.4
21
5.58438940411193e-015
31
0.0
12
-28.4528293103915
22
5.54521739807379e-015
32
15.2
13
-28.4528293103915
23
5.54521739807379e-015
33
15.2
70
1
  0
3DFACE
 8
Layer0
10
-30.4
20
5.58438940411193e-015
30
0.0
11
-28.0578718176293
21
3.0
31
15.2
12
-29.3641451191877
22
7.86809897111665
32
0.0
13
-29.3641451191877
23
7.86809897111665
33
0.0
70
3
  0
3DFACE
 8
Layer0
10
-29.3641451191877
20
7.86809897111665
30
0.0
11
-28.0578718176293
21
3.0
31
15.2
12
-17.0002945426876
22
4.55521519380437
32
99.9193347754836
13
-17.0002945426876
23
4.55521519380437
33
99.9193347754836
70
3
  0
3DFACE
 8
Layer0
10
29.3641451191877
20
-7.86809897111664
30
0.0
11
28.0578718176293
21
-3.0
31
15.2
12
17.0002945426876
22
-4.55521519380438
32
99.9193347754836
13
17.0002945426876
23
-4.55521519380438
33
99.9193347754836
70
3
  0
3DFACE
 8
Layer0
10
28.0578718176293
20
-3.0
30
15.2
11
29.3641451191877
21
-7.86809897111664
31
0.0
12
30.4
22
-1.86146313470398e-015
32
0.0
13
30.4
23
-1.86146313470398e-015
33
0.0
70
13
  0
3DFACE
 8
Layer0
10
17.0002945426876
20
-4.55521519380438
30
99.9193347754836
11
28.0578718176293
21
-3.0
31
15.2
12
27.6735618131013
22
-3.0
32
18.2
13
27.6735618131013
23
-3.0
33
18.2
70
13
  0
3DFACE
 8
Layer0
10
28.0578718176293
20
-3.0
30
15.2
11
30.4
21
-1.86146313470398e-015
31
0.0
12
28.4528293103915
22
-2.76470761334341e-015
32
15.2
13
28.4528293103915
23
-2.76470761334341e-015
33
15.2
70
1
  0
3DFACE
 8
Layer0
10
27.6735618131013
20
-3.0
30
18.2
11
17.6
21
-3.23306754974901e-015
31
99.9193347754836
12
17.0002945426876
22
-4.55521519380438
32
99.9193347754836
13
17.0002945426876
23
-4.55521519380438
33
99.9193347754836
70
13
  0
3DFACE
 8
Layer0
10
17.6
20
-3.23306754974901e-015
30
99.9193347754836
11
27.6735618131013
21
-3.0
31
18.2
12
28.0685193058635
22
-2.80518735456239e-015
32
18.2
13
28.0685193058635
23
-2.80518735456239e-015
33
18.2
70
1
  0
3DFACE
 8
Layer0
10
12.4450793488832
20
-12.4450793488832
30
99.9193347754836
11
15.2
21
-26.3271722750469
31
0.0
12
21.496046148071
22
-21.496046148071
32
0.0
13
21.496046148071
23
-21.496046148071
33
0.0
70
1
  0
3DFACE
 8
Layer0
10
15.2
20
-26.3271722750469
30
0.0
11
12.4450793488832
21
-12.4450793488832
31
99.9193347754836
12
8.8
22
-15.2420471066061
32
99.9193347754836
13
8.8
23
-15.2420471066061
33
99.9193347754836
70
1
  0
3DFACE
 8
Layer0
10
-8.8
20
15.2420471066061
30
99.9193347754836
11
-7.86809897111662
21
29.3641451191877
31
0.0
12
-15.2
22
26.3271722750469
32
0.0
13
-15.2
23
26.3271722750469
33
0.0
70
1
  0
3DFACE
 8
Layer0
10
-7.86809897111662
20
29.3641451191877
30
0.0
11
-8.8
21
15.2420471066061
31
99.9193347754836
12
-4.55521519380436
22
17.0002945426876
32
99.9193347754836
13
-4.55521519380436
23
17.0002945426876
33
99.9193347754836
70
1
  0
3DFACE
 8
Layer0
10
-17.6
20
1.07768918324967e-015
30
99.9193347754836
11
-27.6735618131013
21
-3.0
31
18.2
12
-17.0002945426876
22
-4.55521519380436
32
99.9193347754836
13
-17.0002945426876
23
-4.55521519380436
33
99.9193347754836
70
3
  0
3DFACE
 8
Layer0
10
-27.6735618131013
20
-3.0
30
18.2
11
-17.6
21
1.07768918324967e-015
31
99.9193347754836
12
-28.0685193058635
22
5.41221253406859e-015
32
18.2
13
-28.0685193058635
23
5.41221253406859e-015
33
18.2
70
1
  0
3DFACE
 8
Layer0
10
-29.3641451191877
20
-7.86809897111662
30
0.0
11
-28.0578718176293
21
-3.0
31
15.2
12
-30.4
22
5.58438940411193e-015
32
0.0
13
-30.4
23
5.58438940411193e-015
33
0.0
70
3
  0
3DFACE
 8
Layer0
10
-28.0578718176293
20
-3.0
30
15.2
11
-29.3641451191877
21
-7.86809897111662
31
0.0
12
-17.0002945426876
22
-4.55521519380436
32
99.9193347754836
13
-17.0002945426876
23
-4.55521519380436
33
99.9193347754836
70
13
  0
3DFACE
 8
Layer0
10
-28.0578718176293
20
-3.0
30
15.2
11
-17.0002945426876
21
-4.55521519380436
31
99.9193347754836
12
-27.6735618131013
22
-3.0
32
18.2
13
-27.6735618131013
23
-3.0
33
18.2
70
3
  0
3DFACE
 8
Layer0
10
-30.4
20
5.58438940411193e-015
30
0.0
11
-28.0578718176293
21
-3.0
31
15.2
12
-28.4528293103915
22
5.54521739807379e-015
32
15.2
13
-28.4528293103915
23
5.54521739807379e-015
33
15.2
70
1
  0
3DFACE
 8
Layer0
10
17.6
20
-3.23306754974901e-015
30
99.9193347754836
11
17.0002945426876
21
-4.55521519380438
31
105.819334775484
12
17.0002945426876
22
-4.55521519380438
32
99.9193347754836
13
17.0002945426876
23
-4.55521519380438
33
99.9193347754836
70
1
  0
3DFACE
 8
Layer0
10
17.0002945426876
20
-4.55521519380438
30
105.819334775484
11
17.6
21
-3.23306754974901e-015
31
99.9193347754836
12
17.6
22
-3.23306754974901e-015
32
105.819334775484
13
17.6
23
-3.23306754974901e-015
33
105.819334775484
70
1
  0
3DFACE
 8
Layer0
10
0.0
20
17.6
30
105.819334775484
11
4.55521519380438
21
17.0002945426876
31
99.9193347754836
12
0.0
22
17.6
32
99.9193347754836
13
0.0
23
17.6
33
99.9193347754836
70
1
  0
3DFACE
 8
Layer0
10
4.55521519380438
20
17.0002945426876
30
99.9193347754836
11
0.0
21
17.6
31
105.819334775484
12
4.55521519380438
22
17.0002945426876
32
105.819334775484
13
4.55521519380438
23
17.0002945426876
33
105.819334775484
70
1
  0
3DFACE
 8
Layer0
10
29.3641451191877
20
7.86809897111663
30
0.0
11
15.2420471066061
21
8.79999999999999
31
99.9193347754836
12
17.0002945426876
22
4.55521519380436
32
99.9193347754836
13
17.0002945426876
23
4.55521519380436
33
99.9193347754836
70
1
  0
3DFACE
 8
Layer0
10
15.2420471066061
20
8.79999999999999
30
99.9193347754836
11
29.3641451191877
21
7.86809897111663
31
0.0
12
26.3271722750469
22
15.2
32
0.0
13
26.3271722750469
23
15.2
33
0.0
70
1
  0
3DFACE
 8
Layer0
10
12.4450793488832
20
-12.4450793488832
30
105.819334775484
11
8.8
21
-15.2420471066061
31
99.9193347754836
12
12.4450793488832
22
-12.4450793488832
32
99.9193347754836
13
12.4450793488832
23
-12.4450793488832
33
99.9193347754836
70
1
  0
3DFACE
 8
Layer0
10
8.8
20
-15.2420471066061
30
99.9193347754836
11
12.4450793488832
21
-12.4450793488832
31
105.819334775484
12
8.8
22
-15.2420471066061
32
105.819334775484
13
8.8
23
-15.2420471066061
33
105.819334775484
70
1
  0
3DFACE
 8
Layer0
10
-15.2420471066061
20
8.8
30
99.9193347754836
11
-29.3641451191877
21
7.86809897111665
31
0.0
12
-17.0002945426876
22
4.55521519380437
32
99.9193347754836
13
-17.0002945426876
23
4.55521519380437
33
99.9193347754836
70
1
  0
3DFACE
 8
Layer0
10
-29.3641451191877
20
7.86809897111665
30
0.0
11
-15.2420471066061
21
8.8
31
99.9193347754836
12
-26.3271722750469
22
15.2
32
0.0
13
-26.3271722750469
23
15.2
33
0.0
70
1
  0
3DFACE
 8
Layer0
10
8.80000000000001
20
15.2420471066061
30
99.9193347754836
11
21.496046148071
21
21.496046148071
31
0.0
12
15.2
22
26.3271722750469
32
0.0
13
15.2
23
26.3271722750469
33
0.0
70
1
  0
3DFACE
 8
Layer0
10
21.496046148071
20
21.496046148071
30
0.0
11
8.80000000000001
21
15.2420471066061
31
99.9193347754836
12
12.4450793488832
22
12.4450793488832
32
99.9193347754836
13
12.4450793488832
23
12.4450793488832
33
99.9193347754836
70
1
  0
3DFACE
 8
Layer0
10
30.4
20
-1.86146313470398e-015
30
0.0
11
28.0578718176293
21
3.0
31
15.2
12
28.4528293103915
22
-2.76470761334341e-015
32
15.2
13
28.4528293103915
23
-2.76470761334341e-015
33
15.2
70
1
  0
3DFACE
 8
Layer0
10
28.0578718176293
20
3.0
30
15.2
11
30.4
21
-1.86146313470398e-015
31
0.0
12
29.3641451191877
22
7.86809897111663
32
0.0
13
29.3641451191877
23
7.86809897111663
33
0.0
70
13
  0
3DFACE
 8
Layer0
10
28.0578718176293
20
3.0
30
15.2
11
29.3641451191877
21
7.86809897111663
31
0.0
12
17.0002945426876
22
4.55521519380436
32
99.9193347754836
13
17.0002945426876
23
4.55521519380436
33
99.9193347754836
70
13
  0
3DFACE
 8
Layer0
10
28.0685193058635
20
-2.80518735456239e-015
30
18.2
11
17.0002945426876
21
4.55521519380436
31
99.9193347754836
12
17.6
22
-3.23306754974901e-015
32
99.9193347754836
13
17.6
23
-3.23306754974901e-015
33
99.9193347754836
70
1
  0
3DFACE
 8
Layer0
10
17.0002945426876
20
4.55521519380436
30
99.9193347754836
11
28.0685193058635
21
-2.80518735456239e-015
31
18.2
12
27.6735618131013
22
3.0
32
18.2
13
27.6735618131013
23
3.0
33
18.2
70
13
  0
3DFACE
 8
Layer0
10
17.0002945426876
20
4.55521519380436
30
99.9193347754836
11
27.6735618131013
21
3.0
31
18.2
12
28.0578718176293
22
3.0
32
15.2
13
28.0578718176293
23
3.0
33
15.2
70
13
  0
3DFACE
 8
Layer0
10
17.0002945426876
20
4.55521519380436
30
99.9193347754836
11
17.6
21
-3.23306754974901e-015
31
105.819334775484
12
17.6
22
-3.23306754974901e-015
32
99.9193347754836
13
17.6
23
-3.23306754974901e-015
33
99.9193347754836
70
1
  0
3DFACE
 8
Layer0
10
17.6
20
-3.23306754974901e-015
30
105.819334775484
11
17.0002945426876
21
4.55521519380436
31
99.9193347754836
12
17.0002945426876
22
4.55521519380436
32
105.819334775484
13
17.0002945426876
23
4.55521519380436
33
105.819334775484
70
1
  0
3DFACE
 8
Layer0
10
-12.4450793488832
20
12.4450793488832
30
99.9193347754836
11
-15.2
21
26.3271722750469
31
0.0
12
-21.496046148071
22
21.4960461480711
32
0.0
13
-21.496046148071
23
21.4960461480711
33
0.0
70
1
  0
3DFACE
 8
Layer0
10
-15.2
20
26.3271722750469
30
0.0
11
-12.4450793488832
21
12.4450793488832
31
99.9193347754836
12
-8.8
22
15.2420471066061
32
99.9193347754836
13
-8.8
23
15.2420471066061
33
99.9193347754836
70
1
  0
3DFACE
 8
Layer0
10
-4.1669866261506
20
-15.551405803254
30
99.9193347754836
11
0.0
21
-28.9
31
0.0
12
-7.47987040346287
22
-27.9152563797541
32
0.0
13
-7.47987040346287
23
-27.9152563797541
33
0.0
70
1
  0
3DFACE
 8
Layer0
10
0.0
20
-28.9
30
0.0
11
-4.1669866261506
21
-15.551405803254
31
99.9193347754836
12
0.0
22
-16.1
32
99.9193347754836
13
0.0
23
-16.1
33
99.9193347754836
70
1
  0
3DFACE
 8
Layer0
10
-8.05000000000001
20
-13.9430090009295
30
99.9193347754836
11
-7.47987040346287
21
-27.9152563797541
31
0.0
12
-14.45
22
-25.0281341693703
32
0.0
13
-14.45
23
-25.0281341693703
33
0.0
70
1
  0
3DFACE
 8
Layer0
10
-7.47987040346287
20
-27.9152563797541
30
0.0
11
-8.05000000000001
21
-13.9430090009295
31
99.9193347754836
12
-4.1669866261506
22
-15.551405803254
32
99.9193347754836
13
-4.1669866261506
23
-15.551405803254
33
99.9193347754836
70
1
  0
3DFACE
 8
Layer0
10
-11.3844191771034
20
-11.3844191771034
30
99.9193347754836
11
-14.45
21
-25.0281341693703
31
0.0
12
-20.4353859762912
22
-20.4353859762912
32
0.0
13
-20.4353859762912
23
-20.4353859762912
33
0.0
70
1
  0
3DFACE
 8
Layer0
10
-14.45
20
-25.0281341693703
30
0.0
11
-11.3844191771034
21
-11.3844191771034
31
99.9193347754836
12
-8.05000000000001
22
-13.9430090009295
32
99.9193347754836
13
-8.05000000000001
23
-13.9430090009295
33
99.9193347754836
70
1
  0
3DFACE
 8
Layer0
10
-25.0281341693703
20
-14.45
30
0.0
11
-11.3844191771034
21
-11.3844191771034
31
99.9193347754836
12
-20.4353859762912
22
-20.4353859762912
32
0.0
13
-20.4353859762912
23
-20.4353859762912
33
0.0
70
1
  0
3DFACE
 8
Layer0
10
-11.3844191771034
20
-11.3844191771034
30
99.9193347754836
11
-25.0281341693703
21
-14.45
31
0.0
12
-13.9430090009295
22
-8.04999999999999
32
99.9193347754836
13
-13.9430090009295
23
-8.04999999999999
33
99.9193347754836
70
1
  0
3DFACE
 8
Layer0
10
-27.9152563797541
20
-7.47987040346284
30
0.0
11
-13.9430090009295
21
-8.04999999999999
31
99.9193347754836
12
-25.0281341693703
22
-14.45
32
0.0
13
-25.0281341693703
23
-14.45
33
0.0
70
1
  0
3DFACE
 8
Layer0
10
-13.9430090009295
20
-8.04999999999999
30
99.9193347754836
11
-27.9152563797541
21
-7.47987040346284
31
0.0
12
-15.551405803254
22
-4.16698662615058
32
99.9193347754836
13
-15.551405803254
23
-4.16698662615058
33
99.9193347754836
70
1
  0
3DFACE
 8
Layer0
10
-27.9152563797541
20
-7.47987040346284
30
0.0
11
-26.5578718176293
21
-3.0
31
15.2
12
-15.551405803254
22
-4.16698662615058
32
99.9193347754836
13
-15.551405803254
23
-4.16698662615058
33
99.9193347754836
70
3
  0
3DFACE
 8
Layer0
10
-26.5578718176293
20
-3.0
30
15.2
11
-27.9152563797541
21
-7.47987040346284
31
0.0
12
-28.9
22
5.30884387430378e-015
32
0.0
13
-28.9
23
5.30884387430378e-015
33
0.0
70
13
  0
3DFACE
 8
Layer0
10
-26.5578718176293
20
-3.0
30
15.2
11
-28.9
21
5.30884387430378e-015
31
0.0
12
-26.9528293103915
22
5.59666220576164e-015
32
15.2
13
-26.9528293103915
23
5.59666220576164e-015
33
15.2
70
1
  0
3DFACE
 8
Layer0
10
-15.551405803254
20
-4.16698662615058
30
99.9193347754836
11
-26.1735618131013
21
-3.0
31
18.2
12
-16.1
22
2.95752201994086e-015
32
99.9193347754836
13
-16.1
23
2.95752201994086e-015
33
99.9193347754836
70
3
  0
3DFACE
 8
Layer0
10
-26.1735618131013
20
-3.0
30
18.2
11
-15.551405803254
21
-4.16698662615058
31
99.9193347754836
12
-26.5578718176293
22
-3.0
32
15.2
13
-26.5578718176293
23
-3.0
33
15.2
70
3
  0
3DFACE
 8
Layer0
10
-16.1
20
2.95752201994086e-015
30
99.9193347754836
11
-26.1735618131013
21
-3.0
31
18.2
12
-26.5685193058635
22
5.52726836367197e-015
32
18.2
13
-26.5685193058635
23
5.52726836367197e-015
33
18.2
70
1
  0
3DFACE
 8
Layer0
10
-27.9152563797541
20
7.47987040346287
30
0.0
11
-26.9528293103915
21
5.59666220576164e-015
31
15.2
12
-28.9
22
5.30884387430378e-015
32
0.0
13
-28.9
23
5.30884387430378e-015
33
0.0
70
1
  0
3DFACE
 8
Layer0
10
-26.9528293103915
20
5.59666220576164e-015
30
15.2
11
-27.9152563797541
21
7.47987040346287
31
0.0
12
-26.5578718176293
22
3.0
32
15.2
13
-26.5578718176293
23
3.0
33
15.2
70
3
  0
3DFACE
 8
Layer0
10
-26.5578718176293
20
3.0
30
15.2
11
-27.9152563797541
21
7.47987040346287
31
0.0
12
-26.1735618131013
22
3.0
32
18.2
13
-26.1735618131013
23
3.0
33
18.2
70
3
  0
3DFACE
 8
Layer0
10
-26.1735618131013
20
3.0
30
18.2
11
-27.9152563797541
21
7.47987040346287
31
0.0
12
-15.551405803254
22
4.1669866261506
32
99.9193347754836
13
-15.551405803254
23
4.1669866261506
33
99.9193347754836
70
13
  0
3DFACE
 8
Layer0
10
-26.5685193058635
20
5.52726836367197e-015
30
18.2
11
-15.551405803254
21
4.1669866261506
31
99.9193347754836
12
-16.1
22
2.95752201994086e-015
32
99.9193347754836
13
-16.1
23
2.95752201994086e-015
33
99.9193347754836
70
1
  0
3DFACE
 8
Layer0
10
-15.551405803254
20
4.1669866261506
30
99.9193347754836
11
-26.5685193058635
21
5.52726836367197e-015
31
18.2
12
-26.1735618131013
22
3.0
32
18.2
13
-26.1735618131013
23
3.0
33
18.2
70
13
  0
3DFACE
 8
Layer0
10
16.1
20
-9.85840673313619e-016
30
99.9193347754836
11
26.1735618131013
21
-3.0
31
18.2
12
15.551405803254
22
-4.16698662615059
32
99.9193347754836
13
15.551405803254
23
-4.16698662615059
33
99.9193347754836
70
3
  0
3DFACE
 8
Layer0
10
26.1735618131013
20
-3.0
30
18.2
11
16.1
21
-9.85840673313619e-016
31
99.9193347754836
12
26.5685193058635
22
-2.3289968093801e-015
32
18.2
13
26.5685193058635
23
-2.3289968093801e-015
33
18.2
70
1
  0
3DFACE
 8
Layer0
10
27.9152563797541
20
-7.47987040346285
30
0.0
11
26.5578718176293
21
-3.0
31
15.2
12
28.9
22
-1.76961462476793e-015
32
0.0
13
28.9
23
-1.76961462476793e-015
33
0.0
70
3
  0
3DFACE
 8
Layer0
10
26.5578718176293
20
-3.0
30
15.2
11
27.9152563797541
21
-7.47987040346285
31
0.0
12
15.551405803254
22
-4.16698662615059
32
99.9193347754836
13
15.551405803254
23
-4.16698662615059
33
99.9193347754836
70
13
  0
3DFACE
 8
Layer0
10
26.5578718176293
20
-3.0
30
15.2
11
15.551405803254
21
-4.16698662615059
31
99.9193347754836
12
26.1735618131013
22
-3.0
32
18.2
13
26.1735618131013
23
-3.0
33
18.2
70
3
  0
3DFACE
 8
Layer0
10
28.9
20
-1.76961462476793e-015
30
0.0
11
26.5578718176293
21
-3.0
31
15.2
12
26.9528293103915
22
-2.35212809007666e-015
32
15.2
13
26.9528293103915
23
-2.35212809007666e-015
33
15.2
70
1
  0
3DFACE
 8
Layer0
10
13.9430090009295
20
-8.05
30
99.9193347754836
11
27.9152563797541
21
-7.47987040346285
31
0.0
12
25.0281341693703
22
-14.45
32
0.0
13
25.0281341693703
23
-14.45
33
0.0
70
1
  0
3DFACE
 8
Layer0
10
27.9152563797541
20
-7.47987040346285
30
0.0
11
13.9430090009295
21
-8.05
31
99.9193347754836
12
15.551405803254
22
-4.16698662615059
32
99.9193347754836
13
15.551405803254
23
-4.16698662615059
33
99.9193347754836
70
1
  0
3DFACE
 8
Layer0
10
-25.0281341693703
20
14.45
30
0.0
11
-11.3844191771034
21
11.3844191771034
31
99.9193347754836
12
-13.9430090009295
22
8.05000000000001
32
99.9193347754836
13
-13.9430090009295
23
8.05000000000001
33
99.9193347754836
70
1
  0
3DFACE
 8
Layer0
10
-11.3844191771034
20
11.3844191771034
30
99.9193347754836
11
-25.0281341693703
21
14.45
31
0.0
12
-20.4353859762912
22
20.4353859762912
32
0.0
13
-20.4353859762912
23
20.4353859762912
33
0.0
70
1
  0
3DFACE
 8
Layer0
10
-29.3641451191877
20
7.86809897111665
30
0.0
11
-27.9152563797541
21
7.47987040346287
31
0.0
12
-28.9
22
5.30884387430378e-015
32
0.0
13
-28.9
23
5.30884387430378e-015
33
0.0
70
13
  0
3DFACE
 8
Layer0
10
-27.9152563797541
20
7.47987040346287
30
0.0
11
-29.3641451191877
21
7.86809897111665
31
0.0
12
-26.3271722750469
22
15.2
32
0.0
13
-26.3271722750469
23
15.2
33
0.0
70
13
  0
3DFACE
 8
Layer0
10
-27.9152563797541
20
7.47987040346287
30
0.0
11
-26.3271722750469
21
15.2
31
0.0
12
-25.0281341693703
22
14.45
32
0.0
13
-25.0281341693703
23
14.45
33
0.0
70
3
  0
3DFACE
 8
Layer0
10
-25.0281341693703
20
14.45
30
0.0
11
-26.3271722750469
21
15.2
31
0.0
12
-21.496046148071
22
21.4960461480711
32
0.0
13
-21.496046148071
23
21.4960461480711
33
0.0
70
13
  0
3DFACE
 8
Layer0
10
-25.0281341693703
20
14.45
30
0.0
11
-21.496046148071
21
21.4960461480711
31
0.0
12
-20.4353859762912
22
20.4353859762912
32
0.0
13
-20.4353859762912
23
20.4353859762912
33
0.0
70
3
  0
3DFACE
 8
Layer0
10
-20.4353859762912
20
20.4353859762912
30
0.0
11
-21.496046148071
21
21.4960461480711
31
0.0
12
-15.2
22
26.3271722750469
32
0.0
13
-15.2
23
26.3271722750469
33
0.0
70
13
  0
3DFACE
 8
Layer0
10
-20.4353859762912
20
20.4353859762912
30
0.0
11
-15.2
21
26.3271722750469
31
0.0
12
-14.45
22
25.0281341693703
32
0.0
13
-14.45
23
25.0281341693703
33
0.0
70
3
  0
3DFACE
 8
Layer0
10
-14.45
20
25.0281341693703
30
0.0
11
-15.2
21
26.3271722750469
31
0.0
12
-7.86809897111662
22
29.3641451191877
32
0.0
13
-7.86809897111662
23
29.3641451191877
33
0.0
70
13
  0
3DFACE
 8
Layer0
10
-14.45
20
25.0281341693703
30
0.0
11
-7.86809897111662
21
29.3641451191877
31
0.0
12
-7.47987040346284
22
27.9152563797541
32
0.0
13
-7.47987040346284
23
27.9152563797541
33
0.0
70
3
  0
3DFACE
 8
Layer0
10
-7.47987040346284
20
27.9152563797541
30
0.0
11
-7.86809897111662
21
29.3641451191877
31
0.0
12
3.72292626940795e-015
22
30.4
32
0.0
13
3.72292626940795e-015
23
30.4
33
0.0
70
13
  0
3DFACE
 8
Layer0
10
-7.47987040346284
20
27.9152563797541
30
0.0
11
3.72292626940795e-015
21
30.4
31
0.0
12
3.53922924953585e-015
22
28.9
32
0.0
13
3.53922924953585e-015
23
28.9
33
0.0
70
3
  0
3DFACE
 8
Layer0
10
3.53922924953585e-015
20
28.9
30
0.0
11
3.72292626940795e-015
21
30.4
31
0.0
12
7.47987040346286
22
27.9152563797541
32
0.0
13
7.47987040346286
23
27.9152563797541
33
0.0
70
3
  0
3DFACE
 8
Layer0
10
7.47987040346286
20
27.9152563797541
30
0.0
11
3.72292626940795e-015
21
30.4
31
0.0
12
7.86809897111664
22
29.3641451191877
32
0.0
13
7.86809897111664
23
29.3641451191877
33
0.0
70
13
  0
3DFACE
 8
Layer0
10
7.47987040346286
20
27.9152563797541
30
0.0
11
7.86809897111664
21
29.3641451191877
31
0.0
12
14.45
22
25.0281341693703
32
0.0
13
14.45
23
25.0281341693703
33
0.0
70
3
  0
3DFACE
 8
Layer0
10
14.45
20
25.0281341693703
30
0.0
11
7.86809897111664
21
29.3641451191877
31
0.0
12
15.2
22
26.3271722750469
32
0.0
13
15.2
23
26.3271722750469
33
0.0
70
13
  0
3DFACE
 8
Layer0
10
14.45
20
25.0281341693703
30
0.0
11
15.2
21
26.3271722750469
31
0.0
12
20.4353859762912
22
20.4353859762912
32
0.0
13
20.4353859762912
23
20.4353859762912
33
0.0
70
3
  0
3DFACE
 8
Layer0
10
20.4353859762912
20
20.4353859762912
30
0.0
11
15.2
21
26.3271722750469
31
0.0
12
21.496046148071
22
21.496046148071
32
0.0
13
21.496046148071
23
21.496046148071
33
0.0
70
13
  0
3DFACE
 8
Layer0
10
20.4353859762912
20
20.4353859762912
30
0.0
11
21.496046148071
21
21.496046148071
31
0.0
12
25.0281341693703
22
14.45
32
0.0
13
25.0281341693703
23
14.45
33
0.0
70
3
  0
3DFACE
 8
Layer0
10
25.0281341693703
20
14.45
30
0.0
11
21.496046148071
21
21.496046148071
31
0.0
12
26.3271722750469
22
15.2
32
0.0
13
26.3271722750469
23
15.2
33
0.0
70
13
  0
3DFACE
 8
Layer0
10
25.0281341693703
20
14.45
30
0.0
11
26.3271722750469
21
15.2
31
0.0
12
27.9152563797541
22
7.47987040346285
32
0.0
13
27.9152563797541
23
7.47987040346285
33
0.0
70
3
  0
3DFACE
 8
Layer0
10
27.9152563797541
20
7.47987040346285
30
0.0
11
26.3271722750469
21
15.2
31
0.0
12
29.3641451191877
22
7.86809897111663
32
0.0
13
29.3641451191877
23
7.86809897111663
33
0.0
70
13
  0
3DFACE
 8
Layer0
10
27.9152563797541
20
7.47987040346285
30
0.0
11
29.3641451191877
21
7.86809897111663
31
0.0
12
28.9
22
-1.76961462476793e-015
32
0.0
13
28.9
23
-1.76961462476793e-015
33
0.0
70
3
  0
3DFACE
 8
Layer0
10
28.9
20
-1.76961462476793e-015
30
0.0
11
29.3641451191877
21
7.86809897111663
31
0.0
12
29.3641451191877
22
-7.86809897111664
32
0.0
13
29.3641451191877
23
-7.86809897111664
33
0.0
70
15
  0
3DFACE
 8
Layer0
10
29.3641451191877
20
-7.86809897111664
30
0.0
11
29.3641451191877
21
7.86809897111663
31
0.0
12
30.4
22
-1.86146313470398e-015
32
0.0
13
30.4
23
-1.86146313470398e-015
33
0.0
70
1
  0
3DFACE
 8
Layer0
10
-29.3641451191877
20
7.86809897111665
30
0.0
11
-29.3641451191877
21
-7.86809897111662
31
0.0
12
-30.4
22
5.58438940411193e-015
32
0.0
13
-30.4
23
5.58438940411193e-015
33
0.0
70
1
  0
3DFACE
 8
Layer0
10
-29.3641451191877
20
-7.86809897111662
30
0.0
11
-29.3641451191877
21
7.86809897111665
31
0.0
12
-28.9
22
5.30884387430378e-015
32
0.0
13
-28.9
23
5.30884387430378e-015
33
0.0
70
15
  0
3DFACE
 8
Layer0
10
-29.3641451191877
20
-7.86809897111662
30
0.0
11
-28.9
21
5.30884387430378e-015
31
0.0
12
-27.9152563797541
22
-7.47987040346284
32
0.0
13
-27.9152563797541
23
-7.47987040346284
33
0.0
70
13
  0
3DFACE
 8
Layer0
10
-29.3641451191877
20
-7.86809897111662
30
0.0
11
-27.9152563797541
21
-7.47987040346284
31
0.0
12
-26.3271722750469
22
-15.2
32
0.0
13
-26.3271722750469
23
-15.2
33
0.0
70
3
  0
3DFACE
 8
Layer0
10
-26.3271722750469
20
-15.2
30
0.0
11
-27.9152563797541
21
-7.47987040346284
31
0.0
12
-25.0281341693703
22
-14.45
32
0.0
13
-25.0281341693703
23
-14.45
33
0.0
70
13
  0
3DFACE
 8
Layer0
10
-26.3271722750469
20
-15.2
30
0.0
11
-25.0281341693703
21
-14.45
31
0.0
12
-21.4960461480711
22
-21.496046148071
32
0.0
13
-21.4960461480711
23
-21.496046148071
33
0.0
70
3
  0
3DFACE
 8
Layer0
10
-21.4960461480711
20
-21.496046148071
30
0.0
11
-25.0281341693703
21
-14.45
31
0.0
12
-20.4353859762912
22
-20.4353859762912
32
0.0
13
-20.4353859762912
23
-20.4353859762912
33
0.0
70
13
  0
3DFACE
 8
Layer0
10
-21.4960461480711
20
-21.496046148071
30
0.0
11
-20.4353859762912
21
-20.4353859762912
31
0.0
12
-15.2
22
-26.3271722750469
32
0.0
13
-15.2
23
-26.3271722750469
33
0.0
70
3
  0
3DFACE
 8
Layer0
10
-15.2
20
-26.3271722750469
30
0.0
11
-20.4353859762912
21
-20.4353859762912
31
0.0
12
-14.45
22
-25.0281341693703
32
0.0
13
-14.45
23
-25.0281341693703
33
0.0
70
13
  0
3DFACE
 8
Layer0
10
-15.2
20
-26.3271722750469
30
0.0
11
-14.45
21
-25.0281341693703
31
0.0
12
-7.86809897111666
22
-29.3641451191877
32
0.0
13
-7.86809897111666
23
-29.3641451191877
33
0.0
70
3
  0
3DFACE
 8
Layer0
10
-7.86809897111666
20
-29.3641451191877
30
0.0
11
-14.45
21
-25.0281341693703
31
0.0
12
-7.47987040346287
22
-27.9152563797541
32
0.0
13
-7.47987040346287
23
-27.9152563797541
33
0.0
70
13
  0
3DFACE
 8
Layer0
10
-7.86809897111666
20
-29.3641451191877
30
0.0
11
-7.47987040346287
21
-27.9152563797541
31
0.0
12
0.0
22
-30.4
32
0.0
13
0.0
23
-30.4
33
0.0
70
3
  0
3DFACE
 8
Layer0
10
0.0
20
-30.4
30
0.0
11
-7.47987040346287
21
-27.9152563797541
31
0.0
12
0.0
22
-28.9
32
0.0
13
0.0
23
-28.9
33
0.0
70
13
  0
3DFACE
 8
Layer0
10
0.0
20
-30.4
30
0.0
11
0.0
21
-28.9
31
0.0
12
7.47987040346285
22
-27.9152563797541
32
0.0
13
7.47987040346285
23
-27.9152563797541
33
0.0
70
13
  0
3DFACE
 8
Layer0
10
0.0
20
-30.4
30
0.0
11
7.47987040346285
21
-27.9152563797541
31
0.0
12
7.86809897111663
22
-29.3641451191877
32
0.0
13
7.86809897111663
23
-29.3641451191877
33
0.0
70
3
  0
3DFACE
 8
Layer0
10
7.86809897111663
20
-29.3641451191877
30
0.0
11
7.47987040346285
21
-27.9152563797541
31
0.0
12
14.45
22
-25.0281341693703
32
0.0
13
14.45
23
-25.0281341693703
33
0.0
70
13
  0
3DFACE
 8
Layer0
10
7.86809897111663
20
-29.3641451191877
30
0.0
11
14.45
21
-25.0281341693703
31
0.0
12
15.2
22
-26.3271722750469
32
0.0
13
15.2
23
-26.3271722750469
33
0.0
70
3
  0
3DFACE
 8
Layer0
10
15.2
20
-26.3271722750469
30
0.0
11
14.45
21
-25.0281341693703
31
0.0
12
20.4353859762912
22
-20.4353859762912
32
0.0
13
20.4353859762912
23
-20.4353859762912
33
0.0
70
13
  0
3DFACE
 8
Layer0
10
15.2
20
-26.3271722750469
30
0.0
11
20.4353859762912
21
-20.4353859762912
31
0.0
12
21.496046148071
22
-21.496046148071
32
0.0
13
21.496046148071
23
-21.496046148071
33
0.0
70
3
  0
3DFACE
 8
Layer0
10
21.496046148071
20
-21.496046148071
30
0.0
11
20.4353859762912
21
-20.4353859762912
31
0.0
12
25.0281341693703
22
-14.45
32
0.0
13
25.0281341693703
23
-14.45
33
0.0
70
13
  0
3DFACE
 8
Layer0
10
21.496046148071
20
-21.496046148071
30
0.0
11
25.0281341693703
21
-14.45
31
0.0
12
26.3271722750469
22
-15.2
32
0.0
13
26.3271722750469
23
-15.2
33
0.0
70
3
  0
3DFACE
 8
Layer0
10
26.3271722750469
20
-15.2
30
0.0
11
25.0281341693703
21
-14.45
31
0.0
12
27.9152563797541
22
-7.47987040346285
32
0.0
13
27.9152563797541
23
-7.47987040346285
33
0.0
70
13
  0
3DFACE
 8
Layer0
10
26.3271722750469
20
-15.2
30
0.0
11
27.9152563797541
21
-7.47987040346285
31
0.0
12
29.3641451191877
22
-7.86809897111664
32
0.0
13
29.3641451191877
23
-7.86809897111664
33
0.0
70
3
  0
3DFACE
 8
Layer0
10
29.3641451191877
20
-7.86809897111664
30
0.0
11
27.9152563797541
21
-7.47987040346285
31
0.0
12
28.9
22
-1.76961462476793e-015
32
0.0
13
28.9
23
-1.76961462476793e-015
33
0.0
70
13
  0
3DFACE
 8
Layer0
10
-27.9152563797541
20
7.47987040346287
30
0.0
11
-13.9430090009295
21
8.05000000000001
31
99.9193347754836
12
-15.551405803254
22
4.1669866261506
32
99.9193347754836
13
-15.551405803254
23
4.1669866261506
33
99.9193347754836
70
1
  0
3DFACE
 8
Layer0
10
-13.9430090009295
20
8.05000000000001
30
99.9193347754836
11
-27.9152563797541
21
7.47987040346287
31
0.0
12
-25.0281341693703
22
14.45
32
0.0
13
-25.0281341693703
23
14.45
33
0.0
70
1
  0
3DFACE
 8
Layer0
10
11.3844191771034
20
11.3844191771034
30
99.9193347754836
11
25.0281341693703
21
14.45
31
0.0
12
13.9430090009295
22
8.05
32
99.9193347754836
13
13.9430090009295
23
8.05
33
99.9193347754836
70
1
  0
3DFACE
 8
Layer0
10
25.0281341693703
20
14.45
30
0.0
11
11.3844191771034
21
11.3844191771034
31
99.9193347754836
12
20.4353859762912
22
20.4353859762912
32
0.0
13
20.4353859762912
23
20.4353859762912
33
0.0
70
1
  0
3DFACE
 8
Layer0
10
-8.05
20
13.9430090009295
30
99.9193347754836
11
-20.4353859762912
21
20.4353859762912
31
0.0
12
-14.45
22
25.0281341693703
32
0.0
13
-14.45
23
25.0281341693703
33
0.0
70
1
  0
3DFACE
 8
Layer0
10
-20.4353859762912
20
20.4353859762912
30
0.0
11
-8.05
21
13.9430090009295
31
99.9193347754836
12
-11.3844191771034
22
11.3844191771034
32
99.9193347754836
13
-11.3844191771034
23
11.3844191771034
33
99.9193347754836
70
1
  0
3DFACE
 8
Layer0
10
11.3844191771034
20
-11.3844191771034
30
99.9193347754836
11
25.0281341693703
21
-14.45
31
0.0
12
20.4353859762912
22
-20.4353859762912
32
0.0
13
20.4353859762912
23
-20.4353859762912
33
0.0
70
1
  0
3DFACE
 8
Layer0
10
25.0281341693703
20
-14.45
30
0.0
11
11.3844191771034
21
-11.3844191771034
31
99.9193347754836
12
13.9430090009295
22
-8.05
32
99.9193347754836
13
13.9430090009295
23
-8.05
33
99.9193347754836
70
1
  0
3DFACE
 8
Layer0
10
8.05
20
-13.9430090009295
30
99.9193347754836
11
20.4353859762912
21
-20.4353859762912
31
0.0
12
14.45
22
-25.0281341693703
32
0.0
13
14.45
23
-25.0281341693703
33
0.0
70
1
  0
3DFACE
 8
Layer0
10
20.4353859762912
20
-20.4353859762912
30
0.0
11
8.05
21
-13.9430090009295
31
99.9193347754836
12
11.3844191771034
22
-11.3844191771034
32
99.9193347754836
13
11.3844191771034
23
-11.3844191771034
33
99.9193347754836
70
1
  0
3DFACE
 8
Layer0
10
0.0
20
-16.1
30
99.9193347754836
11
7.47987040346285
21
-27.9152563797541
31
0.0
12
0.0
22
-28.9
32
0.0
13
0.0
23
-28.9
33
0.0
70
1
  0
3DFACE
 8
Layer0
10
7.47987040346285
20
-27.9152563797541
30
0.0
11
0.0
21
-16.1
31
99.9193347754836
12
4.16698662615058
22
-15.551405803254
32
99.9193347754836
13
4.16698662615058
23
-15.551405803254
33
99.9193347754836
70
1
  0
3DFACE
 8
Layer0
10
-2.15537836649934e-015
20
-17.6
30
99.9193347754836
11
-7.86809897111666
21
-29.3641451191877
31
0.0
12
0.0
22
-30.4
32
0.0
13
0.0
23
-30.4
33
0.0
70
1
  0
3DFACE
 8
Layer0
10
-7.86809897111666
20
-29.3641451191877
30
0.0
11
-2.15537836649934e-015
21
-17.6
31
99.9193347754836
12
-4.55521519380437
22
-17.0002945426876
32
99.9193347754836
13
-4.55521519380437
23
-17.0002945426876
33
99.9193347754836
70
1
  0
3DFACE
 8
Layer0
10
-4.16698662615058
20
15.551405803254
30
99.9193347754836
11
-14.45
21
25.0281341693703
31
0.0
12
-7.47987040346284
22
27.9152563797541
32
0.0
13
-7.47987040346284
23
27.9152563797541
33
0.0
70
1
  0
3DFACE
 8
Layer0
10
-14.45
20
25.0281341693703
30
0.0
11
-4.16698662615058
21
15.551405803254
31
99.9193347754836
12
-8.05
22
13.9430090009295
32
99.9193347754836
13
-8.05
23
13.9430090009295
33
99.9193347754836
70
1
  0
3DFACE
 8
Layer0
10
13.9430090009295
20
8.05
30
99.9193347754836
11
27.9152563797541
21
7.47987040346285
31
0.0
12
15.551405803254
22
4.16698662615058
32
99.9193347754836
13
15.551405803254
23
4.16698662615058
33
99.9193347754836
70
1
  0
3DFACE
 8
Layer0
10
27.9152563797541
20
7.47987040346285
30
0.0
11
13.9430090009295
21
8.05
31
99.9193347754836
12
25.0281341693703
22
14.45
32
0.0
13
25.0281341693703
23
14.45
33
0.0
70
1
  0
3DFACE
 8
Layer0
10
-4.55521519380437
20
-17.0002945426876
30
99.9193347754836
11
-15.2
21
-26.3271722750469
31
0.0
12
-7.86809897111666
22
-29.3641451191877
32
0.0
13
-7.86809897111666
23
-29.3641451191877
33
0.0
70
1
  0
3DFACE
 8
Layer0
10
-15.2
20
-26.3271722750469
30
0.0
11
-4.55521519380437
21
-17.0002945426876
31
99.9193347754836
12
-8.8
22
-15.2420471066061
32
99.9193347754836
13
-8.8
23
-15.2420471066061
33
99.9193347754836
70
1
  0
3DFACE
 8
Layer0
10
8.05000000000001
20
13.9430090009295
30
99.9193347754836
11
7.47987040346286
21
27.9152563797541
31
0.0
12
14.45
22
25.0281341693703
32
0.0
13
14.45
23
25.0281341693703
33
0.0
70
1
  0
3DFACE
 8
Layer0
10
7.47987040346286
20
27.9152563797541
30
0.0
11
8.05000000000001
21
13.9430090009295
31
99.9193347754836
12
4.16698662615059
22
15.551405803254
32
99.9193347754836
13
4.16698662615059
23
15.551405803254
33
99.9193347754836
70
1
  0
3DFACE
 8
Layer0
10
-8.8
20
-15.2420471066061
30
99.9193347754836
11
-21.4960461480711
21
-21.496046148071
31
0.0
12
-15.2
22
-26.3271722750469
32
0.0
13
-15.2
23
-26.3271722750469
33
0.0
70
1
  0
3DFACE
 8
Layer0
10
-21.4960461480711
20
-21.496046148071
30
0.0
11
-8.8
21
-15.2420471066061
31
99.9193347754836
12
-12.4450793488832
22
-12.4450793488832
32
99.9193347754836
13
-12.4450793488832
23
-12.4450793488832
33
99.9193347754836
70
1
  0
3DFACE
 8
Layer0
10
-12.4450793488832
20
-12.4450793488832
30
99.9193347754836
11
-26.3271722750469
21
-15.2
31
0.0
12
-21.4960461480711
22
-21.496046148071
32
0.0
13
-21.4960461480711
23
-21.496046148071
33
0.0
70
1
  0
3DFACE
 8
Layer0
10
-26.3271722750469
20
-15.2
30
0.0
11
-12.4450793488832
21
-12.4450793488832
31
99.9193347754836
12
-15.2420471066061
22
-8.79999999999999
32
99.9193347754836
13
-15.2420471066061
23
-8.79999999999999
33
99.9193347754836
70
1
  0
3DFACE
 8
Layer0
10
4.16698662615059
20
15.551405803254
30
99.9193347754836
11
3.53922924953585e-015
21
28.9
31
0.0
12
7.47987040346286
22
27.9152563797541
32
0.0
13
7.47987040346286
23
27.9152563797541
33
0.0
70
1
  0
3DFACE
 8
Layer0
10
3.53922924953585e-015
20
28.9
30
0.0
11
4.16698662615059
21
15.551405803254
31
99.9193347754836
12
1.97168134662724e-015
22
16.1
32
99.9193347754836
13
1.97168134662724e-015
23
16.1
33
99.9193347754836
70
1
  0
3DFACE
 8
Layer0
10
4.16698662615058
20
-15.551405803254
30
99.9193347754836
11
14.45
21
-25.0281341693703
31
0.0
12
7.47987040346285
22
-27.9152563797541
32
0.0
13
7.47987040346285
23
-27.9152563797541
33
0.0
70
1
  0
3DFACE
 8
Layer0
10
14.45
20
-25.0281341693703
30
0.0
11
4.16698662615058
21
-15.551405803254
31
99.9193347754836
12
8.05
22
-13.9430090009295
32
99.9193347754836
13
8.05
23
-13.9430090009295
33
99.9193347754836
70
1
  0
3DFACE
 8
Layer0
10
1.97168134662724e-015
20
16.1
30
99.9193347754836
11
-7.47987040346284
21
27.9152563797541
31
0.0
12
3.53922924953585e-015
22
28.9
32
0.0
13
3.53922924953585e-015
23
28.9
33
0.0
70
1
  0
3DFACE
 8
Layer0
10
-7.47987040346284
20
27.9152563797541
30
0.0
11
1.97168134662724e-015
21
16.1
31
99.9193347754836
12
-4.16698662615058
22
15.551405803254
32
99.9193347754836
13
-4.16698662615058
23
15.551405803254
33
99.9193347754836
70
1
  0
3DFACE
 8
Layer0
10
11.3844191771034
20
11.3844191771034
30
99.9193347754836
11
14.45
21
25.0281341693703
31
0.0
12
20.4353859762912
22
20.4353859762912
32
0.0
13
20.4353859762912
23
20.4353859762912
33
0.0
70
1
  0
3DFACE
 8
Layer0
10
14.45
20
25.0281341693703
30
0.0
11
11.3844191771034
21
11.3844191771034
31
99.9193347754836
12
8.05000000000001
22
13.9430090009295
32
99.9193347754836
13
8.05000000000001
23
13.9430090009295
33
99.9193347754836
70
1
  0
3DFACE
 8
Layer0
10
-12.5104731521702
20
247.994377855749
30
0.0
11
-0.506771192111457
21
243.465044566455
31
30.2622368930502
12
-13.1067711921115
22
243.465044566455
32
0.0
13
-13.1067711921115
23
243.465044566455
33
0.0
70
1
  0
3DFACE
 8
Layer0
10
-0.506771192111457
20
243.465044566455
30
30.2622368930502
11
-12.5104731521702
21
247.994377855749
31
0.0
12
-0.339807740927893
22
244.733257887457
32
30.2622368930502
13
-0.339807740927893
23
244.733257887457
33
30.2622368930502
70
1
  0
3DFACE
 8
Layer0
10
4.39322880788853
20
238.565044566455
30
30.2622368930502
11
8.92256209718263
21
226.561342606396
31
0.0
12
4.39322880788853
22
225.965044566455
32
0.0
13
4.39322880788853
23
225.965044566455
33
0.0
70
1
  0
3DFACE
 8
Layer0
10
8.92256209718263
20
226.561342606396
30
0.0
11
4.39322880788853
21
238.565044566455
31
30.2622368930502
12
5.66144212889088
22
238.732008017638
32
30.2622368930502
13
5.66144212889088
23
238.732008017638
33
30.2622368930502
70
1
  0
3DFACE
 8
Layer0
10
1.94322880788855
20
239.221520087911
30
30.2622368930502
11
-0.136104481405586
21
226.561342606396
31
0.0
12
-4.35677119211146
22
228.309600000227
32
0.0
13
-4.35677119211146
23
228.309600000227
33
0.0
70
1
  0
3DFACE
 8
Layer0
10
-0.136104481405586
20
226.561342606396
30
0.0
11
1.94322880788855
21
239.221520087911
31
30.2622368930502
12
3.12501548688619
22
238.732008017638
32
30.2622368930502
13
3.12501548688619
23
238.732008017638
33
30.2622368930502
70
1
  0
3DFACE
 8
Layer0
10
16.1
20
-9.85840673313619e-016
30
99.9193347754836
11
26.1735618131013
21
3.0
31
18.2
12
26.5685193058635
22
-2.3289968093801e-015
32
18.2
13
26.5685193058635
23
-2.3289968093801e-015
33
18.2
70
1
  0
3DFACE
 8
Layer0
10
26.1735618131013
20
3.0
30
18.2
11
16.1
21
-9.85840673313619e-016
31
99.9193347754836
12
15.551405803254
22
4.16698662615058
32
99.9193347754836
13
15.551405803254
23
4.16698662615058
33
99.9193347754836
70
13
  0
3DFACE
 8
Layer0
10
26.1735618131013
20
3.0
30
18.2
11
15.551405803254
21
4.16698662615058
31
99.9193347754836
12
26.5578718176293
22
3.0
32
15.2
13
26.5578718176293
23
3.0
33
15.2
70
3
  0
3DFACE
 8
Layer0
10
26.5578718176293
20
3.0
30
15.2
11
28.9
21
-1.76961462476793e-015
31
0.0
12
26.9528293103915
22
-2.35212809007666e-015
32
15.2
13
26.9528293103915
23
-2.35212809007666e-015
33
15.2
70
1
  0
3DFACE
 8
Layer0
10
28.9
20
-1.76961462476793e-015
30
0.0
11
26.5578718176293
21
3.0
31
15.2
12
27.9152563797541
22
7.47987040346285
32
0.0
13
27.9152563797541
23
7.47987040346285
33
0.0
70
3
  0
3DFACE
 8
Layer0
10
27.9152563797541
20
7.47987040346285
30
0.0
11
26.5578718176293
21
3.0
31
15.2
12
15.551405803254
22
4.16698662615058
32
99.9193347754836
13
15.551405803254
23
4.16698662615058
33
99.9193347754836
70
3
  0
3DFACE
 8
Layer0
10
7.85805203570261
20
246.929867794269
30
30.2622368930502
11
19.5486733741162
21
252.215044566455
31
0.0
12
8.63675328643227
22
245.915044566455
32
30.2622368930502
13
8.63675328643227
23
245.915044566455
33
30.2622368930502
70
1
  0
3DFACE
 8
Layer0
10
19.5486733741162
20
252.215044566455
30
0.0
11
7.85805203570261
21
246.929867794269
31
30.2622368930502
12
16.7675974786531
22
255.839413237219
32
0.0
13
16.7675974786531
23
255.839413237219
33
0.0
70
1
  0
3DFACE
 8
Layer0
10
-12.5104731521702
20
238.935711277161
30
0.0
11
-12.5104731521702
21
247.994377855749
31
0.0
12
-13.1067711921115
22
243.465044566455
32
0.0
13
-13.1067711921115
23
243.465044566455
33
0.0
70
1
  0
3DFACE
 8
Layer0
10
-12.5104731521702
20
247.994377855749
30
0.0
11
-12.5104731521702
21
238.935711277161
31
0.0
12
-10.7622157583391
22
234.715044566455
32
0.0
13
-10.7622157583391
23
234.715044566455
33
0.0
70
13
  0
3DFACE
 8
Layer0
10
-12.5104731521702
20
247.994377855749
30
0.0
11
-10.7622157583391
21
234.715044566455
31
0.0
12
-10.7622157583391
22
252.215044566455
32
0.0
13
-10.7622157583391
23
252.215044566455
33
0.0
70
3
  0
3DFACE
 8
Layer0
10
-10.7622157583391
20
252.215044566455
30
0.0
11
-10.7622157583391
21
234.715044566455
31
0.0
12
-7.98113986287604
22
231.09067589569
32
0.0
13
-7.98113986287604
23
231.09067589569
33
0.0
70
13
  0
3DFACE
 8
Layer0
10
-10.7622157583391
20
252.215044566455
30
0.0
11
-7.98113986287604
21
231.09067589569
31
0.0
12
-7.98113986287604
22
255.83941323722
32
0.0
13
-7.98113986287604
23
255.83941323722
33
0.0
70
3
  0
3DFACE
 8
Layer0
10
-7.98113986287604
20
255.83941323722
30
0.0
11
-7.98113986287604
21
231.09067589569
31
0.0
12
-4.35677119211146
22
228.309600000227
32
0.0
13
-4.35677119211146
23
228.309600000227
33
0.0
70
13
  0
3DFACE
 8
Layer0
10
-7.98113986287604
20
255.83941323722
30
0.0
11
-4.35677119211146
21
228.309600000227
31
0.0
12
-4.35677119211146
22
258.620489132683
32
0.0
13
-4.35677119211146
23
258.620489132683
33
0.0
70
3
  0
3DFACE
 8
Layer0
10
-4.35677119211146
20
258.620489132683
30
0.0
11
-4.35677119211146
21
228.309600000227
31
0.0
12
-0.136104481405586
22
226.561342606396
32
0.0
13
-0.136104481405586
23
226.561342606396
33
0.0
70
13
  0
3DFACE
 8
Layer0
10
-4.35677119211146
20
258.620489132683
30
0.0
11
-0.136104481405586
21
226.561342606396
31
0.0
12
-0.136104481405564
22
260.368746526514
32
0.0
13
-0.136104481405564
23
260.368746526514
33
0.0
70
3
  0
3DFACE
 8
Layer0
10
-0.136104481405564
20
260.368746526514
30
0.0
11
-0.136104481405586
21
226.561342606396
31
0.0
12
4.39322880788853
22
225.965044566455
32
0.0
13
4.39322880788853
23
225.965044566455
33
0.0
70
13
  0
3DFACE
 8
Layer0
10
-0.136104481405564
20
260.368746526514
30
0.0
11
4.39322880788853
21
225.965044566455
31
0.0
12
4.39322880788853
22
260.965044566455
32
0.0
13
4.39322880788853
23
260.965044566455
33
0.0
70
3
  0
3DFACE
 8
Layer0
10
4.39322880788853
20
260.965044566455
30
0.0
11
4.39322880788853
21
225.965044566455
31
0.0
12
8.92256209718263
22
226.561342606396
32
0.0
13
8.92256209718263
23
226.561342606396
33
0.0
70
13
  0
3DFACE
 8
Layer0
10
4.39322880788853
20
260.965044566455
30
0.0
11
8.92256209718263
21
226.561342606396
31
0.0
12
8.92256209718266
22
260.368746526514
32
0.0
13
8.92256209718266
23
260.368746526514
33
0.0
70
3
  0
3DFACE
 8
Layer0
10
8.92256209718266
20
260.368746526514
30
0.0
11
8.92256209718263
21
226.561342606396
31
0.0
12
13.1432288078885
22
228.309600000227
32
0.0
13
13.1432288078885
23
228.309600000227
33
0.0
70
13
  0
3DFACE
 8
Layer0
10
8.92256209718266
20
260.368746526514
30
0.0
11
13.1432288078885
21
228.309600000227
31
0.0
12
13.1432288078885
22
258.620489132683
32
0.0
13
13.1432288078885
23
258.620489132683
33
0.0
70
3
  0
3DFACE
 8
Layer0
10
13.1432288078885
20
258.620489132683
30
0.0
11
13.1432288078885
21
228.309600000227
31
0.0
12
16.7675974786531
22
231.09067589569
32
0.0
13
16.7675974786531
23
231.09067589569
33
0.0
70
13
  0
3DFACE
 8
Layer0
10
13.1432288078885
20
258.620489132683
30
0.0
11
16.7675974786531
21
231.09067589569
31
0.0
12
16.7675974786531
22
255.839413237219
32
0.0
13
16.7675974786531
23
255.839413237219
33
0.0
70
3
  0
3DFACE
 8
Layer0
10
16.7675974786531
20
255.839413237219
30
0.0
11
16.7675974786531
21
231.09067589569
31
0.0
12
19.5486733741162
22
234.715044566455
32
0.0
13
19.5486733741162
23
234.715044566455
33
0.0
70
13
  0
3DFACE
 8
Layer0
10
16.7675974786531
20
255.839413237219
30
0.0
11
19.5486733741162
21
234.715044566455
31
0.0
12
19.5486733741162
22
252.215044566455
32
0.0
13
19.5486733741162
23
252.215044566455
33
0.0
70
3
  0
3DFACE
 8
Layer0
10
19.5486733741162
20
252.215044566455
30
0.0
11
19.5486733741162
21
234.715044566455
31
0.0
12
21.2969307679472
22
238.935711277161
32
0.0
13
21.2969307679472
23
238.935711277161
33
0.0
70
13
  0
3DFACE
 8
Layer0
10
19.5486733741162
20
252.215044566455
30
0.0
11
21.2969307679472
21
238.935711277161
31
0.0
12
21.2969307679472
22
247.994377855749
32
0.0
13
21.2969307679472
23
247.994377855749
33
0.0
70
3
  0
3DFACE
 8
Layer0
10
21.2969307679472
20
247.994377855749
30
0.0
11
21.2969307679472
21
238.935711277161
31
0.0
12
21.8932288078885
22
243.465044566455
32
0.0
13
21.8932288078885
23
243.465044566455
33
0.0
70
1
  0
3DFACE
 8
Layer0
10
2.93076326734139
20
113.877071322316
30
30.3026643803495
11
8.84999999999999
21
109.286179094006
31
0.040427487299311
12
4.6293332892941
22
107.537921700175
32
0.040427487299311
13
4.6293332892941
23
107.537921700175
33
0.040427487299311
70
1
  0
3DFACE
 8
Layer0
10
8.84999999999999
20
109.286179094006
30
0.040427487299311
11
2.93076326734139
21
113.877071322316
31
30.3026643803495
12
5.56861469607095
22
114.969705159621
32
30.3026643803495
13
5.56861469607095
23
114.969705159621
33
30.3026643803495
70
1
  0
3DFACE
 8
Layer0
10
-17.1106789278194
20
61.4228014378908
30
0.0
11
-17.1106789278194
21
70.481468016479
31
0.0
12
-17.7069769677607
22
65.9521347271849
32
0.0
13
-17.7069769677607
23
65.9521347271849
33
0.0
70
1
  0
3DFACE
 8
Layer0
10
-17.1106789278194
20
70.481468016479
30
0.0
11
-17.1106789278194
21
61.4228014378908
31
0.0
12
-15.3624215339884
22
57.2021347271849
32
0.0
13
-15.3624215339884
23
57.2021347271849
33
0.0
70
13
  0
3DFACE
 8
Layer0
10
-17.1106789278194
20
70.481468016479
30
0.0
11
-15.3624215339884
21
57.2021347271849
31
0.0
12
-15.3624215339884
22
74.7021347271848
32
0.0
13
-15.3624215339884
23
74.7021347271848
33
0.0
70
3
  0
3DFACE
 8
Layer0
10
-15.3624215339884
20
74.7021347271848
30
0.0
11
-15.3624215339884
21
57.2021347271849
31
0.0
12
-12.5813456385253
22
53.5777660564203
32
0.0
13
-12.5813456385253
23
53.5777660564203
33
0.0
70
13
  0
3DFACE
 8
Layer0
10
-15.3624215339884
20
74.7021347271848
30
0.0
11
-12.5813456385253
21
53.5777660564203
31
0.0
12
-12.5813456385253
22
78.3265033979494
32
0.0
13
-12.5813456385253
23
78.3265033979494
33
0.0
70
3
  0
3DFACE
 8
Layer0
10
-12.5813456385253
20
78.3265033979494
30
0.0
11
-12.5813456385253
21
53.5777660564203
31
0.0
12
-8.95697696776072
22
50.7966901609572
32
0.0
13
-8.95697696776072
23
50.7966901609572
33
0.0
70
13
  0
3DFACE
 8
Layer0
10
-12.5813456385253
20
78.3265033979494
30
0.0
11
-8.95697696776072
21
50.7966901609572
31
0.0
12
-8.95697696776072
22
81.1075792934125
32
0.0
13
-8.95697696776072
23
81.1075792934125
33
0.0
70
3
  0
3DFACE
 8
Layer0
10
-8.95697696776072
20
81.1075792934125
30
0.0
11
-8.95697696776072
21
50.7966901609572
31
0.0
12
-4.73631025705484
22
49.0484327671262
32
0.0
13
-4.73631025705484
23
49.0484327671262
33
0.0
70
13
  0
3DFACE
 8
Layer0
10
-8.95697696776072
20
81.1075792934125
30
0.0
11
-4.73631025705484
21
49.0484327671262
31
0.0
12
-4.73631025705482
22
82.8558366872435
32
0.0
13
-4.73631025705482
23
82.8558366872435
33
0.0
70
3
  0
3DFACE
 8
Layer0
10
-4.73631025705482
20
82.8558366872435
30
0.0
11
-4.73631025705484
21
49.0484327671262
31
0.0
12
-0.20697696776072
22
48.4521347271849
32
0.0
13
-0.20697696776072
23
48.4521347271849
33
0.0
70
13
  0
3DFACE
 8
Layer0
10
-4.73631025705482
20
82.8558366872435
30
0.0
11
-0.20697696776072
21
48.4521347271849
31
0.0
12
-0.20697696776072
22
83.4521347271848
32
0.0
13
-0.20697696776072
23
83.4521347271848
33
0.0
70
3
  0
3DFACE
 8
Layer0
10
-0.20697696776072
20
83.4521347271848
30
0.0
11
-0.20697696776072
21
48.4521347271849
31
0.0
12
4.32235632153338
22
49.0484327671262
32
0.0
13
4.32235632153338
23
49.0484327671262
33
0.0
70
13
  0
3DFACE
 8
Layer0
10
-0.20697696776072
20
83.4521347271848
30
0.0
11
4.32235632153338
21
49.0484327671262
31
0.0
12
4.3223563215334
22
82.8558366872435
32
0.0
13
4.3223563215334
23
82.8558366872435
33
0.0
70
3
  0
3DFACE
 8
Layer0
10
4.3223563215334
20
82.8558366872435
30
0.0
11
4.32235632153338
21
49.0484327671262
31
0.0
12
8.54302303223928
22
50.7966901609572
32
0.0
13
8.54302303223928
23
50.7966901609572
33
0.0
70
13
  0
3DFACE
 8
Layer0
10
4.3223563215334
20
82.8558366872435
30
0.0
11
8.54302303223928
21
50.7966901609572
31
0.0
12
8.54302303223928
22
81.1075792934125
32
0.0
13
8.54302303223928
23
81.1075792934125
33
0.0
70
3
  0
3DFACE
 8
Layer0
10
8.54302303223928
20
81.1075792934125
30
0.0
11
8.54302303223928
21
50.7966901609572
31
0.0
12
12.1673917030038
22
53.5777660564203
32
0.0
13
12.1673917030038
23
53.5777660564203
33
0.0
70
13
  0
3DFACE
 8
Layer0
10
8.54302303223928
20
81.1075792934125
30
0.0
11
12.1673917030038
21
53.5777660564203
31
0.0
12
12.1673917030039
22
78.3265033979494
32
0.0
13
12.1673917030039
23
78.3265033979494
33
0.0
70
3
  0
3DFACE
 8
Layer0
10
12.1673917030039
20
78.3265033979494
30
0.0
11
12.1673917030038
21
53.5777660564203
31
0.0
12
14.948467598467
22
57.2021347271849
32
0.0
13
14.948467598467
23
57.2021347271849
33
0.0
70
13
  0
3DFACE
 8
Layer0
10
12.1673917030039
20
78.3265033979494
30
0.0
11
14.948467598467
21
57.2021347271849
31
0.0
12
14.948467598467
22
74.7021347271848
32
0.0
13
14.948467598467
23
74.7021347271848
33
0.0
70
3
  0
3DFACE
 8
Layer0
10
14.948467598467
20
74.7021347271848
30
0.0
11
14.948467598467
21
57.2021347271849
31
0.0
12
16.696724992298
22
61.4228014378907
32
0.0
13
16.696724992298
23
61.4228014378907
33
0.0
70
13
  0
3DFACE
 8
Layer0
10
14.948467598467
20
74.7021347271848
30
0.0
11
16.696724992298
21
61.4228014378907
31
0.0
12
16.696724992298
22
70.4814680164789
32
0.0
13
16.696724992298
23
70.4814680164789
33
0.0
70
3
  0
3DFACE
 8
Layer0
10
16.696724992298
20
70.4814680164789
30
0.0
11
16.696724992298
21
61.4228014378907
31
0.0
12
17.2930230322393
22
65.9521347271849
32
0.0
13
17.2930230322393
23
65.9521347271849
33
0.0
70
1
  0
3DFACE
 8
Layer0
10
0.928405580074456
20
240.000221338641
30
30.2622368930502
11
-4.35677119211146
21
228.309600000227
31
0.0
12
-7.98113986287604
22
231.09067589569
32
0.0
13
-7.98113986287604
23
231.09067589569
33
0.0
70
1
  0
3DFACE
 8
Layer0
10
-4.35677119211146
20
228.309600000227
30
0.0
11
0.928405580074456
21
240.000221338641
31
30.2622368930502
12
1.94322880788855
22
239.221520087911
32
30.2622368930502
13
1.94322880788855
23
239.221520087911
33
30.2622368930502
70
1
  0
3DFACE
 8
Layer0
10
6.84322880788852
20
239.221520087911
30
30.2622368930502
11
16.7675974786531
21
231.09067589569
31
0.0
12
13.1432288078885
22
228.309600000227
32
0.0
13
13.1432288078885
23
228.309600000227
33
0.0
70
1
  0
3DFACE
 8
Layer0
10
16.7675974786531
20
231.09067589569
30
0.0
11
6.84322880788852
21
239.221520087911
31
30.2622368930502
12
7.85805203570261
22
240.000221338641
32
30.2622368930502
13
7.85805203570261
23
240.000221338641
33
30.2622368930502
70
1
  0
3DFACE
 8
Layer0
10
5.56861469607095
20
114.969705159621
30
30.3026643803495
11
12.4743686707646
21
112.067254989469
31
0.040427487299311
12
8.84999999999999
22
109.286179094006
32
0.040427487299311
13
8.84999999999999
23
109.286179094006
33
0.040427487299311
70
1
  0
3DFACE
 8
Layer0
10
12.4743686707646
20
112.067254989469
30
0.040427487299311
11
5.56861469607095
21
114.969705159621
31
30.3026643803495
12
7.83378907057636
22
116.707834589657
32
30.3026643803495
13
7.83378907057636
23
116.707834589657
33
30.3026643803495
70
1
  0
3DFACE
 8
Layer0
10
8.63675328643227
20
241.015044566455
30
30.2622368930502
11
21.2969307679472
21
238.935711277161
31
0.0
12
19.5486733741162
22
234.715044566455
32
0.0
13
19.5486733741162
23
234.715044566455
33
0.0
70
1
  0
3DFACE
 8
Layer0
10
21.2969307679472
20
238.935711277161
30
0.0
11
8.63675328643227
21
241.015044566455
31
30.2622368930502
12
9.12626535670496
22
242.196831245453
32
30.2622368930502
13
9.12626535670496
23
242.196831245453
33
30.2622368930502
70
1
  0
3DFACE
 8
Layer0
10
-16.8037019600587
20
119.912290370939
30
0.040427487299311
11
-16.8037019600587
21
128.970956949528
31
0.040427487299311
12
-17.4
22
124.441623660233
32
0.040427487299311
13
-17.4
23
124.441623660233
33
0.040427487299311
70
1
  0
3DFACE
 8
Layer0
10
-16.8037019600587
20
128.970956949528
30
0.040427487299311
11
-16.8037019600587
21
119.912290370939
31
0.040427487299311
12
-15.0554445662277
22
115.691623660233
32
0.040427487299311
13
-15.0554445662277
23
115.691623660233
33
0.040427487299311
70
13
  0
3DFACE
 8
Layer0
10
-16.8037019600587
20
128.970956949528
30
0.040427487299311
11
-15.0554445662277
21
115.691623660233
31
0.040427487299311
12
-15.0554445662277
22
133.191623660233
32
0.040427487299311
13
-15.0554445662277
23
133.191623660233
33
0.040427487299311
70
3
  0
3DFACE
 8
Layer0
10
-15.0554445662277
20
133.191623660233
30
0.040427487299311
11
-15.0554445662277
21
115.691623660233
31
0.040427487299311
12
-12.2743686707646
22
112.067254989469
32
0.040427487299311
13
-12.2743686707646
23
112.067254989469
33
0.040427487299311
70
13
  0
3DFACE
 8
Layer0
10
-15.0554445662277
20
133.191623660233
30
0.040427487299311
11
-12.2743686707646
21
112.067254989469
31
0.040427487299311
12
-12.2743686707646
22
136.815992330998
32
0.040427487299311
13
-12.2743686707646
23
136.815992330998
33
0.040427487299311
70
3
  0
3DFACE
 8
Layer0
10
-12.2743686707646
20
136.815992330998
30
0.040427487299311
11
-12.2743686707646
21
112.067254989469
31
0.040427487299311
12
-8.65
22
109.286179094006
32
0.040427487299311
13
-8.65
23
109.286179094006
33
0.040427487299311
70
13
  0
3DFACE
 8
Layer0
10
-12.2743686707646
20
136.815992330998
30
0.040427487299311
11
-8.65
21
109.286179094006
31
0.040427487299311
12
-8.65
22
139.597068226461
32
0.040427487299311
13
-8.65
23
139.597068226461
33
0.040427487299311
70
3
  0
3DFACE
 8
Layer0
10
-8.65
20
139.597068226461
30
0.040427487299311
11
-8.65
21
109.286179094006
31
0.040427487299311
12
-4.42933328929412
22
107.537921700175
32
0.040427487299311
13
-4.42933328929412
23
107.537921700175
33
0.040427487299311
70
13
  0
3DFACE
 8
Layer0
10
-8.65
20
139.597068226461
30
0.040427487299311
11
-4.42933328929412
21
107.537921700175
31
0.040427487299311
12
-4.4293332892941
22
141.345325620292
32
0.040427487299311
13
-4.4293332892941
23
141.345325620292
33
0.040427487299311
70
3
  0
3DFACE
 8
Layer0
10
-4.4293332892941
20
141.345325620292
30
0.040427487299311
11
-4.42933328929412
21
107.537921700175
31
0.040427487299311
12
0.099999999999997
22
106.941623660233
32
0.040427487299311
13
0.099999999999997
23
106.941623660233
33
0.040427487299311
70
13
  0
3DFACE
 8
Layer0
10
-4.4293332892941
20
141.345325620292
30
0.040427487299311
11
0.099999999999997
21
106.941623660233
31
0.040427487299311
12
0.099999999999997
22
141.941623660233
32
0.040427487299311
13
0.099999999999997
23
141.941623660233
33
0.040427487299311
70
3
  0
3DFACE
 8
Layer0
10
0.099999999999997
20
141.941623660233
30
0.040427487299311
11
0.099999999999997
21
106.941623660233
31
0.040427487299311
12
4.6293332892941
22
107.537921700175
32
0.040427487299311
13
4.6293332892941
23
107.537921700175
33
0.040427487299311
70
13
  0
3DFACE
 8
Layer0
10
0.099999999999997
20
141.941623660233
30
0.040427487299311
11
4.6293332892941
21
107.537921700175
31
0.040427487299311
12
4.62933328929412
22
141.345325620292
32
0.040427487299311
13
4.62933328929412
23
141.345325620292
33
0.040427487299311
70
3
  0
3DFACE
 8
Layer0
10
4.62933328929412
20
141.345325620292
30
0.040427487299311
11
4.6293332892941
21
107.537921700175
31
0.040427487299311
12
8.84999999999999
22
109.286179094006
32
0.040427487299311
13
8.84999999999999
23
109.286179094006
33
0.040427487299311
70
13
  0
3DFACE
 8
Layer0
10
4.62933328929412
20
141.345325620292
30
0.040427487299311
11
8.84999999999999
21
109.286179094006
31
0.040427487299311
12
8.84999999999999
22
139.597068226461
32
0.040427487299311
13
8.84999999999999
23
139.597068226461
33
0.040427487299311
70
3
  0
3DFACE
 8
Layer0
10
8.84999999999999
20
139.597068226461
30
0.040427487299311
11
8.84999999999999
21
109.286179094006
31
0.040427487299311
12
12.4743686707646
22
112.067254989469
32
0.040427487299311
13
12.4743686707646
23
112.067254989469
33
0.040427487299311
70
13
  0
3DFACE
 8
Layer0
10
8.84999999999999
20
139.597068226461
30
0.040427487299311
11
12.4743686707646
21
112.067254989469
31
0.040427487299311
12
12.4743686707646
22
136.815992330998
32
0.040427487299311
13
12.4743686707646
23
136.815992330998
33
0.040427487299311
70
3
  0
3DFACE
 8
Layer0
10
12.4743686707646
20
136.815992330998
30
0.040427487299311
11
12.4743686707646
21
112.067254989469
31
0.040427487299311
12
15.2554445662277
22
115.691623660233
32
0.040427487299311
13
15.2554445662277
23
115.691623660233
33
0.040427487299311
70
13
  0
3DFACE
 8
Layer0
10
12.4743686707646
20
136.815992330998
30
0.040427487299311
11
15.2554445662277
21
115.691623660233
31
0.040427487299311
12
15.2554445662277
22
133.191623660233
32
0.040427487299311
13
15.2554445662277
23
133.191623660233
33
0.040427487299311
70
3
  0
3DFACE
 8
Layer0
10
15.2554445662277
20
133.191623660233
30
0.040427487299311
11
15.2554445662277
21
115.691623660233
31
0.040427487299311
12
17.0037019600587
22
119.912290370939
32
0.040427487299311
13
17.0037019600587
23
119.912290370939
33
0.040427487299311
70
13
  0
3DFACE
 8
Layer0
10
15.2554445662277
20
133.191623660233
30
0.040427487299311
11
17.0037019600587
21
119.912290370939
31
0.040427487299311
12
17.0037019600587
22
128.970956949528
32
0.040427487299311
13
17.0037019600587
23
128.970956949528
33
0.040427487299311
70
3
  0
3DFACE
 8
Layer0
10
17.0037019600587
20
128.970956949528
30
0.040427487299311
11
17.0037019600587
21
119.912290370939
31
0.040427487299311
12
17.6
22
124.441623660233
32
0.040427487299311
13
17.6
23
124.441623660233
33
0.040427487299311
70
1
  0
3DFACE
 8
Layer0
10
9.12626535670496
20
244.733257887457
30
30.2622368930502
11
21.8932288078885
21
243.465044566455
31
0.0
12
9.29322880788853
22
243.465044566455
32
30.2622368930502
13
9.29322880788853
23
243.465044566455
33
30.2622368930502
70
1
  0
3DFACE
 8
Layer0
10
21.8932288078885
20
243.465044566455
30
0.0
11
9.12626535670496
21
244.733257887457
31
30.2622368930502
12
21.2969307679472
22
247.994377855749
32
0.0
13
21.2969307679472
23
247.994377855749
33
0.0
70
1
  0
3DFACE
 8
Layer0
10
7.85805203570261
20
246.929867794269
30
30.2622368930502
11
13.1432288078885
21
258.620489132683
31
0.0
12
16.7675974786531
22
255.839413237219
32
0.0
13
16.7675974786531
23
255.839413237219
33
0.0
70
1
  0
3DFACE
 8
Layer0
10
13.1432288078885
20
258.620489132683
30
0.0
11
7.85805203570261
21
246.929867794269
31
30.2622368930502
12
6.84322880788852
22
247.708569044999
32
30.2622368930502
13
6.84322880788852
23
247.708569044999
33
30.2622368930502
70
1
  0
3DFACE
 8
Layer0
10
-10.7622157583391
20
252.215044566455
30
0.0
11
0.928405580074456
21
246.929867794269
31
30.2622368930502
12
0.149704329344801
22
245.915044566455
32
30.2622368930502
13
0.149704329344801
23
245.915044566455
33
30.2622368930502
70
1
  0
3DFACE
 8
Layer0
10
0.928405580074456
20
246.929867794269
30
30.2622368930502
11
-10.7622157583391
21
252.215044566455
31
0.0
12
-7.98113986287604
22
255.83941323722
32
0.0
13
-7.98113986287604
23
255.83941323722
33
0.0
70
1
  0
3DFACE
 8
Layer0
10
-12.5104731521702
20
247.994377855749
30
0.0
11
0.149704329344801
21
245.915044566455
31
30.2622368930502
12
-0.339807740927893
22
244.733257887457
32
30.2622368930502
13
-0.339807740927893
23
244.733257887457
33
30.2622368930502
70
1
  0
3DFACE
 8
Layer0
10
0.149704329344801
20
245.915044566455
30
30.2622368930502
11
-12.5104731521702
21
247.994377855749
31
0.0
12
-10.7622157583391
22
252.215044566455
32
0.0
13
-10.7622157583391
23
252.215044566455
33
0.0
70
1
  0
3DFACE
 8
Layer0
10
8.63675328643227
20
245.915044566455
30
30.2622368930502
11
21.2969307679472
21
247.994377855749
31
0.0
12
9.12626535670496
22
244.733257887457
32
30.2622368930502
13
9.12626535670496
23
244.733257887457
33
30.2622368930502
70
1
  0
3DFACE
 8
Layer0
10
21.2969307679472
20
247.994377855749
30
0.0
11
8.63675328643227
21
245.915044566455
31
30.2622368930502
12
19.5486733741162
22
252.215044566455
32
0.0
13
19.5486733741162
23
252.215044566455
33
0.0
70
1
  0
3DFACE
 8
Layer0
10
3.12501548688619
20
248.198081115271
30
30.2622368930502
11
-4.35677119211146
21
258.620489132683
31
0.0
12
-0.136104481405564
22
260.368746526514
32
0.0
13
-0.136104481405564
23
260.368746526514
33
0.0
70
1
  0
3DFACE
 8
Layer0
10
-4.35677119211146
20
258.620489132683
30
0.0
11
3.12501548688619
21
248.198081115271
31
30.2622368930502
12
1.94322880788855
22
247.708569044999
32
30.2622368930502
13
1.94322880788855
23
247.708569044999
33
30.2622368930502
70
1
  0
3DFACE
 8
Layer0
10
-13.1067711921115
20
243.465044566455
30
0.0
11
-0.339807740927893
21
242.196831245453
31
30.2622368930502
12
-12.5104731521702
22
238.935711277161
32
0.0
13
-12.5104731521702
23
238.935711277161
33
0.0
70
1
  0
3DFACE
 8
Layer0
10
-0.339807740927893
20
242.196831245453
30
30.2622368930502
11
-13.1067711921115
21
243.465044566455
31
0.0
12
-0.506771192111457
22
243.465044566455
32
30.2622368930502
13
-0.506771192111457
23
243.465044566455
33
30.2622368930502
70
1
  0
3DFACE
 8
Layer0
10
5.66144212889088
20
248.198081115271
30
30.2622368930502
11
4.39322880788853
21
260.965044566455
31
0.0
12
8.92256209718266
22
260.368746526514
32
0.0
13
8.92256209718266
23
260.368746526514
33
0.0
70
1
  0
3DFACE
 8
Layer0
10
4.39322880788853
20
260.965044566455
30
0.0
11
5.66144212889088
21
248.198081115271
31
30.2622368930502
12
4.39322880788853
22
248.365044566455
32
30.2622368930502
13
4.39322880788853
23
248.365044566455
33
30.2622368930502
70
1
  0
3DFACE
 8
Layer0
10
1.94322880788855
20
247.708569044999
30
30.2622368930502
11
-7.98113986287604
21
255.83941323722
31
0.0
12
-4.35677119211146
22
258.620489132683
32
0.0
13
-4.35677119211146
23
258.620489132683
33
0.0
70
1
  0
3DFACE
 8
Layer0
10
-7.98113986287604
20
255.83941323722
30
0.0
11
1.94322880788855
21
247.708569044999
31
30.2622368930502
12
0.928405580074456
22
246.929867794269
32
30.2622368930502
13
0.928405580074456
23
246.929867794269
33
30.2622368930502
70
1
  0
3DFACE
 8
Layer0
10
-12.5104731521702
20
238.935711277161
30
0.0
11
0.149704329344778
21
241.015044566455
31
30.2622368930502
12
-10.7622157583391
22
234.715044566455
32
0.0
13
-10.7622157583391
23
234.715044566455
33
0.0
70
1
  0
3DFACE
 8
Layer0
10
0.149704329344778
20
241.015044566455
30
30.2622368930502
11
-12.5104731521702
21
238.935711277161
31
0.0
12
-0.339807740927893
22
242.196831245453
32
30.2622368930502
13
-0.339807740927893
23
242.196831245453
33
30.2622368930502
70
1
  0
3DFACE
 8
Layer0
10
-10.7622157583391
20
234.715044566455
30
0.0
11
0.928405580074456
21
240.000221338641
31
30.2622368930502
12
-7.98113986287604
22
231.09067589569
32
0.0
13
-7.98113986287604
23
231.09067589569
33
0.0
70
1
  0
3DFACE
 8
Layer0
10
0.928405580074456
20
240.000221338641
30
30.2622368930502
11
-10.7622157583391
21
234.715044566455
31
0.0
12
0.149704329344778
22
241.015044566455
32
30.2622368930502
13
0.149704329344778
23
241.015044566455
33
30.2622368930502
70
1
  0
3DFACE
 8
Layer0
10
3.12501548688619
20
238.732008017638
30
30.2622368930502
11
4.39322880788853
21
225.965044566455
31
0.0
12
-0.136104481405586
22
226.561342606396
32
0.0
13
-0.136104481405586
23
226.561342606396
33
0.0
70
1
  0
3DFACE
 8
Layer0
10
4.39322880788853
20
225.965044566455
30
0.0
11
3.12501548688619
21
238.732008017638
31
30.2622368930502
12
4.39322880788853
22
238.565044566455
32
30.2622368930502
13
4.39322880788853
23
238.565044566455
33
30.2622368930502
70
1
  0
3DFACE
 8
Layer0
10
0.0999999999999749
20
113.504394268092
30
30.3026643803495
11
4.6293332892941
21
107.537921700175
31
0.040427487299311
12
0.099999999999997
22
106.941623660233
32
0.040427487299311
13
0.099999999999997
23
106.941623660233
33
0.040427487299311
70
1
  0
3DFACE
 8
Layer0
10
4.6293332892941
20
107.537921700175
30
0.040427487299311
11
0.0999999999999749
21
113.504394268092
31
30.3026643803495
12
2.93076326734139
22
113.877071322316
32
30.3026643803495
13
2.93076326734139
23
113.877071322316
33
30.3026643803495
70
1
  0
3DFACE
 8
Layer0
10
9.12626535670496
20
242.196831245453
30
30.2622368930502
11
21.8932288078885
21
243.465044566455
31
0.0
12
21.2969307679472
22
238.935711277161
32
0.0
13
21.2969307679472
23
238.935711277161
33
0.0
70
1
  0
3DFACE
 8
Layer0
10
21.8932288078885
20
243.465044566455
30
0.0
11
9.12626535670496
21
242.196831245453
31
30.2622368930502
12
9.29322880788853
22
243.465044566455
32
30.2622368930502
13
9.29322880788853
23
243.465044566455
33
30.2622368930502
70
1
  0
3DFACE
 8
Layer0
10
7.85805203570261
20
240.000221338641
30
30.2622368930502
11
19.5486733741162
21
234.715044566455
31
0.0
12
16.7675974786531
22
231.09067589569
32
0.0
13
16.7675974786531
23
231.09067589569
33
0.0
70
1
  0
3DFACE
 8
Layer0
10
19.5486733741162
20
234.715044566455
30
0.0
11
7.85805203570261
21
240.000221338641
31
30.2622368930502
12
8.63675328643227
22
241.015044566455
32
30.2622368930502
13
8.63675328643227
23
241.015044566455
33
30.2622368930502
70
1
  0
3DFACE
 8
Layer0
10
5.66144212889088
20
238.732008017638
30
30.2622368930502
11
13.1432288078885
21
228.309600000227
31
0.0
12
8.92256209718263
22
226.561342606396
32
0.0
13
8.92256209718263
23
226.561342606396
33
0.0
70
1
  0
3DFACE
 8
Layer0
10
13.1432288078885
20
228.309600000227
30
0.0
11
5.66144212889088
21
238.732008017638
31
30.2622368930502
12
6.84322880788852
22
239.221520087911
32
30.2622368930502
13
6.84322880788852
23
239.221520087911
33
30.2622368930502
70
1
  0
3DFACE
 8
Layer0
10
6.84322880788852
20
247.708569044999
30
30.2622368930502
11
8.92256209718266
21
260.368746526514
31
0.0
12
13.1432288078885
22
258.620489132683
32
0.0
13
13.1432288078885
23
258.620489132683
33
0.0
70
1
  0
3DFACE
 8
Layer0
10
8.92256209718266
20
260.368746526514
30
0.0
11
6.84322880788852
21
247.708569044999
31
30.2622368930502
12
5.66144212889088
22
248.198081115271
32
30.2622368930502
13
5.66144212889088
23
248.198081115271
33
30.2622368930502
70
1
  0
3DFACE
 8
Layer0
10
4.39322880788853
20
248.365044566455
30
30.2622368930502
11
-0.136104481405564
21
260.368746526514
31
0.0
12
4.39322880788853
22
260.965044566455
32
0.0
13
4.39322880788853
23
260.965044566455
33
0.0
70
1
  0
3DFACE
 8
Layer0
10
-0.136104481405564
20
260.368746526514
30
0.0
11
4.39322880788853
21
248.365044566455
31
30.2622368930502
12
3.12501548688619
22
248.198081115271
32
30.2622368930502
13
3.12501548688619
23
248.198081115271
33
30.2622368930502
70
1
  0
3DFACE
 8
Layer0
10
-0.339807740927893
20
244.733257887457
30
30.2622368930502
11
-0.339807740927893
21
242.196831245453
31
30.2622368930502
12
-0.506771192111457
22
243.465044566455
32
30.2622368930502
13
-0.506771192111457
23
243.465044566455
33
30.2622368930502
70
1
  0
3DFACE
 8
Layer0
10
-0.339807740927893
20
242.196831245453
30
30.2622368930502
11
-0.339807740927893
21
244.733257887457
31
30.2622368930502
12
0.149704329344801
22
245.915044566455
32
30.2622368930502
13
0.149704329344801
23
245.915044566455
33
30.2622368930502
70
13
  0
3DFACE
 8
Layer0
10
-0.339807740927893
20
242.196831245453
30
30.2622368930502
11
0.149704329344801
21
245.915044566455
31
30.2622368930502
12
0.149704329344778
22
241.015044566455
32
30.2622368930502
13
0.149704329344778
23
241.015044566455
33
30.2622368930502
70
3
  0
3DFACE
 8
Layer0
10
0.149704329344778
20
241.015044566455
30
30.2622368930502
11
0.149704329344801
21
245.915044566455
31
30.2622368930502
12
0.928405580074456
22
240.000221338641
32
30.2622368930502
13
0.928405580074456
23
240.000221338641
33
30.2622368930502
70
3
  0
3DFACE
 8
Layer0
10
0.928405580074456
20
240.000221338641
30
30.2622368930502
11
0.149704329344801
21
245.915044566455
31
30.2622368930502
12
0.928405580074456
22
246.929867794269
32
30.2622368930502
13
0.928405580074456
23
246.929867794269
33
30.2622368930502
70
13
  0
3DFACE
 8
Layer0
10
0.928405580074456
20
240.000221338641
30
30.2622368930502
11
0.928405580074456
21
246.929867794269
31
30.2622368930502
12
1.94322880788855
22
247.708569044999
32
30.2622368930502
13
1.94322880788855
23
247.708569044999
33
30.2622368930502
70
13
  0
3DFACE
 8
Layer0
10
0.928405580074456
20
240.000221338641
30
30.2622368930502
11
1.94322880788855
21
247.708569044999
31
30.2622368930502
12
1.94322880788855
22
239.221520087911
32
30.2622368930502
13
1.94322880788855
23
239.221520087911
33
30.2622368930502
70
3
  0
3DFACE
 8
Layer0
10
1.94322880788855
20
239.221520087911
30
30.2622368930502
11
1.94322880788855
21
247.708569044999
31
30.2622368930502
12
3.12501548688619
22
248.198081115271
32
30.2622368930502
13
3.12501548688619
23
248.198081115271
33
30.2622368930502
70
13
  0
3DFACE
 8
Layer0
10
1.94322880788855
20
239.221520087911
30
30.2622368930502
11
3.12501548688619
21
248.198081115271
31
30.2622368930502
12
3.12501548688619
22
238.732008017638
32
30.2622368930502
13
3.12501548688619
23
238.732008017638
33
30.2622368930502
70
3
  0
3DFACE
 8
Layer0
10
3.12501548688619
20
238.732008017638
30
30.2622368930502
11
3.12501548688619
21
248.198081115271
31
30.2622368930502
12
4.39322880788853
22
248.365044566455
32
30.2622368930502
13
4.39322880788853
23
248.365044566455
33
30.2622368930502
70
13
  0
3DFACE
 8
Layer0
10
3.12501548688619
20
238.732008017638
30
30.2622368930502
11
4.39322880788853
21
248.365044566455
31
30.2622368930502
12
4.39322880788853
22
238.565044566455
32
30.2622368930502
13
4.39322880788853
23
238.565044566455
33
30.2622368930502
70
3
  0
3DFACE
 8
Layer0
10
4.39322880788853
20
238.565044566455
30
30.2622368930502
11
4.39322880788853
21
248.365044566455
31
30.2622368930502
12
5.66144212889088
22
248.198081115271
32
30.2622368930502
13
5.66144212889088
23
248.198081115271
33
30.2622368930502
70
13
  0
3DFACE
 8
Layer0
10
4.39322880788853
20
238.565044566455
30
30.2622368930502
11
5.66144212889088
21
248.198081115271
31
30.2622368930502
12
5.66144212889088
22
238.732008017638
32
30.2622368930502
13
5.66144212889088
23
238.732008017638
33
30.2622368930502
70
3
  0
3DFACE
 8
Layer0
10
5.66144212889088
20
238.732008017638
30
30.2622368930502
11
5.66144212889088
21
248.198081115271
31
30.2622368930502
12
6.84322880788852
22
247.708569044999
32
30.2622368930502
13
6.84322880788852
23
247.708569044999
33
30.2622368930502
70
13
  0
3DFACE
 8
Layer0
10
5.66144212889088
20
238.732008017638
30
30.2622368930502
11
6.84322880788852
21
247.708569044999
31
30.2622368930502
12
6.84322880788852
22
239.221520087911
32
30.2622368930502
13
6.84322880788852
23
239.221520087911
33
30.2622368930502
70
3
  0
3DFACE
 8
Layer0
10
6.84322880788852
20
239.221520087911
30
30.2622368930502
11
6.84322880788852
21
247.708569044999
31
30.2622368930502
12
7.85805203570261
22
246.929867794269
32
30.2622368930502
13
7.85805203570261
23
246.929867794269
33
30.2622368930502
70
13
  0
3DFACE
 8
Layer0
10
6.84322880788852
20
239.221520087911
30
30.2622368930502
11
7.85805203570261
21
246.929867794269
31
30.2622368930502
12
7.85805203570261
22
240.000221338641
32
30.2622368930502
13
7.85805203570261
23
240.000221338641
33
30.2622368930502
70
3
  0
3DFACE
 8
Layer0
10
7.85805203570261
20
240.000221338641
30
30.2622368930502
11
7.85805203570261
21
246.929867794269
31
30.2622368930502
12
8.63675328643227
22
245.915044566455
32
30.2622368930502
13
8.63675328643227
23
245.915044566455
33
30.2622368930502
70
13
  0
3DFACE
 8
Layer0
10
7.85805203570261
20
240.000221338641
30
30.2622368930502
11
8.63675328643227
21
245.915044566455
31
30.2622368930502
12
8.63675328643227
22
241.015044566455
32
30.2622368930502
13
8.63675328643227
23
241.015044566455
33
30.2622368930502
70
3
  0
3DFACE
 8
Layer0
10
8.63675328643227
20
241.015044566455
30
30.2622368930502
11
8.63675328643227
21
245.915044566455
31
30.2622368930502
12
9.12626535670496
22
244.733257887457
32
30.2622368930502
13
9.12626535670496
23
244.733257887457
33
30.2622368930502
70
13
  0
3DFACE
 8
Layer0
10
8.63675328643227
20
241.015044566455
30
30.2622368930502
11
9.12626535670496
21
244.733257887457
31
30.2622368930502
12
9.12626535670496
22
242.196831245453
32
30.2622368930502
13
9.12626535670496
23
242.196831245453
33
30.2622368930502
70
3
  0
3DFACE
 8
Layer0
10
9.12626535670496
20
242.196831245453
30
30.2622368930502
11
9.12626535670496
21
244.733257887457
31
30.2622368930502
12
9.29322880788853
22
243.465044566455
32
30.2622368930502
13
9.29322880788853
23
243.465044566455
33
30.2622368930502
70
1
  0
3DFACE
 8
Layer0
10
0.0999999999999935
20
135.378853052375
30
30.3026643803495
11
-4.4293332892941
21
141.345325620292
31
0.040427487299311
12
0.099999999999997
22
141.941623660233
32
0.040427487299311
13
0.099999999999997
23
141.941623660233
33
0.040427487299311
70
1
  0
3DFACE
 8
Layer0
10
-4.4293332892941
20
141.345325620292
30
0.040427487299311
11
0.0999999999999935
21
135.378853052375
31
30.3026643803495
12
-2.7307632673414
22
135.006175998151
32
30.3026643803495
13
-2.7307632673414
23
135.006175998151
33
30.3026643803495
70
1
  0
3DFACE
 8
Layer0
10
-15.0554445662277
20
115.691623660233
30
0.040427487299311
11
-7.63378907057637
21
116.707834589657
31
30.3026643803495
12
-12.2743686707646
22
112.067254989469
32
0.040427487299311
13
-12.2743686707646
23
112.067254989469
33
0.040427487299311
70
1
  0
3DFACE
 8
Layer0
10
-7.63378907057637
20
116.707834589657
30
30.3026643803495
11
-15.0554445662277
21
115.691623660233
31
0.040427487299311
12
-9.37191850061273
22
118.973008964162
32
30.3026643803495
13
-9.37191850061273
23
118.973008964162
33
30.3026643803495
70
1
  0
3DFACE
 8
Layer0
10
5.56861469607095
20
133.913542160846
30
30.3026643803495
11
4.62933328929412
21
141.345325620292
31
0.040427487299311
12
8.84999999999999
22
139.597068226461
32
0.040427487299311
13
8.84999999999999
23
139.597068226461
33
0.040427487299311
70
1
  0
3DFACE
 8
Layer0
10
4.62933328929412
20
141.345325620292
30
0.040427487299311
11
5.56861469607095
21
133.913542160846
31
30.3026643803495
12
2.93076326734139
22
135.006175998151
32
30.3026643803495
13
2.93076326734139
23
135.006175998151
33
30.3026643803495
70
1
  0
3DFACE
 8
Layer0
10
-2.73076326734141
20
113.877071322316
30
30.3026643803495
11
0.099999999999997
21
106.941623660233
31
0.040427487299311
12
-4.42933328929412
22
107.537921700175
32
0.040427487299311
13
-4.42933328929412
23
107.537921700175
33
0.040427487299311
70
1
  0
3DFACE
 8
Layer0
10
0.099999999999997
20
106.941623660233
30
0.040427487299311
11
-2.73076326734141
21
113.877071322316
31
30.3026643803495
12
0.0999999999999749
22
113.504394268092
32
30.3026643803495
13
0.0999999999999749
23
113.504394268092
33
30.3026643803495
70
1
  0
3DFACE
 8
Layer0
10
7.83378907057636
20
132.17541273081
30
30.3026643803495
11
15.2554445662277
21
133.191623660233
31
0.040427487299311
12
9.57191850061272
22
129.910238356304
32
30.3026643803495
13
9.57191850061272
23
129.910238356304
33
30.3026643803495
70
1
  0
3DFACE
 8
Layer0
10
15.2554445662277
20
133.191623660233
30
0.040427487299311
11
7.83378907057636
21
132.17541273081
31
30.3026643803495
12
12.4743686707646
22
136.815992330998
32
0.040427487299311
13
12.4743686707646
23
136.815992330998
33
0.040427487299311
70
1
  0
3DFACE
 8
Layer0
10
-7.63378907057637
20
116.707834589657
30
30.3026643803495
11
-8.65
21
109.286179094006
31
0.040427487299311
12
-12.2743686707646
22
112.067254989469
32
0.040427487299311
13
-12.2743686707646
23
112.067254989469
33
0.040427487299311
70
1
  0
3DFACE
 8
Layer0
10
-8.65
20
109.286179094006
30
0.040427487299311
11
-7.63378907057637
21
116.707834589657
31
30.3026643803495
12
-5.36861469607097
22
114.969705159621
32
30.3026643803495
13
-5.36861469607097
23
114.969705159621
33
30.3026643803495
70
1
  0
3DFACE
 8
Layer0
10
2.93076326734139
20
135.006175998151
30
30.3026643803495
11
0.099999999999997
21
141.941623660233
31
0.040427487299311
12
4.62933328929412
22
141.345325620292
32
0.040427487299311
13
4.62933328929412
23
141.345325620292
33
0.040427487299311
70
1
  0
3DFACE
 8
Layer0
10
0.099999999999997
20
141.941623660233
30
0.040427487299311
11
2.93076326734139
21
135.006175998151
31
30.3026643803495
12
0.0999999999999935
22
135.378853052375
32
30.3026643803495
13
0.0999999999999935
23
135.378853052375
33
30.3026643803495
70
1
  0
3DFACE
 8
Layer0
10
-10.4645523379178
20
127.272386927575
30
30.3026643803495
11
-10.4645523379178
21
121.610860392892
31
30.3026643803495
12
-10.8372293921419
22
124.441623660233
32
30.3026643803495
13
-10.8372293921419
23
124.441623660233
33
30.3026643803495
70
1
  0
3DFACE
 8
Layer0
10
-10.4645523379178
20
121.610860392892
30
30.3026643803495
11
-10.4645523379178
21
127.272386927575
31
30.3026643803495
12
-9.37191850061273
22
118.973008964162
32
30.3026643803495
13
-9.37191850061273
23
118.973008964162
33
30.3026643803495
70
3
  0
3DFACE
 8
Layer0
10
-9.37191850061273
20
118.973008964162
30
30.3026643803495
11
-10.4645523379178
21
127.272386927575
31
30.3026643803495
12
-9.37191850061273
22
129.910238356304
32
30.3026643803495
13
-9.37191850061273
23
129.910238356304
33
30.3026643803495
70
13
  0
3DFACE
 8
Layer0
10
-9.37191850061273
20
118.973008964162
30
30.3026643803495
11
-9.37191850061273
21
129.910238356304
31
30.3026643803495
12
-7.63378907057637
22
116.707834589657
32
30.3026643803495
13
-7.63378907057637
23
116.707834589657
33
30.3026643803495
70
3
  0
3DFACE
 8
Layer0
10
-7.63378907057637
20
116.707834589657
30
30.3026643803495
11
-9.37191850061273
21
129.910238356304
31
30.3026643803495
12
-7.63378907057637
22
132.17541273081
32
30.3026643803495
13
-7.63378907057637
23
132.17541273081
33
30.3026643803495
70
13
  0
3DFACE
 8
Layer0
10
-7.63378907057637
20
116.707834589657
30
30.3026643803495
11
-7.63378907057637
21
132.17541273081
31
30.3026643803495
12
-5.36861469607097
22
114.969705159621
32
30.3026643803495
13
-5.36861469607097
23
114.969705159621
33
30.3026643803495
70
3
  0
3DFACE
 8
Layer0
10
-5.36861469607097
20
114.969705159621
30
30.3026643803495
11
-7.63378907057637
21
132.17541273081
31
30.3026643803495
12
-5.36861469607096
22
133.913542160846
32
30.3026643803495
13
-5.36861469607096
23
133.913542160846
33
30.3026643803495
70
13
  0
3DFACE
 8
Layer0
10
-5.36861469607097
20
114.969705159621
30
30.3026643803495
11
-5.36861469607096
21
133.913542160846
31
30.3026643803495
12
-2.73076326734141
22
113.877071322316
32
30.3026643803495
13
-2.73076326734141
23
113.877071322316
33
30.3026643803495
70
3
  0
3DFACE
 8
Layer0
10
-2.73076326734141
20
113.877071322316
30
30.3026643803495
11
-5.36861469607096
21
133.913542160846
31
30.3026643803495
12
-2.7307632673414
22
135.006175998151
32
30.3026643803495
13
-2.7307632673414
23
135.006175998151
33
30.3026643803495
70
13
  0
3DFACE
 8
Layer0
10
-2.73076326734141
20
113.877071322316
30
30.3026643803495
11
-2.7307632673414
21
135.006175998151
31
30.3026643803495
12
0.0999999999999749
22
113.504394268092
32
30.3026643803495
13
0.0999999999999749
23
113.504394268092
33
30.3026643803495
70
3
  0
3DFACE
 8
Layer0
10
0.0999999999999749
20
113.504394268092
30
30.3026643803495
11
-2.7307632673414
21
135.006175998151
31
30.3026643803495
12
0.0999999999999935
22
135.378853052375
32
30.3026643803495
13
0.0999999999999935
23
135.378853052375
33
30.3026643803495
70
13
  0
3DFACE
 8
Layer0
10
0.0999999999999749
20
113.504394268092
30
30.3026643803495
11
0.0999999999999935
21
135.378853052375
31
30.3026643803495
12
2.93076326734139
22
113.877071322316
32
30.3026643803495
13
2.93076326734139
23
113.877071322316
33
30.3026643803495
70
3
  0
3DFACE
 8
Layer0
10
2.93076326734139
20
113.877071322316
30
30.3026643803495
11
0.0999999999999935
21
135.378853052375
31
30.3026643803495
12
2.93076326734139
22
135.006175998151
32
30.3026643803495
13
2.93076326734139
23
135.006175998151
33
30.3026643803495
70
13
  0
3DFACE
 8
Layer0
10
2.93076326734139
20
113.877071322316
30
30.3026643803495
11
2.93076326734139
21
135.006175998151
31
30.3026643803495
12
5.56861469607095
22
133.913542160846
32
30.3026643803495
13
5.56861469607095
23
133.913542160846
33
30.3026643803495
70
13
  0
3DFACE
 8
Layer0
10
2.93076326734139
20
113.877071322316
30
30.3026643803495
11
5.56861469607095
21
133.913542160846
31
30.3026643803495
12
5.56861469607095
22
114.969705159621
32
30.3026643803495
13
5.56861469607095
23
114.969705159621
33
30.3026643803495
70
3
  0
3DFACE
 8
Layer0
10
5.56861469607095
20
114.969705159621
30
30.3026643803495
11
5.56861469607095
21
133.913542160846
31
30.3026643803495
12
7.83378907057636
22
132.17541273081
32
30.3026643803495
13
7.83378907057636
23
132.17541273081
33
30.3026643803495
70
13
  0
3DFACE
 8
Layer0
10
5.56861469607095
20
114.969705159621
30
30.3026643803495
11
7.83378907057636
21
132.17541273081
31
30.3026643803495
12
7.83378907057636
22
116.707834589657
32
30.3026643803495
13
7.83378907057636
23
116.707834589657
33
30.3026643803495
70
3
  0
3DFACE
 8
Layer0
10
7.83378907057636
20
116.707834589657
30
30.3026643803495
11
7.83378907057636
21
132.17541273081
31
30.3026643803495
12
9.57191850061272
22
118.973008964162
32
30.3026643803495
13
9.57191850061272
23
118.973008964162
33
30.3026643803495
70
3
  0
3DFACE
 8
Layer0
10
9.57191850061272
20
118.973008964162
30
30.3026643803495
11
7.83378907057636
21
132.17541273081
31
30.3026643803495
12
9.57191850061272
22
129.910238356304
32
30.3026643803495
13
9.57191850061272
23
129.910238356304
33
30.3026643803495
70
13
  0
3DFACE
 8
Layer0
10
9.57191850061272
20
118.973008964162
30
30.3026643803495
11
9.57191850061272
21
129.910238356304
31
30.3026643803495
12
10.6645523379177
22
121.610860392892
32
30.3026643803495
13
10.6645523379177
23
121.610860392892
33
30.3026643803495
70
3
  0
3DFACE
 8
Layer0
10
10.6645523379177
20
121.610860392892
30
30.3026643803495
11
9.57191850061272
21
129.910238356304
31
30.3026643803495
12
10.6645523379178
22
127.272386927575
32
30.3026643803495
13
10.6645523379178
23
127.272386927575
33
30.3026643803495
70
13
  0
3DFACE
 8
Layer0
10
10.6645523379177
20
121.610860392892
30
30.3026643803495
11
10.6645523379178
21
127.272386927575
31
30.3026643803495
12
11.0372293921419
22
124.441623660233
32
30.3026643803495
13
11.0372293921419
23
124.441623660233
33
30.3026643803495
70
1
  0
3DFACE
 8
Layer0
10
0.952134023786149
20
65.6415518730618
30
30.2622368930502
11
17.2930230322393
21
65.9521347271849
31
0.0
12
16.696724992298
22
61.4228014378907
32
0.0
13
16.696724992298
23
61.4228014378907
33
0.0
70
1
  0
3DFACE
 8
Layer0
10
17.2930230322393
20
65.9521347271849
30
0.0
11
0.952134023786149
21
65.6415518730618
31
30.2622368930502
12
0.993023032239267
22
65.9521347271849
32
30.2622368930502
13
0.993023032239267
23
65.9521347271849
33
30.2622368930502
70
1
  0
3DFACE
 8
Layer0
10
0.832253516780595
20
66.5521347271848
30
30.2622368930502
11
16.696724992298
21
70.4814680164789
31
0.0
12
0.952134023786149
22
66.2627175813079
32
30.2622368930502
13
0.952134023786149
23
66.2627175813079
33
30.2622368930502
70
1
  0
3DFACE
 8
Layer0
10
16.696724992298
20
70.4814680164789
30
0.0
11
0.832253516780595
21
66.5521347271848
31
30.2622368930502
12
14.948467598467
22
74.7021347271848
32
0.0
13
14.948467598467
23
74.7021347271848
33
0.0
70
1
  0
3DFACE
 8
Layer0
10
-16.8037019600587
20
128.970956949528
30
0.040427487299311
11
-9.37191850061273
21
129.910238356304
31
30.3026643803495
12
-10.4645523379178
22
127.272386927575
32
30.3026643803495
13
-10.4645523379178
23
127.272386927575
33
30.3026643803495
70
1
  0
3DFACE
 8
Layer0
10
-9.37191850061273
20
129.910238356304
30
30.3026643803495
11
-16.8037019600587
21
128.970956949528
31
0.040427487299311
12
-15.0554445662277
22
133.191623660233
32
0.040427487299311
13
-15.0554445662277
23
133.191623660233
33
0.040427487299311
70
1
  0
3DFACE
 8
Layer0
10
0.103605886362302
20
64.793023735638
30
30.2622368930502
11
8.54302303223928
21
50.7966901609572
31
0.0
12
4.32235632153338
22
49.0484327671262
32
0.0
13
4.32235632153338
23
49.0484327671262
33
0.0
70
1
  0
3DFACE
 8
Layer0
10
8.54302303223928
20
50.7966901609572
30
0.0
11
0.103605886362302
21
64.793023735638
31
30.2622368930502
12
0.393023032239274
22
64.9129042426435
32
30.2622368930502
13
0.393023032239274
23
64.9129042426435
33
30.2622368930502
70
1
  0
3DFACE
 8
Layer0
10
-15.0554445662277
20
133.191623660233
30
0.040427487299311
11
-7.63378907057637
21
132.17541273081
31
30.3026643803495
12
-9.37191850061273
22
129.910238356304
32
30.3026643803495
13
-9.37191850061273
23
129.910238356304
33
30.3026643803495
70
1
  0
3DFACE
 8
Layer0
10
-7.63378907057637
20
132.17541273081
30
30.3026643803495
11
-15.0554445662277
21
133.191623660233
31
0.040427487299311
12
-12.2743686707646
22
136.815992330998
32
0.040427487299311
13
-12.2743686707646
23
136.815992330998
33
0.040427487299311
70
1
  0
3DFACE
 8
Layer0
10
-0.206976967760722
20
64.7521347271849
30
30.2622368930502
11
4.32235632153338
21
49.0484327671262
31
0.0
12
-0.20697696776072
22
48.4521347271849
32
0.0
13
-0.20697696776072
23
48.4521347271849
33
0.0
70
1
  0
3DFACE
 8
Layer0
10
4.32235632153338
20
49.0484327671262
30
0.0
11
-0.206976967760722
21
64.7521347271849
31
30.2622368930502
12
0.103605886362302
22
64.793023735638
32
30.2622368930502
13
0.103605886362302
23
64.793023735638
33
30.2622368930502
70
1
  0
3DFACE
 8
Layer0
10
-17.1106789278194
20
61.4228014378908
30
0.0
11
-1.24620745230203
21
65.3521347271849
31
30.2622368930502
12
-15.3624215339884
22
57.2021347271849
32
0.0
13
-15.3624215339884
23
57.2021347271849
33
0.0
70
1
  0
3DFACE
 8
Layer0
10
-1.24620745230203
20
65.3521347271849
30
30.2622368930502
11
-17.1106789278194
21
61.4228014378908
31
0.0
12
-1.36608795930759
22
65.6415518730618
32
30.2622368930502
13
-1.36608795930759
23
65.6415518730618
33
30.2622368930502
70
1
  0
3DFACE
 8
Layer0
10
0.393023032239274
20
64.9129042426435
30
30.2622368930502
11
12.1673917030038
21
53.5777660564203
31
0.0
12
8.54302303223928
22
50.7966901609572
32
0.0
13
8.54302303223928
23
50.7966901609572
33
0.0
70
1
  0
3DFACE
 8
Layer0
10
12.1673917030038
20
53.5777660564203
30
0.0
11
0.393023032239274
21
64.9129042426435
31
30.2622368930502
12
0.641551169663128
22
65.103606589761
32
30.2622368930502
13
0.641551169663128
23
65.103606589761
33
30.2622368930502
70
1
  0
3DFACE
 8
Layer0
10
0.952134023786149
20
66.2627175813079
30
30.2622368930502
11
17.2930230322393
21
65.9521347271849
31
0.0
12
0.993023032239267
22
65.9521347271849
32
30.2622368930502
13
0.993023032239267
23
65.9521347271849
33
30.2622368930502
70
1
  0
3DFACE
 8
Layer0
10
17.2930230322393
20
65.9521347271849
30
0.0
11
0.952134023786149
21
66.2627175813079
31
30.2622368930502
12
16.696724992298
22
70.4814680164789
32
0.0
13
16.696724992298
23
70.4814680164789
33
0.0
70
1
  0
3DFACE
 8
Layer0
10
9.57191850061272
20
118.973008964162
30
30.3026643803495
11
17.0037019600587
21
119.912290370939
31
0.040427487299311
12
15.2554445662277
22
115.691623660233
32
0.040427487299311
13
15.2554445662277
23
115.691623660233
33
0.040427487299311
70
1
  0
3DFACE
 8
Layer0
10
17.0037019600587
20
119.912290370939
30
0.040427487299311
11
9.57191850061272
21
118.973008964162
31
30.3026643803495
12
10.6645523379177
22
121.610860392892
32
30.3026643803495
13
10.6645523379177
23
121.610860392892
33
30.3026643803495
70
1
  0
3DFACE
 8
Layer0
10
-17.1106789278194
20
70.481468016479
30
0.0
11
-1.24620745230203
21
66.5521347271848
31
30.2622368930502
12
-1.36608795930759
22
66.2627175813079
32
30.2622368930502
13
-1.36608795930759
23
66.2627175813079
33
30.2622368930502
70
1
  0
3DFACE
 8
Layer0
10
-1.24620745230203
20
66.5521347271848
30
30.2622368930502
11
-17.1106789278194
21
70.481468016479
31
0.0
12
-15.3624215339884
22
74.7021347271848
32
0.0
13
-15.3624215339884
23
74.7021347271848
33
0.0
70
1
  0
3DFACE
 8
Layer0
10
-16.8037019600587
20
119.912290370939
30
0.040427487299311
11
-9.37191850061273
21
118.973008964162
31
30.3026643803495
12
-15.0554445662277
22
115.691623660233
32
0.040427487299311
13
-15.0554445662277
23
115.691623660233
33
0.040427487299311
70
1
  0
3DFACE
 8
Layer0
10
-9.37191850061273
20
118.973008964162
30
30.3026643803495
11
-16.8037019600587
21
119.912290370939
31
0.040427487299311
12
-10.4645523379178
22
121.610860392892
32
30.3026643803495
13
-10.4645523379178
23
121.610860392892
33
30.3026643803495
70
1
  0
3DFACE
 8
Layer0
10
7.83378907057636
20
132.17541273081
30
30.3026643803495
11
8.84999999999999
21
139.597068226461
31
0.040427487299311
12
12.4743686707646
22
136.815992330998
32
0.040427487299311
13
12.4743686707646
23
136.815992330998
33
0.040427487299311
70
1
  0
3DFACE
 8
Layer0
10
8.84999999999999
20
139.597068226461
30
0.040427487299311
11
7.83378907057636
21
132.17541273081
31
30.3026643803495
12
5.56861469607095
22
133.913542160846
32
30.3026643803495
13
5.56861469607095
23
133.913542160846
33
30.3026643803495
70
1
  0
3DFACE
 8
Layer0
10
10.6645523379178
20
127.272386927575
30
30.3026643803495
11
17.6
21
124.441623660233
31
0.040427487299311
12
11.0372293921419
22
124.441623660233
32
30.3026643803495
13
11.0372293921419
23
124.441623660233
33
30.3026643803495
70
1
  0
3DFACE
 8
Layer0
10
17.6
20
124.441623660233
30
0.040427487299311
11
10.6645523379178
21
127.272386927575
31
30.3026643803495
12
17.0037019600587
22
128.970956949528
32
0.040427487299311
13
17.0037019600587
23
128.970956949528
33
0.040427487299311
70
1
  0
3DFACE
 8
Layer0
10
-16.8037019600587
20
128.970956949528
30
0.040427487299311
11
-10.8372293921419
21
124.441623660233
31
30.3026643803495
12
-17.4
22
124.441623660233
32
0.040427487299311
13
-17.4
23
124.441623660233
33
0.040427487299311
70
1
  0
3DFACE
 8
Layer0
10
-10.8372293921419
20
124.441623660233
30
30.3026643803495
11
-16.8037019600587
21
128.970956949528
31
0.040427487299311
12
-10.4645523379178
22
127.272386927575
32
30.3026643803495
13
-10.4645523379178
23
127.272386927575
33
30.3026643803495
70
1
  0
3DFACE
 8
Layer0
10
-5.36861469607097
20
114.969705159621
30
30.3026643803495
11
-4.42933328929412
21
107.537921700175
31
0.040427487299311
12
-8.65
22
109.286179094006
32
0.040427487299311
13
-8.65
23
109.286179094006
33
0.040427487299311
70
1
  0
3DFACE
 8
Layer0
10
-4.42933328929412
20
107.537921700175
30
0.040427487299311
11
-5.36861469607097
21
114.969705159621
31
30.3026643803495
12
-2.73076326734141
22
113.877071322316
32
30.3026643803495
13
-2.73076326734141
23
113.877071322316
33
30.3026643803495
70
1
  0
3DFACE
 8
Layer0
10
-17.4
20
124.441623660233
30
0.040427487299311
11
-10.4645523379178
21
121.610860392892
31
30.3026643803495
12
-16.8037019600587
22
119.912290370939
32
0.040427487299311
13
-16.8037019600587
23
119.912290370939
33
0.040427487299311
70
1
  0
3DFACE
 8
Layer0
10
-10.4645523379178
20
121.610860392892
30
30.3026643803495
11
-17.4
21
124.441623660233
31
0.040427487299311
12
-10.8372293921419
22
124.441623660233
32
30.3026643803495
13
-10.8372293921419
23
124.441623660233
33
30.3026643803495
70
1
  0
3DFACE
 8
Layer0
10
0.832253516780595
20
65.3521347271848
30
30.2622368930502
11
16.696724992298
21
61.4228014378907
31
0.0
12
14.948467598467
22
57.2021347271849
32
0.0
13
14.948467598467
23
57.2021347271849
33
0.0
70
1
  0
3DFACE
 8
Layer0
10
16.696724992298
20
61.4228014378907
30
0.0
11
0.832253516780595
21
65.3521347271848
31
30.2622368930502
12
0.952134023786149
22
65.6415518730618
32
30.2622368930502
13
0.952134023786149
23
65.6415518730618
33
30.2622368930502
70
1
  0
3DFACE
 8
Layer0
10
0.641551169663128
20
65.103606589761
30
30.2622368930502
11
14.948467598467
21
57.2021347271849
31
0.0
12
12.1673917030038
22
53.5777660564203
32
0.0
13
12.1673917030038
23
53.5777660564203
33
0.0
70
1
  0
3DFACE
 8
Layer0
10
14.948467598467
20
57.2021347271849
30
0.0
11
0.641551169663128
21
65.103606589761
31
30.2622368930502
12
0.832253516780595
22
65.3521347271848
32
30.2622368930502
13
0.832253516780595
23
65.3521347271848
33
30.2622368930502
70
1
  0
3DFACE
 8
Layer0
10
7.83378907057636
20
116.707834589657
30
30.3026643803495
11
15.2554445662277
21
115.691623660233
31
0.040427487299311
12
12.4743686707646
22
112.067254989469
32
0.040427487299311
13
12.4743686707646
23
112.067254989469
33
0.040427487299311
70
1
  0
3DFACE
 8
Layer0
10
15.2554445662277
20
115.691623660233
30
0.040427487299311
11
7.83378907057636
21
116.707834589657
31
30.3026643803495
12
9.57191850061272
22
118.973008964162
32
30.3026643803495
13
9.57191850061272
23
118.973008964162
33
30.3026643803495
70
1
  0
3DFACE
 8
Layer0
10
-2.7307632673414
20
135.006175998151
30
30.3026643803495
11
-8.65
21
139.597068226461
31
0.040427487299311
12
-4.4293332892941
22
141.345325620292
32
0.040427487299311
13
-4.4293332892941
23
141.345325620292
33
0.040427487299311
70
1
  0
3DFACE
 8
Layer0
10
-8.65
20
139.597068226461
30
0.040427487299311
11
-2.7307632673414
21
135.006175998151
31
30.3026643803495
12
-5.36861469607096
22
133.913542160846
32
30.3026643803495
13
-5.36861469607096
23
133.913542160846
33
30.3026643803495
70
1
  0
3DFACE
 8
Layer0
10
-5.36861469607096
20
133.913542160846
30
30.3026643803495
11
-12.2743686707646
21
136.815992330998
31
0.040427487299311
12
-8.65
22
139.597068226461
32
0.040427487299311
13
-8.65
23
139.597068226461
33
0.040427487299311
70
1
  0
3DFACE
 8
Layer0
10
-12.2743686707646
20
136.815992330998
30
0.040427487299311
11
-5.36861469607096
21
133.913542160846
31
30.3026643803495
12
-7.63378907057637
22
132.17541273081
32
30.3026643803495
13
-7.63378907057637
23
132.17541273081
33
30.3026643803495
70
1
  0
3DFACE
 8
Layer0
10
9.57191850061272
20
129.910238356304
30
30.3026643803495
11
17.0037019600587
21
128.970956949528
31
0.040427487299311
12
10.6645523379178
22
127.272386927575
32
30.3026643803495
13
10.6645523379178
23
127.272386927575
33
30.3026643803495
70
1
  0
3DFACE
 8
Layer0
10
17.0037019600587
20
128.970956949528
30
0.040427487299311
11
9.57191850061272
21
129.910238356304
31
30.3026643803495
12
15.2554445662277
22
133.191623660233
32
0.040427487299311
13
15.2554445662277
23
133.191623660233
33
0.040427487299311
70
1
  0
3DFACE
 8
Layer0
10
10.6645523379177
20
121.610860392892
30
30.3026643803495
11
17.6
21
124.441623660233
31
0.040427487299311
12
17.0037019600587
22
119.912290370939
32
0.040427487299311
13
17.0037019600587
23
119.912290370939
33
0.040427487299311
70
1
  0
3DFACE
 8
Layer0
10
17.6
20
124.441623660233
30
0.040427487299311
11
10.6645523379177
21
121.610860392892
31
30.3026643803495
12
11.0372293921419
22
124.441623660233
32
30.3026643803495
13
11.0372293921419
23
124.441623660233
33
30.3026643803495
70
1
  0
3DFACE
 8
Layer0
10
1.28996116244169
20
191.783793976011
30
30.2622368930502
11
17.6899611624416
21
203.883793976011
31
0.0
12
-12.2100388375583
22
203.883793976011
32
0.0
13
-12.2100388375583
23
203.883793976011
33
0.0
70
1
  0
3DFACE
 8
Layer0
10
17.6899611624416
20
203.883793976011
30
0.0
11
1.28996116244169
21
191.783793976011
31
30.2622368930502
12
5.18996116244168
22
191.783793976011
32
30.2622368930502
13
5.18996116244168
23
191.783793976011
33
30.2622368930502
70
1
  0
3DFACE
 8
Layer0
10
-15.3624215339884
20
74.7021347271848
30
0.0
11
-1.05550510518457
21
66.8006628646087
31
30.2622368930502
12
-1.24620745230203
22
66.5521347271848
32
30.2622368930502
13
-1.24620745230203
23
66.5521347271848
33
30.2622368930502
70
1
  0
3DFACE
 8
Layer0
10
-1.05550510518457
20
66.8006628646087
30
30.2622368930502
11
-15.3624215339884
21
74.7021347271848
31
0.0
12
-12.5813456385253
22
78.3265033979494
32
0.0
13
-12.5813456385253
23
78.3265033979494
33
0.0
70
1
  0
3DFACE
 8
Layer0
10
-0.806976967760714
20
64.9129042426435
30
30.2622368930502
11
-4.73631025705484
21
49.0484327671262
31
0.0
12
-8.95697696776072
22
50.7966901609572
32
0.0
13
-8.95697696776072
23
50.7966901609572
33
0.0
70
1
  0
3DFACE
 8
Layer0
10
-4.73631025705484
20
49.0484327671262
30
0.0
11
-0.806976967760714
21
64.9129042426435
31
30.2622368930502
12
-0.517559821883743
22
64.793023735638
32
30.2622368930502
13
-0.517559821883743
23
64.793023735638
33
30.2622368930502
70
1
  0
3DFACE
 8
Layer0
10
-0.806976967760714
20
66.9913652117262
30
30.2622368930502
11
-12.5813456385253
21
78.3265033979494
31
0.0
12
-8.95697696776072
22
81.1075792934125
32
0.0
13
-8.95697696776072
23
81.1075792934125
33
0.0
70
1
  0
3DFACE
 8
Layer0
10
-12.5813456385253
20
78.3265033979494
30
0.0
11
-0.806976967760714
21
66.9913652117262
31
30.2622368930502
12
-1.05550510518457
22
66.8006628646087
32
30.2622368930502
13
-1.05550510518457
23
66.8006628646087
33
30.2622368930502
70
1
  0
3DFACE
 8
Layer0
10
-17.7069769677607
20
65.9521347271849
30
0.0
11
-1.36608795930759
21
65.6415518730618
31
30.2622368930502
12
-17.1106789278194
22
61.4228014378908
32
0.0
13
-17.1106789278194
23
61.4228014378908
33
0.0
70
1
  0
3DFACE
 8
Layer0
10
-1.36608795930759
20
65.6415518730618
30
30.2622368930502
11
-17.7069769677607
21
65.9521347271849
31
0.0
12
-1.40697696776071
22
65.9521347271849
32
30.2622368930502
13
-1.40697696776071
23
65.9521347271849
33
30.2622368930502
70
1
  0
3DFACE
 8
Layer0
10
-0.517559821883743
20
64.793023735638
30
30.2622368930502
11
-0.20697696776072
21
48.4521347271849
31
0.0
12
-4.73631025705484
22
49.0484327671262
32
0.0
13
-4.73631025705484
23
49.0484327671262
33
0.0
70
1
  0
3DFACE
 8
Layer0
10
-0.20697696776072
20
48.4521347271849
30
0.0
11
-0.517559821883743
21
64.793023735638
31
30.2622368930502
12
-0.206976967760722
22
64.7521347271849
32
30.2622368930502
13
-0.206976967760722
23
64.7521347271849
33
30.2622368930502
70
1
  0
3DFACE
 8
Layer0
10
0.641551169663128
20
66.8006628646087
30
30.2622368930502
11
8.54302303223928
21
81.1075792934125
31
0.0
12
12.1673917030039
22
78.3265033979494
32
0.0
13
12.1673917030039
23
78.3265033979494
33
0.0
70
1
  0
3DFACE
 8
Layer0
10
8.54302303223928
20
81.1075792934125
30
0.0
11
0.641551169663128
21
66.8006628646087
31
30.2622368930502
12
0.393023032239274
22
66.9913652117262
32
30.2622368930502
13
0.393023032239274
23
66.9913652117262
33
30.2622368930502
70
1
  0
3DFACE
 8
Layer0
10
0.641551169663128
20
66.8006628646087
30
30.2622368930502
11
14.948467598467
21
74.7021347271848
31
0.0
12
0.832253516780595
22
66.5521347271848
32
30.2622368930502
13
0.832253516780595
23
66.5521347271848
33
30.2622368930502
70
1
  0
3DFACE
 8
Layer0
10
14.948467598467
20
74.7021347271848
30
0.0
11
0.641551169663128
21
66.8006628646087
31
30.2622368930502
12
12.1673917030039
22
78.3265033979494
32
0.0
13
12.1673917030039
23
78.3265033979494
33
0.0
70
1
  0
3DFACE
 8
Layer0
10
-1.05550510518457
20
65.103606589761
30
30.2622368930502
11
-8.95697696776072
21
50.7966901609572
31
0.0
12
-12.5813456385253
22
53.5777660564203
32
0.0
13
-12.5813456385253
23
53.5777660564203
33
0.0
70
1
  0
3DFACE
 8
Layer0
10
-8.95697696776072
20
50.7966901609572
30
0.0
11
-1.05550510518457
21
65.103606589761
31
30.2622368930502
12
-0.806976967760714
22
64.9129042426435
32
30.2622368930502
13
-0.806976967760714
23
64.9129042426435
33
30.2622368930502
70
1
  0
3DFACE
 8
Layer0
10
-1.36608795930759
20
66.2627175813079
30
30.2622368930502
11
-1.36608795930759
21
65.6415518730618
31
30.2622368930502
12
-1.40697696776071
22
65.9521347271849
32
30.2622368930502
13
-1.40697696776071
23
65.9521347271849
33
30.2622368930502
70
1
  0
3DFACE
 8
Layer0
10
-1.36608795930759
20
65.6415518730618
30
30.2622368930502
11
-1.36608795930759
21
66.2627175813079
31
30.2622368930502
12
-1.24620745230203
22
65.3521347271849
32
30.2622368930502
13
-1.24620745230203
23
65.3521347271849
33
30.2622368930502
70
3
  0
3DFACE
 8
Layer0
10
-1.24620745230203
20
65.3521347271849
30
30.2622368930502
11
-1.36608795930759
21
66.2627175813079
31
30.2622368930502
12
-1.24620745230203
22
66.5521347271848
32
30.2622368930502
13
-1.24620745230203
23
66.5521347271848
33
30.2622368930502
70
13
  0
3DFACE
 8
Layer0
10
-1.24620745230203
20
65.3521347271849
30
30.2622368930502
11
-1.24620745230203
21
66.5521347271848
31
30.2622368930502
12
-1.05550510518457
22
65.103606589761
32
30.2622368930502
13
-1.05550510518457
23
65.103606589761
33
30.2622368930502
70
3
  0
3DFACE
 8
Layer0
10
-1.05550510518457
20
65.103606589761
30
30.2622368930502
11
-1.24620745230203
21
66.5521347271848
31
30.2622368930502
12
-1.05550510518457
22
66.8006628646087
32
30.2622368930502
13
-1.05550510518457
23
66.8006628646087
33
30.2622368930502
70
13
  0
3DFACE
 8
Layer0
10
-1.05550510518457
20
65.103606589761
30
30.2622368930502
11
-1.05550510518457
21
66.8006628646087
31
30.2622368930502
12
-0.806976967760714
22
64.9129042426435
32
30.2622368930502
13
-0.806976967760714
23
64.9129042426435
33
30.2622368930502
70
3
  0
3DFACE
 8
Layer0
10
-0.806976967760714
20
64.9129042426435
30
30.2622368930502
11
-1.05550510518457
21
66.8006628646087
31
30.2622368930502
12
-0.806976967760714
22
66.9913652117262
32
30.2622368930502
13
-0.806976967760714
23
66.9913652117262
33
30.2622368930502
70
13
  0
3DFACE
 8
Layer0
10
-0.806976967760714
20
64.9129042426435
30
30.2622368930502
11
-0.806976967760714
21
66.9913652117262
31
30.2622368930502
12
-0.517559821883743
22
64.793023735638
32
30.2622368930502
13
-0.517559821883743
23
64.793023735638
33
30.2622368930502
70
3
  0
3DFACE
 8
Layer0
10
-0.517559821883743
20
64.793023735638
30
30.2622368930502
11
-0.806976967760714
21
66.9913652117262
31
30.2622368930502
12
-0.517559821883742
22
67.1112457187317
32
30.2622368930502
13
-0.517559821883742
23
67.1112457187317
33
30.2622368930502
70
13
  0
3DFACE
 8
Layer0
10
-0.517559821883743
20
64.793023735638
30
30.2622368930502
11
-0.517559821883742
21
67.1112457187317
31
30.2622368930502
12
-0.206976967760722
22
64.7521347271849
32
30.2622368930502
13
-0.206976967760722
23
64.7521347271849
33
30.2622368930502
70
3
  0
3DFACE
 8
Layer0
10
-0.206976967760722
20
64.7521347271849
30
30.2622368930502
11
-0.517559821883742
21
67.1112457187317
31
30.2622368930502
12
-0.20697696776072
22
67.1521347271848
32
30.2622368930502
13
-0.20697696776072
23
67.1521347271848
33
30.2622368930502
70
13
  0
3DFACE
 8
Layer0
10
-0.206976967760722
20
64.7521347271849
30
30.2622368930502
11
-0.20697696776072
21
67.1521347271848
31
30.2622368930502
12
0.103605886362302
22
64.793023735638
32
30.2622368930502
13
0.103605886362302
23
64.793023735638
33
30.2622368930502
70
3
  0
3DFACE
 8
Layer0
10
0.103605886362302
20
64.793023735638
30
30.2622368930502
11
-0.20697696776072
21
67.1521347271848
31
30.2622368930502
12
0.103605886362302
22
67.1112457187317
32
30.2622368930502
13
0.103605886362302
23
67.1112457187317
33
30.2622368930502
70
13
  0
3DFACE
 8
Layer0
10
0.103605886362302
20
64.793023735638
30
30.2622368930502
11
0.103605886362302
21
67.1112457187317
31
30.2622368930502
12
0.393023032239274
22
66.9913652117262
32
30.2622368930502
13
0.393023032239274
23
66.9913652117262
33
30.2622368930502
70
13
  0
3DFACE
 8
Layer0
10
0.103605886362302
20
64.793023735638
30
30.2622368930502
11
0.393023032239274
21
66.9913652117262
31
30.2622368930502
12
0.393023032239274
22
64.9129042426435
32
30.2622368930502
13
0.393023032239274
23
64.9129042426435
33
30.2622368930502
70
3
  0
3DFACE
 8
Layer0
10
0.393023032239274
20
64.9129042426435
30
30.2622368930502
11
0.393023032239274
21
66.9913652117262
31
30.2622368930502
12
0.641551169663128
22
66.8006628646087
32
30.2622368930502
13
0.641551169663128
23
66.8006628646087
33
30.2622368930502
70
13
  0
3DFACE
 8
Layer0
10
0.393023032239274
20
64.9129042426435
30
30.2622368930502
11
0.641551169663128
21
66.8006628646087
31
30.2622368930502
12
0.641551169663128
22
65.103606589761
32
30.2622368930502
13
0.641551169663128
23
65.103606589761
33
30.2622368930502
70
3
  0
3DFACE
 8
Layer0
10
0.641551169663128
20
65.103606589761
30
30.2622368930502
11
0.641551169663128
21
66.8006628646087
31
30.2622368930502
12
0.832253516780595
22
65.3521347271848
32
30.2622368930502
13
0.832253516780595
23
65.3521347271848
33
30.2622368930502
70
3
  0
3DFACE
 8
Layer0
10
0.832253516780595
20
65.3521347271848
30
30.2622368930502
11
0.641551169663128
21
66.8006628646087
31
30.2622368930502
12
0.832253516780595
22
66.5521347271848
32
30.2622368930502
13
0.832253516780595
23
66.5521347271848
33
30.2622368930502
70
13
  0
3DFACE
 8
Layer0
10
0.832253516780595
20
65.3521347271848
30
30.2622368930502
11
0.832253516780595
21
66.5521347271848
31
30.2622368930502
12
0.952134023786149
22
66.2627175813079
32
30.2622368930502
13
0.952134023786149
23
66.2627175813079
33
30.2622368930502
70
13
  0
3DFACE
 8
Layer0
10
0.832253516780595
20
65.3521347271848
30
30.2622368930502
11
0.952134023786149
21
66.2627175813079
31
30.2622368930502
12
0.952134023786149
22
65.6415518730618
32
30.2622368930502
13
0.952134023786149
23
65.6415518730618
33
30.2622368930502
70
3
  0
3DFACE
 8
Layer0
10
0.952134023786149
20
65.6415518730618
30
30.2622368930502
11
0.952134023786149
21
66.2627175813079
31
30.2622368930502
12
0.993023032239267
22
65.9521347271849
32
30.2622368930502
13
0.993023032239267
23
65.9521347271849
33
30.2622368930502
70
1
  0
3DFACE
 8
Layer0
10
1.28996116244169
20
180.483793976011
30
30.2622368930502
11
-12.2100388375583
21
203.883793976011
31
0.0
12
-12.2100388375583
22
168.383793976011
32
0.0
13
-12.2100388375583
23
168.383793976011
33
0.0
70
1
  0
3DFACE
 8
Layer0
10
-12.2100388375583
20
203.883793976011
30
0.0
11
1.28996116244169
21
180.483793976011
31
30.2622368930502
12
1.28996116244169
22
191.783793976011
32
30.2622368930502
13
1.28996116244169
23
191.783793976011
33
30.2622368930502
70
1
  0
3DFACE
 8
Layer0
10
0.393023032239274
20
66.9913652117262
30
30.2622368930502
11
4.3223563215334
21
82.8558366872435
31
0.0
12
8.54302303223928
22
81.1075792934125
32
0.0
13
8.54302303223928
23
81.1075792934125
33
0.0
70
1
  0
3DFACE
 8
Layer0
10
4.3223563215334
20
82.8558366872435
30
0.0
11
0.393023032239274
21
66.9913652117262
31
30.2622368930502
12
0.103605886362302
22
67.1112457187317
32
30.2622368930502
13
0.103605886362302
23
67.1112457187317
33
30.2622368930502
70
1
  0
3DFACE
 8
Layer0
10
0.103605886362302
20
67.1112457187317
30
30.2622368930502
11
-0.20697696776072
21
83.4521347271848
31
0.0
12
4.3223563215334
22
82.8558366872435
32
0.0
13
4.3223563215334
23
82.8558366872435
33
0.0
70
1
  0
3DFACE
 8
Layer0
10
-0.20697696776072
20
83.4521347271848
30
0.0
11
0.103605886362302
21
67.1112457187317
31
30.2622368930502
12
-0.20697696776072
22
67.1521347271848
32
30.2622368930502
13
-0.20697696776072
23
67.1521347271848
33
30.2622368930502
70
1
  0
3DFACE
 8
Layer0
10
-0.20697696776072
20
67.1521347271848
30
30.2622368930502
11
-4.73631025705482
21
82.8558366872435
31
0.0
12
-0.20697696776072
22
83.4521347271848
32
0.0
13
-0.20697696776072
23
83.4521347271848
33
0.0
70
1
  0
3DFACE
 8
Layer0
10
-4.73631025705482
20
82.8558366872435
30
0.0
11
-0.20697696776072
21
67.1521347271848
31
30.2622368930502
12
-0.517559821883742
22
67.1112457187317
32
30.2622368930502
13
-0.517559821883742
23
67.1112457187317
33
30.2622368930502
70
1
  0
3DFACE
 8
Layer0
10
-0.517559821883742
20
67.1112457187317
30
30.2622368930502
11
-8.95697696776072
21
81.1075792934125
31
0.0
12
-4.73631025705482
22
82.8558366872435
32
0.0
13
-4.73631025705482
23
82.8558366872435
33
0.0
70
1
  0
3DFACE
 8
Layer0
10
-8.95697696776072
20
81.1075792934125
30
0.0
11
-0.517559821883742
21
67.1112457187317
31
30.2622368930502
12
-0.806976967760714
22
66.9913652117262
32
30.2622368930502
13
-0.806976967760714
23
66.9913652117262
33
30.2622368930502
70
1
  0
3DFACE
 8
Layer0
10
17.6899611624416
20
203.883793976011
30
0.0
11
5.18996116244168
21
180.483793976011
31
30.2622368930502
12
17.6899611624416
22
168.383793976011
32
0.0
13
17.6899611624416
23
168.383793976011
33
0.0
70
1
  0
3DFACE
 8
Layer0
10
5.18996116244168
20
180.483793976011
30
30.2622368930502
11
17.6899611624416
21
203.883793976011
31
0.0
12
5.18996116244168
22
191.783793976011
32
30.2622368930502
13
5.18996116244168
23
191.783793976011
33
30.2622368930502
70
1
  0
3DFACE
 8
Layer0
10
2.73996116244168
20
180.483793976011
30
30.2622368930502
11
1.28996116244169
21
191.783793976011
31
30.2622368930502
12
1.28996116244169
22
180.483793976011
32
30.2622368930502
13
1.28996116244169
23
180.483793976011
33
30.2622368930502
70
1
  0
3DFACE
 8
Layer0
10
1.28996116244169
20
191.783793976011
30
30.2622368930502
11
2.73996116244168
21
180.483793976011
31
30.2622368930502
12
5.18996116244168
22
191.783793976011
32
30.2622368930502
13
5.18996116244168
23
191.783793976011
33
30.2622368930502
70
3
  0
3DFACE
 8
Layer0
10
5.18996116244168
20
191.783793976011
30
30.2622368930502
11
2.73996116244168
21
180.483793976011
31
30.2622368930502
12
5.18996116244168
22
180.483793976011
32
30.2622368930502
13
5.18996116244168
23
180.483793976011
33
30.2622368930502
70
1
  0
3DFACE
 8
Layer0
10
-17.1106789278194
20
70.481468016479
30
0.0
11
-1.40697696776071
21
65.9521347271849
31
30.2622368930502
12
-17.7069769677607
22
65.9521347271849
32
0.0
13
-17.7069769677607
23
65.9521347271849
33
0.0
70
1
  0
3DFACE
 8
Layer0
10
-1.40697696776071
20
65.9521347271849
30
30.2622368930502
11
-17.1106789278194
21
70.481468016479
31
0.0
12
-1.36608795930759
22
66.2627175813079
32
30.2622368930502
13
-1.36608795930759
23
66.2627175813079
33
30.2622368930502
70
1
  0
3DFACE
 8
Layer0
10
17.6899611624416
20
203.883793976011
30
0.0
11
-12.2100388375583
21
168.383793976011
31
0.0
12
-12.2100388375583
22
203.883793976011
32
0.0
13
-12.2100388375583
23
203.883793976011
33
0.0
70
1
  0
3DFACE
 8
Layer0
10
-12.2100388375583
20
168.383793976011
30
0.0
11
17.6899611624416
21
203.883793976011
31
0.0
12
2.73996116244168
22
168.383793976011
32
0.0
13
2.73996116244168
23
168.383793976011
33
0.0
70
3
  0
3DFACE
 8
Layer0
10
2.73996116244168
20
168.383793976011
30
0.0
11
17.6899611624416
21
203.883793976011
31
0.0
12
2.88996116244168
22
168.383793976011
32
0.0
13
2.88996116244168
23
168.383793976011
33
0.0
70
3
  0
3DFACE
 8
Layer0
10
2.88996116244168
20
168.383793976011
30
0.0
11
17.6899611624416
21
203.883793976011
31
0.0
12
17.6899611624416
22
168.383793976011
32
0.0
13
17.6899611624416
23
168.383793976011
33
0.0
70
1
  0
3DFACE
 8
Layer0
10
-15.3624215339884
20
57.2021347271849
30
0.0
11
-1.05550510518457
21
65.103606589761
31
30.2622368930502
12
-12.5813456385253
22
53.5777660564203
32
0.0
13
-12.5813456385253
23
53.5777660564203
33
0.0
70
1
  0
3DFACE
 8
Layer0
10
-1.05550510518457
20
65.103606589761
30
30.2622368930502
11
-15.3624215339884
21
57.2021347271849
31
0.0
12
-1.24620745230203
22
65.3521347271849
32
30.2622368930502
13
-1.24620745230203
23
65.3521347271849
33
30.2622368930502
70
1
  0
3DFACE
 8
Layer0
10
5.18996116244168
20
180.483793976011
30
30.2622368930502
11
2.88996116244168
21
168.383793976011
31
0.0
12
17.6899611624416
22
168.383793976011
32
0.0
13
17.6899611624416
23
168.383793976011
33
0.0
70
1
  0
3DFACE
 8
Layer0
10
2.88996116244168
20
168.383793976011
30
0.0
11
5.18996116244168
21
180.483793976011
31
30.2622368930502
12
2.73996116244168
22
168.383793976011
32
0.0
13
2.73996116244168
23
168.383793976011
33
0.0
70
3
  0
3DFACE
 8
Layer0
10
2.73996116244168
20
168.383793976011
30
0.0
11
5.18996116244168
21
180.483793976011
31
30.2622368930502
12
-12.2100388375583
22
168.383793976011
32
0.0
13
-12.2100388375583
23
168.383793976011
33
0.0
70
3
  0
3DFACE
 8
Layer0
10
-12.2100388375583
20
168.383793976011
30
0.0
11
5.18996116244168
21
180.483793976011
31
30.2622368930502
12
1.28996116244169
22
180.483793976011
32
30.2622368930502
13
1.28996116244169
23
180.483793976011
33
30.2622368930502
70
3
  0
3DFACE
 8
Layer0
10
1.28996116244169
20
180.483793976011
30
30.2622368930502
11
5.18996116244168
21
180.483793976011
31
30.2622368930502
12
2.73996116244168
22
180.483793976011
32
30.2622368930502
13
2.73996116244168
23
180.483793976011
33
30.2622368930502
70
1
 0
ENDSEC
 0
EOF
