solid ToolforBoardHousing_Final_body
facet normal 0.603908258932706 0.787028565909458 0.126019249463605
outer loop
vertex -17.4 15.2420471066061 99.9
vertex -4.70395385192894 21.496046148071 0.0
vertex -11.0 26.3271722750469 0.0
endloop
endfacet
facet normal 0.603908258932706 0.787028565909458 0.126019249463605
outer loop
vertex -4.70395385192894 21.496046148071 0.0
vertex -17.4 15.2420471066061 99.9
vertex -13.7549206511168 12.4450793488832 99.9
endloop
endfacet
facet normal -0.916514176745682 -0.379632602115274 0.126019249463605
outer loop
vertex -41.4420471066061 -8.79999999999998 99.9
vertex -55.5641451191876 -7.86809897111663 0.0
vertex -52.5271722750469 -15.2 0.0
endloop
endfacet
facet normal -0.916514176745682 -0.379632602115274 0.126019249463605
outer loop
vertex -55.5641451191876 -7.86809897111663 0.0
vertex -41.4420471066061 -8.79999999999998 99.9
vertex -43.2002945426875 -4.55521519380436 99.9
endloop
endfacet
facet normal -0.379632602115273 0.916514176745683 0.126019249463605
outer loop
vertex -35.0 15.2420471066061 99.9
vertex -34.0680989711166 29.3641451191877 0.0
vertex -41.4 26.3271722750469 0.0
endloop
endfacet
facet normal -0.379632602115273 0.916514176745683 0.126019249463605
outer loop
vertex -34.0680989711166 29.3641451191877 0.0
vertex -35.0 15.2420471066061 99.9
vertex -30.7552151938043 17.0002945426876 99.9
endloop
endfacet
facet normal -0.983540861047979 -0.129485610836224 0.126019249463605
outer loop
vertex -43.2002945426875 -4.55521519380436 99.9
vertex -56.6 0.0 0.0
vertex -55.5641451191876 -7.86809897111663 0.0
endloop
endfacet
facet normal -0.983540861047979 -0.129485610836224 0.126019249463605
outer loop
vertex -56.6 0.0 0.0
vertex -43.2002945426875 -4.55521519380436 99.9
vertex -43.7999999999999 -9.86988268891764e-015 99.9
endloop
endfacet
facet normal 0.379632602115274 0.916514176745682 0.126019249463605
outer loop
vertex -21.6447848061956 17.0002945426876 99.9
vertex -11.0 26.3271722750469 0.0
vertex -18.3319010288833 29.3641451191877 0.0
endloop
endfacet
facet normal 0.379632602115274 0.916514176745682 0.126019249463605
outer loop
vertex -11.0 26.3271722750469 0.0
vertex -21.6447848061956 17.0002945426876 99.9
vertex -17.4 15.2420471066061 99.9
endloop
endfacet
facet normal -0.983484620713842 0.129478206655769 -0.126464994447303
outer loop
vertex -10.648594196746 -4.16698662615058 99.9
vertex 2.74600966725394 -5.63993296509579e-015 -4.51194637207664e-014
vertex 1.75969830561363 -7.49177858160701 -4.51194637207664e-014
endloop
endfacet
facet normal -0.983484620713842 0.129478206655769 -0.126464994447303
outer loop
vertex 2.74600966725394 -5.63993296509579e-015 -4.51194637207664e-014
vertex -10.648594196746 -4.16698662615058 99.9
vertex -10.1 1.97168134662724e-015 99.9
endloop
endfacet
facet normal 0.983484620713842 0.129478206655772 -0.126464994447303
outer loop
vertex -55.1460096672539 -4.79394302033143e-014 -4.51194637207664e-014
vertex -41.751405803254 -4.1669866261506 99.9
vertex -54.1596983056136 -7.49177858160704 -4.51194637207664e-014
endloop
endfacet
facet normal 0.983484620713842 0.129478206655772 -0.126464994447303
outer loop
vertex -41.751405803254 -4.1669866261506 99.9
vertex -55.1460096672539 -4.79394302033143e-014 -4.51194637207664e-014
vertex -42.3 0.0 99.9
endloop
endfacet
facet normal 0.916461769097375 0.379610894156574 -0.126464994447303
outer loop
vertex -54.1596983056136 -7.49177858160704 -4.51194637207664e-014
vertex -40.1430090009294 -8.05 99.9
vertex -51.2679797100318 -14.473004833627 -4.51194637207664e-014
endloop
endfacet
facet normal 0.916461769097375 0.379610894156574 -0.126464994447303
outer loop
vertex -40.1430090009294 -8.05 99.9
vertex -54.1596983056136 -7.49177858160704 -4.51194637207664e-014
vertex -41.751405803254 -4.1669866261506 99.9
endloop
endfacet
facet normal 0.916461769097376 -0.379610894156572 -0.126464994447303
outer loop
vertex -54.1596983056136 7.49177858160694 -4.51194637207664e-014
vertex -40.1430090009294 8.05 99.9
vertex -41.751405803254 4.16698662615058 99.9
endloop
endfacet
facet normal 0.916461769097376 -0.379610894156572 -0.126464994447303
outer loop
vertex -40.1430090009294 8.05 99.9
vertex -54.1596983056136 7.49177858160694 -4.51194637207664e-014
vertex -51.2679797100318 14.473004833627 -4.51194637207664e-014
endloop
endfacet
facet normal 0.983484620713842 -0.129478206655768 -0.126464994447303
outer loop
vertex -54.1596983056136 7.49177858160694 -4.51194637207664e-014
vertex -42.3 0.0 99.9
vertex -55.1460096672539 -4.79394302033143e-014 -4.51194637207664e-014
endloop
endfacet
facet normal 0.983484620713842 -0.129478206655768 -0.126464994447303
outer loop
vertex -42.3 0.0 99.9
vertex -54.1596983056136 7.49177858160694 -4.51194637207664e-014
vertex -41.751405803254 4.16698662615058 99.9
endloop
endfacet
facet normal 0.129485610836225 0.983540861047979 0.126019249463605
outer loop
vertex -26.2 17.6 99.9
vertex -22.5077339547629 27.9151051545886 15.6
vertex -26.2 28.4012012012012 15.6
endloop
endfacet
facet normal 0.129485610836225 0.983540861047979 0.126019249463605
outer loop
vertex -26.2 29.0546546546547 10.5
vertex -18.3319010288833 29.3641451191877 0.0
vertex -26.2 30.4 0.0
endloop
endfacet
facet normal 0.129485610836225 0.983540861047979 0.126019249463605
outer loop
vertex -18.3319010288833 29.3641451191877 0.0
vertex -26.2 29.0546546546547 10.5
vertex -22.5077339547629 28.5685586080421 10.5
endloop
endfacet
facet normal 0.129485610836225 0.983540861047979 0.126019249463605
outer loop
vertex -18.3319010288833 29.3641451191877 0.0
vertex -22.5077339547629 28.5685586080421 10.5
vertex -21.6447848061956 17.0002945426876 99.9
endloop
endfacet
facet normal 0.129485610836225 0.983540861047979 0.126019249463605
outer loop
vertex -21.6447848061956 17.0002945426876 99.9
vertex -22.5077339547629 28.5685586080421 10.5
vertex -22.5077339547629 27.9151051545886 15.6
endloop
endfacet
facet normal 0.129485610836225 0.983540861047979 0.126019249463605
outer loop
vertex -21.6447848061956 17.0002945426876 99.9
vertex -22.5077339547629 27.9151051545886 15.6
vertex -26.2 17.6 99.9
endloop
endfacet
facet normal 0.12947820665577 0.983484620713842 -0.126464994447303
outer loop
vertex -33.691778581607 -27.9596983056136 -4.51194637207664e-014
vertex -29.9 -27.1087142299226 10.5
vertex -26.2 -28.9460096672539 -4.51194637207664e-014
endloop
endfacet
facet normal 0.12947820665577 0.983484620713842 -0.126464994447303
outer loop
vertex -29.9 -27.1087142299226 10.5
vertex -33.691778581607 -27.9596983056136 -4.51194637207664e-014
vertex -30.3669866261506 -15.551405803254 99.9
endloop
endfacet
facet normal 0.12947820665577 0.983484620713842 -0.126464994447303
outer loop
vertex -29.9 -27.1087142299226 10.5
vertex -30.3669866261506 -15.551405803254 99.9
vertex -29.9 -26.4529119345974 15.6
endloop
endfacet
facet normal 0.12947820665577 0.983484620713842 -0.126464994447303
outer loop
vertex -29.9 -26.4529119345974 15.6
vertex -30.3669866261506 -15.551405803254 99.9
vertex -26.2 -26.9400261756707 15.6
endloop
endfacet
facet normal 0.12947820665577 0.983484620713842 -0.126464994447303
outer loop
vertex -26.2 -26.9400261756707 15.6
vertex -30.3669866261506 -15.551405803254 99.9
vertex -26.2 -16.1 99.9
endloop
endfacet
facet normal 0.12947820665577 0.983484620713842 -0.126464994447303
outer loop
vertex -26.2 -27.595828470996 10.5
vertex -26.2 -28.9460096672539 -4.51194637207664e-014
vertex -29.9 -27.1087142299226 10.5
endloop
endfacet
facet normal 0.787028565909458 -0.603908258932706 0.126019249463605
outer loop
vertex 0.127172275046938 -15.2 0.0
vertex -13.7549206511168 -12.4450793488832 99.9
vertex -4.70395385192895 -21.496046148071 0.0
endloop
endfacet
facet normal 0.787028565909458 -0.603908258932706 0.126019249463605
outer loop
vertex -13.7549206511168 -12.4450793488832 99.9
vertex 0.127172275046938 -15.2 0.0
vertex -10.9579528933939 -8.79999999999998 99.9
endloop
endfacet
facet normal 0.983540861047979 0.129485610836224 0.126019249463605
outer loop
vertex 3.16414511918769 7.86809897111662 0.0
vertex -8.60000000000004 0.0 99.9
vertex 4.20000000000002 -3.72292626940795e-015 0.0
endloop
endfacet
facet normal 0.983540861047979 0.129485610836224 0.126019249463605
outer loop
vertex -8.60000000000004 0.0 99.9
vertex 3.16414511918769 7.86809897111662 0.0
vertex -9.19970545731243 4.55521519380435 99.9
endloop
endfacet
facet normal -0.787028565909459 -0.603908258932705 0.126019249463605
outer loop
vertex -38.6450793488832 -12.4450793488832 99.9
vertex -52.5271722750469 -15.2 0.0
vertex -47.696046148071 -21.496046148071 0.0
endloop
endfacet
facet normal -0.787028565909459 -0.603908258932705 0.126019249463605
outer loop
vertex -52.5271722750469 -15.2 0.0
vertex -38.6450793488832 -12.4450793488832 99.9
vertex -41.4420471066061 -8.79999999999998 99.9
endloop
endfacet
facet normal -0.129485610836225 -0.983540861047979 0.126019249463605
outer loop
vertex -26.2 -17.6 99.9
vertex -29.9 -27.9140869601278 15.6
vertex -26.2 -28.4012012012012 15.6
endloop
endfacet
facet normal -0.129485610836225 -0.983540861047979 0.126019249463605
outer loop
vertex -26.2 -29.0546546546546 10.5
vertex -34.0680989711166 -29.3641451191877 0.0
vertex -26.2 -30.4 0.0
endloop
endfacet
facet normal -0.129485610836225 -0.983540861047979 0.126019249463605
outer loop
vertex -34.0680989711166 -29.3641451191877 0.0
vertex -26.2 -29.0546546546546 10.5
vertex -29.9 -28.5675404135813 10.5
endloop
endfacet
facet normal -0.129485610836225 -0.983540861047979 0.126019249463605
outer loop
vertex -34.0680989711166 -29.3641451191877 0.0
vertex -29.9 -28.5675404135813 10.5
vertex -30.7552151938044 -17.0002945426876 99.9
endloop
endfacet
facet normal -0.129485610836225 -0.983540861047979 0.126019249463605
outer loop
vertex -30.7552151938044 -17.0002945426876 99.9
vertex -29.9 -28.5675404135813 10.5
vertex -29.9 -27.9140869601278 15.6
endloop
endfacet
facet normal -0.129485610836225 -0.983540861047979 0.126019249463605
outer loop
vertex -30.7552151938044 -17.0002945426876 99.9
vertex -29.9 -27.9140869601278 15.6
vertex -26.2 -17.6 99.9
endloop
endfacet
facet normal 0.379610894156573 0.916461769097376 -0.126464994447303
outer loop
vertex -34.25 -13.9430090009295 99.9
vertex -33.691778581607 -27.9596983056136 -4.51194637207664e-014
vertex -40.6730048336269 -25.0679797100319 -4.51194637207664e-014
endloop
endfacet
facet normal 0.379610894156573 0.916461769097376 -0.126464994447303
outer loop
vertex -33.691778581607 -27.9596983056136 -4.51194637207664e-014
vertex -34.25 -13.9430090009295 99.9
vertex -30.3669866261506 -15.551405803254 99.9
endloop
endfacet
facet normal -0.786983562441605 0.603873726557269 -0.126464994447303
outer loop
vertex -14.8155808228966 -11.3844191771034 99.9
vertex -1.13202028996815 -14.473004833627 -4.51194637207664e-014
vertex -5.73208027599339 -20.4679197240066 -4.51194637207664e-014
endloop
endfacet
facet normal -0.786983562441605 0.603873726557269 -0.126464994447303
outer loop
vertex -1.13202028996815 -14.473004833627 -4.51194637207664e-014
vertex -14.8155808228966 -11.3844191771034 99.9
vertex -12.2569909990705 -8.04999999999999 99.9
endloop
endfacet
facet normal 0.129485610836223 -0.983540861047979 0.126019249463605
outer loop
vertex -18.3319010288834 -29.3641451191877 0.0
vertex -22.5077339547629 -28.5685586080421 10.5
vertex -26.2 -30.4 0.0
endloop
endfacet
facet normal 0.129485610836223 -0.983540861047979 0.126019249463605
outer loop
vertex -22.5077339547629 -28.5685586080421 10.5
vertex -18.3319010288834 -29.3641451191877 0.0
vertex -21.6447848061957 -17.0002945426876 99.9
endloop
endfacet
facet normal 0.129485610836223 -0.983540861047979 0.126019249463605
outer loop
vertex -22.5077339547629 -28.5685586080421 10.5
vertex -21.6447848061957 -17.0002945426876 99.9
vertex -22.5077339547629 -27.9151051545886 15.6
endloop
endfacet
facet normal 0.129485610836223 -0.983540861047979 0.126019249463605
outer loop
vertex -22.5077339547629 -27.9151051545886 15.6
vertex -21.6447848061957 -17.0002945426876 99.9
vertex -26.2 -28.4012012012012 15.6
endloop
endfacet
facet normal 0.129485610836223 -0.983540861047979 0.126019249463605
outer loop
vertex -26.2 -28.4012012012012 15.6
vertex -21.6447848061957 -17.0002945426876 99.9
vertex -26.2 -17.6 99.9
endloop
endfacet
facet normal 0.129485610836223 -0.983540861047979 0.126019249463605
outer loop
vertex -26.2 -29.0546546546546 10.5
vertex -26.2 -30.4 0.0
vertex -22.5077339547629 -28.5685586080421 10.5
endloop
endfacet
facet normal -0.983540861047979 0.129485610836225 0.126019249463605
outer loop
vertex -43.2002945426875 4.55521519380434 99.9
vertex -56.6 0.0 0.0
vertex -43.7999999999999 -9.86988268891764e-015 99.9
endloop
endfacet
facet normal -0.983540861047979 0.129485610836225 0.126019249463605
outer loop
vertex -56.6 0.0 0.0
vertex -43.2002945426875 4.55521519380434 99.9
vertex -55.5641451191876 7.86809897111666 0.0
endloop
endfacet
facet normal -0.983484620713842 -0.12947820665577 -0.126464994447303
outer loop
vertex -10.1 1.97168134662724e-015 99.9
vertex 1.75969830561363 7.49177858160699 -4.51194637207664e-014
vertex 2.74600966725394 -5.63993296509579e-015 -4.51194637207664e-014
endloop
endfacet
facet normal -0.983484620713842 -0.12947820665577 -0.126464994447303
outer loop
vertex 1.75969830561363 7.49177858160699 -4.51194637207664e-014
vertex -10.1 1.97168134662724e-015 99.9
vertex -10.648594196746 4.16698662615059 99.9
endloop
endfacet
facet normal -0.603908258932705 0.787028565909459 0.126019249463605
outer loop
vertex -38.6450793488832 12.4450793488832 99.9
vertex -41.4 26.3271722750469 0.0
vertex -47.696046148071 21.4960461480711 0.0
endloop
endfacet
facet normal -0.603908258932705 0.787028565909459 0.126019249463605
outer loop
vertex -41.4 26.3271722750469 0.0
vertex -38.6450793488832 12.4450793488832 99.9
vertex -35.0 15.2420471066061 99.9
endloop
endfacet
facet normal 0.379632602115274 -0.916514176745682 0.126019249463605
outer loop
vertex -17.4 -15.2420471066061 99.9
vertex -18.3319010288834 -29.3641451191877 0.0
vertex -11.0 -26.3271722750469 0.0
endloop
endfacet
facet normal 0.379632602115274 -0.916514176745682 0.126019249463605
outer loop
vertex -18.3319010288834 -29.3641451191877 0.0
vertex -17.4 -15.2420471066061 99.9
vertex -21.6447848061957 -17.0002945426876 99.9
endloop
endfacet
facet normal -0.129485610836225 0.983540861047979 0.126019249463605
outer loop
vertex -34.0680989711166 29.3641451191877 0.0
vertex -29.9 28.5675404135813 10.5
vertex -26.2 30.4 0.0
endloop
endfacet
facet normal -0.129485610836225 0.983540861047979 0.126019249463605
outer loop
vertex -29.9 28.5675404135813 10.5
vertex -34.0680989711166 29.3641451191877 0.0
vertex -30.7552151938043 17.0002945426876 99.9
endloop
endfacet
facet normal -0.129485610836225 0.983540861047979 0.126019249463605
outer loop
vertex -29.9 28.5675404135813 10.5
vertex -30.7552151938043 17.0002945426876 99.9
vertex -29.9 27.9140869601278 15.6
endloop
endfacet
facet normal -0.129485610836225 0.983540861047979 0.126019249463605
outer loop
vertex -29.9 27.9140869601278 15.6
vertex -30.7552151938043 17.0002945426876 99.9
vertex -26.2 28.4012012012012 15.6
endloop
endfacet
facet normal -0.129485610836225 0.983540861047979 0.126019249463605
outer loop
vertex -26.2 28.4012012012012 15.6
vertex -30.7552151938043 17.0002945426876 99.9
vertex -26.2 17.6 99.9
endloop
endfacet
facet normal -0.129485610836225 0.983540861047979 0.126019249463605
outer loop
vertex -26.2 29.0546546546547 10.5
vertex -26.2 30.4 0.0
vertex -29.9 28.5675404135813 10.5
endloop
endfacet
facet normal 0.787028565909458 0.603908258932706 0.126019249463605
outer loop
vertex 0.127172275046949 15.2 0.0
vertex -13.7549206511168 12.4450793488832 99.9
vertex -10.9579528933939 8.79999999999998 99.9
endloop
endfacet
facet normal 0.787028565909458 0.603908258932706 0.126019249463605
outer loop
vertex -13.7549206511168 12.4450793488832 99.9
vertex 0.127172275046949 15.2 0.0
vertex -4.70395385192894 21.496046148071 0.0
endloop
endfacet
facet normal 0.916514176745682 -0.379632602115274 0.126019249463605
outer loop
vertex 3.16414511918768 -7.86809897111664 0.0
vertex -10.9579528933939 -8.79999999999998 99.9
vertex 0.127172275046938 -15.2 0.0
endloop
endfacet
facet normal 0.916514176745682 -0.379632602115274 0.126019249463605
outer loop
vertex -10.9579528933939 -8.79999999999998 99.9
vertex 3.16414511918768 -7.86809897111664 0.0
vertex -9.19970545731243 -4.55521519380435 99.9
endloop
endfacet
facet normal 0.0 0.0 -1.0
outer loop
vertex -55.5641451191876 7.86809897111666 0.0
vertex -54.1596983056136 7.49177858160694 -4.51194637207664e-014
vertex -55.1460096672539 -4.79394302033143e-014 -4.51194637207664e-014
endloop
endfacet
facet normal 0.0 0.0 -1.0
outer loop
vertex -54.1596983056136 7.49177858160694 -4.51194637207664e-014
vertex -55.5641451191876 7.86809897111666 0.0
vertex -52.5271722750469 15.2 0.0
endloop
endfacet
facet normal 0.0 0.0 -1.0
outer loop
vertex -54.1596983056136 7.49177858160694 -4.51194637207664e-014
vertex -52.5271722750469 15.2 0.0
vertex -51.2679797100318 14.473004833627 -4.51194637207664e-014
endloop
endfacet
facet normal 0.0 0.0 -1.0
outer loop
vertex -51.2679797100318 14.473004833627 -4.51194637207664e-014
vertex -52.5271722750469 15.2 0.0
vertex -47.696046148071 21.4960461480711 0.0
endloop
endfacet
facet normal 0.0 0.0 -1.0
outer loop
vertex -51.2679797100318 14.473004833627 -4.51194637207664e-014
vertex -47.696046148071 21.4960461480711 0.0
vertex -46.6679197240066 20.4679197240066 -4.51194637207664e-014
endloop
endfacet
facet normal 0.0 0.0 -1.0
outer loop
vertex -46.6679197240066 20.4679197240066 -4.51194637207664e-014
vertex -47.696046148071 21.4960461480711 0.0
vertex -41.4 26.3271722750469 0.0
endloop
endfacet
facet normal 0.0 0.0 -1.0
outer loop
vertex -46.6679197240066 20.4679197240066 -4.51194637207664e-014
vertex -41.4 26.3271722750469 0.0
vertex -40.6730048336269 25.0679797100318 -4.51194637207664e-014
endloop
endfacet
facet normal 0.0 0.0 -1.0
outer loop
vertex -40.6730048336269 25.0679797100318 -4.51194637207664e-014
vertex -41.4 26.3271722750469 0.0
vertex -34.0680989711166 29.3641451191877 0.0
endloop
endfacet
facet normal 0.0 0.0 -1.0
outer loop
vertex -40.6730048336269 25.0679797100318 -4.51194637207664e-014
vertex -34.0680989711166 29.3641451191877 0.0
vertex -33.691778581607 27.9596983056136 -4.51194637207664e-014
endloop
endfacet
facet normal 0.0 0.0 -1.0
outer loop
vertex -33.691778581607 27.9596983056136 -4.51194637207664e-014
vertex -34.0680989711166 29.3641451191877 0.0
vertex -26.2 30.4 0.0
endloop
endfacet
facet normal 0.0 0.0 -1.0
outer loop
vertex -33.691778581607 27.9596983056136 -4.51194637207664e-014
vertex -26.2 30.4 0.0
vertex -26.2 28.9460096672539 -4.51194637207664e-014
endloop
endfacet
facet normal 0.0 0.0 -1.0
outer loop
vertex -26.2 28.9460096672539 -4.51194637207664e-014
vertex -26.2 30.4 0.0
vertex -18.708221418393 27.9596983056136 -4.51194637207664e-014
endloop
endfacet
facet normal 0.0 0.0 -1.0
outer loop
vertex -18.708221418393 27.9596983056136 -4.51194637207664e-014
vertex -26.2 30.4 0.0
vertex -18.3319010288833 29.3641451191877 0.0
endloop
endfacet
facet normal 0.0 0.0 -1.0
outer loop
vertex -18.708221418393 27.9596983056136 -4.51194637207664e-014
vertex -18.3319010288833 29.3641451191877 0.0
vertex -11.726995166373 25.0679797100319 -4.51194637207664e-014
endloop
endfacet
facet normal 0.0 0.0 -1.0
outer loop
vertex -11.726995166373 25.0679797100319 -4.51194637207664e-014
vertex -18.3319010288833 29.3641451191877 0.0
vertex -11.0 26.3271722750469 0.0
endloop
endfacet
facet normal 0.0 0.0 -1.0
outer loop
vertex -11.726995166373 25.0679797100319 -4.51194637207664e-014
vertex -11.0 26.3271722750469 0.0
vertex -5.73208027599339 20.4679197240066 -4.51194637207664e-014
endloop
endfacet
facet normal 0.0 0.0 -1.0
outer loop
vertex -5.73208027599339 20.4679197240066 -4.51194637207664e-014
vertex -11.0 26.3271722750469 0.0
vertex -4.70395385192894 21.496046148071 0.0
endloop
endfacet
facet normal 0.0 0.0 -1.0
outer loop
vertex -5.73208027599339 20.4679197240066 -4.51194637207664e-014
vertex -4.70395385192894 21.496046148071 0.0
vertex -1.13202028996815 14.473004833627 -4.51194637207664e-014
endloop
endfacet
facet normal 0.0 0.0 -1.0
outer loop
vertex -1.13202028996815 14.473004833627 -4.51194637207664e-014
vertex -4.70395385192894 21.496046148071 0.0
vertex 0.127172275046949 15.2 0.0
endloop
endfacet
facet normal 0.0 0.0 -1.0
outer loop
vertex -1.13202028996815 14.473004833627 -4.51194637207664e-014
vertex 0.127172275046949 15.2 0.0
vertex 1.75969830561363 7.49177858160699 -4.51194637207664e-014
endloop
endfacet
facet normal 0.0 0.0 -1.0
outer loop
vertex 1.75969830561363 7.49177858160699 -4.51194637207664e-014
vertex 0.127172275046949 15.2 0.0
vertex 3.16414511918769 7.86809897111662 0.0
endloop
endfacet
facet normal 0.0 0.0 -1.0
outer loop
vertex 1.75969830561363 7.49177858160699 -4.51194637207664e-014
vertex 3.16414511918769 7.86809897111662 0.0
vertex 2.74600966725394 -5.63993296509579e-015 -4.51194637207664e-014
endloop
endfacet
facet normal 0.0 0.0 -1.0
outer loop
vertex 2.74600966725394 -5.63993296509579e-015 -4.51194637207664e-014
vertex 3.16414511918769 7.86809897111662 0.0
vertex 3.16414511918768 -7.86809897111664 0.0
endloop
endfacet
facet normal 0.0 0.0 -1.0
outer loop
vertex 3.16414511918768 -7.86809897111664 0.0
vertex 3.16414511918769 7.86809897111662 0.0
vertex 4.20000000000002 -3.72292626940795e-015 0.0
endloop
endfacet
facet normal 0.0 0.0 -1.0
outer loop
vertex -55.5641451191876 7.86809897111666 0.0
vertex -55.5641451191876 -7.86809897111663 0.0
vertex -56.6 0.0 0.0
endloop
endfacet
facet normal 0.0 0.0 -1.0
outer loop
vertex -55.5641451191876 -7.86809897111663 0.0
vertex -55.5641451191876 7.86809897111666 0.0
vertex -55.1460096672539 -4.79394302033143e-014 -4.51194637207664e-014
endloop
endfacet
facet normal 0.0 0.0 -1.0
outer loop
vertex -55.5641451191876 -7.86809897111663 0.0
vertex -55.1460096672539 -4.79394302033143e-014 -4.51194637207664e-014
vertex -54.1596983056136 -7.49177858160704 -4.51194637207664e-014
endloop
endfacet
facet normal 0.0 0.0 -1.0
outer loop
vertex -55.5641451191876 -7.86809897111663 0.0
vertex -54.1596983056136 -7.49177858160704 -4.51194637207664e-014
vertex -52.5271722750469 -15.2 0.0
endloop
endfacet
facet normal 0.0 0.0 -1.0
outer loop
vertex -52.5271722750469 -15.2 0.0
vertex -54.1596983056136 -7.49177858160704 -4.51194637207664e-014
vertex -51.2679797100318 -14.473004833627 -4.51194637207664e-014
endloop
endfacet
facet normal 0.0 0.0 -1.0
outer loop
vertex -52.5271722750469 -15.2 0.0
vertex -51.2679797100318 -14.473004833627 -4.51194637207664e-014
vertex -47.696046148071 -21.496046148071 0.0
endloop
endfacet
facet normal 0.0 0.0 -1.0
outer loop
vertex -47.696046148071 -21.496046148071 0.0
vertex -51.2679797100318 -14.473004833627 -4.51194637207664e-014
vertex -46.6679197240066 -20.4679197240066 -4.51194637207664e-014
endloop
endfacet
facet normal 0.0 0.0 -1.0
outer loop
vertex -47.696046148071 -21.496046148071 0.0
vertex -46.6679197240066 -20.4679197240066 -4.51194637207664e-014
vertex -41.4 -26.3271722750469 0.0
endloop
endfacet
facet normal 0.0 0.0 -1.0
outer loop
vertex -41.4 -26.3271722750469 0.0
vertex -46.6679197240066 -20.4679197240066 -4.51194637207664e-014
vertex -40.6730048336269 -25.0679797100319 -4.51194637207664e-014
endloop
endfacet
facet normal 0.0 0.0 -1.0
outer loop
vertex -41.4 -26.3271722750469 0.0
vertex -40.6730048336269 -25.0679797100319 -4.51194637207664e-014
vertex -34.0680989711166 -29.3641451191877 0.0
endloop
endfacet
facet normal 0.0 0.0 -1.0
outer loop
vertex -34.0680989711166 -29.3641451191877 0.0
vertex -40.6730048336269 -25.0679797100319 -4.51194637207664e-014
vertex -33.691778581607 -27.9596983056136 -4.51194637207664e-014
endloop
endfacet
facet normal 0.0 0.0 -1.0
outer loop
vertex -34.0680989711166 -29.3641451191877 0.0
vertex -33.691778581607 -27.9596983056136 -4.51194637207664e-014
vertex -26.2 -30.4 0.0
endloop
endfacet
facet normal 0.0 0.0 -1.0
outer loop
vertex -26.2 -30.4 0.0
vertex -33.691778581607 -27.9596983056136 -4.51194637207664e-014
vertex -26.2 -28.9460096672539 -4.51194637207664e-014
endloop
endfacet
facet normal 0.0 0.0 -1.0
outer loop
vertex -26.2 -30.4 0.0
vertex -26.2 -28.9460096672539 -4.51194637207664e-014
vertex -18.708221418393 -27.9596983056136 -4.51194637207664e-014
endloop
endfacet
facet normal 0.0 0.0 -1.0
outer loop
vertex -26.2 -30.4 0.0
vertex -18.708221418393 -27.9596983056136 -4.51194637207664e-014
vertex -18.3319010288834 -29.3641451191877 0.0
endloop
endfacet
facet normal 0.0 0.0 -1.0
outer loop
vertex -18.3319010288834 -29.3641451191877 0.0
vertex -18.708221418393 -27.9596983056136 -4.51194637207664e-014
vertex -11.7269951663731 -25.0679797100319 -4.51194637207664e-014
endloop
endfacet
facet normal 0.0 0.0 -1.0
outer loop
vertex -18.3319010288834 -29.3641451191877 0.0
vertex -11.7269951663731 -25.0679797100319 -4.51194637207664e-014
vertex -11.0 -26.3271722750469 0.0
endloop
endfacet
facet normal 0.0 0.0 -1.0
outer loop
vertex -11.0 -26.3271722750469 0.0
vertex -11.7269951663731 -25.0679797100319 -4.51194637207664e-014
vertex -5.73208027599339 -20.4679197240066 -4.51194637207664e-014
endloop
endfacet
facet normal 0.0 0.0 -1.0
outer loop
vertex -11.0 -26.3271722750469 0.0
vertex -5.73208027599339 -20.4679197240066 -4.51194637207664e-014
vertex -4.70395385192895 -21.496046148071 0.0
endloop
endfacet
facet normal 0.0 0.0 -1.0
outer loop
vertex -4.70395385192895 -21.496046148071 0.0
vertex -5.73208027599339 -20.4679197240066 -4.51194637207664e-014
vertex -1.13202028996815 -14.473004833627 -4.51194637207664e-014
endloop
endfacet
facet normal 0.0 0.0 -1.0
outer loop
vertex -4.70395385192895 -21.496046148071 0.0
vertex -1.13202028996815 -14.473004833627 -4.51194637207664e-014
vertex 0.127172275046938 -15.2 0.0
endloop
endfacet
facet normal 0.0 0.0 -1.0
outer loop
vertex 0.127172275046938 -15.2 0.0
vertex -1.13202028996815 -14.473004833627 -4.51194637207664e-014
vertex 1.75969830561363 -7.49177858160701 -4.51194637207664e-014
endloop
endfacet
facet normal 0.0 0.0 -1.0
outer loop
vertex 0.127172275046938 -15.2 0.0
vertex 1.75969830561363 -7.49177858160701 -4.51194637207664e-014
vertex 3.16414511918768 -7.86809897111664 0.0
endloop
endfacet
facet normal 0.0 0.0 -1.0
outer loop
vertex 3.16414511918768 -7.86809897111664 0.0
vertex 1.75969830561363 -7.49177858160701 -4.51194637207664e-014
vertex 2.74600966725394 -5.63993296509579e-015 -4.51194637207664e-014
endloop
endfacet
facet normal 0.603873726557269 0.786983562441605 -0.126464994447303
outer loop
vertex -37.5844191771034 -11.3844191771034 99.9
vertex -40.6730048336269 -25.0679797100319 -4.51194637207664e-014
vertex -46.6679197240066 -20.4679197240066 -4.51194637207664e-014
endloop
endfacet
facet normal 0.603873726557269 0.786983562441605 -0.126464994447303
outer loop
vertex -40.6730048336269 -25.0679797100319 -4.51194637207664e-014
vertex -37.5844191771034 -11.3844191771034 99.9
vertex -34.25 -13.9430090009295 99.9
endloop
endfacet
facet normal -0.916461769097375 0.379610894156574 -0.126464994447303
outer loop
vertex -12.2569909990705 -8.04999999999999 99.9
vertex 1.75969830561363 -7.49177858160701 -4.51194637207664e-014
vertex -1.13202028996815 -14.473004833627 -4.51194637207664e-014
endloop
endfacet
facet normal -0.916461769097375 0.379610894156574 -0.126464994447303
outer loop
vertex 1.75969830561363 -7.49177858160701 -4.51194637207664e-014
vertex -12.2569909990705 -8.04999999999999 99.9
vertex -10.648594196746 -4.16698662615058 99.9
endloop
endfacet
facet normal -0.603908258932706 -0.787028565909457 0.126019249463605
outer loop
vertex -35.0 -15.2420471066061 99.9
vertex -47.696046148071 -21.496046148071 0.0
vertex -41.4 -26.3271722750469 0.0
endloop
endfacet
facet normal -0.603908258932706 -0.787028565909457 0.126019249463605
outer loop
vertex -47.696046148071 -21.496046148071 0.0
vertex -35.0 -15.2420471066061 99.9
vertex -38.6450793488832 -12.4450793488832 99.9
endloop
endfacet
facet normal -0.787028565909458 0.603908258932705 0.126019249463605
outer loop
vertex -38.6450793488832 12.4450793488832 99.9
vertex -52.5271722750469 15.2 0.0
vertex -41.4420471066061 8.79999999999997 99.9
endloop
endfacet
facet normal -0.787028565909458 0.603908258932705 0.126019249463605
outer loop
vertex -52.5271722750469 15.2 0.0
vertex -38.6450793488832 12.4450793488832 99.9
vertex -47.696046148071 21.4960461480711 0.0
endloop
endfacet
facet normal -0.916514176745683 0.379632602115273 0.126019249463605
outer loop
vertex -41.4420471066061 8.79999999999997 99.9
vertex -55.5641451191876 7.86809897111666 0.0
vertex -43.2002945426875 4.55521519380434 99.9
endloop
endfacet
facet normal -0.916514176745683 0.379632602115273 0.126019249463605
outer loop
vertex -55.5641451191876 7.86809897111666 0.0
vertex -41.4420471066061 8.79999999999997 99.9
vertex -52.5271722750469 15.2 0.0
endloop
endfacet
facet normal 0.916514176745682 0.379632602115274 0.126019249463605
outer loop
vertex 3.16414511918769 7.86809897111662 0.0
vertex -10.9579528933939 8.79999999999998 99.9
vertex -9.19970545731243 4.55521519380435 99.9
endloop
endfacet
facet normal 0.916514176745682 0.379632602115274 0.126019249463605
outer loop
vertex -10.9579528933939 8.79999999999998 99.9
vertex 3.16414511918769 7.86809897111662 0.0
vertex 0.127172275046949 15.2 0.0
endloop
endfacet
facet normal 0.603908258932705 -0.787028565909458 0.126019249463605
outer loop
vertex -13.7549206511168 -12.4450793488832 99.9
vertex -11.0 -26.3271722750469 0.0
vertex -4.70395385192895 -21.496046148071 0.0
endloop
endfacet
facet normal 0.603908258932705 -0.787028565909458 0.126019249463605
outer loop
vertex -11.0 -26.3271722750469 0.0
vertex -13.7549206511168 -12.4450793488832 99.9
vertex -17.4 -15.2420471066061 99.9
endloop
endfacet
facet normal 0.983540861047979 -0.129485610836225 0.126019249463605
outer loop
vertex 4.20000000000002 -3.72292626940795e-015 0.0
vertex -9.19970545731243 -4.55521519380435 99.9
vertex 3.16414511918768 -7.86809897111664 0.0
endloop
endfacet
facet normal 0.983540861047979 -0.129485610836225 0.126019249463605
outer loop
vertex -9.19970545731243 -4.55521519380435 99.9
vertex 4.20000000000002 -3.72292626940795e-015 0.0
vertex -8.60000000000004 0.0 99.9
endloop
endfacet
facet normal -0.603873726557268 0.786983562441606 -0.126464994447303
outer loop
vertex -18.15 -13.9430090009295 99.9
vertex -5.73208027599339 -20.4679197240066 -4.51194637207664e-014
vertex -11.7269951663731 -25.0679797100319 -4.51194637207664e-014
endloop
endfacet
facet normal -0.603873726557268 0.786983562441606 -0.126464994447303
outer loop
vertex -5.73208027599339 -20.4679197240066 -4.51194637207664e-014
vertex -18.15 -13.9430090009295 99.9
vertex -14.8155808228966 -11.3844191771034 99.9
endloop
endfacet
facet normal -0.379632602115274 -0.916514176745682 0.126019249463605
outer loop
vertex -30.7552151938044 -17.0002945426876 99.9
vertex -41.4 -26.3271722750469 0.0
vertex -34.0680989711166 -29.3641451191877 0.0
endloop
endfacet
facet normal -0.379632602115274 -0.916514176745682 0.126019249463605
outer loop
vertex -41.4 -26.3271722750469 0.0
vertex -30.7552151938044 -17.0002945426876 99.9
vertex -35.0 -15.2420471066061 99.9
endloop
endfacet
facet normal -0.130526192220052 -0.99144486137381 -3.62386840357279e-030
outer loop
vertex -26.2 -17.6 105.8
vertex -30.7552151938044 -17.0002945426876 99.9
vertex -26.2 -17.6 99.9
endloop
endfacet
facet normal -0.130526192220052 -0.99144486137381 -3.62386840357279e-030
outer loop
vertex -30.7552151938044 -17.0002945426876 99.9
vertex -26.2 -17.6 105.8
vertex -30.7552151938044 -17.0002945426876 105.8
endloop
endfacet
facet normal 0.60876142900872 -0.793353340291236 1.44990821716829e-030
outer loop
vertex -13.7549206511168 -12.4450793488832 105.8
vertex -17.4 -15.2420471066061 99.9
vertex -13.7549206511168 -12.4450793488832 99.9
endloop
endfacet
facet normal 0.60876142900872 -0.793353340291236 1.44990821716829e-030
outer loop
vertex -17.4 -15.2420471066061 99.9
vertex -13.7549206511168 -12.4450793488832 105.8
vertex -17.4 -15.2420471066061 105.8
endloop
endfacet
facet normal 0.379610894156573 -0.916461769097375 -0.126464994447303
outer loop
vertex -30.3669866261506 15.551405803254 99.9
vertex -40.6730048336269 25.0679797100318 -4.51194637207664e-014
vertex -33.691778581607 27.9596983056136 -4.51194637207664e-014
endloop
endfacet
facet normal 0.379610894156573 -0.916461769097375 -0.126464994447303
outer loop
vertex -40.6730048336269 25.0679797100318 -4.51194637207664e-014
vertex -30.3669866261506 15.551405803254 99.9
vertex -34.25 13.9430090009295 99.9
endloop
endfacet
facet normal 0.786983562441606 -0.603873726557269 -0.126464994447303
outer loop
vertex -51.2679797100318 14.473004833627 -4.51194637207664e-014
vertex -37.5844191771034 11.3844191771034 99.9
vertex -40.1430090009294 8.05 99.9
endloop
endfacet
facet normal 0.786983562441606 -0.603873726557269 -0.126464994447303
outer loop
vertex -37.5844191771034 11.3844191771034 99.9
vertex -51.2679797100318 14.473004833627 -4.51194637207664e-014
vertex -46.6679197240066 20.4679197240066 -4.51194637207664e-014
endloop
endfacet
facet normal 0.793353340291235 -0.608761429008721 -0.0
outer loop
vertex -10.9579528933939 -8.79999999999998 99.9
vertex -13.7549206511168 -12.4450793488832 105.8
vertex -13.7549206511168 -12.4450793488832 99.9
endloop
endfacet
facet normal 0.793353340291235 -0.608761429008721 -0.0
outer loop
vertex -13.7549206511168 -12.4450793488832 105.8
vertex -10.9579528933939 -8.79999999999998 99.9
vertex -10.9579528933939 -8.79999999999998 105.8
endloop
endfacet
facet normal 0.130526192220049 -0.991444861373811 0.0
outer loop
vertex -21.6447848061957 -17.0002945426876 105.8
vertex -26.2 -17.6 99.9
vertex -21.6447848061957 -17.0002945426876 99.9
endloop
endfacet
facet normal 0.130526192220049 -0.991444861373811 0.0
outer loop
vertex -26.2 -17.6 99.9
vertex -21.6447848061957 -17.0002945426876 105.8
vertex -26.2 -17.6 105.8
endloop
endfacet
facet normal 0.99144486137381 -0.130526192220052 -0.0
outer loop
vertex -8.60000000000004 0.0 99.9
vertex -9.19970545731243 -4.55521519380435 105.8
vertex -9.19970545731243 -4.55521519380435 99.9
endloop
endfacet
facet normal 0.99144486137381 -0.130526192220052 -0.0
outer loop
vertex -9.19970545731243 -4.55521519380435 105.8
vertex -8.60000000000004 0.0 99.9
vertex -8.60000000000004 0.0 105.8
endloop
endfacet
facet normal -0.12947820665577 0.983484620713842 -0.126464994447303
outer loop
vertex -26.2 -16.1 99.9
vertex -22.5077339547629 -26.4539301290581 15.6
vertex -26.2 -26.9400261756707 15.6
endloop
endfacet
facet normal -0.12947820665577 0.983484620713842 -0.126464994447303
outer loop
vertex -26.2 -27.595828470996 10.5
vertex -18.708221418393 -27.9596983056136 -4.51194637207664e-014
vertex -26.2 -28.9460096672539 -4.51194637207664e-014
endloop
endfacet
facet normal -0.12947820665577 0.983484620713842 -0.126464994447303
outer loop
vertex -18.708221418393 -27.9596983056136 -4.51194637207664e-014
vertex -26.2 -27.595828470996 10.5
vertex -22.5077339547629 -27.1097324243834 10.5
endloop
endfacet
facet normal -0.12947820665577 0.983484620713842 -0.126464994447303
outer loop
vertex -18.708221418393 -27.9596983056136 -4.51194637207664e-014
vertex -22.5077339547629 -27.1097324243834 10.5
vertex -22.0330133738494 -15.551405803254 99.9
endloop
endfacet
facet normal -0.12947820665577 0.983484620713842 -0.126464994447303
outer loop
vertex -22.0330133738494 -15.551405803254 99.9
vertex -22.5077339547629 -27.1097324243834 10.5
vertex -22.5077339547629 -26.4539301290581 15.6
endloop
endfacet
facet normal -0.12947820665577 0.983484620713842 -0.126464994447303
outer loop
vertex -22.0330133738494 -15.551405803254 99.9
vertex -22.5077339547629 -26.4539301290581 15.6
vertex -26.2 -16.1 99.9
endloop
endfacet
facet normal -0.12947820665577 -0.983484620713842 -0.126464994447303
outer loop
vertex -18.708221418393 27.9596983056136 -4.51194637207664e-014
vertex -22.5077339547629 27.1097324243834 10.5
vertex -26.2 28.9460096672539 -4.51194637207664e-014
endloop
endfacet
facet normal -0.12947820665577 -0.983484620713842 -0.126464994447303
outer loop
vertex -22.5077339547629 27.1097324243834 10.5
vertex -18.708221418393 27.9596983056136 -4.51194637207664e-014
vertex -22.0330133738494 15.551405803254 99.9
endloop
endfacet
facet normal -0.12947820665577 -0.983484620713842 -0.126464994447303
outer loop
vertex -22.5077339547629 27.1097324243834 10.5
vertex -22.0330133738494 15.551405803254 99.9
vertex -22.5077339547629 26.4539301290581 15.6
endloop
endfacet
facet normal -0.12947820665577 -0.983484620713842 -0.126464994447303
outer loop
vertex -22.5077339547629 26.4539301290581 15.6
vertex -22.0330133738494 15.551405803254 99.9
vertex -26.2 26.9400261756707 15.6
endloop
endfacet
facet normal -0.12947820665577 -0.983484620713842 -0.126464994447303
outer loop
vertex -26.2 26.9400261756707 15.6
vertex -22.0330133738494 15.551405803254 99.9
vertex -26.2 16.1 99.9
endloop
endfacet
facet normal -0.12947820665577 -0.983484620713842 -0.126464994447303
outer loop
vertex -26.2 27.595828470996 10.5
vertex -26.2 28.9460096672539 -4.51194637207664e-014
vertex -22.5077339547629 27.1097324243834 10.5
endloop
endfacet
facet normal 0.382683432365089 -0.923879532511287 0.0
outer loop
vertex -17.4 -15.2420471066061 105.8
vertex -21.6447848061957 -17.0002945426876 99.9
vertex -17.4 -15.2420471066061 99.9
endloop
endfacet
facet normal 0.382683432365089 -0.923879532511287 0.0
outer loop
vertex -21.6447848061957 -17.0002945426876 99.9
vertex -17.4 -15.2420471066061 105.8
vertex -21.6447848061957 -17.0002945426876 105.8
endloop
endfacet
facet normal -0.0 -0.0 1.0
outer loop
vertex -41.4420471066061 -8.79999999999998 105.8
vertex -42.3 0.0 105.8
vertex -43.2002945426875 -4.55521519380436 105.8
endloop
endfacet
facet normal -0.0 -0.0 1.0
outer loop
vertex -42.3 0.0 105.8
vertex -41.4420471066061 -8.79999999999998 105.8
vertex -41.751405803254 -4.1669866261506 105.8
endloop
endfacet
facet normal -0.0 -0.0 1.0
outer loop
vertex -41.751405803254 -4.1669866261506 105.8
vertex -41.4420471066061 -8.79999999999998 105.8
vertex -40.1430090009294 -8.05 105.8
endloop
endfacet
facet normal -0.0 -0.0 1.0
outer loop
vertex -40.1430090009294 -8.05 105.8
vertex -41.4420471066061 -8.79999999999998 105.8
vertex -38.6450793488832 -12.4450793488832 105.8
endloop
endfacet
facet normal -0.0 -0.0 1.0
outer loop
vertex -40.1430090009294 -8.05 105.8
vertex -38.6450793488832 -12.4450793488832 105.8
vertex -37.5844191771034 -11.3844191771034 105.8
endloop
endfacet
facet normal -0.0 -0.0 1.0
outer loop
vertex -37.5844191771034 -11.3844191771034 105.8
vertex -38.6450793488832 -12.4450793488832 105.8
vertex -35.0 -15.2420471066061 105.8
endloop
endfacet
facet normal -0.0 -0.0 1.0
outer loop
vertex -37.5844191771034 -11.3844191771034 105.8
vertex -35.0 -15.2420471066061 105.8
vertex -34.25 -13.9430090009295 105.8
endloop
endfacet
facet normal -0.0 -0.0 1.0
outer loop
vertex -34.25 -13.9430090009295 105.8
vertex -35.0 -15.2420471066061 105.8
vertex -30.7552151938044 -17.0002945426876 105.8
endloop
endfacet
facet normal -0.0 -0.0 1.0
outer loop
vertex -34.25 -13.9430090009295 105.8
vertex -30.7552151938044 -17.0002945426876 105.8
vertex -30.3669866261506 -15.551405803254 105.8
endloop
endfacet
facet normal -0.0 -0.0 1.0
outer loop
vertex -30.3669866261506 -15.551405803254 105.8
vertex -30.7552151938044 -17.0002945426876 105.8
vertex -26.2 -17.6 105.8
endloop
endfacet
facet normal -0.0 -0.0 1.0
outer loop
vertex -30.3669866261506 -15.551405803254 105.8
vertex -26.2 -17.6 105.8
vertex -26.2 -16.1 105.8
endloop
endfacet
facet normal -0.0 -0.0 1.0
outer loop
vertex -26.2 -16.1 105.8
vertex -26.2 -17.6 105.8
vertex -21.6447848061957 -17.0002945426876 105.8
endloop
endfacet
facet normal -0.0 -0.0 1.0
outer loop
vertex -26.2 -16.1 105.8
vertex -21.6447848061957 -17.0002945426876 105.8
vertex -22.0330133738494 -15.551405803254 105.8
endloop
endfacet
facet normal -0.0 -0.0 1.0
outer loop
vertex -22.0330133738494 -15.551405803254 105.8
vertex -21.6447848061957 -17.0002945426876 105.8
vertex -18.15 -13.9430090009295 105.8
endloop
endfacet
facet normal -0.0 -0.0 1.0
outer loop
vertex -18.15 -13.9430090009295 105.8
vertex -21.6447848061957 -17.0002945426876 105.8
vertex -17.4 -15.2420471066061 105.8
endloop
endfacet
facet normal -0.0 -0.0 1.0
outer loop
vertex -18.15 -13.9430090009295 105.8
vertex -17.4 -15.2420471066061 105.8
vertex -14.8155808228966 -11.3844191771034 105.8
endloop
endfacet
facet normal -0.0 -0.0 1.0
outer loop
vertex -14.8155808228966 -11.3844191771034 105.8
vertex -17.4 -15.2420471066061 105.8
vertex -13.7549206511168 -12.4450793488832 105.8
endloop
endfacet
facet normal -0.0 -0.0 1.0
outer loop
vertex -14.8155808228966 -11.3844191771034 105.8
vertex -13.7549206511168 -12.4450793488832 105.8
vertex -12.2569909990705 -8.04999999999999 105.8
endloop
endfacet
facet normal -0.0 -0.0 1.0
outer loop
vertex -12.2569909990705 -8.04999999999999 105.8
vertex -13.7549206511168 -12.4450793488832 105.8
vertex -10.9579528933939 -8.79999999999998 105.8
endloop
endfacet
facet normal -0.0 -0.0 1.0
outer loop
vertex -12.2569909990705 -8.04999999999999 105.8
vertex -10.9579528933939 -8.79999999999998 105.8
vertex -10.648594196746 -4.16698662615058 105.8
endloop
endfacet
facet normal -0.0 -0.0 1.0
outer loop
vertex -10.648594196746 -4.16698662615058 105.8
vertex -10.9579528933939 -8.79999999999998 105.8
vertex -9.19970545731243 -4.55521519380435 105.8
endloop
endfacet
facet normal -0.0 -0.0 1.0
outer loop
vertex -10.648594196746 -4.16698662615058 105.8
vertex -9.19970545731243 -4.55521519380435 105.8
vertex -10.1 1.97168134662724e-015 105.8
endloop
endfacet
facet normal -0.0 -0.0 1.0
outer loop
vertex -43.2002945426875 -4.55521519380436 105.8
vertex -43.2002945426875 4.55521519380434 105.8
vertex -43.7999999999999 -9.86988268891764e-015 105.8
endloop
endfacet
facet normal -0.0 -0.0 1.0
outer loop
vertex -43.2002945426875 4.55521519380434 105.8
vertex -43.2002945426875 -4.55521519380436 105.8
vertex -41.4420471066061 8.79999999999997 105.8
endloop
endfacet
facet normal -0.0 -0.0 1.0
outer loop
vertex -41.4420471066061 8.79999999999997 105.8
vertex -43.2002945426875 -4.55521519380436 105.8
vertex -42.3 0.0 105.8
endloop
endfacet
facet normal -0.0 -0.0 1.0
outer loop
vertex -41.4420471066061 8.79999999999997 105.8
vertex -42.3 0.0 105.8
vertex -41.751405803254 4.16698662615058 105.8
endloop
endfacet
facet normal -0.0 -0.0 1.0
outer loop
vertex -41.4420471066061 8.79999999999997 105.8
vertex -41.751405803254 4.16698662615058 105.8
vertex -40.1430090009294 8.05 105.8
endloop
endfacet
facet normal -0.0 -0.0 1.0
outer loop
vertex -41.4420471066061 8.79999999999997 105.8
vertex -40.1430090009294 8.05 105.8
vertex -38.6450793488832 12.4450793488832 105.8
endloop
endfacet
facet normal -0.0 -0.0 1.0
outer loop
vertex -38.6450793488832 12.4450793488832 105.8
vertex -40.1430090009294 8.05 105.8
vertex -37.5844191771034 11.3844191771034 105.8
endloop
endfacet
facet normal -0.0 -0.0 1.0
outer loop
vertex -38.6450793488832 12.4450793488832 105.8
vertex -37.5844191771034 11.3844191771034 105.8
vertex -35.0 15.2420471066061 105.8
endloop
endfacet
facet normal -0.0 -0.0 1.0
outer loop
vertex -35.0 15.2420471066061 105.8
vertex -37.5844191771034 11.3844191771034 105.8
vertex -34.25 13.9430090009295 105.8
endloop
endfacet
facet normal -0.0 -0.0 1.0
outer loop
vertex -35.0 15.2420471066061 105.8
vertex -34.25 13.9430090009295 105.8
vertex -30.7552151938043 17.0002945426876 105.8
endloop
endfacet
facet normal -0.0 -0.0 1.0
outer loop
vertex -30.7552151938043 17.0002945426876 105.8
vertex -34.25 13.9430090009295 105.8
vertex -30.3669866261506 15.551405803254 105.8
endloop
endfacet
facet normal -0.0 -0.0 1.0
outer loop
vertex -30.7552151938043 17.0002945426876 105.8
vertex -30.3669866261506 15.551405803254 105.8
vertex -26.2 17.6 105.8
endloop
endfacet
facet normal -0.0 -0.0 1.0
outer loop
vertex -26.2 17.6 105.8
vertex -30.3669866261506 15.551405803254 105.8
vertex -26.2 16.1 105.8
endloop
endfacet
facet normal -0.0 -0.0 1.0
outer loop
vertex -26.2 17.6 105.8
vertex -26.2 16.1 105.8
vertex -21.6447848061956 17.0002945426876 105.8
endloop
endfacet
facet normal -0.0 -0.0 1.0
outer loop
vertex -21.6447848061956 17.0002945426876 105.8
vertex -26.2 16.1 105.8
vertex -22.0330133738494 15.551405803254 105.8
endloop
endfacet
facet normal -0.0 -0.0 1.0
outer loop
vertex -21.6447848061956 17.0002945426876 105.8
vertex -22.0330133738494 15.551405803254 105.8
vertex -18.15 13.9430090009295 105.8
endloop
endfacet
facet normal -0.0 -0.0 1.0
outer loop
vertex -21.6447848061956 17.0002945426876 105.8
vertex -18.15 13.9430090009295 105.8
vertex -17.4 15.2420471066061 105.8
endloop
endfacet
facet normal -0.0 -0.0 1.0
outer loop
vertex -17.4 15.2420471066061 105.8
vertex -18.15 13.9430090009295 105.8
vertex -14.8155808228966 11.3844191771034 105.8
endloop
endfacet
facet normal -0.0 -0.0 1.0
outer loop
vertex -17.4 15.2420471066061 105.8
vertex -14.8155808228966 11.3844191771034 105.8
vertex -13.7549206511168 12.4450793488832 105.8
endloop
endfacet
facet normal -0.0 -0.0 1.0
outer loop
vertex -13.7549206511168 12.4450793488832 105.8
vertex -14.8155808228966 11.3844191771034 105.8
vertex -12.2569909990705 8.05 105.8
endloop
endfacet
facet normal -0.0 -0.0 1.0
outer loop
vertex -13.7549206511168 12.4450793488832 105.8
vertex -12.2569909990705 8.05 105.8
vertex -10.9579528933939 8.79999999999998 105.8
endloop
endfacet
facet normal -0.0 -0.0 1.0
outer loop
vertex -10.9579528933939 8.79999999999998 105.8
vertex -12.2569909990705 8.05 105.8
vertex -10.648594196746 4.16698662615059 105.8
endloop
endfacet
facet normal -0.0 -0.0 1.0
outer loop
vertex -10.9579528933939 8.79999999999998 105.8
vertex -10.648594196746 4.16698662615059 105.8
vertex -9.19970545731243 4.55521519380435 105.8
endloop
endfacet
facet normal -0.0 -0.0 1.0
outer loop
vertex -9.19970545731243 4.55521519380435 105.8
vertex -10.648594196746 4.16698662615059 105.8
vertex -10.1 1.97168134662724e-015 105.8
endloop
endfacet
facet normal -0.0 -0.0 1.0
outer loop
vertex -9.19970545731243 4.55521519380435 105.8
vertex -10.1 1.97168134662724e-015 105.8
vertex -9.19970545731243 -4.55521519380435 105.8
endloop
endfacet
facet normal -0.0 -0.0 1.0
outer loop
vertex -9.19970545731243 4.55521519380435 105.8
vertex -9.19970545731243 -4.55521519380435 105.8
vertex -8.60000000000004 0.0 105.8
endloop
endfacet
facet normal 0.786983562441605 0.60387372655727 -0.126464994447303
outer loop
vertex -51.2679797100318 -14.473004833627 -4.51194637207664e-014
vertex -37.5844191771034 -11.3844191771034 99.9
vertex -46.6679197240066 -20.4679197240066 -4.51194637207664e-014
endloop
endfacet
facet normal 0.786983562441605 0.60387372655727 -0.126464994447303
outer loop
vertex -37.5844191771034 -11.3844191771034 99.9
vertex -51.2679797100318 -14.473004833627 -4.51194637207664e-014
vertex -40.1430090009294 -8.05 99.9
endloop
endfacet
facet normal -0.923879532511288 -0.382683432365088 2.71554292078895e-017
outer loop
vertex -43.2002945426875 -4.55521519380436 105.8
vertex -41.4420471066061 -8.79999999999998 99.9
vertex -41.4420471066061 -8.79999999999998 105.8
endloop
endfacet
facet normal -0.923879532511288 -0.382683432365088 2.71554292078895e-017
outer loop
vertex -41.4420471066061 -8.79999999999998 99.9
vertex -43.2002945426875 -4.55521519380436 105.8
vertex -43.2002945426875 -4.55521519380436 99.9
endloop
endfacet
facet normal -0.603873726557269 -0.786983562441605 -0.126464994447303
outer loop
vertex -14.8155808228966 11.3844191771034 99.9
vertex -11.726995166373 25.0679797100319 -4.51194637207664e-014
vertex -5.73208027599339 20.4679197240066 -4.51194637207664e-014
endloop
endfacet
facet normal -0.603873726557269 -0.786983562441605 -0.126464994447303
outer loop
vertex -11.726995166373 25.0679797100319 -4.51194637207664e-014
vertex -14.8155808228966 11.3844191771034 99.9
vertex -18.15 13.9430090009295 99.9
endloop
endfacet
facet normal -0.608761429008722 -0.793353340291235 0.0
outer loop
vertex -35.0 -15.2420471066061 105.8
vertex -38.6450793488832 -12.4450793488832 99.9
vertex -35.0 -15.2420471066061 99.9
endloop
endfacet
facet normal -0.608761429008722 -0.793353340291235 0.0
outer loop
vertex -38.6450793488832 -12.4450793488832 99.9
vertex -35.0 -15.2420471066061 105.8
vertex -38.6450793488832 -12.4450793488832 105.8
endloop
endfacet
facet normal 0.99144486137381 0.130526192220052 -0.0
outer loop
vertex -9.19970545731243 4.55521519380435 99.9
vertex -8.60000000000004 0.0 105.8
vertex -8.60000000000004 0.0 99.9
endloop
endfacet
facet normal 0.99144486137381 0.130526192220052 -0.0
outer loop
vertex -8.60000000000004 0.0 105.8
vertex -9.19970545731243 4.55521519380435 99.9
vertex -9.19970545731243 4.55521519380435 105.8
endloop
endfacet
facet normal -0.382683432365092 -0.923879532511286 0.0
outer loop
vertex -30.7552151938044 -17.0002945426876 105.8
vertex -35.0 -15.2420471066061 99.9
vertex -30.7552151938044 -17.0002945426876 99.9
endloop
endfacet
facet normal -0.382683432365092 -0.923879532511286 0.0
outer loop
vertex -35.0 -15.2420471066061 99.9
vertex -30.7552151938044 -17.0002945426876 105.8
vertex -35.0 -15.2420471066061 105.8
endloop
endfacet
facet normal 0.923879532511287 0.382683432365089 1.74845124165175e-031
outer loop
vertex -10.9579528933939 8.79999999999998 99.9
vertex -9.19970545731243 4.55521519380435 105.8
vertex -9.19970545731243 4.55521519380435 99.9
endloop
endfacet
facet normal 0.923879532511287 0.382683432365089 1.74845124165175e-031
outer loop
vertex -9.19970545731243 4.55521519380435 105.8
vertex -10.9579528933939 8.79999999999998 99.9
vertex -10.9579528933939 8.79999999999998 105.8
endloop
endfacet
facet normal -0.793353340291235 -0.608761429008721 0.0
outer loop
vertex -41.4420471066061 -8.79999999999998 105.8
vertex -38.6450793488832 -12.4450793488832 99.9
vertex -38.6450793488832 -12.4450793488832 105.8
endloop
endfacet
facet normal -0.793353340291235 -0.608761429008721 0.0
outer loop
vertex -38.6450793488832 -12.4450793488832 99.9
vertex -41.4420471066061 -8.79999999999998 105.8
vertex -41.4420471066061 -8.79999999999998 99.9
endloop
endfacet
facet normal 0.923879532511287 -0.38268343236509 -1.74845124165175e-031
outer loop
vertex -9.19970545731243 -4.55521519380435 99.9
vertex -10.9579528933939 -8.79999999999998 105.8
vertex -10.9579528933939 -8.79999999999998 99.9
endloop
endfacet
facet normal 0.923879532511287 -0.38268343236509 -1.74845124165175e-031
outer loop
vertex -10.9579528933939 -8.79999999999998 105.8
vertex -9.19970545731243 -4.55521519380435 99.9
vertex -9.19970545731243 -4.55521519380435 105.8
endloop
endfacet
facet normal -0.923879532511287 0.382683432365089 0.0
outer loop
vertex -41.4420471066061 8.79999999999997 105.8
vertex -43.2002945426875 4.55521519380434 99.9
vertex -43.2002945426875 4.55521519380434 105.8
endloop
endfacet
facet normal -0.923879532511287 0.382683432365089 0.0
outer loop
vertex -43.2002945426875 4.55521519380434 99.9
vertex -41.4420471066061 8.79999999999997 105.8
vertex -41.4420471066061 8.79999999999997 99.9
endloop
endfacet
facet normal 0.60387372655727 -0.786983562441605 -0.126464994447303
outer loop
vertex -34.25 13.9430090009295 99.9
vertex -46.6679197240066 20.4679197240066 -4.51194637207664e-014
vertex -40.6730048336269 25.0679797100318 -4.51194637207664e-014
endloop
endfacet
facet normal 0.60387372655727 -0.786983562441605 -0.126464994447303
outer loop
vertex -46.6679197240066 20.4679197240066 -4.51194637207664e-014
vertex -34.25 13.9430090009295 99.9
vertex -37.5844191771034 11.3844191771034 99.9
endloop
endfacet
facet normal 0.12947820665577 -0.983484620713842 -0.126464994447303
outer loop
vertex -26.2 16.1 99.9
vertex -29.9 26.4529119345974 15.6
vertex -26.2 26.9400261756707 15.6
endloop
endfacet
facet normal 0.12947820665577 -0.983484620713842 -0.126464994447303
outer loop
vertex -26.2 27.595828470996 10.5
vertex -33.691778581607 27.9596983056136 -4.51194637207664e-014
vertex -26.2 28.9460096672539 -4.51194637207664e-014
endloop
endfacet
facet normal 0.12947820665577 -0.983484620713842 -0.126464994447303
outer loop
vertex -33.691778581607 27.9596983056136 -4.51194637207664e-014
vertex -26.2 27.595828470996 10.5
vertex -29.9 27.1087142299226 10.5
endloop
endfacet
facet normal 0.12947820665577 -0.983484620713842 -0.126464994447303
outer loop
vertex -33.691778581607 27.9596983056136 -4.51194637207664e-014
vertex -29.9 27.1087142299226 10.5
vertex -30.3669866261506 15.551405803254 99.9
endloop
endfacet
facet normal 0.12947820665577 -0.983484620713842 -0.126464994447303
outer loop
vertex -30.3669866261506 15.551405803254 99.9
vertex -29.9 27.1087142299226 10.5
vertex -29.9 26.4529119345974 15.6
endloop
endfacet
facet normal 0.12947820665577 -0.983484620713842 -0.126464994447303
outer loop
vertex -30.3669866261506 15.551405803254 99.9
vertex -29.9 26.4529119345974 15.6
vertex -26.2 16.1 99.9
endloop
endfacet
facet normal -0.793353340291236 0.60876142900872 0.0
outer loop
vertex -38.6450793488832 12.4450793488832 105.8
vertex -41.4420471066061 8.79999999999997 99.9
vertex -41.4420471066061 8.79999999999997 105.8
endloop
endfacet
facet normal -0.793353340291236 0.60876142900872 0.0
outer loop
vertex -41.4420471066061 8.79999999999997 99.9
vertex -38.6450793488832 12.4450793488832 105.8
vertex -38.6450793488832 12.4450793488832 99.9
endloop
endfacet
facet normal -0.379610894156573 -0.916461769097376 -0.126464994447303
outer loop
vertex -18.15 13.9430090009295 99.9
vertex -18.708221418393 27.9596983056136 -4.51194637207664e-014
vertex -11.726995166373 25.0679797100319 -4.51194637207664e-014
endloop
endfacet
facet normal -0.379610894156573 -0.916461769097376 -0.126464994447303
outer loop
vertex -18.708221418393 27.9596983056136 -4.51194637207664e-014
vertex -18.15 13.9430090009295 99.9
vertex -22.0330133738494 15.551405803254 99.9
endloop
endfacet
facet normal -0.99144486137381 -0.130526192220051 0.0
outer loop
vertex -43.7999999999999 -9.86988268891764e-015 105.8
vertex -43.2002945426875 -4.55521519380436 99.9
vertex -43.2002945426875 -4.55521519380436 105.8
endloop
endfacet
facet normal -0.99144486137381 -0.130526192220051 0.0
outer loop
vertex -43.2002945426875 -4.55521519380436 99.9
vertex -43.7999999999999 -9.86988268891764e-015 105.8
vertex -43.7999999999999 -9.86988268891764e-015 99.9
endloop
endfacet
facet normal -0.379610894156572 0.916461769097376 -0.126464994447303
outer loop
vertex -22.0330133738494 -15.551405803254 99.9
vertex -11.7269951663731 -25.0679797100319 -4.51194637207664e-014
vertex -18.708221418393 -27.9596983056136 -4.51194637207664e-014
endloop
endfacet
facet normal -0.379610894156572 0.916461769097376 -0.126464994447303
outer loop
vertex -11.7269951663731 -25.0679797100319 -4.51194637207664e-014
vertex -22.0330133738494 -15.551405803254 99.9
vertex -18.15 -13.9430090009295 99.9
endloop
endfacet
facet normal -0.786983562441605 -0.60387372655727 -0.126464994447303
outer loop
vertex -14.8155808228966 11.3844191771034 99.9
vertex -1.13202028996815 14.473004833627 -4.51194637207664e-014
vertex -12.2569909990705 8.05 99.9
endloop
endfacet
facet normal -0.786983562441605 -0.60387372655727 -0.126464994447303
outer loop
vertex -1.13202028996815 14.473004833627 -4.51194637207664e-014
vertex -14.8155808228966 11.3844191771034 99.9
vertex -5.73208027599339 20.4679197240066 -4.51194637207664e-014
endloop
endfacet
facet normal -0.991444861373811 0.130526192220048 0.0
outer loop
vertex -43.2002945426875 4.55521519380434 105.8
vertex -43.7999999999999 -9.86988268891764e-015 99.9
vertex -43.7999999999999 -9.86988268891764e-015 105.8
endloop
endfacet
facet normal -0.991444861373811 0.130526192220048 0.0
outer loop
vertex -43.7999999999999 -9.86988268891764e-015 99.9
vertex -43.2002945426875 4.55521519380434 105.8
vertex -43.2002945426875 4.55521519380434 99.9
endloop
endfacet
facet normal -0.916461769097375 -0.379610894156574 -0.126464994447303
outer loop
vertex -12.2569909990705 8.05 99.9
vertex 1.75969830561363 7.49177858160699 -4.51194637207664e-014
vertex -10.648594196746 4.16698662615059 99.9
endloop
endfacet
facet normal -0.916461769097375 -0.379610894156574 -0.126464994447303
outer loop
vertex 1.75969830561363 7.49177858160699 -4.51194637207664e-014
vertex -12.2569909990705 8.05 99.9
vertex -1.13202028996815 14.473004833627 -4.51194637207664e-014
endloop
endfacet
facet normal 0.99144486137381 0.130526192220053 -0.0
outer loop
vertex -42.3 0.0 99.9
vertex -41.751405803254 -4.1669866261506 105.8
vertex -41.751405803254 -4.1669866261506 99.9
endloop
endfacet
facet normal 0.99144486137381 0.130526192220053 -0.0
outer loop
vertex -41.751405803254 -4.1669866261506 105.8
vertex -42.3 0.0 99.9
vertex -42.3 0.0 105.8
endloop
endfacet
facet normal 0.99144486137381 -0.130526192220051 -0.0
outer loop
vertex -41.751405803254 4.16698662615058 99.9
vertex -42.3 0.0 105.8
vertex -42.3 0.0 99.9
endloop
endfacet
facet normal 0.99144486137381 -0.130526192220051 -0.0
outer loop
vertex -42.3 0.0 105.8
vertex -41.751405803254 4.16698662615058 99.9
vertex -41.751405803254 4.16698662615058 105.8
endloop
endfacet
facet normal 1.0 1.92992816324461e-015 3.05212100258609e-016
outer loop
vertex -22.5077339547629 -27.1097324243834 10.5
vertex -22.5077339547629 -27.9151051545886 15.6
vertex -22.5077339547629 -28.5685586080421 10.5
endloop
endfacet
facet normal 1.0 1.92992816324461e-015 3.05212100258609e-016
outer loop
vertex -22.5077339547629 -27.9151051545886 15.6
vertex -22.5077339547629 -27.1097324243834 10.5
vertex -22.5077339547629 -26.4539301290581 15.6
endloop
endfacet
facet normal -1.0 0.0 0.0
outer loop
vertex -29.9 -27.9140869601278 15.6
vertex -29.9 -27.1087142299226 10.5
vertex -29.9 -28.5675404135813 10.5
endloop
endfacet
facet normal -1.0 0.0 0.0
outer loop
vertex -29.9 -27.1087142299226 10.5
vertex -29.9 -27.9140869601278 15.6
vertex -29.9 -26.4529119345974 15.6
endloop
endfacet
facet normal -0.0 -0.0 1.0
outer loop
vertex -26.2 -28.4012012012012 15.6
vertex -29.9 -26.4529119345974 15.6
vertex -29.9 -27.9140869601278 15.6
endloop
endfacet
facet normal -0.0 -0.0 1.0
outer loop
vertex -29.9 -26.4529119345974 15.6
vertex -26.2 -28.4012012012012 15.6
vertex -26.2 -26.9400261756707 15.6
endloop
endfacet
facet normal -0.0 -0.0 1.0
outer loop
vertex -26.2 -26.9400261756707 15.6
vertex -26.2 -28.4012012012012 15.6
vertex -22.5077339547629 -27.9151051545886 15.6
endloop
endfacet
facet normal -0.0 -0.0 1.0
outer loop
vertex -26.2 -26.9400261756707 15.6
vertex -22.5077339547629 -27.9151051545886 15.6
vertex -22.5077339547629 -26.4539301290581 15.6
endloop
endfacet
facet normal 0.0 0.0 -1.0
outer loop
vertex -26.2 29.0546546546547 10.5
vertex -29.9 27.1087142299226 10.5
vertex -29.9 28.5675404135813 10.5
endloop
endfacet
facet normal 0.0 0.0 -1.0
outer loop
vertex -29.9 27.1087142299226 10.5
vertex -26.2 29.0546546546547 10.5
vertex -26.2 27.595828470996 10.5
endloop
endfacet
facet normal 0.0 0.0 -1.0
outer loop
vertex -26.2 27.595828470996 10.5
vertex -26.2 29.0546546546547 10.5
vertex -22.5077339547629 27.1097324243834 10.5
endloop
endfacet
facet normal 0.0 0.0 -1.0
outer loop
vertex -22.5077339547629 27.1097324243834 10.5
vertex -26.2 29.0546546546547 10.5
vertex -22.5077339547629 28.5685586080421 10.5
endloop
endfacet
facet normal -0.130526192220052 0.99144486137381 -0.0
outer loop
vertex -26.2 -16.1 105.8
vertex -22.0330133738494 -15.551405803254 99.9
vertex -26.2 -16.1 99.9
endloop
endfacet
facet normal -0.130526192220052 0.99144486137381 -0.0
outer loop
vertex -22.0330133738494 -15.551405803254 99.9
vertex -26.2 -16.1 105.8
vertex -22.0330133738494 -15.551405803254 105.8
endloop
endfacet
facet normal 0.130526192220052 0.99144486137381 -0.0
outer loop
vertex -30.3669866261506 -15.551405803254 105.8
vertex -26.2 -16.1 99.9
vertex -30.3669866261506 -15.551405803254 99.9
endloop
endfacet
facet normal 0.130526192220052 0.99144486137381 -0.0
outer loop
vertex -26.2 -16.1 99.9
vertex -30.3669866261506 -15.551405803254 105.8
vertex -26.2 -16.1 105.8
endloop
endfacet
facet normal 0.38268343236509 0.923879532511287 -0.0
outer loop
vertex -34.25 -13.9430090009295 105.8
vertex -30.3669866261506 -15.551405803254 99.9
vertex -34.25 -13.9430090009295 99.9
endloop
endfacet
facet normal 0.38268343236509 0.923879532511287 -0.0
outer loop
vertex -30.3669866261506 -15.551405803254 99.9
vertex -34.25 -13.9430090009295 105.8
vertex -30.3669866261506 -15.551405803254 105.8
endloop
endfacet
facet normal 0.608761429008721 0.793353340291235 -0.0
outer loop
vertex -37.5844191771034 -11.3844191771034 105.8
vertex -34.25 -13.9430090009295 99.9
vertex -37.5844191771034 -11.3844191771034 99.9
endloop
endfacet
facet normal 0.608761429008721 0.793353340291235 -0.0
outer loop
vertex -34.25 -13.9430090009295 99.9
vertex -37.5844191771034 -11.3844191771034 105.8
vertex -34.25 -13.9430090009295 105.8
endloop
endfacet
facet normal 0.793353340291236 0.60876142900872 -0.0
outer loop
vertex -40.1430090009294 -8.05 99.9
vertex -37.5844191771034 -11.3844191771034 105.8
vertex -37.5844191771034 -11.3844191771034 99.9
endloop
endfacet
facet normal 0.793353340291236 0.60876142900872 -0.0
outer loop
vertex -37.5844191771034 -11.3844191771034 105.8
vertex -40.1430090009294 -8.05 99.9
vertex -40.1430090009294 -8.05 105.8
endloop
endfacet
facet normal 1.0 -9.66517760919471e-016 -4.00527982091026e-016
outer loop
vertex -22.5077339547629 27.1097324243834 10.5
vertex -22.5077339547629 27.9151051545886 15.6
vertex -22.5077339547629 26.4539301290581 15.6
endloop
endfacet
facet normal 1.0 -9.66517760919471e-016 -4.00527982091026e-016
outer loop
vertex -22.5077339547629 27.9151051545886 15.6
vertex -22.5077339547629 27.1097324243834 10.5
vertex -22.5077339547629 28.5685586080421 10.5
endloop
endfacet
facet normal 0.0 0.0 -1.0
outer loop
vertex -26.2 -27.595828470996 10.5
vertex -29.9 -28.5675404135813 10.5
vertex -29.9 -27.1087142299226 10.5
endloop
endfacet
facet normal 0.0 0.0 -1.0
outer loop
vertex -29.9 -28.5675404135813 10.5
vertex -26.2 -27.595828470996 10.5
vertex -26.2 -29.0546546546546 10.5
endloop
endfacet
facet normal 0.0 0.0 -1.0
outer loop
vertex -26.2 -29.0546546546546 10.5
vertex -26.2 -27.595828470996 10.5
vertex -22.5077339547629 -28.5685586080421 10.5
endloop
endfacet
facet normal 0.0 0.0 -1.0
outer loop
vertex -22.5077339547629 -28.5685586080421 10.5
vertex -26.2 -27.595828470996 10.5
vertex -22.5077339547629 -27.1097324243834 10.5
endloop
endfacet
facet normal -0.0 -0.0 1.0
outer loop
vertex -26.2 26.9400261756707 15.6
vertex -29.9 27.9140869601278 15.6
vertex -29.9 26.4529119345974 15.6
endloop
endfacet
facet normal -0.0 -0.0 1.0
outer loop
vertex -29.9 27.9140869601278 15.6
vertex -26.2 26.9400261756707 15.6
vertex -26.2 28.4012012012012 15.6
endloop
endfacet
facet normal -0.0 -0.0 1.0
outer loop
vertex -26.2 28.4012012012012 15.6
vertex -26.2 26.9400261756707 15.6
vertex -22.5077339547629 26.4539301290581 15.6
endloop
endfacet
facet normal -0.0 -0.0 1.0
outer loop
vertex -26.2 28.4012012012012 15.6
vertex -22.5077339547629 26.4539301290581 15.6
vertex -22.5077339547629 27.9151051545886 15.6
endloop
endfacet
facet normal -1.0 0.0 0.0
outer loop
vertex -29.9 27.9140869601278 15.6
vertex -29.9 27.1087142299226 10.5
vertex -29.9 26.4529119345974 15.6
endloop
endfacet
facet normal -1.0 0.0 0.0
outer loop
vertex -29.9 27.1087142299226 10.5
vertex -29.9 27.9140869601278 15.6
vertex -29.9 28.5675404135813 10.5
endloop
endfacet
facet normal 0.923879532511287 0.38268343236509 6.75381552118999e-030
outer loop
vertex -41.751405803254 -4.1669866261506 99.9
vertex -40.1430090009294 -8.05 105.8
vertex -40.1430090009294 -8.05 99.9
endloop
endfacet
facet normal 0.923879532511287 0.38268343236509 6.75381552118999e-030
outer loop
vertex -40.1430090009294 -8.05 105.8
vertex -41.751405803254 -4.1669866261506 99.9
vertex -41.751405803254 -4.1669866261506 105.8
endloop
endfacet
facet normal 0.608761429008722 -0.793353340291234 -7.24954108584146e-031
outer loop
vertex -34.25 13.9430090009295 105.8
vertex -37.5844191771034 11.3844191771034 99.9
vertex -34.25 13.9430090009295 99.9
endloop
endfacet
facet normal 0.608761429008722 -0.793353340291234 -7.24954108584146e-031
outer loop
vertex -37.5844191771034 11.3844191771034 99.9
vertex -34.25 13.9430090009295 105.8
vertex -37.5844191771034 11.3844191771034 105.8
endloop
endfacet
facet normal -0.130526192220052 -0.99144486137381 -3.9844854472599e-018
outer loop
vertex -22.0330133738494 15.551405803254 105.8
vertex -26.2 16.1 99.9
vertex -22.0330133738494 15.551405803254 99.9
endloop
endfacet
facet normal -0.130526192220052 -0.99144486137381 -3.9844854472599e-018
outer loop
vertex -26.2 16.1 99.9
vertex -22.0330133738494 15.551405803254 105.8
vertex -26.2 16.1 105.8
endloop
endfacet
facet normal -0.99144486137381 0.130526192220051 0.0
outer loop
vertex -10.1 1.97168134662724e-015 105.8
vertex -10.648594196746 -4.16698662615058 99.9
vertex -10.648594196746 -4.16698662615058 105.8
endloop
endfacet
facet normal -0.99144486137381 0.130526192220051 0.0
outer loop
vertex -10.648594196746 -4.16698662615058 99.9
vertex -10.1 1.97168134662724e-015 105.8
vertex -10.1 1.97168134662724e-015 99.9
endloop
endfacet
facet normal -0.923879532511287 0.38268343236509 7.42589869740108e-018
outer loop
vertex -10.648594196746 -4.16698662615058 105.8
vertex -12.2569909990705 -8.04999999999999 99.9
vertex -12.2569909990705 -8.04999999999999 105.8
endloop
endfacet
facet normal -0.923879532511287 0.38268343236509 7.42589869740108e-018
outer loop
vertex -12.2569909990705 -8.04999999999999 99.9
vertex -10.648594196746 -4.16698662615058 105.8
vertex -10.648594196746 -4.16698662615058 99.9
endloop
endfacet
facet normal -0.130526192220053 0.99144486137381 -3.98448544725604e-018
outer loop
vertex -30.7552151938043 17.0002945426876 105.8
vertex -26.2 17.6 99.9
vertex -30.7552151938043 17.0002945426876 99.9
endloop
endfacet
facet normal -0.130526192220053 0.99144486137381 -3.98448544725604e-018
outer loop
vertex -26.2 17.6 99.9
vertex -30.7552151938043 17.0002945426876 105.8
vertex -26.2 17.6 105.8
endloop
endfacet
facet normal -0.793353340291236 0.60876142900872 2.56246192229399e-030
outer loop
vertex -12.2569909990705 -8.04999999999999 105.8
vertex -14.8155808228966 -11.3844191771034 99.9
vertex -14.8155808228966 -11.3844191771034 105.8
endloop
endfacet
facet normal -0.793353340291236 0.60876142900872 2.56246192229399e-030
outer loop
vertex -14.8155808228966 -11.3844191771034 99.9
vertex -12.2569909990705 -8.04999999999999 105.8
vertex -12.2569909990705 -8.04999999999999 99.9
endloop
endfacet
facet normal -0.608761429008721 0.793353340291235 -0.0
outer loop
vertex -18.15 -13.9430090009295 105.8
vertex -14.8155808228966 -11.3844191771034 99.9
vertex -18.15 -13.9430090009295 99.9
endloop
endfacet
facet normal -0.608761429008721 0.793353340291235 -0.0
outer loop
vertex -14.8155808228966 -11.3844191771034 99.9
vertex -18.15 -13.9430090009295 105.8
vertex -14.8155808228966 -11.3844191771034 105.8
endloop
endfacet
facet normal -0.38268343236509 0.923879532511287 -4.87773311568972e-018
outer loop
vertex -22.0330133738494 -15.551405803254 105.8
vertex -18.15 -13.9430090009295 99.9
vertex -22.0330133738494 -15.551405803254 99.9
endloop
endfacet
facet normal -0.38268343236509 0.923879532511287 -4.87773311568972e-018
outer loop
vertex -18.15 -13.9430090009295 99.9
vertex -22.0330133738494 -15.551405803254 105.8
vertex -18.15 -13.9430090009295 105.8
endloop
endfacet
facet normal 0.793353340291235 -0.608761429008721 5.56276852562846e-031
outer loop
vertex -37.5844191771034 11.3844191771034 99.9
vertex -40.1430090009294 8.05 105.8
vertex -40.1430090009294 8.05 99.9
endloop
endfacet
facet normal 0.793353340291235 -0.608761429008721 5.56276852562846e-031
outer loop
vertex -40.1430090009294 8.05 105.8
vertex -37.5844191771034 11.3844191771034 99.9
vertex -37.5844191771034 11.3844191771034 105.8
endloop
endfacet
facet normal 0.608761429008721 0.793353340291235 -1.27535275518775e-017
outer loop
vertex -17.4 15.2420471066061 105.8
vertex -13.7549206511168 12.4450793488832 99.9
vertex -17.4 15.2420471066061 99.9
endloop
endfacet
facet normal 0.608761429008721 0.793353340291235 -1.27535275518775e-017
outer loop
vertex -13.7549206511168 12.4450793488832 99.9
vertex -17.4 15.2420471066061 105.8
vertex -13.7549206511168 12.4450793488832 105.8
endloop
endfacet
facet normal 0.38268343236509 -0.923879532511287 0.0
outer loop
vertex -30.3669866261506 15.551405803254 105.8
vertex -34.25 13.9430090009295 99.9
vertex -30.3669866261506 15.551405803254 99.9
endloop
endfacet
facet normal 0.38268343236509 -0.923879532511287 0.0
outer loop
vertex -34.25 13.9430090009295 99.9
vertex -30.3669866261506 15.551405803254 105.8
vertex -34.25 13.9430090009295 105.8
endloop
endfacet
facet normal -0.60876142900872 -0.793353340291235 -1.27535275518754e-017
outer loop
vertex -14.8155808228966 11.3844191771034 105.8
vertex -18.15 13.9430090009295 99.9
vertex -14.8155808228966 11.3844191771034 99.9
endloop
endfacet
facet normal -0.60876142900872 -0.793353340291235 -1.27535275518754e-017
outer loop
vertex -18.15 13.9430090009295 99.9
vertex -14.8155808228966 11.3844191771034 105.8
vertex -18.15 13.9430090009295 105.8
endloop
endfacet
facet normal 0.793353340291235 0.60876142900872 -1.9572251764976e-017
outer loop
vertex -13.7549206511168 12.4450793488832 99.9
vertex -10.9579528933939 8.79999999999998 105.8
vertex -10.9579528933939 8.79999999999998 99.9
endloop
endfacet
facet normal 0.793353340291235 0.60876142900872 -1.9572251764976e-017
outer loop
vertex -10.9579528933939 8.79999999999998 105.8
vertex -13.7549206511168 12.4450793488832 99.9
vertex -13.7549206511168 12.4450793488832 105.8
endloop
endfacet
facet normal 0.130526192220052 -0.99144486137381 0.0
outer loop
vertex -26.2 16.1 105.8
vertex -30.3669866261506 15.551405803254 99.9
vertex -26.2 16.1 99.9
endloop
endfacet
facet normal 0.130526192220052 -0.99144486137381 0.0
outer loop
vertex -30.3669866261506 15.551405803254 99.9
vertex -26.2 16.1 105.8
vertex -30.3669866261506 15.551405803254 105.8
endloop
endfacet
facet normal -0.38268343236509 -0.923879532511287 -7.42589869740073e-018
outer loop
vertex -18.15 13.9430090009295 105.8
vertex -22.0330133738494 15.551405803254 99.9
vertex -18.15 13.9430090009295 99.9
endloop
endfacet
facet normal -0.38268343236509 -0.923879532511287 -7.42589869740073e-018
outer loop
vertex -22.0330133738494 15.551405803254 99.9
vertex -18.15 13.9430090009295 105.8
vertex -22.0330133738494 15.551405803254 105.8
endloop
endfacet
facet normal -0.382683432365091 0.923879532511286 -1.6884538802975e-030
outer loop
vertex -35.0 15.2420471066061 105.8
vertex -30.7552151938043 17.0002945426876 99.9
vertex -35.0 15.2420471066061 99.9
endloop
endfacet
facet normal -0.382683432365091 0.923879532511286 -1.6884538802975e-030
outer loop
vertex -30.7552151938043 17.0002945426876 99.9
vertex -35.0 15.2420471066061 105.8
vertex -30.7552151938043 17.0002945426876 105.8
endloop
endfacet
facet normal -0.608761429008721 0.793353340291235 1.27535275518775e-017
outer loop
vertex -38.6450793488832 12.4450793488832 105.8
vertex -35.0 15.2420471066061 99.9
vertex -38.6450793488832 12.4450793488832 99.9
endloop
endfacet
facet normal -0.608761429008721 0.793353340291235 1.27535275518775e-017
outer loop
vertex -35.0 15.2420471066061 99.9
vertex -38.6450793488832 12.4450793488832 105.8
vertex -35.0 15.2420471066061 105.8
endloop
endfacet
facet normal 0.38268343236509 0.923879532511287 1.6884538802975e-030
outer loop
vertex -21.6447848061956 17.0002945426876 105.8
vertex -17.4 15.2420471066061 99.9
vertex -21.6447848061956 17.0002945426876 99.9
endloop
endfacet
facet normal 0.38268343236509 0.923879532511287 1.6884538802975e-030
outer loop
vertex -17.4 15.2420471066061 99.9
vertex -21.6447848061956 17.0002945426876 105.8
vertex -17.4 15.2420471066061 105.8
endloop
endfacet
facet normal 0.130526192220052 0.99144486137381 -4.19653968585777e-018
outer loop
vertex -26.2 17.6 105.8
vertex -21.6447848061956 17.0002945426876 99.9
vertex -26.2 17.6 99.9
endloop
endfacet
facet normal 0.130526192220052 0.99144486137381 -4.19653968585777e-018
outer loop
vertex -21.6447848061956 17.0002945426876 99.9
vertex -26.2 17.6 105.8
vertex -21.6447848061956 17.0002945426876 105.8
endloop
endfacet
facet normal -0.793353340291235 -0.608761429008721 1.27535275518746e-017
outer loop
vertex -14.8155808228966 11.3844191771034 105.8
vertex -12.2569909990705 8.05 99.9
vertex -12.2569909990705 8.05 105.8
endloop
endfacet
facet normal -0.793353340291235 -0.608761429008721 1.27535275518746e-017
outer loop
vertex -12.2569909990705 8.05 99.9
vertex -14.8155808228966 11.3844191771034 105.8
vertex -14.8155808228966 11.3844191771034 99.9
endloop
endfacet
facet normal -0.923879532511287 -0.38268343236509 1.74845124165175e-031
outer loop
vertex -12.2569909990705 8.05 105.8
vertex -10.648594196746 4.16698662615059 99.9
vertex -10.648594196746 4.16698662615059 105.8
endloop
endfacet
facet normal -0.923879532511287 -0.38268343236509 1.74845124165175e-031
outer loop
vertex -10.648594196746 4.16698662615059 99.9
vertex -12.2569909990705 8.05 105.8
vertex -12.2569909990705 8.05 99.9
endloop
endfacet
facet normal -0.99144486137381 -0.130526192220052 0.0
outer loop
vertex -10.648594196746 4.16698662615059 105.8
vertex -10.1 1.97168134662724e-015 99.9
vertex -10.1 1.97168134662724e-015 105.8
endloop
endfacet
facet normal -0.99144486137381 -0.130526192220052 0.0
outer loop
vertex -10.1 1.97168134662724e-015 99.9
vertex -10.648594196746 4.16698662615059 105.8
vertex -10.648594196746 4.16698662615059 99.9
endloop
endfacet
facet normal 0.923879532511287 -0.38268343236509 1.2303631813098e-017
outer loop
vertex -40.1430090009294 8.05 99.9
vertex -41.751405803254 4.16698662615058 105.8
vertex -41.751405803254 4.16698662615058 99.9
endloop
endfacet
facet normal 0.923879532511287 -0.38268343236509 1.2303631813098e-017
outer loop
vertex -41.751405803254 4.16698662615058 105.8
vertex -40.1430090009294 8.05 99.9
vertex -40.1430090009294 8.05 105.8
endloop
endfacet
endsolid ToolforBoardHousing_Final_body
