solid ToolforBoardHousing_Final_body_v2~
facet normal -1.0 0.0 0.0
outer loop
vertex -2.75056618043693 -27.8789039979388 15.6
vertex -2.75056618043693 -27.0735312677336 10.5
vertex -2.75056618043693 -28.5323574513922 10.5
endloop
endfacet
facet normal -1.0 0.0 0.0
outer loop
vertex -2.75056618043693 -27.0735312677336 10.5
vertex -2.75056618043693 -27.8789039979388 15.6
vertex -2.75056618043693 -26.4177289724083 15.6
endloop
endfacet
facet normal -0.0 -0.0 1.0
outer loop
vertex 0.949433819563068 26.9752091378598 15.6
vertex -2.75056618043693 27.9492699223169 15.6
vertex -2.75056618043693 26.4880948967864 15.6
endloop
endfacet
facet normal -0.0 -0.0 1.0
outer loop
vertex -2.75056618043693 27.9492699223169 15.6
vertex 0.949433819563068 26.9752091378598 15.6
vertex 0.949433819563068 28.4363841633903 15.6
endloop
endfacet
facet normal -0.0 -0.0 1.0
outer loop
vertex 0.949433819563068 28.4363841633903 15.6
vertex 0.949433819563068 26.9752091378598 15.6
vertex 4.64169986480013 26.4891130912472 15.6
endloop
endfacet
facet normal -0.0 -0.0 1.0
outer loop
vertex 0.949433819563068 28.4363841633903 15.6
vertex 4.64169986480013 26.4891130912472 15.6
vertex 4.64169986480013 27.9502881167777 15.6
endloop
endfacet
facet normal 1.0 -0.0 -0.0
outer loop
vertex 4.64169986480013 27.1449153865725 10.5
vertex 4.64169986480013 27.9502881167777 15.6
vertex 4.64169986480013 26.4891130912472 15.6
endloop
endfacet
facet normal 1.0 -0.0 -0.0
outer loop
vertex 4.64169986480013 27.9502881167777 15.6
vertex 4.64169986480013 27.1449153865725 10.5
vertex 4.64169986480013 28.6037415702311 10.5
endloop
endfacet
facet normal 0.0 0.0 -1.0
outer loop
vertex 0.949433819563068 -27.5606455088069 10.5
vertex -2.75056618043693 -28.5323574513922 10.5
vertex -2.75056618043693 -27.0735312677336 10.5
endloop
endfacet
facet normal 0.0 0.0 -1.0
outer loop
vertex -2.75056618043693 -28.5323574513922 10.5
vertex 0.949433819563068 -27.5606455088069 10.5
vertex 0.949433819563068 -29.0194716924656 10.5
endloop
endfacet
facet normal 0.0 0.0 -1.0
outer loop
vertex 0.949433819563068 -29.0194716924656 10.5
vertex 0.949433819563068 -27.5606455088069 10.5
vertex 4.64169986480013 -27.0745494621943 10.5
endloop
endfacet
facet normal 0.0 0.0 -1.0
outer loop
vertex 0.949433819563068 -29.0194716924656 10.5
vertex 4.64169986480013 -27.0745494621943 10.5
vertex 4.64169986480013 -28.533375645853 10.5
endloop
endfacet
facet normal 1.0 -0.0 -0.0
outer loop
vertex 4.64169986480013 -27.0745494621943 10.5
vertex 4.64169986480013 -27.8799221923995 15.6
vertex 4.64169986480013 -28.533375645853 10.5
endloop
endfacet
facet normal 1.0 -0.0 -0.0
outer loop
vertex 4.64169986480013 -27.8799221923995 15.6
vertex 4.64169986480013 -27.0745494621943 10.5
vertex 4.64169986480013 -26.4187471668691 15.6
endloop
endfacet
facet normal -0.0 -0.0 1.0
outer loop
vertex 0.949433819563068 -28.3660182390121 15.6
vertex -2.75056618043693 -26.4177289724083 15.6
vertex -2.75056618043693 -27.8789039979388 15.6
endloop
endfacet
facet normal -0.0 -0.0 1.0
outer loop
vertex -2.75056618043693 -26.4177289724083 15.6
vertex 0.949433819563068 -28.3660182390121 15.6
vertex 0.949433819563068 -26.9048432134817 15.6
endloop
endfacet
facet normal -0.0 -0.0 1.0
outer loop
vertex 0.949433819563068 -26.9048432134817 15.6
vertex 0.949433819563068 -28.3660182390121 15.6
vertex 4.64169986480013 -27.8799221923995 15.6
endloop
endfacet
facet normal -0.0 -0.0 1.0
outer loop
vertex 0.949433819563068 -26.9048432134817 15.6
vertex 4.64169986480013 -27.8799221923995 15.6
vertex 4.64169986480013 -26.4187471668691 15.6
endloop
endfacet
facet normal 0.0 0.0 -1.0
outer loop
vertex 0.949433819563068 29.0898376168437 10.5
vertex -2.75056618043693 27.1438971921117 10.5
vertex -2.75056618043693 28.6027233757704 10.5
endloop
endfacet
facet normal 0.0 0.0 -1.0
outer loop
vertex -2.75056618043693 27.1438971921117 10.5
vertex 0.949433819563068 29.0898376168437 10.5
vertex 0.949433819563068 27.6310114331851 10.5
endloop
endfacet
facet normal 0.0 0.0 -1.0
outer loop
vertex 0.949433819563068 27.6310114331851 10.5
vertex 0.949433819563068 29.0898376168437 10.5
vertex 4.64169986480013 28.6037415702311 10.5
endloop
endfacet
facet normal 0.0 0.0 -1.0
outer loop
vertex 0.949433819563068 27.6310114331851 10.5
vertex 4.64169986480013 28.6037415702311 10.5
vertex 4.64169986480013 27.1449153865725 10.5
endloop
endfacet
facet normal -1.0 0.0 0.0
outer loop
vertex -2.75056618043693 27.9492699223169 15.6
vertex -2.75056618043693 27.1438971921117 10.5
vertex -2.75056618043693 26.4880948967864 15.6
endloop
endfacet
facet normal -1.0 0.0 0.0
outer loop
vertex -2.75056618043693 27.1438971921117 10.5
vertex -2.75056618043693 27.9492699223169 15.6
vertex -2.75056618043693 28.6027233757704 10.5
endloop
endfacet
facet normal -0.983540861047979 -0.129485610836224 0.126019249463605
outer loop
vertex -21.4840242897747 -5.97584402164541 56.0
vertex -29.4505661804369 0.0351829621890658 4.51194637207664e-14
vertex -28.4147112996246 -7.83291600892756 4.51194637207664e-14
endloop
endfacet
facet normal -0.983540861047979 -0.129485610836224 0.126019249463605
outer loop
vertex -29.4505661804369 0.0351829621890658 4.51194637207664e-14
vertex -21.4840242897747 -5.97584402164541 56.0
vertex -22.2753910052617 0.0351829621890601 56.0
endloop
endfacet
facet normal 0.983540861047978 -0.129485610836227 0.126019249463605
outer loop
vertex 31.3494338195631 0.0351829621890601 4.51194637207664e-14
vertex 23.3828919289008 -5.97584402164541 56.0
vertex 30.3135789387507 -7.83291600892757 4.51194637207664e-14
endloop
endfacet
facet normal 0.983540861047978 -0.129485610836227 0.126019249463605
outer loop
vertex 23.3828919289008 -5.97584402164541 56.0
vertex 31.3494338195631 0.0351829621890601 4.51194637207664e-14
vertex 24.1742586443879 0.0351829621890615 56.0
endloop
endfacet
facet normal -0.916514176745682 -0.379632602115275 0.126019249463605
outer loop
vertex -19.1638544771787 -11.5772294502233 56.0
vertex -28.4147112996246 -7.83291600892756 4.51194637207664e-14
vertex -25.3777384554838 -15.1648170378109 4.51194637207664e-14
endloop
endfacet
facet normal -0.916514176745682 -0.379632602115275 0.126019249463605
outer loop
vertex -28.4147112996246 -7.83291600892756 4.51194637207664e-14
vertex -19.1638544771787 -11.5772294502233 56.0
vertex -21.4840242897747 -5.97584402164541 56.0
endloop
endfacet
facet normal -0.603908258932706 -0.787028565909457 0.126019249463605
outer loop
vertex -10.6629785928493 -20.0781053345527 56.0
vertex -20.546612328508 -21.460863185882 4.51194637207664e-14
vertex -14.2505661804369 -26.2919893128579 4.51194637207664e-14
endloop
endfacet
facet normal -0.603908258932706 -0.787028565909457 0.126019249463605
outer loop
vertex -20.546612328508 -21.460863185882 4.51194637207664e-14
vertex -10.6629785928493 -20.0781053345527 56.0
vertex -15.4729973059402 -16.3872481633142 56.0
endloop
endfacet
facet normal -0.379632602115275 -0.916514176745682 0.126019249463605
outer loop
vertex -5.06159316427141 -22.3982751471487 56.0
vertex -14.2505661804369 -26.2919893128579 4.51194637207664e-14
vertex -6.91866515155356 -29.3289621569986 4.51194637207664e-14
endloop
endfacet
facet normal -0.379632602115275 -0.916514176745682 0.126019249463605
outer loop
vertex -14.2505661804369 -26.2919893128579 4.51194637207664e-14
vertex -5.06159316427141 -22.3982751471487 56.0
vertex -10.6629785928493 -20.0781053345527 56.0
endloop
endfacet
facet normal -0.787028565909458 -0.603908258932705 0.126019249463605
outer loop
vertex -15.4729973059402 -16.3872481633142 56.0
vertex -25.3777384554838 -15.1648170378109 4.51194637207664e-14
vertex -20.546612328508 -21.460863185882 4.51194637207664e-14
endloop
endfacet
facet normal -0.787028565909458 -0.603908258932705 0.126019249463605
outer loop
vertex -25.3777384554838 -15.1648170378109 4.51194637207664e-14
vertex -15.4729973059402 -16.3872481633142 56.0
vertex -19.1638544771787 -11.5772294502233 56.0
endloop
endfacet
facet normal 0.916514176745682 -0.379632602115274 0.126019249463605
outer loop
vertex 30.3135789387507 -7.83291600892757 4.51194637207664e-14
vertex 21.0627221163048 -11.5772294502233 56.0
vertex 27.27660609461 -15.1648170378109 4.51194637207664e-14
endloop
endfacet
facet normal 0.916514176745682 -0.379632602115274 0.126019249463605
outer loop
vertex 21.0627221163048 -11.5772294502233 56.0
vertex 30.3135789387507 -7.83291600892757 4.51194637207664e-14
vertex 23.3828919289008 -5.97584402164541 56.0
endloop
endfacet
facet normal -0.129485610836224 -0.983540861047979 0.126019249463605
outer loop
vertex 0.949433819563045 -23.1896418626357 56.0
vertex -2.75056618043693 -27.8789039979388 15.6
vertex 0.949433819563068 -28.3660182390121 15.6
endloop
endfacet
facet normal -0.129485610836224 -0.983540861047979 0.126019249463605
outer loop
vertex 0.949433819563068 -29.0194716924656 10.5
vertex -6.91866515155356 -29.3289621569986 4.51194637207664e-14
vertex 0.949433819563068 -30.3648170378109 4.51194637207664e-14
endloop
endfacet
facet normal -0.129485610836224 -0.983540861047979 0.126019249463605
outer loop
vertex -6.91866515155356 -29.3289621569986 4.51194637207664e-14
vertex 0.949433819563068 -29.0194716924656 10.5
vertex -2.75056618043693 -28.5323574513922 10.5
endloop
endfacet
facet normal -0.129485610836224 -0.983540861047979 0.126019249463605
outer loop
vertex -6.91866515155356 -29.3289621569986 4.51194637207664e-14
vertex -2.75056618043693 -28.5323574513922 10.5
vertex -5.06159316427141 -22.3982751471487 56.0
endloop
endfacet
facet normal -0.129485610836224 -0.983540861047979 0.126019249463605
outer loop
vertex -5.06159316427141 -22.3982751471487 56.0
vertex -2.75056618043693 -28.5323574513922 10.5
vertex -2.75056618043693 -27.8789039979388 15.6
endloop
endfacet
facet normal -0.129485610836224 -0.983540861047979 0.126019249463605
outer loop
vertex -5.06159316427141 -22.3982751471487 56.0
vertex -2.75056618043693 -27.8789039979388 15.6
vertex 0.949433819563045 -23.1896418626357 56.0
endloop
endfacet
facet normal 0.379632602115274 -0.916514176745682 0.126019249463605
outer loop
vertex 12.5618462319754 -20.0781053345527 56.0
vertex 8.8175327906797 -29.3289621569986 4.51194637207664e-14
vertex 16.1494338195631 -26.2919893128579 4.51194637207664e-14
endloop
endfacet
facet normal 0.379632602115274 -0.916514176745682 0.126019249463605
outer loop
vertex 8.8175327906797 -29.3289621569986 4.51194637207664e-14
vertex 12.5618462319754 -20.0781053345527 56.0
vertex 6.96046080339752 -22.3982751471487 56.0
endloop
endfacet
facet normal 0.129485610836224 -0.983540861047979 0.126019249463605
outer loop
vertex 8.8175327906797 -29.3289621569986 4.51194637207664e-14
vertex 4.64169986480013 -28.533375645853 10.5
vertex 0.949433819563068 -30.3648170378109 4.51194637207664e-14
endloop
endfacet
facet normal 0.129485610836224 -0.983540861047979 0.126019249463605
outer loop
vertex 4.64169986480013 -28.533375645853 10.5
vertex 8.8175327906797 -29.3289621569986 4.51194637207664e-14
vertex 6.96046080339752 -22.3982751471487 56.0
endloop
endfacet
facet normal 0.129485610836224 -0.983540861047979 0.126019249463605
outer loop
vertex 4.64169986480013 -28.533375645853 10.5
vertex 6.96046080339752 -22.3982751471487 56.0
vertex 4.64169986480013 -27.8799221923995 15.6
endloop
endfacet
facet normal 0.129485610836224 -0.983540861047979 0.126019249463605
outer loop
vertex 4.64169986480013 -27.8799221923995 15.6
vertex 6.96046080339752 -22.3982751471487 56.0
vertex 0.949433819563068 -28.3660182390121 15.6
endloop
endfacet
facet normal 0.129485610836224 -0.983540861047979 0.126019249463605
outer loop
vertex 0.949433819563068 -28.3660182390121 15.6
vertex 6.96046080339752 -22.3982751471487 56.0
vertex 0.949433819563045 -23.1896418626357 56.0
endloop
endfacet
facet normal 0.129485610836224 -0.983540861047979 0.126019249463605
outer loop
vertex 0.949433819563068 -29.0194716924656 10.5
vertex 0.949433819563068 -30.3648170378109 4.51194637207664e-14
vertex 4.64169986480013 -28.533375645853 10.5
endloop
endfacet
facet normal 0.787028565909458 -0.603908258932705 0.126019249463605
outer loop
vertex 27.27660609461 -15.1648170378109 4.51194637207664e-14
vertex 17.3718649450664 -16.3872481633142 56.0
vertex 22.4454799676341 -21.460863185882 4.51194637207664e-14
endloop
endfacet
facet normal 0.787028565909458 -0.603908258932705 0.126019249463605
outer loop
vertex 17.3718649450664 -16.3872481633142 56.0
vertex 27.27660609461 -15.1648170378109 4.51194637207664e-14
vertex 21.0627221163048 -11.5772294502233 56.0
endloop
endfacet
facet normal 0.603908258932705 -0.787028565909459 0.126019249463605
outer loop
vertex 17.3718649450664 -16.3872481633142 56.0
vertex 16.1494338195631 -26.2919893128579 4.51194637207664e-14
vertex 22.4454799676341 -21.460863185882 4.51194637207664e-14
endloop
endfacet
facet normal 0.603908258932705 -0.787028565909459 0.126019249463605
outer loop
vertex 16.1494338195631 -26.2919893128579 4.51194637207664e-14
vertex 17.3718649450664 -16.3872481633142 56.0
vertex 12.5618462319754 -20.0781053345527 56.0
endloop
endfacet
facet normal 0.983484620713842 -0.129478206655768 -0.126464994447303
outer loop
vertex -27.0102644860505 7.52696154379601 0.0
vertex -20.7956094676486 0.0351829621890474 56.0
vertex -27.9965758476908 0.0351829621890206 0.0
endloop
endfacet
facet normal 0.983484620713842 -0.129478206655768 -0.126464994447303
outer loop
vertex -20.7956094676486 0.0351829621890474 56.0
vertex -27.0102644860505 7.52696154379601 0.0
vertex -20.0546650853284 5.66321430149815 56.0
endloop
endfacet
facet normal 0.916461769097376 -0.379610894156572 -0.126464994447303
outer loop
vertex -27.0102644860505 7.52696154379601 0.0
vertex -17.8823260735545 10.9077046057949 56.0
vertex -20.0546650853284 5.66321430149815 56.0
endloop
endfacet
facet normal 0.916461769097376 -0.379610894156572 -0.126464994447303
outer loop
vertex -17.8823260735545 10.9077046057949 56.0
vertex -27.0102644860505 7.52696154379601 0.0
vertex -24.1185458904688 14.508187795816 0.0
endloop
endfacet
facet normal 0.786983562441606 -0.603873726557267 -0.126464994447303
outer loop
vertex -24.1185458904688 14.508187795816 0.0
vertex -14.4266337460193 15.4112505277715 56.0
vertex -17.8823260735545 10.9077046057949 56.0
endloop
endfacet
facet normal 0.786983562441606 -0.603873726557267 -0.126464994447303
outer loop
vertex -14.4266337460193 15.4112505277715 56.0
vertex -24.1185458904688 14.508187795816 0.0
vertex -19.5184859044435 20.5031026861957 0.0
endloop
endfacet
facet normal 0.60387372655727 -0.786983562441605 -0.126464994447303
outer loop
vertex -9.92308782404279 18.8669428553067 56.0
vertex -19.5184859044435 20.5031026861957 0.0
vertex -13.5235710140639 25.1031626722209 0.0
endloop
endfacet
facet normal 0.60387372655727 -0.786983562441605 -0.126464994447303
outer loop
vertex -19.5184859044435 20.5031026861957 0.0
vertex -9.92308782404279 18.8669428553067 56.0
vertex -14.4266337460193 15.4112505277715 56.0
endloop
endfacet
facet normal 0.379610894156573 -0.916461769097375 -0.126464994447303
outer loop
vertex -4.67859751974603 21.0392818670806 56.0
vertex -13.5235710140639 25.1031626722209 0.0
vertex -6.54234476204392 27.9948812678027 0.0
endloop
endfacet
facet normal 0.379610894156573 -0.916461769097375 -0.126464994447303
outer loop
vertex -13.5235710140639 25.1031626722209 0.0
vertex -4.67859751974603 21.0392818670806 56.0
vertex -9.92308782404279 18.8669428553067 56.0
endloop
endfacet
facet normal 0.12947820665577 -0.983484620713842 -0.126464994447303
outer loop
vertex 0.949433819563068 21.7802262494008 56.0
vertex -2.75056618043693 26.4880948967864 15.6
vertex 0.949433819563068 26.9752091378598 15.6
endloop
endfacet
facet normal 0.12947820665577 -0.983484620713842 -0.126464994447303
outer loop
vertex 0.949433819563068 27.6310114331851 10.5
vertex -6.54234476204392 27.9948812678027 0.0
vertex 0.949433819563068 28.981192629443 0.0
endloop
endfacet
facet normal 0.12947820665577 -0.983484620713842 -0.126464994447303
outer loop
vertex -6.54234476204392 27.9948812678027 0.0
vertex 0.949433819563068 27.6310114331851 10.5
vertex -2.75056618043693 27.1438971921117 10.5
endloop
endfacet
facet normal 0.12947820665577 -0.983484620713842 -0.126464994447303
outer loop
vertex -6.54234476204392 27.9948812678027 0.0
vertex -2.75056618043693 27.1438971921117 10.5
vertex -4.67859751974603 21.0392818670806 56.0
endloop
endfacet
facet normal 0.12947820665577 -0.983484620713842 -0.126464994447303
outer loop
vertex -4.67859751974603 21.0392818670806 56.0
vertex -2.75056618043693 27.1438971921117 10.5
vertex -2.75056618043693 26.4880948967864 15.6
endloop
endfacet
facet normal 0.12947820665577 -0.983484620713842 -0.126464994447303
outer loop
vertex -4.67859751974603 21.0392818670806 56.0
vertex -2.75056618043693 26.4880948967864 15.6
vertex 0.949433819563068 21.7802262494008 56.0
endloop
endfacet
facet normal -0.12947820665577 -0.983484620713842 -0.126464994447303
outer loop
vertex 8.44121240117005 27.9948812678027 0.0
vertex 4.64169986480013 27.1449153865725 10.5
vertex 0.949433819563068 28.981192629443 0.0
endloop
endfacet
facet normal -0.12947820665577 -0.983484620713842 -0.126464994447303
outer loop
vertex 4.64169986480013 27.1449153865725 10.5
vertex 8.44121240117005 27.9948812678027 0.0
vertex 6.57746515887215 21.0392818670806 56.0
endloop
endfacet
facet normal -0.12947820665577 -0.983484620713842 -0.126464994447303
outer loop
vertex 4.64169986480013 27.1449153865725 10.5
vertex 6.57746515887215 21.0392818670806 56.0
vertex 4.64169986480013 26.4891130912472 15.6
endloop
endfacet
facet normal -0.12947820665577 -0.983484620713842 -0.126464994447303
outer loop
vertex 4.64169986480013 26.4891130912472 15.6
vertex 6.57746515887215 21.0392818670806 56.0
vertex 0.949433819563068 26.9752091378598 15.6
endloop
endfacet
facet normal -0.12947820665577 -0.983484620713842 -0.126464994447303
outer loop
vertex 0.949433819563068 26.9752091378598 15.6
vertex 6.57746515887215 21.0392818670806 56.0
vertex 0.949433819563068 21.7802262494008 56.0
endloop
endfacet
facet normal -0.12947820665577 -0.983484620713842 -0.126464994447303
outer loop
vertex 0.949433819563068 27.6310114331851 10.5
vertex 0.949433819563068 28.981192629443 0.0
vertex 4.64169986480013 27.1449153865725 10.5
endloop
endfacet
facet normal -0.379610894156571 -0.916461769097376 -0.126464994447303
outer loop
vertex 11.8219554631689 18.8669428553067 56.0
vertex 8.44121240117005 27.9948812678027 0.0
vertex 15.42243865319 25.1031626722209 0.0
endloop
endfacet
facet normal -0.379610894156571 -0.916461769097376 -0.126464994447303
outer loop
vertex 8.44121240117005 27.9948812678027 0.0
vertex 11.8219554631689 18.8669428553067 56.0
vertex 6.57746515887215 21.0392818670806 56.0
endloop
endfacet
facet normal -0.603873726557269 -0.786983562441605 -0.126464994447303
outer loop
vertex 16.3255013851455 15.4112505277715 56.0
vertex 15.42243865319 25.1031626722209 0.0
vertex 21.4173535435697 20.5031026861957 0.0
endloop
endfacet
facet normal -0.603873726557269 -0.786983562441605 -0.126464994447303
outer loop
vertex 15.42243865319 25.1031626722209 0.0
vertex 16.3255013851455 15.4112505277715 56.0
vertex 11.8219554631689 18.8669428553067 56.0
endloop
endfacet
facet normal -0.786983562441606 -0.603873726557269 -0.126464994447303
outer loop
vertex 16.3255013851455 15.4112505277715 56.0
vertex 26.0174135295949 14.508187795816 0.0
vertex 19.7811937126807 10.9077046057949 56.0
endloop
endfacet
facet normal -0.786983562441606 -0.603873726557269 -0.126464994447303
outer loop
vertex 26.0174135295949 14.508187795816 0.0
vertex 16.3255013851455 15.4112505277715 56.0
vertex 21.4173535435697 20.5031026861957 0.0
endloop
endfacet
facet normal -0.916461769097375 -0.379610894156573 -0.126464994447303
outer loop
vertex 19.7811937126807 10.9077046057949 56.0
vertex 28.9091321251767 7.52696154379606 0.0
vertex 21.9535327244546 5.66321430149818 56.0
endloop
endfacet
facet normal -0.916461769097375 -0.379610894156573 -0.126464994447303
outer loop
vertex 28.9091321251767 7.52696154379606 0.0
vertex 19.7811937126807 10.9077046057949 56.0
vertex 26.0174135295949 14.508187795816 0.0
endloop
endfacet
facet normal -0.379610894156572 0.916461769097376 -0.126464994447303
outer loop
vertex 6.57746515887217 -20.9689159427024 56.0
vertex 15.42243865319 -25.0327967478428 0.0
vertex 8.44121240117005 -27.9245153434245 0.0
endloop
endfacet
facet normal -0.379610894156572 0.916461769097376 -0.126464994447303
outer loop
vertex 15.42243865319 -25.0327967478428 0.0
vertex 6.57746515887217 -20.9689159427024 56.0
vertex 11.8219554631689 -18.7965769309285 56.0
endloop
endfacet
facet normal -0.129478206655771 0.983484620713842 -0.126464994447303
outer loop
vertex 0.949433819563068 -21.7098603250226 56.0
vertex 4.64169986480013 -26.4187471668691 15.6
vertex 0.949433819563068 -26.9048432134817 15.6
endloop
endfacet
facet normal -0.129478206655771 0.983484620713842 -0.126464994447303
outer loop
vertex 0.949433819563068 -27.5606455088069 10.5
vertex 8.44121240117005 -27.9245153434245 0.0
vertex 0.949433819563068 -28.9108267050649 0.0
endloop
endfacet
facet normal -0.129478206655771 0.983484620713842 -0.126464994447303
outer loop
vertex 8.44121240117005 -27.9245153434245 0.0
vertex 0.949433819563068 -27.5606455088069 10.5
vertex 4.64169986480013 -27.0745494621943 10.5
endloop
endfacet
facet normal -0.129478206655771 0.983484620713842 -0.126464994447303
outer loop
vertex 8.44121240117005 -27.9245153434245 0.0
vertex 4.64169986480013 -27.0745494621943 10.5
vertex 6.57746515887217 -20.9689159427024 56.0
endloop
endfacet
facet normal -0.129478206655771 0.983484620713842 -0.126464994447303
outer loop
vertex 6.57746515887217 -20.9689159427024 56.0
vertex 4.64169986480013 -27.0745494621943 10.5
vertex 4.64169986480013 -26.4187471668691 15.6
endloop
endfacet
facet normal -0.129478206655771 0.983484620713842 -0.126464994447303
outer loop
vertex 6.57746515887217 -20.9689159427024 56.0
vertex 4.64169986480013 -26.4187471668691 15.6
vertex 0.949433819563068 -21.7098603250226 56.0
endloop
endfacet
facet normal 0.12947820665577 0.983484620713842 -0.126464994447303
outer loop
vertex -6.54234476204391 -27.9245153434245 0.0
vertex -2.75056618043693 -27.0735312677336 10.5
vertex 0.949433819563068 -28.9108267050649 0.0
endloop
endfacet
facet normal 0.12947820665577 0.983484620713842 -0.126464994447303
outer loop
vertex -2.75056618043693 -27.0735312677336 10.5
vertex -6.54234476204391 -27.9245153434245 0.0
vertex -4.67859751974603 -20.9689159427024 56.0
endloop
endfacet
facet normal 0.12947820665577 0.983484620713842 -0.126464994447303
outer loop
vertex -2.75056618043693 -27.0735312677336 10.5
vertex -4.67859751974603 -20.9689159427024 56.0
vertex -2.75056618043693 -26.4177289724083 15.6
endloop
endfacet
facet normal 0.12947820665577 0.983484620713842 -0.126464994447303
outer loop
vertex -2.75056618043693 -26.4177289724083 15.6
vertex -4.67859751974603 -20.9689159427024 56.0
vertex 0.949433819563068 -26.9048432134817 15.6
endloop
endfacet
facet normal 0.12947820665577 0.983484620713842 -0.126464994447303
outer loop
vertex 0.949433819563068 -26.9048432134817 15.6
vertex -4.67859751974603 -20.9689159427024 56.0
vertex 0.949433819563068 -21.7098603250226 56.0
endloop
endfacet
facet normal 0.12947820665577 0.983484620713842 -0.126464994447303
outer loop
vertex 0.949433819563068 -27.5606455088069 10.5
vertex 0.949433819563068 -28.9108267050649 0.0
vertex -2.75056618043693 -27.0735312677336 10.5
endloop
endfacet
facet normal 0.379610894156572 0.916461769097376 -0.126464994447303
outer loop
vertex -9.92308782404275 -18.7965769309285 56.0
vertex -6.54234476204391 -27.9245153434245 0.0
vertex -13.5235710140639 -25.0327967478428 0.0
endloop
endfacet
facet normal 0.379610894156572 0.916461769097376 -0.126464994447303
outer loop
vertex -6.54234476204391 -27.9245153434245 0.0
vertex -9.92308782404275 -18.7965769309285 56.0
vertex -4.67859751974603 -20.9689159427024 56.0
endloop
endfacet
facet normal 0.603873726557269 0.786983562441605 -0.126464994447303
outer loop
vertex -14.4266337460193 -15.3408846033933 56.0
vertex -13.5235710140639 -25.0327967478428 0.0
vertex -19.5184859044435 -20.4327367618176 0.0
endloop
endfacet
facet normal 0.603873726557269 0.786983562441605 -0.126464994447303
outer loop
vertex -13.5235710140639 -25.0327967478428 0.0
vertex -14.4266337460193 -15.3408846033933 56.0
vertex -9.92308782404275 -18.7965769309285 56.0
endloop
endfacet
facet normal 0.786983562441606 0.603873726557269 -0.126464994447303
outer loop
vertex -24.1185458904687 -14.4378218714379 0.0
vertex -14.4266337460193 -15.3408846033933 56.0
vertex -19.5184859044435 -20.4327367618176 0.0
endloop
endfacet
facet normal 0.786983562441606 0.603873726557269 -0.126464994447303
outer loop
vertex -14.4266337460193 -15.3408846033933 56.0
vertex -24.1185458904687 -14.4378218714379 0.0
vertex -17.8823260735545 -10.8373386814168 56.0
endloop
endfacet
facet normal 0.916461769097375 0.379610894156574 -0.126464994447303
outer loop
vertex -27.0102644860505 -7.45659561941797 0.0
vertex -17.8823260735545 -10.8373386814168 56.0
vertex -24.1185458904687 -14.4378218714379 0.0
endloop
endfacet
facet normal 0.916461769097375 0.379610894156574 -0.126464994447303
outer loop
vertex -17.8823260735545 -10.8373386814168 56.0
vertex -27.0102644860505 -7.45659561941797 0.0
vertex -20.0546650853284 -5.59284837712007 56.0
endloop
endfacet
facet normal 0.983484620713842 0.129478206655772 -0.126464994447303
outer loop
vertex -27.9965758476908 0.0351829621890206 0.0
vertex -20.0546650853284 -5.59284837712007 56.0
vertex -27.0102644860505 -7.45659561941797 0.0
endloop
endfacet
facet normal 0.983484620713842 0.129478206655772 -0.126464994447303
outer loop
vertex -20.0546650853284 -5.59284837712007 56.0
vertex -27.9965758476908 0.0351829621890206 0.0
vertex -20.7956094676486 0.0351829621890474 56.0
endloop
endfacet
facet normal -0.983484620713842 -0.12947820665577 -0.126464994447303
outer loop
vertex 22.6944771067748 0.0351829621890644 56.0
vertex 28.9091321251767 7.52696154379606 0.0
vertex 29.895443486817 0.0351829621890601 0.0
endloop
endfacet
facet normal -0.983484620713842 -0.12947820665577 -0.126464994447303
outer loop
vertex 28.9091321251767 7.52696154379606 0.0
vertex 22.6944771067748 0.0351829621890644 56.0
vertex 21.9535327244546 5.66321430149818 56.0
endloop
endfacet
facet normal -0.983484620713842 0.12947820665577 -0.126464994447303
outer loop
vertex 21.9535327244546 -5.59284837712004 56.0
vertex 29.895443486817 0.0351829621890601 0.0
vertex 28.9091321251767 -7.45659561941794 0.0
endloop
endfacet
facet normal -0.983484620713842 0.12947820665577 -0.126464994447303
outer loop
vertex 29.895443486817 0.0351829621890601 0.0
vertex 21.9535327244546 -5.59284837712004 56.0
vertex 22.6944771067748 0.0351829621890644 56.0
endloop
endfacet
facet normal -0.916461769097375 0.379610894156575 -0.126464994447303
outer loop
vertex 19.7811937126807 -10.8373386814168 56.0
vertex 28.9091321251767 -7.45659561941794 0.0
vertex 26.0174135295949 -14.4378218714379 0.0
endloop
endfacet
facet normal -0.916461769097375 0.379610894156575 -0.126464994447303
outer loop
vertex 28.9091321251767 -7.45659561941794 0.0
vertex 19.7811937126807 -10.8373386814168 56.0
vertex 21.9535327244546 -5.59284837712004 56.0
endloop
endfacet
facet normal -0.786983562441606 0.603873726557268 -0.126464994447303
outer loop
vertex 16.3255013851455 -15.3408846033933 56.0
vertex 26.0174135295949 -14.4378218714379 0.0
vertex 21.4173535435697 -20.4327367618176 0.0
endloop
endfacet
facet normal -0.786983562441606 0.603873726557268 -0.126464994447303
outer loop
vertex 26.0174135295949 -14.4378218714379 0.0
vertex 16.3255013851455 -15.3408846033933 56.0
vertex 19.7811937126807 -10.8373386814168 56.0
endloop
endfacet
facet normal -0.603873726557268 0.786983562441606 -0.126464994447303
outer loop
vertex 11.8219554631689 -18.7965769309285 56.0
vertex 21.4173535435697 -20.4327367618176 0.0
vertex 15.42243865319 -25.0327967478428 0.0
endloop
endfacet
facet normal -0.603873726557268 0.786983562441606 -0.126464994447303
outer loop
vertex 21.4173535435697 -20.4327367618176 0.0
vertex 11.8219554631689 -18.7965769309285 56.0
vertex 16.3255013851455 -15.3408846033933 56.0
endloop
endfacet
facet normal -0.603908258932705 0.787028565909458 0.126019249463605
outer loop
vertex -15.4729973059402 16.4576140876924 56.0
vertex -14.2505661804369 26.362355237236 4.51194637207664e-14
vertex -20.546612328508 21.5312291102601 4.51194637207664e-14
endloop
endfacet
facet normal -0.603908258932705 0.787028565909458 0.126019249463605
outer loop
vertex -14.2505661804369 26.362355237236 4.51194637207664e-14
vertex -15.4729973059402 16.4576140876924 56.0
vertex -10.6629785928493 20.1484712589308 56.0
endloop
endfacet
facet normal -0.787028565909458 0.603908258932705 0.126019249463605
outer loop
vertex -15.4729973059402 16.4576140876924 56.0
vertex -25.3777384554838 15.2351829621891 4.51194637207664e-14
vertex -19.1638544771787 11.6475953746015 56.0
endloop
endfacet
facet normal -0.787028565909458 0.603908258932705 0.126019249463605
outer loop
vertex -25.3777384554838 15.2351829621891 4.51194637207664e-14
vertex -15.4729973059402 16.4576140876924 56.0
vertex -20.546612328508 21.5312291102601 4.51194637207664e-14
endloop
endfacet
facet normal 0.983540861047979 0.129485610836225 0.126019249463605
outer loop
vertex 30.3135789387508 7.90328193330568 4.51194637207664e-14
vertex 24.1742586443879 0.0351829621890615 56.0
vertex 31.3494338195631 0.0351829621890601 4.51194637207664e-14
endloop
endfacet
facet normal 0.983540861047979 0.129485610836225 0.126019249463605
outer loop
vertex 24.1742586443879 0.0351829621890615 56.0
vertex 30.3135789387508 7.90328193330568 4.51194637207664e-14
vertex 23.3828919289008 6.04620994602354 56.0
endloop
endfacet
facet normal -0.916514176745683 0.379632602115273 0.126019249463605
outer loop
vertex -19.1638544771787 11.6475953746015 56.0
vertex -28.4147112996246 7.90328193330572 4.51194637207664e-14
vertex -21.4840242897747 6.04620994602355 56.0
endloop
endfacet
facet normal -0.916514176745683 0.379632602115273 0.126019249463605
outer loop
vertex -28.4147112996246 7.90328193330572 4.51194637207664e-14
vertex -19.1638544771787 11.6475953746015 56.0
vertex -25.3777384554838 15.2351829621891 4.51194637207664e-14
endloop
endfacet
facet normal -0.379632602115273 0.916514176745682 0.126019249463605
outer loop
vertex -10.6629785928493 20.1484712589308 56.0
vertex -6.91866515155354 29.3993280813768 4.51194637207664e-14
vertex -14.2505661804369 26.362355237236 4.51194637207664e-14
endloop
endfacet
facet normal -0.379632602115273 0.916514176745682 0.126019249463605
outer loop
vertex -6.91866515155354 29.3993280813768 4.51194637207664e-14
vertex -10.6629785928493 20.1484712589308 56.0
vertex -5.06159316427139 22.4686410715268 56.0
endloop
endfacet
facet normal 0.603908258932705 0.787028565909458 0.126019249463605
outer loop
vertex 12.5618462319755 20.1484712589308 56.0
vertex 22.4454799676341 21.5312291102601 4.51194637207664e-14
vertex 16.1494338195631 26.362355237236 4.51194637207664e-14
endloop
endfacet
facet normal 0.603908258932705 0.787028565909458 0.126019249463605
outer loop
vertex 22.4454799676341 21.5312291102601 4.51194637207664e-14
vertex 12.5618462319755 20.1484712589308 56.0
vertex 17.3718649450664 16.4576140876924 56.0
endloop
endfacet
facet normal -0.983540861047979 0.129485610836225 0.126019249463605
outer loop
vertex -21.4840242897747 6.04620994602355 56.0
vertex -29.4505661804369 0.0351829621890658 4.51194637207664e-14
vertex -22.2753910052617 0.0351829621890601 56.0
endloop
endfacet
facet normal -0.983540861047979 0.129485610836225 0.126019249463605
outer loop
vertex -29.4505661804369 0.0351829621890658 4.51194637207664e-14
vertex -21.4840242897747 6.04620994602355 56.0
vertex -28.4147112996246 7.90328193330572 4.51194637207664e-14
endloop
endfacet
facet normal -0.129485610836225 0.983540861047979 0.126019249463605
outer loop
vertex -6.91866515155354 29.3993280813768 4.51194637207664e-14
vertex -2.75056618043693 28.6027233757704 10.5
vertex 0.949433819563068 30.4351829621891 4.51194637207664e-14
endloop
endfacet
facet normal -0.129485610836225 0.983540861047979 0.126019249463605
outer loop
vertex -2.75056618043693 28.6027233757704 10.5
vertex -6.91866515155354 29.3993280813768 4.51194637207664e-14
vertex -5.06159316427139 22.4686410715268 56.0
endloop
endfacet
facet normal -0.129485610836225 0.983540861047979 0.126019249463605
outer loop
vertex -2.75056618043693 28.6027233757704 10.5
vertex -5.06159316427139 22.4686410715268 56.0
vertex -2.75056618043693 27.9492699223169 15.6
endloop
endfacet
facet normal -0.129485610836225 0.983540861047979 0.126019249463605
outer loop
vertex -2.75056618043693 27.9492699223169 15.6
vertex -5.06159316427139 22.4686410715268 56.0
vertex 0.949433819563068 28.4363841633903 15.6
endloop
endfacet
facet normal -0.129485610836225 0.983540861047979 0.126019249463605
outer loop
vertex 0.949433819563068 28.4363841633903 15.6
vertex -5.06159316427139 22.4686410715268 56.0
vertex 0.949433819563068 23.2600077870139 56.0
endloop
endfacet
facet normal -0.129485610836225 0.983540861047979 0.126019249463605
outer loop
vertex 0.949433819563068 29.0898376168437 10.5
vertex 0.949433819563068 30.4351829621891 4.51194637207664e-14
vertex -2.75056618043693 28.6027233757704 10.5
endloop
endfacet
facet normal 0.379632602115273 0.916514176745683 0.126019249463605
outer loop
vertex 6.96046080339755 22.4686410715268 56.0
vertex 16.1494338195631 26.362355237236 4.51194637207664e-14
vertex 8.81753279067972 29.3993280813767 4.51194637207664e-14
endloop
endfacet
facet normal 0.379632602115273 0.916514176745683 0.126019249463605
outer loop
vertex 16.1494338195631 26.362355237236 4.51194637207664e-14
vertex 6.96046080339755 22.4686410715268 56.0
vertex 12.5618462319755 20.1484712589308 56.0
endloop
endfacet
facet normal 0.129485610836225 0.983540861047979 0.126019249463605
outer loop
vertex 0.949433819563068 23.2600077870139 56.0
vertex 4.64169986480013 27.9502881167777 15.6
vertex 0.949433819563068 28.4363841633903 15.6
endloop
endfacet
facet normal 0.129485610836225 0.983540861047979 0.126019249463605
outer loop
vertex 0.949433819563068 29.0898376168437 10.5
vertex 8.81753279067972 29.3993280813767 4.51194637207664e-14
vertex 0.949433819563068 30.4351829621891 4.51194637207664e-14
endloop
endfacet
facet normal 0.129485610836225 0.983540861047979 0.126019249463605
outer loop
vertex 8.81753279067972 29.3993280813767 4.51194637207664e-14
vertex 0.949433819563068 29.0898376168437 10.5
vertex 4.64169986480013 28.6037415702311 10.5
endloop
endfacet
facet normal 0.129485610836225 0.983540861047979 0.126019249463605
outer loop
vertex 8.81753279067972 29.3993280813767 4.51194637207664e-14
vertex 4.64169986480013 28.6037415702311 10.5
vertex 6.96046080339755 22.4686410715268 56.0
endloop
endfacet
facet normal 0.129485610836225 0.983540861047979 0.126019249463605
outer loop
vertex 6.96046080339755 22.4686410715268 56.0
vertex 4.64169986480013 28.6037415702311 10.5
vertex 4.64169986480013 27.9502881167777 15.6
endloop
endfacet
facet normal 0.129485610836225 0.983540861047979 0.126019249463605
outer loop
vertex 6.96046080339755 22.4686410715268 56.0
vertex 4.64169986480013 27.9502881167777 15.6
vertex 0.949433819563068 23.2600077870139 56.0
endloop
endfacet
facet normal 0.787028565909459 0.603908258932704 0.126019249463605
outer loop
vertex 27.27660609461 15.2351829621891 4.51194637207664e-14
vertex 17.3718649450664 16.4576140876924 56.0
vertex 21.0627221163048 11.6475953746015 56.0
endloop
endfacet
facet normal 0.787028565909459 0.603908258932704 0.126019249463605
outer loop
vertex 17.3718649450664 16.4576140876924 56.0
vertex 27.27660609461 15.2351829621891 4.51194637207664e-14
vertex 22.4454799676341 21.5312291102601 4.51194637207664e-14
endloop
endfacet
facet normal 0.916514176745682 0.379632602115274 0.126019249463605
outer loop
vertex 30.3135789387508 7.90328193330568 4.51194637207664e-14
vertex 21.0627221163048 11.6475953746015 56.0
vertex 23.3828919289008 6.04620994602354 56.0
endloop
endfacet
facet normal 0.916514176745682 0.379632602115274 0.126019249463605
outer loop
vertex 21.0627221163048 11.6475953746015 56.0
vertex 30.3135789387508 7.90328193330568 4.51194637207664e-14
vertex 27.27660609461 15.2351829621891 4.51194637207664e-14
endloop
endfacet
facet normal 0.0 0.0 -1.0
outer loop
vertex -28.4147112996246 7.90328193330572 4.51194637207664e-14
vertex -27.0102644860505 7.52696154379601 0.0
vertex -27.9965758476908 0.0351829621890206 0.0
endloop
endfacet
facet normal 0.0 0.0 -1.0
outer loop
vertex -27.0102644860505 7.52696154379601 0.0
vertex -28.4147112996246 7.90328193330572 4.51194637207664e-14
vertex -25.3777384554838 15.2351829621891 4.51194637207664e-14
endloop
endfacet
facet normal 0.0 0.0 -1.0
outer loop
vertex -27.0102644860505 7.52696154379601 0.0
vertex -25.3777384554838 15.2351829621891 4.51194637207664e-14
vertex -24.1185458904688 14.508187795816 0.0
endloop
endfacet
facet normal 0.0 0.0 -1.0
outer loop
vertex -24.1185458904688 14.508187795816 0.0
vertex -25.3777384554838 15.2351829621891 4.51194637207664e-14
vertex -20.546612328508 21.5312291102601 4.51194637207664e-14
endloop
endfacet
facet normal 0.0 0.0 -1.0
outer loop
vertex -24.1185458904688 14.508187795816 0.0
vertex -20.546612328508 21.5312291102601 4.51194637207664e-14
vertex -19.5184859044435 20.5031026861957 0.0
endloop
endfacet
facet normal 0.0 0.0 -1.0
outer loop
vertex -19.5184859044435 20.5031026861957 0.0
vertex -20.546612328508 21.5312291102601 4.51194637207664e-14
vertex -14.2505661804369 26.362355237236 4.51194637207664e-14
endloop
endfacet
facet normal 0.0 0.0 -1.0
outer loop
vertex -19.5184859044435 20.5031026861957 0.0
vertex -14.2505661804369 26.362355237236 4.51194637207664e-14
vertex -13.5235710140639 25.1031626722209 0.0
endloop
endfacet
facet normal 0.0 0.0 -1.0
outer loop
vertex -13.5235710140639 25.1031626722209 0.0
vertex -14.2505661804369 26.362355237236 4.51194637207664e-14
vertex -6.91866515155354 29.3993280813768 4.51194637207664e-14
endloop
endfacet
facet normal 0.0 0.0 -1.0
outer loop
vertex -13.5235710140639 25.1031626722209 0.0
vertex -6.91866515155354 29.3993280813768 4.51194637207664e-14
vertex -6.54234476204392 27.9948812678027 0.0
endloop
endfacet
facet normal 0.0 0.0 -1.0
outer loop
vertex -6.54234476204392 27.9948812678027 0.0
vertex -6.91866515155354 29.3993280813768 4.51194637207664e-14
vertex 0.949433819563068 30.4351829621891 4.51194637207664e-14
endloop
endfacet
facet normal 0.0 0.0 -1.0
outer loop
vertex -6.54234476204392 27.9948812678027 0.0
vertex 0.949433819563068 30.4351829621891 4.51194637207664e-14
vertex 0.949433819563068 28.981192629443 0.0
endloop
endfacet
facet normal 0.0 0.0 -1.0
outer loop
vertex 0.949433819563068 28.981192629443 0.0
vertex 0.949433819563068 30.4351829621891 4.51194637207664e-14
vertex 8.81753279067972 29.3993280813767 4.51194637207664e-14
endloop
endfacet
facet normal 0.0 0.0 -1.0
outer loop
vertex 0.949433819563068 28.981192629443 0.0
vertex 8.81753279067972 29.3993280813767 4.51194637207664e-14
vertex 8.44121240117005 27.9948812678027 0.0
endloop
endfacet
facet normal 0.0 0.0 -1.0
outer loop
vertex 8.44121240117005 27.9948812678027 0.0
vertex 8.81753279067972 29.3993280813767 4.51194637207664e-14
vertex 15.42243865319 25.1031626722209 0.0
endloop
endfacet
facet normal 0.0 0.0 -1.0
outer loop
vertex 15.42243865319 25.1031626722209 0.0
vertex 8.81753279067972 29.3993280813767 4.51194637207664e-14
vertex 16.1494338195631 26.362355237236 4.51194637207664e-14
endloop
endfacet
facet normal 0.0 0.0 -1.0
outer loop
vertex 15.42243865319 25.1031626722209 0.0
vertex 16.1494338195631 26.362355237236 4.51194637207664e-14
vertex 21.4173535435697 20.5031026861957 0.0
endloop
endfacet
facet normal 0.0 0.0 -1.0
outer loop
vertex 21.4173535435697 20.5031026861957 0.0
vertex 16.1494338195631 26.362355237236 4.51194637207664e-14
vertex 22.4454799676341 21.5312291102601 4.51194637207664e-14
endloop
endfacet
facet normal 0.0 0.0 -1.0
outer loop
vertex 21.4173535435697 20.5031026861957 0.0
vertex 22.4454799676341 21.5312291102601 4.51194637207664e-14
vertex 26.0174135295949 14.508187795816 0.0
endloop
endfacet
facet normal 0.0 0.0 -1.0
outer loop
vertex 26.0174135295949 14.508187795816 0.0
vertex 22.4454799676341 21.5312291102601 4.51194637207664e-14
vertex 27.27660609461 15.2351829621891 4.51194637207664e-14
endloop
endfacet
facet normal 0.0 0.0 -1.0
outer loop
vertex 26.0174135295949 14.508187795816 0.0
vertex 27.27660609461 15.2351829621891 4.51194637207664e-14
vertex 28.9091321251767 7.52696154379606 0.0
endloop
endfacet
facet normal 0.0 0.0 -1.0
outer loop
vertex 28.9091321251767 7.52696154379606 0.0
vertex 27.27660609461 15.2351829621891 4.51194637207664e-14
vertex 30.3135789387508 7.90328193330568 4.51194637207664e-14
endloop
endfacet
facet normal 0.0 0.0 -1.0
outer loop
vertex 28.9091321251767 7.52696154379606 0.0
vertex 30.3135789387508 7.90328193330568 4.51194637207664e-14
vertex 29.895443486817 0.0351829621890601 0.0
endloop
endfacet
facet normal 0.0 0.0 -1.0
outer loop
vertex 29.895443486817 0.0351829621890601 0.0
vertex 30.3135789387508 7.90328193330568 4.51194637207664e-14
vertex 30.3135789387507 -7.83291600892757 4.51194637207664e-14
endloop
endfacet
facet normal 0.0 0.0 -1.0
outer loop
vertex 30.3135789387507 -7.83291600892757 4.51194637207664e-14
vertex 30.3135789387508 7.90328193330568 4.51194637207664e-14
vertex 31.3494338195631 0.0351829621890601 4.51194637207664e-14
endloop
endfacet
facet normal 0.0 0.0 -1.0
outer loop
vertex -28.4147112996246 7.90328193330572 4.51194637207664e-14
vertex -28.4147112996246 -7.83291600892756 4.51194637207664e-14
vertex -29.4505661804369 0.0351829621890658 4.51194637207664e-14
endloop
endfacet
facet normal 0.0 0.0 -1.0
outer loop
vertex -28.4147112996246 -7.83291600892756 4.51194637207664e-14
vertex -28.4147112996246 7.90328193330572 4.51194637207664e-14
vertex -27.9965758476908 0.0351829621890206 0.0
endloop
endfacet
facet normal 0.0 0.0 -1.0
outer loop
vertex -28.4147112996246 -7.83291600892756 4.51194637207664e-14
vertex -27.9965758476908 0.0351829621890206 0.0
vertex -27.0102644860505 -7.45659561941797 0.0
endloop
endfacet
facet normal 0.0 0.0 -1.0
outer loop
vertex -28.4147112996246 -7.83291600892756 4.51194637207664e-14
vertex -27.0102644860505 -7.45659561941797 0.0
vertex -25.3777384554838 -15.1648170378109 4.51194637207664e-14
endloop
endfacet
facet normal 0.0 0.0 -1.0
outer loop
vertex -25.3777384554838 -15.1648170378109 4.51194637207664e-14
vertex -27.0102644860505 -7.45659561941797 0.0
vertex -24.1185458904687 -14.4378218714379 0.0
endloop
endfacet
facet normal 0.0 0.0 -1.0
outer loop
vertex -25.3777384554838 -15.1648170378109 4.51194637207664e-14
vertex -24.1185458904687 -14.4378218714379 0.0
vertex -20.546612328508 -21.460863185882 4.51194637207664e-14
endloop
endfacet
facet normal 0.0 0.0 -1.0
outer loop
vertex -20.546612328508 -21.460863185882 4.51194637207664e-14
vertex -24.1185458904687 -14.4378218714379 0.0
vertex -19.5184859044435 -20.4327367618176 0.0
endloop
endfacet
facet normal 0.0 0.0 -1.0
outer loop
vertex -20.546612328508 -21.460863185882 4.51194637207664e-14
vertex -19.5184859044435 -20.4327367618176 0.0
vertex -14.2505661804369 -26.2919893128579 4.51194637207664e-14
endloop
endfacet
facet normal 0.0 0.0 -1.0
outer loop
vertex -14.2505661804369 -26.2919893128579 4.51194637207664e-14
vertex -19.5184859044435 -20.4327367618176 0.0
vertex -13.5235710140639 -25.0327967478428 0.0
endloop
endfacet
facet normal 0.0 0.0 -1.0
outer loop
vertex -14.2505661804369 -26.2919893128579 4.51194637207664e-14
vertex -13.5235710140639 -25.0327967478428 0.0
vertex -6.91866515155356 -29.3289621569986 4.51194637207664e-14
endloop
endfacet
facet normal 0.0 0.0 -1.0
outer loop
vertex -6.91866515155356 -29.3289621569986 4.51194637207664e-14
vertex -13.5235710140639 -25.0327967478428 0.0
vertex -6.54234476204391 -27.9245153434245 0.0
endloop
endfacet
facet normal 0.0 0.0 -1.0
outer loop
vertex -6.91866515155356 -29.3289621569986 4.51194637207664e-14
vertex -6.54234476204391 -27.9245153434245 0.0
vertex 0.949433819563068 -30.3648170378109 4.51194637207664e-14
endloop
endfacet
facet normal 0.0 0.0 -1.0
outer loop
vertex 0.949433819563068 -30.3648170378109 4.51194637207664e-14
vertex -6.54234476204391 -27.9245153434245 0.0
vertex 0.949433819563068 -28.9108267050649 0.0
endloop
endfacet
facet normal 0.0 0.0 -1.0
outer loop
vertex 0.949433819563068 -30.3648170378109 4.51194637207664e-14
vertex 0.949433819563068 -28.9108267050649 0.0
vertex 8.44121240117005 -27.9245153434245 0.0
endloop
endfacet
facet normal 0.0 0.0 -1.0
outer loop
vertex 0.949433819563068 -30.3648170378109 4.51194637207664e-14
vertex 8.44121240117005 -27.9245153434245 0.0
vertex 8.8175327906797 -29.3289621569986 4.51194637207664e-14
endloop
endfacet
facet normal 0.0 0.0 -1.0
outer loop
vertex 8.8175327906797 -29.3289621569986 4.51194637207664e-14
vertex 8.44121240117005 -27.9245153434245 0.0
vertex 15.42243865319 -25.0327967478428 0.0
endloop
endfacet
facet normal 0.0 0.0 -1.0
outer loop
vertex 8.8175327906797 -29.3289621569986 4.51194637207664e-14
vertex 15.42243865319 -25.0327967478428 0.0
vertex 16.1494338195631 -26.2919893128579 4.51194637207664e-14
endloop
endfacet
facet normal 0.0 0.0 -1.0
outer loop
vertex 16.1494338195631 -26.2919893128579 4.51194637207664e-14
vertex 15.42243865319 -25.0327967478428 0.0
vertex 21.4173535435697 -20.4327367618176 0.0
endloop
endfacet
facet normal 0.0 0.0 -1.0
outer loop
vertex 16.1494338195631 -26.2919893128579 4.51194637207664e-14
vertex 21.4173535435697 -20.4327367618176 0.0
vertex 22.4454799676341 -21.460863185882 4.51194637207664e-14
endloop
endfacet
facet normal 0.0 0.0 -1.0
outer loop
vertex 22.4454799676341 -21.460863185882 4.51194637207664e-14
vertex 21.4173535435697 -20.4327367618176 0.0
vertex 26.0174135295949 -14.4378218714379 0.0
endloop
endfacet
facet normal 0.0 0.0 -1.0
outer loop
vertex 22.4454799676341 -21.460863185882 4.51194637207664e-14
vertex 26.0174135295949 -14.4378218714379 0.0
vertex 27.27660609461 -15.1648170378109 4.51194637207664e-14
endloop
endfacet
facet normal 0.0 0.0 -1.0
outer loop
vertex 27.27660609461 -15.1648170378109 4.51194637207664e-14
vertex 26.0174135295949 -14.4378218714379 0.0
vertex 28.9091321251767 -7.45659561941794 0.0
endloop
endfacet
facet normal 0.0 0.0 -1.0
outer loop
vertex 27.27660609461 -15.1648170378109 4.51194637207664e-14
vertex 28.9091321251767 -7.45659561941794 0.0
vertex 30.3135789387507 -7.83291600892757 4.51194637207664e-14
endloop
endfacet
facet normal 0.0 0.0 -1.0
outer loop
vertex 30.3135789387507 -7.83291600892757 4.51194637207664e-14
vertex 28.9091321251767 -7.45659561941794 0.0
vertex 29.895443486817 0.0351829621890601 0.0
endloop
endfacet
facet normal 0.0 0.0 -1.0
outer loop
vertex -21.4840242897747 6.04620994602355 67.3
vertex -21.4840242897747 -5.97584402164541 67.3
vertex -22.2753910052617 0.0351829621890601 67.3
endloop
endfacet
facet normal 0.0 0.0 -1.0
outer loop
vertex -21.4840242897747 -5.97584402164541 67.3
vertex -21.4840242897747 6.04620994602355 67.3
vertex -19.1638544771787 11.6475953746015 67.3
endloop
endfacet
facet normal 0.0 0.0 -1.0
outer loop
vertex -21.4840242897747 -5.97584402164541 67.3
vertex -19.1638544771787 11.6475953746015 67.3
vertex -19.1638544771787 -11.5772294502233 67.3
endloop
endfacet
facet normal 0.0 0.0 -1.0
outer loop
vertex -19.1638544771787 -11.5772294502233 67.3
vertex -19.1638544771787 11.6475953746015 67.3
vertex -15.4729973059402 16.4576140876924 67.3
endloop
endfacet
facet normal 0.0 0.0 -1.0
outer loop
vertex -19.1638544771787 -11.5772294502233 67.3
vertex -15.4729973059402 16.4576140876924 67.3
vertex -15.4729973059402 -16.3872481633142 67.3
endloop
endfacet
facet normal 0.0 0.0 -1.0
outer loop
vertex -15.4729973059402 -16.3872481633142 67.3
vertex -15.4729973059402 16.4576140876924 67.3
vertex -10.6629785928493 20.1484712589308 67.3
endloop
endfacet
facet normal 0.0 0.0 -1.0
outer loop
vertex -15.4729973059402 -16.3872481633142 67.3
vertex -10.6629785928493 20.1484712589308 67.3
vertex -11.2505661804369 0.0351829621890785 67.3
endloop
endfacet
facet normal 0.0 0.0 -1.0
outer loop
vertex -11.2505661804369 0.0351829621890785 67.3
vertex -10.6629785928493 20.1484712589308 67.3
vertex -10.8348612611636 3.19277531243983 67.3
endloop
endfacet
facet normal 0.0 0.0 -1.0
outer loop
vertex -10.8348612611636 3.19277531243983 67.3
vertex -10.6629785928493 20.1484712589308 67.3
vertex -9.61607610660708 6.13518296218908 67.3
endloop
endfacet
facet normal 0.0 0.0 -1.0
outer loop
vertex -9.61607610660708 6.13518296218908 67.3
vertex -10.6629785928493 20.1484712589308 67.3
vertex -5.06159316427139 22.4686410715268 67.3
endloop
endfacet
facet normal 0.0 0.0 -1.0
outer loop
vertex -9.61607610660708 6.13518296218908 67.3
vertex -5.06159316427139 22.4686410715268 67.3
vertex -7.67726891091282 8.66188569266495 67.3
endloop
endfacet
facet normal 0.0 0.0 -1.0
outer loop
vertex -7.67726891091282 8.66188569266495 67.3
vertex -5.06159316427139 22.4686410715268 67.3
vertex -5.15056618043693 10.6006928883592 67.3
endloop
endfacet
facet normal 0.0 0.0 -1.0
outer loop
vertex -5.15056618043693 10.6006928883592 67.3
vertex -5.06159316427139 22.4686410715268 67.3
vertex -2.20815853068769 11.8194780429157 67.3
endloop
endfacet
facet normal 0.0 0.0 -1.0
outer loop
vertex -2.20815853068769 11.8194780429157 67.3
vertex -5.06159316427139 22.4686410715268 67.3
vertex 0.949433819563068 23.2600077870139 67.3
endloop
endfacet
facet normal 0.0 0.0 -1.0
outer loop
vertex -2.20815853068769 11.8194780429157 67.3
vertex 0.949433819563068 23.2600077870139 67.3
vertex 0.949433819563068 12.2351829621891 67.3
endloop
endfacet
facet normal 0.0 0.0 -1.0
outer loop
vertex 0.949433819563068 12.2351829621891 67.3
vertex 0.949433819563068 23.2600077870139 67.3
vertex 6.96046080339755 22.4686410715268 67.3
endloop
endfacet
facet normal 0.0 0.0 -1.0
outer loop
vertex 0.949433819563068 12.2351829621891 67.3
vertex 6.96046080339755 22.4686410715268 67.3
vertex 4.10702616981382 11.8194780429157 67.3
endloop
endfacet
facet normal 0.0 0.0 -1.0
outer loop
vertex 4.10702616981382 11.8194780429157 67.3
vertex 6.96046080339755 22.4686410715268 67.3
vertex 7.04943381956308 10.6006928883592 67.3
endloop
endfacet
facet normal 0.0 0.0 -1.0
outer loop
vertex 7.04943381956308 10.6006928883592 67.3
vertex 6.96046080339755 22.4686410715268 67.3
vertex 12.5618462319755 20.1484712589308 67.3
endloop
endfacet
facet normal 0.0 0.0 -1.0
outer loop
vertex 7.04943381956308 10.6006928883592 67.3
vertex 12.5618462319755 20.1484712589308 67.3
vertex 9.57613655003895 8.66188569266493 67.3
endloop
endfacet
facet normal 0.0 0.0 -1.0
outer loop
vertex 9.57613655003895 8.66188569266493 67.3
vertex 12.5618462319755 20.1484712589308 67.3
vertex 11.5149437457332 6.13518296218905 67.3
endloop
endfacet
facet normal 0.0 0.0 -1.0
outer loop
vertex 11.5149437457332 6.13518296218905 67.3
vertex 12.5618462319755 20.1484712589308 67.3
vertex 12.7337289002897 3.1927753124398 67.3
endloop
endfacet
facet normal 0.0 0.0 -1.0
outer loop
vertex 12.7337289002897 3.1927753124398 67.3
vertex 12.5618462319755 20.1484712589308 67.3
vertex 17.3718649450664 16.4576140876924 67.3
endloop
endfacet
facet normal 0.0 0.0 -1.0
outer loop
vertex 12.7337289002897 3.1927753124398 67.3
vertex 17.3718649450664 16.4576140876924 67.3
vertex 13.1494338195631 0.0351829621890531 67.3
endloop
endfacet
facet normal 0.0 0.0 -1.0
outer loop
vertex 13.1494338195631 0.0351829621890531 67.3
vertex 17.3718649450664 16.4576140876924 67.3
vertex 17.3718649450664 -16.3872481633142 67.3
endloop
endfacet
facet normal 0.0 0.0 -1.0
outer loop
vertex 17.3718649450664 -16.3872481633142 67.3
vertex 17.3718649450664 16.4576140876924 67.3
vertex 21.0627221163048 -11.5772294502233 67.3
endloop
endfacet
facet normal 0.0 0.0 -1.0
outer loop
vertex 21.0627221163048 -11.5772294502233 67.3
vertex 17.3718649450664 16.4576140876924 67.3
vertex 21.0627221163048 11.6475953746015 67.3
endloop
endfacet
facet normal 0.0 0.0 -1.0
outer loop
vertex 21.0627221163048 -11.5772294502233 67.3
vertex 21.0627221163048 11.6475953746015 67.3
vertex 23.3828919289008 6.04620994602354 67.3
endloop
endfacet
facet normal 0.0 0.0 -1.0
outer loop
vertex 21.0627221163048 -11.5772294502233 67.3
vertex 23.3828919289008 6.04620994602354 67.3
vertex 23.3828919289008 -5.97584402164541 67.3
endloop
endfacet
facet normal 0.0 0.0 -1.0
outer loop
vertex 23.3828919289008 -5.97584402164541 67.3
vertex 23.3828919289008 6.04620994602354 67.3
vertex 24.1742586443879 0.0351829621890615 67.3
endloop
endfacet
facet normal 0.0 0.0 -1.0
outer loop
vertex -11.2505661804369 0.0351829621890785 67.3
vertex -10.6629785928493 -20.0781053345527 67.3
vertex -15.4729973059402 -16.3872481633142 67.3
endloop
endfacet
facet normal 0.0 0.0 -1.0
outer loop
vertex -10.6629785928493 -20.0781053345527 67.3
vertex -11.2505661804369 0.0351829621890785 67.3
vertex -10.8348612611636 -3.12240938806167 67.3
endloop
endfacet
facet normal 0.0 0.0 -1.0
outer loop
vertex -10.6629785928493 -20.0781053345527 67.3
vertex -10.8348612611636 -3.12240938806167 67.3
vertex -9.6160761066071 -6.06481703781092 67.3
endloop
endfacet
facet normal 0.0 0.0 -1.0
outer loop
vertex -10.6629785928493 -20.0781053345527 67.3
vertex -9.6160761066071 -6.06481703781092 67.3
vertex -5.06159316427141 -22.3982751471487 67.3
endloop
endfacet
facet normal 0.0 0.0 -1.0
outer loop
vertex -5.06159316427141 -22.3982751471487 67.3
vertex -9.6160761066071 -6.06481703781092 67.3
vertex -7.67726891091283 -8.5915197682868 67.3
endloop
endfacet
facet normal 0.0 0.0 -1.0
outer loop
vertex -5.06159316427141 -22.3982751471487 67.3
vertex -7.67726891091283 -8.5915197682868 67.3
vertex -5.15056618043695 -10.5303269639811 67.3
endloop
endfacet
facet normal 0.0 0.0 -1.0
outer loop
vertex -5.06159316427141 -22.3982751471487 67.3
vertex -5.15056618043695 -10.5303269639811 67.3
vertex -2.20815853068771 -11.7491121185376 67.3
endloop
endfacet
facet normal 0.0 0.0 -1.0
outer loop
vertex -5.06159316427141 -22.3982751471487 67.3
vertex -2.20815853068771 -11.7491121185376 67.3
vertex 0.949433819563045 -23.1896418626357 67.3
endloop
endfacet
facet normal 0.0 0.0 -1.0
outer loop
vertex 0.949433819563045 -23.1896418626357 67.3
vertex -2.20815853068771 -11.7491121185376 67.3
vertex 0.949433819563045 -12.1648170378109 67.3
endloop
endfacet
facet normal 0.0 0.0 -1.0
outer loop
vertex 0.949433819563045 -23.1896418626357 67.3
vertex 0.949433819563045 -12.1648170378109 67.3
vertex 4.1070261698138 -11.7491121185376 67.3
endloop
endfacet
facet normal 0.0 0.0 -1.0
outer loop
vertex 0.949433819563045 -23.1896418626357 67.3
vertex 4.1070261698138 -11.7491121185376 67.3
vertex 6.96046080339752 -22.3982751471487 67.3
endloop
endfacet
facet normal 0.0 0.0 -1.0
outer loop
vertex 6.96046080339752 -22.3982751471487 67.3
vertex 4.1070261698138 -11.7491121185376 67.3
vertex 7.04943381956306 -10.5303269639811 67.3
endloop
endfacet
facet normal 0.0 0.0 -1.0
outer loop
vertex 6.96046080339752 -22.3982751471487 67.3
vertex 7.04943381956306 -10.5303269639811 67.3
vertex 12.5618462319754 -20.0781053345527 67.3
endloop
endfacet
facet normal 0.0 0.0 -1.0
outer loop
vertex 12.5618462319754 -20.0781053345527 67.3
vertex 7.04943381956306 -10.5303269639811 67.3
vertex 9.57613655003893 -8.59151976828683 67.3
endloop
endfacet
facet normal 0.0 0.0 -1.0
outer loop
vertex 12.5618462319754 -20.0781053345527 67.3
vertex 9.57613655003893 -8.59151976828683 67.3
vertex 11.5149437457332 -6.06481703781095 67.3
endloop
endfacet
facet normal 0.0 0.0 -1.0
outer loop
vertex 12.5618462319754 -20.0781053345527 67.3
vertex 11.5149437457332 -6.06481703781095 67.3
vertex 12.7337289002897 -3.12240938806171 67.3
endloop
endfacet
facet normal 0.0 0.0 -1.0
outer loop
vertex 12.5618462319754 -20.0781053345527 67.3
vertex 12.7337289002897 -3.12240938806171 67.3
vertex 17.3718649450664 -16.3872481633142 67.3
endloop
endfacet
facet normal 0.0 0.0 -1.0
outer loop
vertex 17.3718649450664 -16.3872481633142 67.3
vertex 12.7337289002897 -3.12240938806171 67.3
vertex 13.1494338195631 0.0351829621890531 67.3
endloop
endfacet
facet normal 0.991444861373811 0.13052619222005 0.0
outer loop
vertex -22.2753910052617 0.0351829621890601 56.0
vertex -21.4840242897747 -5.97584402164541 67.3
vertex -21.4840242897747 -5.97584402164541 56.0
endloop
endfacet
facet normal 0.991444861373811 0.13052619222005 0.0
outer loop
vertex -21.4840242897747 -5.97584402164541 67.3
vertex -22.2753910052617 0.0351829621890601 56.0
vertex -22.2753910052617 0.0351829621890601 67.3
endloop
endfacet
facet normal 0.991444861373811 -0.13052619222005 -0.0
outer loop
vertex -21.4840242897747 6.04620994602355 56.0
vertex -22.2753910052617 0.0351829621890601 67.3
vertex -22.2753910052617 0.0351829621890601 56.0
endloop
endfacet
facet normal 0.991444861373811 -0.13052619222005 -0.0
outer loop
vertex -22.2753910052617 0.0351829621890601 67.3
vertex -21.4840242897747 6.04620994602355 56.0
vertex -21.4840242897747 6.04620994602355 67.3
endloop
endfacet
facet normal 0.923879532511287 -0.382683432365089 -0.0
outer loop
vertex -19.1638544771787 11.6475953746015 56.0
vertex -21.4840242897747 6.04620994602355 67.3
vertex -21.4840242897747 6.04620994602355 56.0
endloop
endfacet
facet normal 0.923879532511287 -0.382683432365089 -0.0
outer loop
vertex -21.4840242897747 6.04620994602355 67.3
vertex -19.1638544771787 11.6475953746015 56.0
vertex -19.1638544771787 11.6475953746015 67.3
endloop
endfacet
facet normal 0.793353340291234 -0.608761429008721 -0.0
outer loop
vertex -15.4729973059402 16.4576140876924 56.0
vertex -19.1638544771787 11.6475953746015 67.3
vertex -19.1638544771787 11.6475953746015 56.0
endloop
endfacet
facet normal 0.793353340291234 -0.608761429008721 -0.0
outer loop
vertex -19.1638544771787 11.6475953746015 67.3
vertex -15.4729973059402 16.4576140876924 56.0
vertex -15.4729973059402 16.4576140876924 67.3
endloop
endfacet
facet normal 0.60876142900872 -0.793353340291236 -0.0
outer loop
vertex -10.6629785928493 20.1484712589308 67.3
vertex -15.4729973059402 16.4576140876924 56.0
vertex -10.6629785928493 20.1484712589308 56.0
endloop
endfacet
facet normal 0.60876142900872 -0.793353340291236 -0.0
outer loop
vertex -15.4729973059402 16.4576140876924 56.0
vertex -10.6629785928493 20.1484712589308 67.3
vertex -15.4729973059402 16.4576140876924 67.3
endloop
endfacet
facet normal 0.38268343236509 -0.923879532511287 -0.0
outer loop
vertex -5.06159316427139 22.4686410715268 67.3
vertex -10.6629785928493 20.1484712589308 56.0
vertex -5.06159316427139 22.4686410715268 56.0
endloop
endfacet
facet normal 0.38268343236509 -0.923879532511287 -0.0
outer loop
vertex -10.6629785928493 20.1484712589308 56.0
vertex -5.06159316427139 22.4686410715268 67.3
vertex -10.6629785928493 20.1484712589308 67.3
endloop
endfacet
facet normal 0.130526192220052 -0.99144486137381 -0.0
outer loop
vertex 0.949433819563068 23.2600077870139 67.3
vertex -5.06159316427139 22.4686410715268 56.0
vertex 0.949433819563068 23.2600077870139 56.0
endloop
endfacet
facet normal 0.130526192220052 -0.99144486137381 -0.0
outer loop
vertex -5.06159316427139 22.4686410715268 56.0
vertex 0.949433819563068 23.2600077870139 67.3
vertex -5.06159316427139 22.4686410715268 67.3
endloop
endfacet
facet normal -0.130526192220053 -0.99144486137381 -0.0
outer loop
vertex 6.96046080339755 22.4686410715268 67.3
vertex 0.949433819563068 23.2600077870139 56.0
vertex 6.96046080339755 22.4686410715268 56.0
endloop
endfacet
facet normal -0.130526192220053 -0.99144486137381 -0.0
outer loop
vertex 0.949433819563068 23.2600077870139 56.0
vertex 6.96046080339755 22.4686410715268 67.3
vertex 0.949433819563068 23.2600077870139 67.3
endloop
endfacet
facet normal -0.382683432365089 -0.923879532511287 -0.0
outer loop
vertex 12.5618462319755 20.1484712589308 67.3
vertex 6.96046080339755 22.4686410715268 56.0
vertex 12.5618462319755 20.1484712589308 56.0
endloop
endfacet
facet normal -0.382683432365089 -0.923879532511287 -0.0
outer loop
vertex 6.96046080339755 22.4686410715268 56.0
vertex 12.5618462319755 20.1484712589308 67.3
vertex 6.96046080339755 22.4686410715268 67.3
endloop
endfacet
facet normal -0.608761429008719 -0.793353340291236 -0.0
outer loop
vertex 17.3718649450664 16.4576140876924 67.3
vertex 12.5618462319755 20.1484712589308 56.0
vertex 17.3718649450664 16.4576140876924 56.0
endloop
endfacet
facet normal -0.608761429008719 -0.793353340291236 -0.0
outer loop
vertex 12.5618462319755 20.1484712589308 56.0
vertex 17.3718649450664 16.4576140876924 67.3
vertex 12.5618462319755 20.1484712589308 67.3
endloop
endfacet
facet normal -0.793353340291236 -0.608761429008719 -0.0
outer loop
vertex 17.3718649450664 16.4576140876924 67.3
vertex 21.0627221163048 11.6475953746015 56.0
vertex 21.0627221163048 11.6475953746015 67.3
endloop
endfacet
facet normal -0.793353340291236 -0.608761429008719 -0.0
outer loop
vertex 21.0627221163048 11.6475953746015 56.0
vertex 17.3718649450664 16.4576140876924 67.3
vertex 17.3718649450664 16.4576140876924 56.0
endloop
endfacet
facet normal -0.923879532511287 -0.382683432365088 -0.0
outer loop
vertex 21.0627221163048 11.6475953746015 67.3
vertex 23.3828919289008 6.04620994602354 56.0
vertex 23.3828919289008 6.04620994602354 67.3
endloop
endfacet
facet normal -0.923879532511287 -0.382683432365088 -0.0
outer loop
vertex 23.3828919289008 6.04620994602354 56.0
vertex 21.0627221163048 11.6475953746015 67.3
vertex 21.0627221163048 11.6475953746015 56.0
endloop
endfacet
facet normal -0.99144486137381 -0.130526192220053 -0.0
outer loop
vertex 23.3828919289008 6.04620994602354 67.3
vertex 24.1742586443879 0.0351829621890615 56.0
vertex 24.1742586443879 0.0351829621890615 67.3
endloop
endfacet
facet normal -0.99144486137381 -0.130526192220053 -0.0
outer loop
vertex 24.1742586443879 0.0351829621890615 56.0
vertex 23.3828919289008 6.04620994602354 67.3
vertex 23.3828919289008 6.04620994602354 56.0
endloop
endfacet
facet normal -0.99144486137381 0.130526192220053 -0.0
outer loop
vertex 24.1742586443879 0.0351829621890615 67.3
vertex 23.3828919289008 -5.97584402164541 56.0
vertex 23.3828919289008 -5.97584402164541 67.3
endloop
endfacet
facet normal -0.99144486137381 0.130526192220053 -0.0
outer loop
vertex 23.3828919289008 -5.97584402164541 56.0
vertex 24.1742586443879 0.0351829621890615 67.3
vertex 24.1742586443879 0.0351829621890615 56.0
endloop
endfacet
facet normal -0.923879532511287 0.382683432365089 -0.0
outer loop
vertex 23.3828919289008 -5.97584402164541 67.3
vertex 21.0627221163048 -11.5772294502233 56.0
vertex 21.0627221163048 -11.5772294502233 67.3
endloop
endfacet
facet normal -0.923879532511287 0.382683432365089 -0.0
outer loop
vertex 21.0627221163048 -11.5772294502233 56.0
vertex 23.3828919289008 -5.97584402164541 67.3
vertex 23.3828919289008 -5.97584402164541 56.0
endloop
endfacet
facet normal -0.793353340291234 0.608761429008722 -0.0
outer loop
vertex 21.0627221163048 -11.5772294502233 67.3
vertex 17.3718649450664 -16.3872481633142 56.0
vertex 17.3718649450664 -16.3872481633142 67.3
endloop
endfacet
facet normal -0.793353340291234 0.608761429008722 -0.0
outer loop
vertex 17.3718649450664 -16.3872481633142 56.0
vertex 21.0627221163048 -11.5772294502233 67.3
vertex 21.0627221163048 -11.5772294502233 56.0
endloop
endfacet
facet normal -0.608761429008719 0.793353340291236 -0.0
outer loop
vertex 12.5618462319754 -20.0781053345527 67.3
vertex 17.3718649450664 -16.3872481633142 56.0
vertex 12.5618462319754 -20.0781053345527 56.0
endloop
endfacet
facet normal -0.608761429008719 0.793353340291236 -0.0
outer loop
vertex 17.3718649450664 -16.3872481633142 56.0
vertex 12.5618462319754 -20.0781053345527 67.3
vertex 17.3718649450664 -16.3872481633142 67.3
endloop
endfacet
facet normal -0.38268343236509 0.923879532511287 -0.0
outer loop
vertex 6.96046080339752 -22.3982751471487 67.3
vertex 12.5618462319754 -20.0781053345527 56.0
vertex 6.96046080339752 -22.3982751471487 56.0
endloop
endfacet
facet normal -0.38268343236509 0.923879532511287 -0.0
outer loop
vertex 12.5618462319754 -20.0781053345527 56.0
vertex 6.96046080339752 -22.3982751471487 67.3
vertex 12.5618462319754 -20.0781053345527 67.3
endloop
endfacet
facet normal -0.13052619222005 0.991444861373811 -0.0
outer loop
vertex 0.949433819563045 -23.1896418626357 67.3
vertex 6.96046080339752 -22.3982751471487 56.0
vertex 0.949433819563045 -23.1896418626357 56.0
endloop
endfacet
facet normal -0.13052619222005 0.991444861373811 -0.0
outer loop
vertex 6.96046080339752 -22.3982751471487 56.0
vertex 0.949433819563045 -23.1896418626357 67.3
vertex 6.96046080339752 -22.3982751471487 67.3
endloop
endfacet
facet normal 0.130526192220051 0.99144486137381 0.0
outer loop
vertex -5.06159316427141 -22.3982751471487 67.3
vertex 0.949433819563045 -23.1896418626357 56.0
vertex -5.06159316427141 -22.3982751471487 56.0
endloop
endfacet
facet normal 0.130526192220051 0.99144486137381 0.0
outer loop
vertex 0.949433819563045 -23.1896418626357 56.0
vertex -5.06159316427141 -22.3982751471487 67.3
vertex 0.949433819563045 -23.1896418626357 67.3
endloop
endfacet
facet normal 0.382683432365093 0.923879532511286 0.0
outer loop
vertex -10.6629785928493 -20.0781053345527 67.3
vertex -5.06159316427141 -22.3982751471487 56.0
vertex -10.6629785928493 -20.0781053345527 56.0
endloop
endfacet
facet normal 0.382683432365093 0.923879532511286 0.0
outer loop
vertex -5.06159316427141 -22.3982751471487 56.0
vertex -10.6629785928493 -20.0781053345527 67.3
vertex -5.06159316427141 -22.3982751471487 67.3
endloop
endfacet
facet normal 0.608761429008721 0.793353340291234 0.0
outer loop
vertex -15.4729973059402 -16.3872481633142 67.3
vertex -10.6629785928493 -20.0781053345527 56.0
vertex -15.4729973059402 -16.3872481633142 56.0
endloop
endfacet
facet normal 0.608761429008721 0.793353340291234 0.0
outer loop
vertex -10.6629785928493 -20.0781053345527 56.0
vertex -15.4729973059402 -16.3872481633142 67.3
vertex -10.6629785928493 -20.0781053345527 67.3
endloop
endfacet
facet normal 0.793353340291234 0.608761429008722 0.0
outer loop
vertex -19.1638544771787 -11.5772294502233 56.0
vertex -15.4729973059402 -16.3872481633142 67.3
vertex -15.4729973059402 -16.3872481633142 56.0
endloop
endfacet
facet normal 0.793353340291234 0.608761429008722 0.0
outer loop
vertex -15.4729973059402 -16.3872481633142 67.3
vertex -19.1638544771787 -11.5772294502233 56.0
vertex -19.1638544771787 -11.5772294502233 67.3
endloop
endfacet
facet normal 0.923879532511287 0.38268343236509 0.0
outer loop
vertex -21.4840242897747 -5.97584402164541 56.0
vertex -19.1638544771787 -11.5772294502233 67.3
vertex -19.1638544771787 -11.5772294502233 56.0
endloop
endfacet
facet normal 0.923879532511287 0.38268343236509 0.0
outer loop
vertex -19.1638544771787 -11.5772294502233 67.3
vertex -21.4840242897747 -5.97584402164541 56.0
vertex -21.4840242897747 -5.97584402164541 67.3
endloop
endfacet
facet normal -0.382683432365091 -0.923879532511286 0.0
outer loop
vertex -2.20815853068771 -11.7491121185376 67.3
vertex -5.15056618043695 -10.5303269639811 56.0
vertex -2.20815853068771 -11.7491121185376 56.0
endloop
endfacet
facet normal -0.382683432365091 -0.923879532511286 0.0
outer loop
vertex -5.15056618043695 -10.5303269639811 56.0
vertex -2.20815853068771 -11.7491121185376 67.3
vertex -5.15056618043695 -10.5303269639811 67.3
endloop
endfacet
facet normal -0.130526192220053 -0.99144486137381 0.0
outer loop
vertex 0.949433819563045 -12.1648170378109 67.3
vertex -2.20815853068771 -11.7491121185376 56.0
vertex 0.949433819563045 -12.1648170378109 56.0
endloop
endfacet
facet normal -0.130526192220053 -0.99144486137381 0.0
outer loop
vertex -2.20815853068771 -11.7491121185376 56.0
vertex 0.949433819563045 -12.1648170378109 67.3
vertex -2.20815853068771 -11.7491121185376 67.3
endloop
endfacet
facet normal -0.923879532511286 0.382683432365093 0.0
outer loop
vertex -9.61607610660708 6.13518296218908 67.3
vertex -10.8348612611636 3.19277531243983 56.0
vertex -10.8348612611636 3.19277531243983 67.3
endloop
endfacet
facet normal -0.923879532511286 0.382683432365093 0.0
outer loop
vertex -10.8348612611636 3.19277531243983 56.0
vertex -9.61607610660708 6.13518296218908 67.3
vertex -9.61607610660708 6.13518296218908 56.0
endloop
endfacet
facet normal 0.382683432365088 -0.923879532511288 0.0
outer loop
vertex 7.04943381956306 -10.5303269639811 67.3
vertex 4.1070261698138 -11.7491121185376 56.0
vertex 7.04943381956306 -10.5303269639811 56.0
endloop
endfacet
facet normal 0.382683432365088 -0.923879532511288 0.0
outer loop
vertex 4.1070261698138 -11.7491121185376 56.0
vertex 7.04943381956306 -10.5303269639811 67.3
vertex 4.1070261698138 -11.7491121185376 67.3
endloop
endfacet
facet normal 0.130526192220053 0.99144486137381 -0.0
outer loop
vertex 0.949433819563068 12.2351829621891 67.3
vertex 4.10702616981382 11.8194780429157 56.0
vertex 0.949433819563068 12.2351829621891 56.0
endloop
endfacet
facet normal 0.130526192220053 0.99144486137381 -0.0
outer loop
vertex 4.10702616981382 11.8194780429157 56.0
vertex 0.949433819563068 12.2351829621891 67.3
vertex 4.10702616981382 11.8194780429157 67.3
endloop
endfacet
facet normal 0.923879532511287 0.382683432365089 -0.0
outer loop
vertex 11.5149437457332 6.13518296218905 56.0
vertex 12.7337289002897 3.1927753124398 67.3
vertex 12.7337289002897 3.1927753124398 56.0
endloop
endfacet
facet normal 0.923879532511287 0.382683432365089 -0.0
outer loop
vertex 12.7337289002897 3.1927753124398 67.3
vertex 11.5149437457332 6.13518296218905 56.0
vertex 11.5149437457332 6.13518296218905 67.3
endloop
endfacet
facet normal -0.99144486137381 -0.130526192220053 0.0
outer loop
vertex -11.2505661804369 0.0351829621890785 67.3
vertex -10.8348612611636 -3.12240938806167 56.0
vertex -10.8348612611636 -3.12240938806167 67.3
endloop
endfacet
facet normal -0.99144486137381 -0.130526192220053 0.0
outer loop
vertex -10.8348612611636 -3.12240938806167 56.0
vertex -11.2505661804369 0.0351829621890785 67.3
vertex -11.2505661804369 0.0351829621890785 56.0
endloop
endfacet
facet normal 0.991444861373811 0.13052619222005 -0.0
outer loop
vertex 12.7337289002897 3.1927753124398 56.0
vertex 13.1494338195631 0.0351829621890531 67.3
vertex 13.1494338195631 0.0351829621890531 56.0
endloop
endfacet
facet normal 0.991444861373811 0.13052619222005 -0.0
outer loop
vertex 13.1494338195631 0.0351829621890531 67.3
vertex 12.7337289002897 3.1927753124398 56.0
vertex 12.7337289002897 3.1927753124398 67.3
endloop
endfacet
facet normal 0.38268343236509 0.923879532511287 -0.0
outer loop
vertex 4.10702616981382 11.8194780429157 67.3
vertex 7.04943381956308 10.6006928883592 56.0
vertex 4.10702616981382 11.8194780429157 56.0
endloop
endfacet
facet normal 0.38268343236509 0.923879532511287 -0.0
outer loop
vertex 7.04943381956308 10.6006928883592 56.0
vertex 4.10702616981382 11.8194780429157 67.3
vertex 7.04943381956308 10.6006928883592 67.3
endloop
endfacet
facet normal -0.793353340291236 0.60876142900872 0.0
outer loop
vertex -7.67726891091282 8.66188569266495 67.3
vertex -9.61607610660708 6.13518296218908 56.0
vertex -9.61607610660708 6.13518296218908 67.3
endloop
endfacet
facet normal -0.793353340291236 0.60876142900872 0.0
outer loop
vertex -9.61607610660708 6.13518296218908 56.0
vertex -7.67726891091282 8.66188569266495 67.3
vertex -7.67726891091282 8.66188569266495 56.0
endloop
endfacet
facet normal 0.793353340291235 0.608761429008721 -0.0
outer loop
vertex 9.57613655003895 8.66188569266493 56.0
vertex 11.5149437457332 6.13518296218905 67.3
vertex 11.5149437457332 6.13518296218905 56.0
endloop
endfacet
facet normal 0.793353340291235 0.608761429008721 -0.0
outer loop
vertex 11.5149437457332 6.13518296218905 67.3
vertex 9.57613655003895 8.66188569266493 56.0
vertex 9.57613655003895 8.66188569266493 67.3
endloop
endfacet
facet normal -0.382683432365088 0.923879532511288 -0.0
outer loop
vertex -5.15056618043693 10.6006928883592 67.3
vertex -2.20815853068769 11.8194780429157 56.0
vertex -5.15056618043693 10.6006928883592 56.0
endloop
endfacet
facet normal -0.382683432365088 0.923879532511288 -0.0
outer loop
vertex -2.20815853068769 11.8194780429157 56.0
vertex -5.15056618043693 10.6006928883592 67.3
vertex -2.20815853068769 11.8194780429157 67.3
endloop
endfacet
facet normal -0.923879532511288 -0.382683432365086 0.0
outer loop
vertex -10.8348612611636 -3.12240938806167 67.3
vertex -9.6160761066071 -6.06481703781092 56.0
vertex -9.6160761066071 -6.06481703781092 67.3
endloop
endfacet
facet normal -0.923879532511288 -0.382683432365086 0.0
outer loop
vertex -9.6160761066071 -6.06481703781092 56.0
vertex -10.8348612611636 -3.12240938806167 67.3
vertex -10.8348612611636 -3.12240938806167 56.0
endloop
endfacet
facet normal -0.60876142900872 0.793353340291235 -0.0
outer loop
vertex -7.67726891091282 8.66188569266495 67.3
vertex -5.15056618043693 10.6006928883592 56.0
vertex -7.67726891091282 8.66188569266495 56.0
endloop
endfacet
facet normal -0.60876142900872 0.793353340291235 -0.0
outer loop
vertex -5.15056618043693 10.6006928883592 56.0
vertex -7.67726891091282 8.66188569266495 67.3
vertex -5.15056618043693 10.6006928883592 67.3
endloop
endfacet
facet normal 0.608761429008721 -0.793353340291235 0.0
outer loop
vertex 9.57613655003893 -8.59151976828683 67.3
vertex 7.04943381956306 -10.5303269639811 56.0
vertex 9.57613655003893 -8.59151976828683 56.0
endloop
endfacet
facet normal 0.608761429008721 -0.793353340291235 0.0
outer loop
vertex 7.04943381956306 -10.5303269639811 56.0
vertex 9.57613655003893 -8.59151976828683 67.3
vertex 7.04943381956306 -10.5303269639811 67.3
endloop
endfacet
facet normal 0.793353340291234 -0.608761429008722 -0.0
outer loop
vertex 11.5149437457332 -6.06481703781095 56.0
vertex 9.57613655003893 -8.59151976828683 67.3
vertex 9.57613655003893 -8.59151976828683 56.0
endloop
endfacet
facet normal 0.793353340291234 -0.608761429008722 -0.0
outer loop
vertex 9.57613655003893 -8.59151976828683 67.3
vertex 11.5149437457332 -6.06481703781095 56.0
vertex 11.5149437457332 -6.06481703781095 67.3
endloop
endfacet
facet normal 0.99144486137381 -0.130526192220056 -0.0
outer loop
vertex 13.1494338195631 0.0351829621890531 56.0
vertex 12.7337289002897 -3.12240938806171 67.3
vertex 12.7337289002897 -3.12240938806171 56.0
endloop
endfacet
facet normal 0.99144486137381 -0.130526192220056 -0.0
outer loop
vertex 12.7337289002897 -3.12240938806171 67.3
vertex 13.1494338195631 0.0351829621890531 56.0
vertex 13.1494338195631 0.0351829621890531 67.3
endloop
endfacet
facet normal 0.923879532511287 -0.38268343236509 -0.0
outer loop
vertex 12.7337289002897 -3.12240938806171 56.0
vertex 11.5149437457332 -6.06481703781095 67.3
vertex 11.5149437457332 -6.06481703781095 56.0
endloop
endfacet
facet normal 0.923879532511287 -0.38268343236509 -0.0
outer loop
vertex 11.5149437457332 -6.06481703781095 67.3
vertex 12.7337289002897 -3.12240938806171 56.0
vertex 12.7337289002897 -3.12240938806171 67.3
endloop
endfacet
facet normal -0.130526192220051 0.99144486137381 -0.0
outer loop
vertex -2.20815853068769 11.8194780429157 67.3
vertex 0.949433819563068 12.2351829621891 56.0
vertex -2.20815853068769 11.8194780429157 56.0
endloop
endfacet
facet normal -0.130526192220051 0.99144486137381 -0.0
outer loop
vertex 0.949433819563068 12.2351829621891 56.0
vertex -2.20815853068769 11.8194780429157 67.3
vertex 0.949433819563068 12.2351829621891 67.3
endloop
endfacet
facet normal -0.99144486137381 0.130526192220053 0.0
outer loop
vertex -10.8348612611636 3.19277531243983 67.3
vertex -11.2505661804369 0.0351829621890785 56.0
vertex -11.2505661804369 0.0351829621890785 67.3
endloop
endfacet
facet normal -0.99144486137381 0.130526192220053 0.0
outer loop
vertex -11.2505661804369 0.0351829621890785 56.0
vertex -10.8348612611636 3.19277531243983 67.3
vertex -10.8348612611636 3.19277531243983 56.0
endloop
endfacet
facet normal 0.608761429008723 0.793353340291233 -0.0
outer loop
vertex 7.04943381956308 10.6006928883592 67.3
vertex 9.57613655003895 8.66188569266493 56.0
vertex 7.04943381956308 10.6006928883592 56.0
endloop
endfacet
facet normal 0.608761429008723 0.793353340291233 -0.0
outer loop
vertex 9.57613655003895 8.66188569266493 56.0
vertex 7.04943381956308 10.6006928883592 67.3
vertex 9.57613655003895 8.66188569266493 67.3
endloop
endfacet
facet normal 0.13052619222005 -0.991444861373811 0.0
outer loop
vertex 4.1070261698138 -11.7491121185376 67.3
vertex 0.949433819563045 -12.1648170378109 56.0
vertex 4.1070261698138 -11.7491121185376 56.0
endloop
endfacet
facet normal 0.13052619222005 -0.991444861373811 0.0
outer loop
vertex 0.949433819563045 -12.1648170378109 56.0
vertex 4.1070261698138 -11.7491121185376 67.3
vertex 0.949433819563045 -12.1648170378109 67.3
endloop
endfacet
facet normal -0.608761429008722 -0.793353340291234 0.0
outer loop
vertex -5.15056618043695 -10.5303269639811 67.3
vertex -7.67726891091283 -8.5915197682868 56.0
vertex -5.15056618043695 -10.5303269639811 56.0
endloop
endfacet
facet normal -0.608761429008722 -0.793353340291234 0.0
outer loop
vertex -7.67726891091283 -8.5915197682868 56.0
vertex -5.15056618043695 -10.5303269639811 67.3
vertex -7.67726891091283 -8.5915197682868 67.3
endloop
endfacet
facet normal -0.793353340291235 -0.608761429008721 0.0
outer loop
vertex -9.6160761066071 -6.06481703781092 67.3
vertex -7.67726891091283 -8.5915197682868 56.0
vertex -7.67726891091283 -8.5915197682868 67.3
endloop
endfacet
facet normal -0.793353340291235 -0.608761429008721 0.0
outer loop
vertex -7.67726891091283 -8.5915197682868 56.0
vertex -9.6160761066071 -6.06481703781092 67.3
vertex -9.6160761066071 -6.06481703781092 56.0
endloop
endfacet
facet normal 0.0 0.0 -1.0
outer loop
vertex -20.0546650853284 5.66321430149815 56.0
vertex -20.0546650853284 -5.59284837712007 56.0
vertex -20.7956094676486 0.0351829621890474 56.0
endloop
endfacet
facet normal 0.0 0.0 -1.0
outer loop
vertex -20.0546650853284 -5.59284837712007 56.0
vertex -20.0546650853284 5.66321430149815 56.0
vertex -17.8823260735545 10.9077046057949 56.0
endloop
endfacet
facet normal 0.0 0.0 -1.0
outer loop
vertex -20.0546650853284 -5.59284837712007 56.0
vertex -17.8823260735545 10.9077046057949 56.0
vertex -17.8823260735545 -10.8373386814168 56.0
endloop
endfacet
facet normal 0.0 0.0 -1.0
outer loop
vertex -17.8823260735545 -10.8373386814168 56.0
vertex -17.8823260735545 10.9077046057949 56.0
vertex -14.4266337460193 15.4112505277715 56.0
endloop
endfacet
facet normal 0.0 0.0 -1.0
outer loop
vertex -17.8823260735545 -10.8373386814168 56.0
vertex -14.4266337460193 15.4112505277715 56.0
vertex -14.4266337460193 -15.3408846033933 56.0
endloop
endfacet
facet normal 0.0 0.0 -1.0
outer loop
vertex -14.4266337460193 -15.3408846033933 56.0
vertex -14.4266337460193 15.4112505277715 56.0
vertex -9.92308782404279 18.8669428553067 56.0
endloop
endfacet
facet normal 0.0 0.0 -1.0
outer loop
vertex -14.4266337460193 -15.3408846033933 56.0
vertex -9.92308782404279 18.8669428553067 56.0
vertex -11.2505661804369 0.0351829621890785 56.0
endloop
endfacet
facet normal 0.0 0.0 -1.0
outer loop
vertex -11.2505661804369 0.0351829621890785 56.0
vertex -9.92308782404279 18.8669428553067 56.0
vertex -10.8348612611636 3.19277531243983 56.0
endloop
endfacet
facet normal 0.0 0.0 -1.0
outer loop
vertex -10.8348612611636 3.19277531243983 56.0
vertex -9.92308782404279 18.8669428553067 56.0
vertex -9.61607610660708 6.13518296218908 56.0
endloop
endfacet
facet normal 0.0 0.0 -1.0
outer loop
vertex -9.61607610660708 6.13518296218908 56.0
vertex -9.92308782404279 18.8669428553067 56.0
vertex -4.67859751974603 21.0392818670806 56.0
endloop
endfacet
facet normal 0.0 0.0 -1.0
outer loop
vertex -9.61607610660708 6.13518296218908 56.0
vertex -4.67859751974603 21.0392818670806 56.0
vertex -7.67726891091282 8.66188569266495 56.0
endloop
endfacet
facet normal 0.0 0.0 -1.0
outer loop
vertex -7.67726891091282 8.66188569266495 56.0
vertex -4.67859751974603 21.0392818670806 56.0
vertex -5.15056618043693 10.6006928883592 56.0
endloop
endfacet
facet normal 0.0 0.0 -1.0
outer loop
vertex -5.15056618043693 10.6006928883592 56.0
vertex -4.67859751974603 21.0392818670806 56.0
vertex -2.20815853068769 11.8194780429157 56.0
endloop
endfacet
facet normal 0.0 0.0 -1.0
outer loop
vertex -2.20815853068769 11.8194780429157 56.0
vertex -4.67859751974603 21.0392818670806 56.0
vertex 0.949433819563068 21.7802262494008 56.0
endloop
endfacet
facet normal 0.0 0.0 -1.0
outer loop
vertex -2.20815853068769 11.8194780429157 56.0
vertex 0.949433819563068 21.7802262494008 56.0
vertex 0.949433819563068 12.2351829621891 56.0
endloop
endfacet
facet normal 0.0 0.0 -1.0
outer loop
vertex 0.949433819563068 12.2351829621891 56.0
vertex 0.949433819563068 21.7802262494008 56.0
vertex 6.57746515887215 21.0392818670806 56.0
endloop
endfacet
facet normal 0.0 0.0 -1.0
outer loop
vertex 0.949433819563068 12.2351829621891 56.0
vertex 6.57746515887215 21.0392818670806 56.0
vertex 4.10702616981382 11.8194780429157 56.0
endloop
endfacet
facet normal 0.0 0.0 -1.0
outer loop
vertex 4.10702616981382 11.8194780429157 56.0
vertex 6.57746515887215 21.0392818670806 56.0
vertex 7.04943381956308 10.6006928883592 56.0
endloop
endfacet
facet normal 0.0 0.0 -1.0
outer loop
vertex 7.04943381956308 10.6006928883592 56.0
vertex 6.57746515887215 21.0392818670806 56.0
vertex 11.8219554631689 18.8669428553067 56.0
endloop
endfacet
facet normal 0.0 0.0 -1.0
outer loop
vertex 7.04943381956308 10.6006928883592 56.0
vertex 11.8219554631689 18.8669428553067 56.0
vertex 9.57613655003895 8.66188569266493 56.0
endloop
endfacet
facet normal 0.0 0.0 -1.0
outer loop
vertex 9.57613655003895 8.66188569266493 56.0
vertex 11.8219554631689 18.8669428553067 56.0
vertex 11.5149437457332 6.13518296218905 56.0
endloop
endfacet
facet normal 0.0 0.0 -1.0
outer loop
vertex 11.5149437457332 6.13518296218905 56.0
vertex 11.8219554631689 18.8669428553067 56.0
vertex 12.7337289002897 3.1927753124398 56.0
endloop
endfacet
facet normal 0.0 0.0 -1.0
outer loop
vertex 12.7337289002897 3.1927753124398 56.0
vertex 11.8219554631689 18.8669428553067 56.0
vertex 16.3255013851455 15.4112505277715 56.0
endloop
endfacet
facet normal 0.0 0.0 -1.0
outer loop
vertex 12.7337289002897 3.1927753124398 56.0
vertex 16.3255013851455 15.4112505277715 56.0
vertex 13.1494338195631 0.0351829621890531 56.0
endloop
endfacet
facet normal 0.0 0.0 -1.0
outer loop
vertex -11.2505661804369 0.0351829621890785 56.0
vertex -9.92308782404275 -18.7965769309285 56.0
vertex -14.4266337460193 -15.3408846033933 56.0
endloop
endfacet
facet normal 0.0 0.0 -1.0
outer loop
vertex -9.92308782404275 -18.7965769309285 56.0
vertex -11.2505661804369 0.0351829621890785 56.0
vertex -10.8348612611636 -3.12240938806167 56.0
endloop
endfacet
facet normal 0.0 0.0 -1.0
outer loop
vertex -9.92308782404275 -18.7965769309285 56.0
vertex -10.8348612611636 -3.12240938806167 56.0
vertex -9.6160761066071 -6.06481703781092 56.0
endloop
endfacet
facet normal 0.0 0.0 -1.0
outer loop
vertex -9.92308782404275 -18.7965769309285 56.0
vertex -9.6160761066071 -6.06481703781092 56.0
vertex -4.67859751974603 -20.9689159427024 56.0
endloop
endfacet
facet normal 0.0 0.0 -1.0
outer loop
vertex -4.67859751974603 -20.9689159427024 56.0
vertex -9.6160761066071 -6.06481703781092 56.0
vertex -7.67726891091283 -8.5915197682868 56.0
endloop
endfacet
facet normal 0.0 0.0 -1.0
outer loop
vertex -4.67859751974603 -20.9689159427024 56.0
vertex -7.67726891091283 -8.5915197682868 56.0
vertex -5.15056618043695 -10.5303269639811 56.0
endloop
endfacet
facet normal 0.0 0.0 -1.0
outer loop
vertex -4.67859751974603 -20.9689159427024 56.0
vertex -5.15056618043695 -10.5303269639811 56.0
vertex -2.20815853068771 -11.7491121185376 56.0
endloop
endfacet
facet normal 0.0 0.0 -1.0
outer loop
vertex -4.67859751974603 -20.9689159427024 56.0
vertex -2.20815853068771 -11.7491121185376 56.0
vertex 0.949433819563068 -21.7098603250226 56.0
endloop
endfacet
facet normal 0.0 0.0 -1.0
outer loop
vertex 0.949433819563068 -21.7098603250226 56.0
vertex -2.20815853068771 -11.7491121185376 56.0
vertex 0.949433819563045 -12.1648170378109 56.0
endloop
endfacet
facet normal 0.0 0.0 -1.0
outer loop
vertex 0.949433819563068 -21.7098603250226 56.0
vertex 0.949433819563045 -12.1648170378109 56.0
vertex 4.1070261698138 -11.7491121185376 56.0
endloop
endfacet
facet normal 0.0 0.0 -1.0
outer loop
vertex 0.949433819563068 -21.7098603250226 56.0
vertex 4.1070261698138 -11.7491121185376 56.0
vertex 6.57746515887217 -20.9689159427024 56.0
endloop
endfacet
facet normal 0.0 0.0 -1.0
outer loop
vertex 6.57746515887217 -20.9689159427024 56.0
vertex 4.1070261698138 -11.7491121185376 56.0
vertex 7.04943381956306 -10.5303269639811 56.0
endloop
endfacet
facet normal 0.0 0.0 -1.0
outer loop
vertex 6.57746515887217 -20.9689159427024 56.0
vertex 7.04943381956306 -10.5303269639811 56.0
vertex 11.8219554631689 -18.7965769309285 56.0
endloop
endfacet
facet normal 0.0 0.0 -1.0
outer loop
vertex 11.8219554631689 -18.7965769309285 56.0
vertex 7.04943381956306 -10.5303269639811 56.0
vertex 9.57613655003893 -8.59151976828683 56.0
endloop
endfacet
facet normal 0.0 0.0 -1.0
outer loop
vertex 11.8219554631689 -18.7965769309285 56.0
vertex 9.57613655003893 -8.59151976828683 56.0
vertex 11.5149437457332 -6.06481703781095 56.0
endloop
endfacet
facet normal 0.0 0.0 -1.0
outer loop
vertex 11.8219554631689 -18.7965769309285 56.0
vertex 11.5149437457332 -6.06481703781095 56.0
vertex 12.7337289002897 -3.12240938806171 56.0
endloop
endfacet
facet normal 0.0 0.0 -1.0
outer loop
vertex 11.8219554631689 -18.7965769309285 56.0
vertex 12.7337289002897 -3.12240938806171 56.0
vertex 16.3255013851455 -15.3408846033933 56.0
endloop
endfacet
facet normal 0.0 0.0 -1.0
outer loop
vertex 16.3255013851455 -15.3408846033933 56.0
vertex 12.7337289002897 -3.12240938806171 56.0
vertex 13.1494338195631 0.0351829621890531 56.0
endloop
endfacet
facet normal 0.0 0.0 -1.0
outer loop
vertex 16.3255013851455 -15.3408846033933 56.0
vertex 13.1494338195631 0.0351829621890531 56.0
vertex 16.3255013851455 15.4112505277715 56.0
endloop
endfacet
facet normal 0.0 0.0 -1.0
outer loop
vertex 16.3255013851455 -15.3408846033933 56.0
vertex 16.3255013851455 15.4112505277715 56.0
vertex 19.7811937126807 10.9077046057949 56.0
endloop
endfacet
facet normal 0.0 0.0 -1.0
outer loop
vertex 16.3255013851455 -15.3408846033933 56.0
vertex 19.7811937126807 10.9077046057949 56.0
vertex 19.7811937126807 -10.8373386814168 56.0
endloop
endfacet
facet normal 0.0 0.0 -1.0
outer loop
vertex 19.7811937126807 -10.8373386814168 56.0
vertex 19.7811937126807 10.9077046057949 56.0
vertex 21.9535327244546 -5.59284837712004 56.0
endloop
endfacet
facet normal 0.0 0.0 -1.0
outer loop
vertex 21.9535327244546 -5.59284837712004 56.0
vertex 19.7811937126807 10.9077046057949 56.0
vertex 21.9535327244546 5.66321430149818 56.0
endloop
endfacet
facet normal 0.0 0.0 -1.0
outer loop
vertex 21.9535327244546 -5.59284837712004 56.0
vertex 21.9535327244546 5.66321430149818 56.0
vertex 22.6944771067748 0.0351829621890644 56.0
endloop
endfacet
endsolid ToolforBoardHousing_Final_body_v2~
