solid ToolforBoardHousing_SingleChipHead
facet normal 0.256721160165832 0.958096413116914 -0.127064979815894
outer loop
vertex -4.1669866261506 -41.551405803254 99.9193347754836
vertex 0.0 -54.9 0.0
vertex -7.47987040346287 -53.915256379754 0.0
endloop
endfacet
facet normal -2.79154002992865e-016 0.991894395036279 -0.127064979815894
outer loop
vertex 0.0 -54.9 0.0
vertex -4.1669866261506 -41.551405803254 99.9193347754836
vertex 0.0 -42.1 99.9193347754836
endloop
endfacet
facet normal 0.49594719751814 0.859005743972815 -0.127064979815894
outer loop
vertex -8.05000000000001 -39.9430090009295 99.9193347754836
vertex -7.47987040346287 -53.915256379754 0.0
vertex -14.45 -51.0281341693702 0.0
endloop
endfacet
facet normal 0.256721160165832 0.958096413116914 -0.127064979815894
outer loop
vertex -7.47987040346287 -53.915256379754 0.0
vertex -8.05000000000001 -39.9430090009295 99.9193347754836
vertex -4.1669866261506 -41.551405803254 99.9193347754836
endloop
endfacet
facet normal 0.701375252951081 0.701375252951081 -0.127064979815894
outer loop
vertex -11.3844191771034 -37.3844191771034 99.9193347754836
vertex -14.45 -51.0281341693702 0.0
vertex -20.4353859762912 -46.4353859762912 0.0
endloop
endfacet
facet normal 0.49594719751814 0.859005743972815 -0.127064979815894
outer loop
vertex -14.45 -51.0281341693702 0.0
vertex -11.3844191771034 -37.3844191771034 99.9193347754836
vertex -8.05000000000001 -39.9430090009295 99.9193347754836
endloop
endfacet
facet normal 0.859005743972815 0.49594719751814 -0.127064979815894
outer loop
vertex -25.0281341693703 -40.45 0.0
vertex -11.3844191771034 -37.3844191771034 99.9193347754836
vertex -20.4353859762912 -46.4353859762912 0.0
endloop
endfacet
facet normal 0.701375252951081 0.701375252951081 -0.127064979815894
outer loop
vertex -11.3844191771034 -37.3844191771034 99.9193347754836
vertex -25.0281341693703 -40.45 0.0
vertex -13.9430090009295 -34.05 99.9193347754836
endloop
endfacet
facet normal 0.958096413116914 0.256721160165832 -0.127064979815894
outer loop
vertex -27.9152563797541 -33.4798704034628 0.0
vertex -13.9430090009295 -34.05 99.9193347754836
vertex -25.0281341693703 -40.45 0.0
endloop
endfacet
facet normal 0.859005743972815 0.49594719751814 -0.127064979815894
outer loop
vertex -13.9430090009295 -34.05 99.9193347754836
vertex -27.9152563797541 -33.4798704034628 0.0
vertex -15.551405803254 -30.1669866261506 99.9193347754836
endloop
endfacet
facet normal 0.958096413116914 0.256721160165832 -0.127064979815894
outer loop
vertex -27.9152563797541 -33.4798704034628 0.0
vertex -26.5578718176293 -29.0 15.2
vertex -15.551405803254 -30.1669866261506 99.9193347754836
endloop
endfacet
facet normal 0.983543883196232 0.129486008709589 -0.125995251401541
outer loop
vertex -26.5578718176293 -29.0 15.2
vertex -27.9152563797541 -33.4798704034628 0.0
vertex -28.9 -26.0 0.0
endloop
endfacet
facet normal 0.983543883196232 0.129486008709589 -0.125995251401541
outer loop
vertex -26.5578718176293 -29.0 15.2
vertex -28.9 -26.0 0.0
vertex -26.9528293103915 -26.0 15.2
endloop
endfacet
facet normal 0.958096413116914 0.256721160165832 -0.127064979815894
outer loop
vertex -15.551405803254 -30.1669866261506 99.9193347754836
vertex -26.1735618131013 -29.0 18.2
vertex -16.1 -26.0 99.9193347754836
endloop
endfacet
facet normal 0.983543883196232 0.129486008709589 -0.125995251401541
outer loop
vertex -26.1735618131013 -29.0 18.2
vertex -15.551405803254 -30.1669866261506 99.9193347754836
vertex -26.5578718176293 -29.0 15.2
endloop
endfacet
facet normal 0.991894395036279 -4.8492331703188e-016 -0.127064979815894
outer loop
vertex -16.1 -26.0 99.9193347754836
vertex -26.1735618131013 -29.0 18.2
vertex -26.5685193058635 -26.0 18.2
endloop
endfacet
facet normal 0.958096413116914 -0.256721160165832 -0.127064979815894
outer loop
vertex -27.9152563797541 -18.5201295965371 0.0
vertex -26.9528293103915 -26.0 15.2
vertex -28.9 -26.0 0.0
endloop
endfacet
facet normal 0.991894395036279 -5.55457617691063e-016 -0.127064979815894
outer loop
vertex -26.9528293103915 -26.0 15.2
vertex -27.9152563797541 -18.5201295965371 0.0
vertex -26.5578718176293 -23.0 15.2
endloop
endfacet
facet normal 0.983543883196232 -0.12948600870959 -0.125995251401541
outer loop
vertex -26.5578718176293 -23.0 15.2
vertex -27.9152563797541 -18.5201295965371 0.0
vertex -26.1735618131013 -23.0 18.2
endloop
endfacet
facet normal 0.983543883196232 -0.12948600870959 -0.125995251401541
outer loop
vertex -26.1735618131013 -23.0 18.2
vertex -27.9152563797541 -18.5201295965371 0.0
vertex -15.551405803254 -21.8330133738494 99.9193347754836
endloop
endfacet
facet normal 0.983543883196232 -0.12948600870959 -0.125995251401541
outer loop
vertex -26.1735618131013 -23.0 18.2
vertex -16.1 -26.0 99.9193347754836
vertex -26.5685193058635 -26.0 18.2
endloop
endfacet
facet normal 0.991894395036279 -4.8492331703188e-016 -0.127064979815894
outer loop
vertex -16.1 -26.0 99.9193347754836
vertex -26.1735618131013 -23.0 18.2
vertex -15.551405803254 -21.8330133738494 99.9193347754836
endloop
endfacet
facet normal 0.958096413116914 -0.256721160165832 -0.127064979815894
outer loop
vertex -27.9152563797541 -18.5201295965371 0.0
vertex -13.9430090009295 -17.95 99.9193347754836
vertex -15.551405803254 -21.8330133738494 99.9193347754836
endloop
endfacet
facet normal 0.859005743972815 -0.49594719751814 -0.127064979815894
outer loop
vertex -13.9430090009295 -17.95 99.9193347754836
vertex -27.9152563797541 -18.5201295965371 0.0
vertex -25.0281341693703 -11.55 0.0
endloop
endfacet
facet normal 0.859005743972815 -0.49594719751814 -0.127064979815894
outer loop
vertex -25.0281341693703 -11.55 0.0
vertex -11.3844191771034 -14.6155808228966 99.9193347754836
vertex -13.9430090009295 -17.95 99.9193347754836
endloop
endfacet
facet normal 0.701375252951081 -0.701375252951082 -0.127064979815894
outer loop
vertex -11.3844191771034 -14.6155808228966 99.9193347754836
vertex -25.0281341693703 -11.55 0.0
vertex -20.4353859762912 -5.56461402370876 0.0
endloop
endfacet
facet normal 0.49594719751814 -0.859005743972815 -0.127064979815894
outer loop
vertex -8.05 -12.0569909990705 99.9193347754836
vertex -20.4353859762912 -5.56461402370876 0.0
vertex -14.45 -0.971865830629718 0.0
endloop
endfacet
facet normal 0.701375252951081 -0.701375252951082 -0.127064979815894
outer loop
vertex -20.4353859762912 -5.56461402370876 0.0
vertex -8.05 -12.0569909990705 99.9193347754836
vertex -11.3844191771034 -14.6155808228966 99.9193347754836
endloop
endfacet
facet normal 0.256721160165832 -0.958096413116914 -0.127064979815894
outer loop
vertex -4.16698662615058 -10.448594196746 99.9193347754836
vertex -14.45 -0.971865830629718 0.0
vertex -7.47987040346284 1.91525637975408 0.0
endloop
endfacet
facet normal 0.495947197518139 -0.859005743972815 -0.127064979815894
outer loop
vertex -14.45 -0.971865830629718 0.0
vertex -4.16698662615058 -10.448594196746 99.9193347754836
vertex -8.05 -12.0569909990705 99.9193347754836
endloop
endfacet
facet normal -6.0835834318545e-016 -0.991894395036279 -0.127064979815894
outer loop
vertex 1.93872695675168e-015 -9.9 99.9193347754836
vertex -7.47987040346284 1.91525637975408 0.0
vertex 3.52495810318487e-015 2.9 0.0
endloop
endfacet
facet normal 0.256721160165832 -0.958096413116914 -0.127064979815894
outer loop
vertex -7.47987040346284 1.91525637975408 0.0
vertex 1.93872695675168e-015 -9.9 99.9193347754836
vertex -4.16698662615058 -10.448594196746 99.9193347754836
endloop
endfacet
facet normal -0.256721160165833 -0.958096413116913 -0.127064979815894
outer loop
vertex 4.16698662615059 -10.448594196746 99.9193347754836
vertex 3.52495810318487e-015 2.9 0.0
vertex 7.47987040346286 1.91525637975407 0.0
endloop
endfacet
facet normal -6.03332845178128e-016 -0.991894395036279 -0.127064979815894
outer loop
vertex 3.52495810318487e-015 2.9 0.0
vertex 4.16698662615059 -10.448594196746 99.9193347754836
vertex 1.93872695675168e-015 -9.9 99.9193347754836
endloop
endfacet
facet normal -0.49594719751814 -0.859005743972815 -0.127064979815894
outer loop
vertex 8.05000000000001 -12.0569909990705 99.9193347754836
vertex 7.47987040346286 1.91525637975407 0.0
vertex 14.45 -0.97186583062973 0.0
endloop
endfacet
facet normal -0.256721160165833 -0.958096413116913 -0.127064979815894
outer loop
vertex 7.47987040346286 1.91525637975407 0.0
vertex 8.05000000000001 -12.0569909990705 99.9193347754836
vertex 4.16698662615059 -10.448594196746 99.9193347754836
endloop
endfacet
facet normal -0.701375252951082 -0.701375252951081 -0.127064979815894
outer loop
vertex 11.3844191771034 -14.6155808228966 99.9193347754836
vertex 14.45 -0.97186583062973 0.0
vertex 20.4353859762912 -5.56461402370878 0.0
endloop
endfacet
facet normal -0.49594719751814 -0.859005743972815 -0.127064979815894
outer loop
vertex 14.45 -0.97186583062973 0.0
vertex 11.3844191771034 -14.6155808228966 99.9193347754836
vertex 8.05000000000001 -12.0569909990705 99.9193347754836
endloop
endfacet
facet normal -0.701375252951082 -0.701375252951081 -0.127064979815894
outer loop
vertex 11.3844191771034 -14.6155808228966 99.9193347754836
vertex 25.0281341693703 -11.55 0.0
vertex 13.9430090009295 -17.95 99.9193347754836
endloop
endfacet
facet normal -0.859005743972815 -0.495947197518139 -0.127064979815894
outer loop
vertex 25.0281341693703 -11.55 0.0
vertex 11.3844191771034 -14.6155808228966 99.9193347754836
vertex 20.4353859762912 -5.56461402370878 0.0
endloop
endfacet
facet normal -0.859005743972815 -0.495947197518139 -0.127064979815894
outer loop
vertex 13.9430090009295 -17.95 99.9193347754836
vertex 27.9152563797541 -18.5201295965372 0.0
vertex 15.551405803254 -21.8330133738494 99.9193347754836
endloop
endfacet
facet normal -0.958096413116914 -0.256721160165832 -0.127064979815894
outer loop
vertex 27.9152563797541 -18.5201295965372 0.0
vertex 13.9430090009295 -17.95 99.9193347754836
vertex 25.0281341693703 -11.55 0.0
endloop
endfacet
facet normal -0.991894395036279 3.43854715713515e-016 -0.127064979815894
outer loop
vertex 16.1 -26.0 99.9193347754836
vertex 26.1735618131013 -29.0 18.2
vertex 15.551405803254 -30.1669866261506 99.9193347754836
endloop
endfacet
facet normal -0.983543883196232 0.12948600870959 -0.125995251401541
outer loop
vertex 26.1735618131013 -29.0 18.2
vertex 16.1 -26.0 99.9193347754836
vertex 26.5685193058635 -26.0 18.2
endloop
endfacet
facet normal -0.958096413116913 0.256721160165833 -0.127064979815894
outer loop
vertex 27.9152563797541 -33.4798704034628 0.0
vertex 26.5578718176293 -29.0 15.2
vertex 28.9 -26.0 0.0
endloop
endfacet
facet normal -0.983543883196232 0.12948600870959 -0.125995251401541
outer loop
vertex 26.5578718176293 -29.0 15.2
vertex 27.9152563797541 -33.4798704034628 0.0
vertex 15.551405803254 -30.1669866261506 99.9193347754836
endloop
endfacet
facet normal -0.983543883196232 0.12948600870959 -0.125995251401541
outer loop
vertex 26.5578718176293 -29.0 15.2
vertex 15.551405803254 -30.1669866261506 99.9193347754836
vertex 26.1735618131013 -29.0 18.2
endloop
endfacet
facet normal -0.991894395036279 3.15173874346783e-016 -0.127064979815894
outer loop
vertex 28.9 -26.0 0.0
vertex 26.5578718176293 -29.0 15.2
vertex 26.9528293103915 -26.0 15.2
endloop
endfacet
facet normal -0.859005743972815 0.49594719751814 -0.127064979815894
outer loop
vertex 13.9430090009295 -34.05 99.9193347754836
vertex 27.9152563797541 -33.4798704034628 0.0
vertex 25.0281341693703 -40.45 0.0
endloop
endfacet
facet normal -0.958096413116913 0.256721160165833 -0.127064979815894
outer loop
vertex 27.9152563797541 -33.4798704034628 0.0
vertex 13.9430090009295 -34.05 99.9193347754836
vertex 15.551405803254 -30.1669866261506 99.9193347754836
endloop
endfacet
facet normal -0.701375252951081 0.701375252951082 -0.127064979815894
outer loop
vertex 11.3844191771034 -37.3844191771034 99.9193347754836
vertex 25.0281341693703 -40.45 0.0
vertex 20.4353859762912 -46.4353859762912 0.0
endloop
endfacet
facet normal -0.859005743972815 0.49594719751814 -0.127064979815894
outer loop
vertex 25.0281341693703 -40.45 0.0
vertex 11.3844191771034 -37.3844191771034 99.9193347754836
vertex 13.9430090009295 -34.05 99.9193347754836
endloop
endfacet
facet normal -0.495947197518139 0.859005743972816 -0.127064979815894
outer loop
vertex 8.05 -39.9430090009295 99.9193347754836
vertex 20.4353859762912 -46.4353859762912 0.0
vertex 14.45 -51.0281341693702 0.0
endloop
endfacet
facet normal -0.701375252951081 0.701375252951082 -0.127064979815894
outer loop
vertex 20.4353859762912 -46.4353859762912 0.0
vertex 8.05 -39.9430090009295 99.9193347754836
vertex 11.3844191771034 -37.3844191771034 99.9193347754836
endloop
endfacet
facet normal -0.256721160165832 0.958096413116914 -0.127064979815894
outer loop
vertex 4.16698662615058 -41.551405803254 99.9193347754836
vertex 14.45 -51.0281341693702 0.0
vertex 7.47987040346285 -53.915256379754 0.0
endloop
endfacet
facet normal -0.495947197518139 0.859005743972816 -0.127064979815894
outer loop
vertex 14.45 -51.0281341693702 0.0
vertex 4.16698662615058 -41.551405803254 99.9193347754836
vertex 8.05 -39.9430090009295 99.9193347754836
endloop
endfacet
facet normal -2.8213720263673e-016 0.991894395036279 -0.127064979815894
outer loop
vertex 0.0 -42.1 99.9193347754836
vertex 7.47987040346285 -53.915256379754 0.0
vertex 0.0 -54.9 0.0
endloop
endfacet
facet normal -0.256721160165832 0.958096413116914 -0.127064979815894
outer loop
vertex 7.47987040346285 -53.915256379754 0.0
vertex 0.0 -42.1 99.9193347754836
vertex 4.16698662615058 -41.551405803254 99.9193347754836
endloop
endfacet
facet normal 0.0 0.0 -1.0
outer loop
vertex -29.3641451191877 -18.1319010288833 0.0
vertex -27.9152563797541 -18.5201295965371 0.0
vertex -28.9 -26.0 0.0
endloop
endfacet
facet normal 0.0 0.0 -1.0
outer loop
vertex -27.9152563797541 -18.5201295965371 0.0
vertex -29.3641451191877 -18.1319010288833 0.0
vertex -26.3271722750469 -10.8 0.0
endloop
endfacet
facet normal 0.0 0.0 -1.0
outer loop
vertex -27.9152563797541 -18.5201295965371 0.0
vertex -26.3271722750469 -10.8 0.0
vertex -25.0281341693703 -11.55 0.0
endloop
endfacet
facet normal 0.0 0.0 -1.0
outer loop
vertex -25.0281341693703 -11.55 0.0
vertex -26.3271722750469 -10.8 0.0
vertex -21.496046148071 -4.50395385192894 0.0
endloop
endfacet
facet normal 0.0 0.0 -1.0
outer loop
vertex -25.0281341693703 -11.55 0.0
vertex -21.496046148071 -4.50395385192894 0.0
vertex -20.4353859762912 -5.56461402370876 0.0
endloop
endfacet
facet normal 0.0 0.0 -1.0
outer loop
vertex -20.4353859762912 -5.56461402370876 0.0
vertex -21.496046148071 -4.50395385192894 0.0
vertex -15.2 0.327172275046943 0.0
endloop
endfacet
facet normal 0.0 0.0 -1.0
outer loop
vertex -20.4353859762912 -5.56461402370876 0.0
vertex -15.2 0.327172275046943 0.0
vertex -14.45 -0.971865830629718 0.0
endloop
endfacet
facet normal 0.0 0.0 -1.0
outer loop
vertex -14.45 -0.971865830629718 0.0
vertex -15.2 0.327172275046943 0.0
vertex -7.86809897111662 3.36414511918768 0.0
endloop
endfacet
facet normal 0.0 0.0 -1.0
outer loop
vertex -14.45 -0.971865830629718 0.0
vertex -7.86809897111662 3.36414511918768 0.0
vertex -7.47987040346284 1.91525637975408 0.0
endloop
endfacet
facet normal 0.0 0.0 -1.0
outer loop
vertex -7.47987040346284 1.91525637975408 0.0
vertex -7.86809897111662 3.36414511918768 0.0
vertex 3.70120600834412e-015 4.4 0.0
endloop
endfacet
facet normal 0.0 0.0 -1.0
outer loop
vertex -7.47987040346284 1.91525637975408 0.0
vertex 3.70120600834412e-015 4.4 0.0
vertex 3.52495810318487e-015 2.9 0.0
endloop
endfacet
facet normal 0.0 0.0 -1.0
outer loop
vertex 3.52495810318487e-015 2.9 0.0
vertex 3.70120600834412e-015 4.4 0.0
vertex 7.47987040346286 1.91525637975407 0.0
endloop
endfacet
facet normal 0.0 0.0 -1.0
outer loop
vertex 7.47987040346286 1.91525637975407 0.0
vertex 3.70120600834412e-015 4.4 0.0
vertex 7.86809897111664 3.36414511918768 0.0
endloop
endfacet
facet normal 0.0 0.0 -1.0
outer loop
vertex 7.47987040346286 1.91525637975407 0.0
vertex 7.86809897111664 3.36414511918768 0.0
vertex 14.45 -0.97186583062973 0.0
endloop
endfacet
facet normal 0.0 0.0 -1.0
outer loop
vertex 14.45 -0.97186583062973 0.0
vertex 7.86809897111664 3.36414511918768 0.0
vertex 15.2 0.327172275046932 0.0
endloop
endfacet
facet normal 0.0 0.0 -1.0
outer loop
vertex 14.45 -0.97186583062973 0.0
vertex 15.2 0.327172275046932 0.0
vertex 20.4353859762912 -5.56461402370878 0.0
endloop
endfacet
facet normal 0.0 0.0 -1.0
outer loop
vertex 20.4353859762912 -5.56461402370878 0.0
vertex 15.2 0.327172275046932 0.0
vertex 21.496046148071 -4.50395385192896 0.0
endloop
endfacet
facet normal 0.0 0.0 -1.0
outer loop
vertex 20.4353859762912 -5.56461402370878 0.0
vertex 21.496046148071 -4.50395385192896 0.0
vertex 25.0281341693703 -11.55 0.0
endloop
endfacet
facet normal 0.0 0.0 -1.0
outer loop
vertex 25.0281341693703 -11.55 0.0
vertex 21.496046148071 -4.50395385192896 0.0
vertex 26.3271722750469 -10.8 0.0
endloop
endfacet
facet normal 0.0 0.0 -1.0
outer loop
vertex 25.0281341693703 -11.55 0.0
vertex 26.3271722750469 -10.8 0.0
vertex 27.9152563797541 -18.5201295965372 0.0
endloop
endfacet
facet normal 0.0 0.0 -1.0
outer loop
vertex 27.9152563797541 -18.5201295965372 0.0
vertex 26.3271722750469 -10.8 0.0
vertex 29.3641451191877 -18.1319010288834 0.0
endloop
endfacet
facet normal 0.0 0.0 -1.0
outer loop
vertex 27.9152563797541 -18.5201295965372 0.0
vertex 29.3641451191877 -18.1319010288834 0.0
vertex 28.9 -26.0 0.0
endloop
endfacet
facet normal 0.0 0.0 -1.0
outer loop
vertex 28.9 -26.0 0.0
vertex 29.3641451191877 -18.1319010288834 0.0
vertex 29.3641451191877 -33.8680989711166 0.0
endloop
endfacet
facet normal 0.0 0.0 -1.0
outer loop
vertex 29.3641451191877 -33.8680989711166 0.0
vertex 29.3641451191877 -18.1319010288834 0.0
vertex 30.4 -26.0 0.0
endloop
endfacet
facet normal 0.0 0.0 -1.0
outer loop
vertex -29.3641451191877 -18.1319010288833 0.0
vertex -29.3641451191877 -33.8680989711166 0.0
vertex -30.4 -26.0 0.0
endloop
endfacet
facet normal 0.0 0.0 -1.0
outer loop
vertex -29.3641451191877 -33.8680989711166 0.0
vertex -29.3641451191877 -18.1319010288833 0.0
vertex -28.9 -26.0 0.0
endloop
endfacet
facet normal 0.0 0.0 -1.0
outer loop
vertex -29.3641451191877 -33.8680989711166 0.0
vertex -28.9 -26.0 0.0
vertex -27.9152563797541 -33.4798704034628 0.0
endloop
endfacet
facet normal 0.0 0.0 -1.0
outer loop
vertex -29.3641451191877 -33.8680989711166 0.0
vertex -27.9152563797541 -33.4798704034628 0.0
vertex -26.3271722750469 -41.2 0.0
endloop
endfacet
facet normal 0.0 0.0 -1.0
outer loop
vertex -26.3271722750469 -41.2 0.0
vertex -27.9152563797541 -33.4798704034628 0.0
vertex -25.0281341693703 -40.45 0.0
endloop
endfacet
facet normal 0.0 0.0 -1.0
outer loop
vertex -26.3271722750469 -41.2 0.0
vertex -25.0281341693703 -40.45 0.0
vertex -21.4960461480711 -47.496046148071 0.0
endloop
endfacet
facet normal 0.0 0.0 -1.0
outer loop
vertex -21.4960461480711 -47.496046148071 0.0
vertex -25.0281341693703 -40.45 0.0
vertex -20.4353859762912 -46.4353859762912 0.0
endloop
endfacet
facet normal 0.0 0.0 -1.0
outer loop
vertex -21.4960461480711 -47.496046148071 0.0
vertex -20.4353859762912 -46.4353859762912 0.0
vertex -15.2 -52.3271722750469 0.0
endloop
endfacet
facet normal 0.0 0.0 -1.0
outer loop
vertex -15.2 -52.3271722750469 0.0
vertex -20.4353859762912 -46.4353859762912 0.0
vertex -14.45 -51.0281341693702 0.0
endloop
endfacet
facet normal 0.0 0.0 -1.0
outer loop
vertex -15.2 -52.3271722750469 0.0
vertex -14.45 -51.0281341693702 0.0
vertex -7.86809897111666 -55.3641451191876 0.0
endloop
endfacet
facet normal 0.0 0.0 -1.0
outer loop
vertex -7.86809897111666 -55.3641451191876 0.0
vertex -14.45 -51.0281341693702 0.0
vertex -7.47987040346287 -53.915256379754 0.0
endloop
endfacet
facet normal 0.0 0.0 -1.0
outer loop
vertex -7.86809897111666 -55.3641451191876 0.0
vertex -7.47987040346287 -53.915256379754 0.0
vertex 0.0 -56.4 0.0
endloop
endfacet
facet normal 0.0 0.0 -1.0
outer loop
vertex 0.0 -56.4 0.0
vertex -7.47987040346287 -53.915256379754 0.0
vertex 0.0 -54.9 0.0
endloop
endfacet
facet normal 0.0 0.0 -1.0
outer loop
vertex 0.0 -56.4 0.0
vertex 0.0 -54.9 0.0
vertex 7.47987040346285 -53.915256379754 0.0
endloop
endfacet
facet normal 0.0 0.0 -1.0
outer loop
vertex 0.0 -56.4 0.0
vertex 7.47987040346285 -53.915256379754 0.0
vertex 7.86809897111663 -55.3641451191876 0.0
endloop
endfacet
facet normal 0.0 0.0 -1.0
outer loop
vertex 7.86809897111663 -55.3641451191876 0.0
vertex 7.47987040346285 -53.915256379754 0.0
vertex 14.45 -51.0281341693702 0.0
endloop
endfacet
facet normal 0.0 0.0 -1.0
outer loop
vertex 7.86809897111663 -55.3641451191876 0.0
vertex 14.45 -51.0281341693702 0.0
vertex 15.2 -52.3271722750469 0.0
endloop
endfacet
facet normal 0.0 0.0 -1.0
outer loop
vertex 15.2 -52.3271722750469 0.0
vertex 14.45 -51.0281341693702 0.0
vertex 20.4353859762912 -46.4353859762912 0.0
endloop
endfacet
facet normal 0.0 0.0 -1.0
outer loop
vertex 15.2 -52.3271722750469 0.0
vertex 20.4353859762912 -46.4353859762912 0.0
vertex 21.496046148071 -47.496046148071 0.0
endloop
endfacet
facet normal 0.0 0.0 -1.0
outer loop
vertex 21.496046148071 -47.496046148071 0.0
vertex 20.4353859762912 -46.4353859762912 0.0
vertex 25.0281341693703 -40.45 0.0
endloop
endfacet
facet normal 0.0 0.0 -1.0
outer loop
vertex 21.496046148071 -47.496046148071 0.0
vertex 25.0281341693703 -40.45 0.0
vertex 26.3271722750469 -41.2 0.0
endloop
endfacet
facet normal 0.0 0.0 -1.0
outer loop
vertex 26.3271722750469 -41.2 0.0
vertex 25.0281341693703 -40.45 0.0
vertex 27.9152563797541 -33.4798704034628 0.0
endloop
endfacet
facet normal 0.0 0.0 -1.0
outer loop
vertex 26.3271722750469 -41.2 0.0
vertex 27.9152563797541 -33.4798704034628 0.0
vertex 29.3641451191877 -33.8680989711166 0.0
endloop
endfacet
facet normal 0.0 0.0 -1.0
outer loop
vertex 29.3641451191877 -33.8680989711166 0.0
vertex 27.9152563797541 -33.4798704034628 0.0
vertex 28.9 -26.0 0.0
endloop
endfacet
facet normal -1.41068601318365e-016 -0.991894395036279 0.127064979815894
outer loop
vertex -2.11497486191092e-015 -43.6 99.9193347754836
vertex -7.86809897111666 -55.3641451191876 0.0
vertex 0.0 -56.4 0.0
endloop
endfacet
facet normal -0.256721160165832 -0.958096413116914 0.127064979815894
outer loop
vertex -7.86809897111666 -55.3641451191876 0.0
vertex -2.11497486191092e-015 -43.6 99.9193347754836
vertex -4.55521519380437 -43.0002945426876 99.9193347754836
endloop
endfacet
facet normal -0.256721160165832 -0.958096413116914 0.127064979815894
outer loop
vertex -4.55521519380437 -43.0002945426876 99.9193347754836
vertex -15.2 -52.3271722750469 0.0
vertex -7.86809897111666 -55.3641451191876 0.0
endloop
endfacet
facet normal -0.49594719751814 -0.859005743972815 0.127064979815894
outer loop
vertex -15.2 -52.3271722750469 0.0
vertex -4.55521519380437 -43.0002945426876 99.9193347754836
vertex -8.8 -41.2420471066061 99.9193347754836
endloop
endfacet
facet normal -0.49594719751814 -0.859005743972815 0.127064979815894
outer loop
vertex -8.8 -41.2420471066061 99.9193347754836
vertex -21.4960461480711 -47.496046148071 0.0
vertex -15.2 -52.3271722750469 0.0
endloop
endfacet
facet normal -0.701375252951081 -0.701375252951082 0.127064979815894
outer loop
vertex -21.4960461480711 -47.496046148071 0.0
vertex -8.8 -41.2420471066061 99.9193347754836
vertex -12.4450793488832 -38.4450793488832 99.9193347754836
endloop
endfacet
facet normal -0.701375252951081 -0.701375252951082 0.127064979815894
outer loop
vertex -12.4450793488832 -38.4450793488832 99.9193347754836
vertex -26.3271722750469 -41.2 0.0
vertex -21.4960461480711 -47.496046148071 0.0
endloop
endfacet
facet normal -0.859005743972815 -0.49594719751814 0.127064979815894
outer loop
vertex -26.3271722750469 -41.2 0.0
vertex -12.4450793488832 -38.4450793488832 99.9193347754836
vertex -15.2420471066061 -34.8 99.9193347754836
endloop
endfacet
facet normal -0.859005743972815 -0.49594719751814 0.127064979815894
outer loop
vertex -15.2420471066061 -34.8 99.9193347754836
vertex -29.3641451191877 -33.8680989711166 0.0
vertex -26.3271722750469 -41.2 0.0
endloop
endfacet
facet normal -0.958096413116914 -0.256721160165832 0.127064979815894
outer loop
vertex -29.3641451191877 -33.8680989711166 0.0
vertex -15.2420471066061 -34.8 99.9193347754836
vertex -17.0002945426876 -30.5552151938044 99.9193347754836
endloop
endfacet
facet normal -0.991894395036279 3.43854715713515e-016 0.127064979815894
outer loop
vertex -17.6 -26.0 99.9193347754836
vertex -27.6735618131013 -29.0 18.2
vertex -17.0002945426876 -30.5552151938044 99.9193347754836
endloop
endfacet
facet normal -0.983543883196232 -0.12948600870959 0.125995251401541
outer loop
vertex -27.6735618131013 -29.0 18.2
vertex -17.6 -26.0 99.9193347754836
vertex -28.0685193058635 -26.0 18.2
endloop
endfacet
facet normal -0.958096413116914 -0.256721160165832 0.127064979815894
outer loop
vertex -29.3641451191877 -33.8680989711166 0.0
vertex -28.0578718176293 -29.0 15.2
vertex -30.4 -26.0 0.0
endloop
endfacet
facet normal -0.983543883196232 -0.12948600870959 0.125995251401541
outer loop
vertex -28.0578718176293 -29.0 15.2
vertex -29.3641451191877 -33.8680989711166 0.0
vertex -17.0002945426876 -30.5552151938044 99.9193347754836
endloop
endfacet
facet normal -0.983543883196232 -0.12948600870959 0.125995251401541
outer loop
vertex -28.0578718176293 -29.0 15.2
vertex -17.0002945426876 -30.5552151938044 99.9193347754836
vertex -27.6735618131013 -29.0 18.2
endloop
endfacet
facet normal -0.991894395036279 3.24178842185263e-016 0.127064979815894
outer loop
vertex -30.4 -26.0 0.0
vertex -28.0578718176293 -29.0 15.2
vertex -28.4528293103915 -26.0 15.2
endloop
endfacet
facet normal -0.958096413116914 0.256721160165833 0.127064979815894
outer loop
vertex -17.0002945426876 -21.4447848061956 99.9193347754836
vertex -28.0685193058635 -26.0 18.2
vertex -17.6 -26.0 99.9193347754836
endloop
endfacet
facet normal -0.991894395036279 3.24178842185263e-016 0.127064979815894
outer loop
vertex -28.0685193058635 -26.0 18.2
vertex -17.0002945426876 -21.4447848061956 99.9193347754836
vertex -27.6735618131013 -23.0 18.2
endloop
endfacet
facet normal -0.983543883196232 0.12948600870959 0.125995251401541
outer loop
vertex -27.6735618131013 -23.0 18.2
vertex -17.0002945426876 -21.4447848061956 99.9193347754836
vertex -28.0578718176293 -23.0 15.2
endloop
endfacet
facet normal -0.983543883196232 0.12948600870959 0.125995251401541
outer loop
vertex -28.0578718176293 -23.0 15.2
vertex -30.4 -26.0 0.0
vertex -28.4528293103915 -26.0 15.2
endloop
endfacet
facet normal -0.991894395036279 3.24178842185263e-016 0.127064979815894
outer loop
vertex -30.4 -26.0 0.0
vertex -28.0578718176293 -23.0 15.2
vertex -29.3641451191877 -18.1319010288833 0.0
endloop
endfacet
facet normal -0.958096413116913 0.256721160165833 0.127064979815894
outer loop
vertex -29.3641451191877 -18.1319010288833 0.0
vertex -28.0578718176293 -23.0 15.2
vertex -17.0002945426876 -21.4447848061956 99.9193347754836
endloop
endfacet
facet normal -0.859005743972815 0.49594719751814 0.127064979815894
outer loop
vertex -15.2420471066061 -17.2 99.9193347754836
vertex -29.3641451191877 -18.1319010288833 0.0
vertex -17.0002945426876 -21.4447848061956 99.9193347754836
endloop
endfacet
facet normal -0.958096413116913 0.256721160165833 0.127064979815894
outer loop
vertex -29.3641451191877 -18.1319010288833 0.0
vertex -15.2420471066061 -17.2 99.9193347754836
vertex -26.3271722750469 -10.8 0.0
endloop
endfacet
facet normal -0.701375252951082 0.701375252951081 0.127064979815894
outer loop
vertex -12.4450793488832 -13.5549206511168 99.9193347754836
vertex -26.3271722750469 -10.8 0.0
vertex -15.2420471066061 -17.2 99.9193347754836
endloop
endfacet
facet normal -0.859005743972815 0.49594719751814 0.127064979815894
outer loop
vertex -26.3271722750469 -10.8 0.0
vertex -12.4450793488832 -13.5549206511168 99.9193347754836
vertex -21.496046148071 -4.50395385192894 0.0
endloop
endfacet
facet normal -0.701375252951082 0.701375252951081 0.127064979815894
outer loop
vertex -12.4450793488832 -13.5549206511168 99.9193347754836
vertex -15.2 0.327172275046943 0.0
vertex -21.496046148071 -4.50395385192894 0.0
endloop
endfacet
facet normal -0.49594719751814 0.859005743972815 0.127064979815894
outer loop
vertex -15.2 0.327172275046943 0.0
vertex -12.4450793488832 -13.5549206511168 99.9193347754836
vertex -8.8 -10.7579528933939 99.9193347754836
endloop
endfacet
facet normal -0.49594719751814 0.859005743972815 0.127064979815894
outer loop
vertex -8.8 -10.7579528933939 99.9193347754836
vertex -7.86809897111662 3.36414511918768 0.0
vertex -15.2 0.327172275046943 0.0
endloop
endfacet
facet normal -0.256721160165832 0.958096413116914 0.127064979815894
outer loop
vertex -7.86809897111662 3.36414511918768 0.0
vertex -8.8 -10.7579528933939 99.9193347754836
vertex -4.55521519380436 -8.9997054573124 99.9193347754836
endloop
endfacet
facet normal -0.256721160165832 0.958096413116914 0.127064979815894
outer loop
vertex -4.55521519380436 -8.9997054573124 99.9193347754836
vertex 3.70120600834412e-015 4.4 0.0
vertex -7.86809897111662 3.36414511918768 0.0
endloop
endfacet
facet normal 3.24178842185263e-016 0.991894395036279 0.127064979815894
outer loop
vertex 3.70120600834412e-015 4.4 0.0
vertex -4.55521519380436 -8.9997054573124 99.9193347754836
vertex 0.0 -8.4 99.9193347754836
endloop
endfacet
facet normal 3.26221140548719e-016 0.991894395036279 0.127064979815894
outer loop
vertex 0.0 -8.4 99.9193347754836
vertex 7.86809897111664 3.36414511918768 0.0
vertex 3.70120600834412e-015 4.4 0.0
endloop
endfacet
facet normal 0.256721160165833 0.958096413116914 0.127064979815894
outer loop
vertex 7.86809897111664 3.36414511918768 0.0
vertex 0.0 -8.4 99.9193347754836
vertex 4.55521519380438 -8.99970545731241 99.9193347754836
endloop
endfacet
facet normal 0.256721160165833 0.958096413116913 0.127064979815894
outer loop
vertex 4.55521519380438 -8.99970545731241 99.9193347754836
vertex 15.2 0.327172275046932 0.0
vertex 7.86809897111664 3.36414511918768 0.0
endloop
endfacet
facet normal 0.49594719751814 0.859005743972815 0.127064979815894
outer loop
vertex 15.2 0.327172275046932 0.0
vertex 4.55521519380438 -8.99970545731241 99.9193347754836
vertex 8.80000000000001 -10.7579528933939 99.9193347754836
endloop
endfacet
facet normal 0.49594719751814 0.859005743972815 0.127064979815894
outer loop
vertex 8.80000000000001 -10.7579528933939 99.9193347754836
vertex 21.496046148071 -4.50395385192896 0.0
vertex 15.2 0.327172275046932 0.0
endloop
endfacet
facet normal 0.701375252951082 0.701375252951081 0.127064979815894
outer loop
vertex 21.496046148071 -4.50395385192896 0.0
vertex 8.80000000000001 -10.7579528933939 99.9193347754836
vertex 12.4450793488832 -13.5549206511168 99.9193347754836
endloop
endfacet
facet normal 0.859005743972815 0.495947197518139 0.127064979815894
outer loop
vertex 26.3271722750469 -10.8 0.0
vertex 12.4450793488832 -13.5549206511168 99.9193347754836
vertex 15.2420471066061 -17.2 99.9193347754836
endloop
endfacet
facet normal 0.701375252951082 0.701375252951081 0.127064979815894
outer loop
vertex 12.4450793488832 -13.5549206511168 99.9193347754836
vertex 26.3271722750469 -10.8 0.0
vertex 21.496046148071 -4.50395385192896 0.0
endloop
endfacet
facet normal 0.958096413116914 0.256721160165832 0.127064979815894
outer loop
vertex 29.3641451191877 -18.1319010288834 0.0
vertex 15.2420471066061 -17.2 99.9193347754836
vertex 17.0002945426876 -21.4447848061956 99.9193347754836
endloop
endfacet
facet normal 0.859005743972815 0.495947197518139 0.127064979815894
outer loop
vertex 15.2420471066061 -17.2 99.9193347754836
vertex 29.3641451191877 -18.1319010288834 0.0
vertex 26.3271722750469 -10.8 0.0
endloop
endfacet
facet normal 0.991894395036279 -1.9810929244655e-016 0.127064979815894
outer loop
vertex 30.4 -26.0 0.0
vertex 28.0578718176293 -23.0 15.2
vertex 28.4528293103915 -26.0 15.2
endloop
endfacet
facet normal 0.983543883196232 0.129486008709589 0.125995251401541
outer loop
vertex 28.0578718176293 -23.0 15.2
vertex 30.4 -26.0 0.0
vertex 29.3641451191877 -18.1319010288834 0.0
endloop
endfacet
facet normal 0.983543883196232 0.129486008709589 0.125995251401541
outer loop
vertex 28.0578718176293 -23.0 15.2
vertex 29.3641451191877 -18.1319010288834 0.0
vertex 17.0002945426876 -21.4447848061956 99.9193347754836
endloop
endfacet
facet normal 0.983543883196232 0.129486008709589 0.125995251401541
outer loop
vertex 27.6735618131013 -23.0 18.2
vertex 17.6 -26.0 99.9193347754836
vertex 28.0685193058635 -26.0 18.2
endloop
endfacet
facet normal 0.991894395036279 -2.46870052307139e-016 0.127064979815894
outer loop
vertex 17.6 -26.0 99.9193347754836
vertex 27.6735618131013 -23.0 18.2
vertex 17.0002945426876 -21.4447848061956 99.9193347754836
endloop
endfacet
facet normal 0.958096413116914 0.256721160165832 0.127064979815894
outer loop
vertex 17.0002945426876 -21.4447848061956 99.9193347754836
vertex 27.6735618131013 -23.0 18.2
vertex 28.0578718176293 -23.0 15.2
endloop
endfacet
facet normal 0.958096413116913 -0.256721160165833 0.127064979815894
outer loop
vertex 29.3641451191877 -33.8680989711166 0.0
vertex 28.0578718176293 -29.0 15.2
vertex 17.0002945426876 -30.5552151938044 99.9193347754836
endloop
endfacet
facet normal 0.983543883196232 -0.12948600870959 0.125995251401541
outer loop
vertex 28.0578718176293 -29.0 15.2
vertex 29.3641451191877 -33.8680989711166 0.0
vertex 30.4 -26.0 0.0
endloop
endfacet
facet normal 0.983543883196232 -0.12948600870959 0.125995251401541
outer loop
vertex 28.0578718176293 -29.0 15.2
vertex 30.4 -26.0 0.0
vertex 28.4528293103915 -26.0 15.2
endloop
endfacet
facet normal 0.958096413116914 -0.256721160165833 0.127064979815894
outer loop
vertex 17.0002945426876 -30.5552151938044 99.9193347754836
vertex 27.6735618131013 -29.0 18.2
vertex 17.6 -26.0 99.9193347754836
endloop
endfacet
facet normal 0.983543883196232 -0.12948600870959 0.125995251401541
outer loop
vertex 27.6735618131013 -29.0 18.2
vertex 17.0002945426876 -30.5552151938044 99.9193347754836
vertex 28.0578718176293 -29.0 15.2
endloop
endfacet
facet normal 0.991894395036279 -2.46870052307139e-016 0.127064979815894
outer loop
vertex 17.6 -26.0 99.9193347754836
vertex 27.6735618131013 -29.0 18.2
vertex 28.0685193058635 -26.0 18.2
endloop
endfacet
facet normal 0.958096413116913 -0.256721160165833 0.127064979815894
outer loop
vertex 29.3641451191877 -33.8680989711166 0.0
vertex 15.2420471066061 -34.8 99.9193347754836
vertex 26.3271722750469 -41.2 0.0
endloop
endfacet
facet normal 0.859005743972814 -0.495947197518141 0.127064979815894
outer loop
vertex 15.2420471066061 -34.8 99.9193347754836
vertex 29.3641451191877 -33.8680989711166 0.0
vertex 17.0002945426876 -30.5552151938044 99.9193347754836
endloop
endfacet
facet normal 0.859005743972814 -0.495947197518141 0.127064979815894
outer loop
vertex 26.3271722750469 -41.2 0.0
vertex 12.4450793488832 -38.4450793488832 99.9193347754836
vertex 21.496046148071 -47.496046148071 0.0
endloop
endfacet
facet normal 0.70137525295108 -0.701375252951082 0.127064979815894
outer loop
vertex 12.4450793488832 -38.4450793488832 99.9193347754836
vertex 26.3271722750469 -41.2 0.0
vertex 15.2420471066061 -34.8 99.9193347754836
endloop
endfacet
facet normal 0.70137525295108 -0.701375252951082 0.127064979815894
outer loop
vertex 12.4450793488832 -38.4450793488832 99.9193347754836
vertex 15.2 -52.3271722750469 0.0
vertex 21.496046148071 -47.496046148071 0.0
endloop
endfacet
facet normal 0.49594719751814 -0.859005743972815 0.127064979815894
outer loop
vertex 15.2 -52.3271722750469 0.0
vertex 12.4450793488832 -38.4450793488832 99.9193347754836
vertex 8.8 -41.2420471066061 99.9193347754836
endloop
endfacet
facet normal 0.49594719751814 -0.859005743972815 0.127064979815894
outer loop
vertex 8.8 -41.2420471066061 99.9193347754836
vertex 7.86809897111663 -55.3641451191876 0.0
vertex 15.2 -52.3271722750469 0.0
endloop
endfacet
facet normal 0.256721160165832 -0.958096413116914 0.127064979815894
outer loop
vertex 7.86809897111663 -55.3641451191876 0.0
vertex 8.8 -41.2420471066061 99.9193347754836
vertex 4.55521519380436 -43.0002945426876 99.9193347754836
endloop
endfacet
facet normal 0.256721160165832 -0.958096413116914 0.127064979815894
outer loop
vertex 4.55521519380436 -43.0002945426876 99.9193347754836
vertex 0.0 -56.4 0.0
vertex 7.86809897111663 -55.3641451191876 0.0
endloop
endfacet
facet normal -1.35074517577193e-016 -0.991894395036279 0.127064979815894
outer loop
vertex 0.0 -56.4 0.0
vertex 4.55521519380436 -43.0002945426876 99.9193347754836
vertex -2.11497486191092e-015 -43.6 99.9193347754836
endloop
endfacet
facet normal -0.0 -0.0 1.0
outer loop
vertex -17.0002945426876 -30.5552151938044 105.819334775484
vertex -17.0002945426876 -21.4447848061956 105.819334775484
vertex -17.6 -26.0 105.819334775484
endloop
endfacet
facet normal -0.0 -0.0 1.0
outer loop
vertex -17.0002945426876 -21.4447848061956 105.819334775484
vertex -17.0002945426876 -30.5552151938044 105.819334775484
vertex -15.2420471066061 -34.8 105.819334775484
endloop
endfacet
facet normal -0.0 -0.0 1.0
outer loop
vertex -17.0002945426876 -21.4447848061956 105.819334775484
vertex -15.2420471066061 -34.8 105.819334775484
vertex -16.1 -26.0 105.819334775484
endloop
endfacet
facet normal -0.0 -0.0 1.0
outer loop
vertex -16.1 -26.0 105.819334775484
vertex -15.2420471066061 -34.8 105.819334775484
vertex -15.551405803254 -30.1669866261506 105.819334775484
endloop
endfacet
facet normal -0.0 -0.0 1.0
outer loop
vertex -15.551405803254 -30.1669866261506 105.819334775484
vertex -15.2420471066061 -34.8 105.819334775484
vertex -13.9430090009295 -34.05 105.819334775484
endloop
endfacet
facet normal -0.0 -0.0 1.0
outer loop
vertex -13.9430090009295 -34.05 105.819334775484
vertex -15.2420471066061 -34.8 105.819334775484
vertex -12.4450793488832 -38.4450793488832 105.819334775484
endloop
endfacet
facet normal -0.0 -0.0 1.0
outer loop
vertex -13.9430090009295 -34.05 105.819334775484
vertex -12.4450793488832 -38.4450793488832 105.819334775484
vertex -11.3844191771034 -37.3844191771034 105.819334775484
endloop
endfacet
facet normal -0.0 -0.0 1.0
outer loop
vertex -11.3844191771034 -37.3844191771034 105.819334775484
vertex -12.4450793488832 -38.4450793488832 105.819334775484
vertex -8.8 -41.2420471066061 105.819334775484
endloop
endfacet
facet normal -0.0 -0.0 1.0
outer loop
vertex -11.3844191771034 -37.3844191771034 105.819334775484
vertex -8.8 -41.2420471066061 105.819334775484
vertex -8.05000000000001 -39.9430090009295 105.819334775484
endloop
endfacet
facet normal -0.0 -0.0 1.0
outer loop
vertex -8.05000000000001 -39.9430090009295 105.819334775484
vertex -8.8 -41.2420471066061 105.819334775484
vertex -4.55521519380437 -43.0002945426876 105.819334775484
endloop
endfacet
facet normal -0.0 -0.0 1.0
outer loop
vertex -8.05000000000001 -39.9430090009295 105.819334775484
vertex -4.55521519380437 -43.0002945426876 105.819334775484
vertex -4.1669866261506 -41.551405803254 105.819334775484
endloop
endfacet
facet normal -0.0 -0.0 1.0
outer loop
vertex -4.1669866261506 -41.551405803254 105.819334775484
vertex -4.55521519380437 -43.0002945426876 105.819334775484
vertex -2.11497486191092e-015 -43.6 105.819334775484
endloop
endfacet
facet normal -0.0 -0.0 1.0
outer loop
vertex -4.1669866261506 -41.551405803254 105.819334775484
vertex -2.11497486191092e-015 -43.6 105.819334775484
vertex 0.0 -42.1 105.819334775484
endloop
endfacet
facet normal -0.0 -0.0 1.0
outer loop
vertex 0.0 -42.1 105.819334775484
vertex -2.11497486191092e-015 -43.6 105.819334775484
vertex 4.55521519380436 -43.0002945426876 105.819334775484
endloop
endfacet
facet normal -0.0 -0.0 1.0
outer loop
vertex 0.0 -42.1 105.819334775484
vertex 4.55521519380436 -43.0002945426876 105.819334775484
vertex 4.16698662615058 -41.551405803254 105.819334775484
endloop
endfacet
facet normal -0.0 -0.0 1.0
outer loop
vertex 4.16698662615058 -41.551405803254 105.819334775484
vertex 4.55521519380436 -43.0002945426876 105.819334775484
vertex 8.05 -39.9430090009295 105.819334775484
endloop
endfacet
facet normal -0.0 -0.0 1.0
outer loop
vertex 8.05 -39.9430090009295 105.819334775484
vertex 4.55521519380436 -43.0002945426876 105.819334775484
vertex 8.8 -41.2420471066061 105.819334775484
endloop
endfacet
facet normal -0.0 -0.0 1.0
outer loop
vertex 8.05 -39.9430090009295 105.819334775484
vertex 8.8 -41.2420471066061 105.819334775484
vertex 11.3844191771034 -37.3844191771034 105.819334775484
endloop
endfacet
facet normal -0.0 -0.0 1.0
outer loop
vertex 11.3844191771034 -37.3844191771034 105.819334775484
vertex 8.8 -41.2420471066061 105.819334775484
vertex 12.4450793488832 -38.4450793488832 105.819334775484
endloop
endfacet
facet normal -0.0 -0.0 1.0
outer loop
vertex 11.3844191771034 -37.3844191771034 105.819334775484
vertex 12.4450793488832 -38.4450793488832 105.819334775484
vertex 13.9430090009295 -34.05 105.819334775484
endloop
endfacet
facet normal -0.0 -0.0 1.0
outer loop
vertex 13.9430090009295 -34.05 105.819334775484
vertex 12.4450793488832 -38.4450793488832 105.819334775484
vertex 15.2420471066061 -34.8 105.819334775484
endloop
endfacet
facet normal -0.0 -0.0 1.0
outer loop
vertex 13.9430090009295 -34.05 105.819334775484
vertex 15.2420471066061 -34.8 105.819334775484
vertex 15.551405803254 -30.1669866261506 105.819334775484
endloop
endfacet
facet normal -0.0 -0.0 1.0
outer loop
vertex 15.551405803254 -30.1669866261506 105.819334775484
vertex 15.2420471066061 -34.8 105.819334775484
vertex 17.0002945426876 -30.5552151938044 105.819334775484
endloop
endfacet
facet normal -0.0 -0.0 1.0
outer loop
vertex 15.551405803254 -30.1669866261506 105.819334775484
vertex 17.0002945426876 -30.5552151938044 105.819334775484
vertex 16.1 -26.0 105.819334775484
endloop
endfacet
facet normal -0.0 -0.0 1.0
outer loop
vertex -16.1 -26.0 105.819334775484
vertex -15.2420471066061 -17.2 105.819334775484
vertex -17.0002945426876 -21.4447848061956 105.819334775484
endloop
endfacet
facet normal -0.0 -0.0 1.0
outer loop
vertex -15.2420471066061 -17.2 105.819334775484
vertex -16.1 -26.0 105.819334775484
vertex -15.551405803254 -21.8330133738494 105.819334775484
endloop
endfacet
facet normal -0.0 -0.0 1.0
outer loop
vertex -15.2420471066061 -17.2 105.819334775484
vertex -15.551405803254 -21.8330133738494 105.819334775484
vertex -13.9430090009295 -17.95 105.819334775484
endloop
endfacet
facet normal -0.0 -0.0 1.0
outer loop
vertex -15.2420471066061 -17.2 105.819334775484
vertex -13.9430090009295 -17.95 105.819334775484
vertex -12.4450793488832 -13.5549206511168 105.819334775484
endloop
endfacet
facet normal -0.0 -0.0 1.0
outer loop
vertex -12.4450793488832 -13.5549206511168 105.819334775484
vertex -13.9430090009295 -17.95 105.819334775484
vertex -11.3844191771034 -14.6155808228966 105.819334775484
endloop
endfacet
facet normal -0.0 -0.0 1.0
outer loop
vertex -12.4450793488832 -13.5549206511168 105.819334775484
vertex -11.3844191771034 -14.6155808228966 105.819334775484
vertex -8.8 -10.7579528933939 105.819334775484
endloop
endfacet
facet normal -0.0 -0.0 1.0
outer loop
vertex -8.8 -10.7579528933939 105.819334775484
vertex -11.3844191771034 -14.6155808228966 105.819334775484
vertex -8.05 -12.0569909990705 105.819334775484
endloop
endfacet
facet normal -0.0 -0.0 1.0
outer loop
vertex -8.8 -10.7579528933939 105.819334775484
vertex -8.05 -12.0569909990705 105.819334775484
vertex -4.55521519380436 -8.9997054573124 105.819334775484
endloop
endfacet
facet normal -0.0 -0.0 1.0
outer loop
vertex -4.55521519380436 -8.9997054573124 105.819334775484
vertex -8.05 -12.0569909990705 105.819334775484
vertex -4.16698662615058 -10.448594196746 105.819334775484
endloop
endfacet
facet normal -0.0 -0.0 1.0
outer loop
vertex -4.55521519380436 -8.9997054573124 105.819334775484
vertex -4.16698662615058 -10.448594196746 105.819334775484
vertex 0.0 -8.4 105.819334775484
endloop
endfacet
facet normal -0.0 -0.0 1.0
outer loop
vertex 0.0 -8.4 105.819334775484
vertex -4.16698662615058 -10.448594196746 105.819334775484
vertex 1.93872695675168e-015 -9.9 105.819334775484
endloop
endfacet
facet normal -0.0 -0.0 1.0
outer loop
vertex 0.0 -8.4 105.819334775484
vertex 1.93872695675168e-015 -9.9 105.819334775484
vertex 4.55521519380438 -8.99970545731241 105.819334775484
endloop
endfacet
facet normal -0.0 -0.0 1.0
outer loop
vertex 4.55521519380438 -8.99970545731241 105.819334775484
vertex 1.93872695675168e-015 -9.9 105.819334775484
vertex 4.16698662615059 -10.448594196746 105.819334775484
endloop
endfacet
facet normal -0.0 -0.0 1.0
outer loop
vertex 4.55521519380438 -8.99970545731241 105.819334775484
vertex 4.16698662615059 -10.448594196746 105.819334775484
vertex 8.05000000000001 -12.0569909990705 105.819334775484
endloop
endfacet
facet normal -0.0 -0.0 1.0
outer loop
vertex 4.55521519380438 -8.99970545731241 105.819334775484
vertex 8.05000000000001 -12.0569909990705 105.819334775484
vertex 8.80000000000001 -10.7579528933939 105.819334775484
endloop
endfacet
facet normal -0.0 -0.0 1.0
outer loop
vertex 8.80000000000001 -10.7579528933939 105.819334775484
vertex 8.05000000000001 -12.0569909990705 105.819334775484
vertex 11.3844191771034 -14.6155808228966 105.819334775484
endloop
endfacet
facet normal -0.0 -0.0 1.0
outer loop
vertex 8.80000000000001 -10.7579528933939 105.819334775484
vertex 11.3844191771034 -14.6155808228966 105.819334775484
vertex 12.4450793488832 -13.5549206511168 105.819334775484
endloop
endfacet
facet normal -0.0 -0.0 1.0
outer loop
vertex 12.4450793488832 -13.5549206511168 105.819334775484
vertex 11.3844191771034 -14.6155808228966 105.819334775484
vertex 13.9430090009295 -17.95 105.819334775484
endloop
endfacet
facet normal -0.0 -0.0 1.0
outer loop
vertex 12.4450793488832 -13.5549206511168 105.819334775484
vertex 13.9430090009295 -17.95 105.819334775484
vertex 15.2420471066061 -17.2 105.819334775484
endloop
endfacet
facet normal -0.0 -0.0 1.0
outer loop
vertex 15.2420471066061 -17.2 105.819334775484
vertex 13.9430090009295 -17.95 105.819334775484
vertex 15.551405803254 -21.8330133738494 105.819334775484
endloop
endfacet
facet normal -0.0 -0.0 1.0
outer loop
vertex 15.2420471066061 -17.2 105.819334775484
vertex 15.551405803254 -21.8330133738494 105.819334775484
vertex 17.0002945426876 -21.4447848061956 105.819334775484
endloop
endfacet
facet normal -0.0 -0.0 1.0
outer loop
vertex 17.0002945426876 -21.4447848061956 105.819334775484
vertex 15.551405803254 -21.8330133738494 105.819334775484
vertex 16.1 -26.0 105.819334775484
endloop
endfacet
facet normal -0.0 -0.0 1.0
outer loop
vertex 17.0002945426876 -21.4447848061956 105.819334775484
vertex 16.1 -26.0 105.819334775484
vertex 17.0002945426876 -30.5552151938044 105.819334775484
endloop
endfacet
facet normal -0.0 -0.0 1.0
outer loop
vertex 17.0002945426876 -21.4447848061956 105.819334775484
vertex 17.0002945426876 -30.5552151938044 105.819334775484
vertex 17.6 -26.0 105.819334775484
endloop
endfacet
facet normal 0.707106781186547 -0.707106781186548 -7.31209709009539e-031
outer loop
vertex 12.4450793488832 -38.4450793488832 105.819334775484
vertex 8.8 -41.2420471066061 99.9193347754836
vertex 12.4450793488832 -38.4450793488832 99.9193347754836
endloop
endfacet
facet normal 0.5 -0.866025403784439 1.76353855849228e-031
outer loop
vertex 8.8 -41.2420471066061 99.9193347754836
vertex 12.4450793488832 -38.4450793488832 105.819334775484
vertex 8.8 -41.2420471066061 105.819334775484
endloop
endfacet
facet normal 0.866025403784438 -0.500000000000001 1.28507680103439e-018
outer loop
vertex 15.2420471066061 -34.8 99.9193347754836
vertex 12.4450793488832 -38.4450793488832 105.819334775484
vertex 12.4450793488832 -38.4450793488832 99.9193347754836
endloop
endfacet
facet normal 0.707106781186547 -0.707106781186548 -7.31209709009539e-031
outer loop
vertex 12.4450793488832 -38.4450793488832 105.819334775484
vertex 15.2420471066061 -34.8 99.9193347754836
vertex 15.2420471066061 -34.8 105.819334775484
endloop
endfacet
facet normal 0.965925826289068 -0.258819045102522 3.29451050859166e-018
outer loop
vertex 17.0002945426876 -30.5552151938044 99.9193347754836
vertex 15.2420471066061 -34.8 105.819334775484
vertex 15.2420471066061 -34.8 99.9193347754836
endloop
endfacet
facet normal 0.866025403784438 -0.500000000000001 1.28507680103439e-018
outer loop
vertex 15.2420471066061 -34.8 105.819334775484
vertex 17.0002945426876 -30.5552151938044 99.9193347754836
vertex 17.0002945426876 -30.5552151938044 105.819334775484
endloop
endfacet
facet normal 1.0 -3.92088835408464e-016 -2.11637573069186e-018
outer loop
vertex 17.6 -26.0 99.9193347754836
vertex 17.0002945426876 -30.5552151938044 105.819334775484
vertex 17.0002945426876 -30.5552151938044 99.9193347754836
endloop
endfacet
facet normal 0.965925826289068 -0.258819045102522 3.29451050859166e-018
outer loop
vertex 17.0002945426876 -30.5552151938044 105.819334775484
vertex 17.6 -26.0 99.9193347754836
vertex 17.6 -26.0 105.819334775484
endloop
endfacet
facet normal 0.965925826289068 0.25881904510252 -4.1258094382489e-018
outer loop
vertex 17.0002945426876 -21.4447848061956 99.9193347754836
vertex 17.6 -26.0 105.819334775484
vertex 17.6 -26.0 99.9193347754836
endloop
endfacet
facet normal 1.0 -3.92088835408464e-016 -2.11637573069186e-018
outer loop
vertex 17.6 -26.0 105.819334775484
vertex 17.0002945426876 -21.4447848061956 99.9193347754836
vertex 17.0002945426876 -21.4447848061956 105.819334775484
endloop
endfacet
facet normal 0.866025403784439 0.5 -4.98804029437538e-031
outer loop
vertex 15.2420471066061 -17.2 99.9193347754836
vertex 17.0002945426876 -21.4447848061956 105.819334775484
vertex 17.0002945426876 -21.4447848061956 99.9193347754836
endloop
endfacet
facet normal 0.965925826289068 0.25881904510252 -4.1258094382489e-018
outer loop
vertex 17.0002945426876 -21.4447848061956 105.819334775484
vertex 15.2420471066061 -17.2 99.9193347754836
vertex 15.2420471066061 -17.2 105.819334775484
endloop
endfacet
facet normal 0.707106781186548 0.707106781186547 9.87056997695987e-018
outer loop
vertex 12.4450793488832 -13.5549206511168 99.9193347754836
vertex 15.2420471066061 -17.2 105.819334775484
vertex 15.2420471066061 -17.2 99.9193347754836
endloop
endfacet
facet normal 0.866025403784439 0.5 -4.98804029437538e-031
outer loop
vertex 15.2420471066061 -17.2 105.819334775484
vertex 12.4450793488832 -13.5549206511168 99.9193347754836
vertex 12.4450793488832 -13.5549206511168 105.819334775484
endloop
endfacet
facet normal 0.5 0.866025403784438 2.38059349242469e-018
outer loop
vertex 8.80000000000001 -10.7579528933939 105.819334775484
vertex 12.4450793488832 -13.5549206511168 99.9193347754836
vertex 8.80000000000001 -10.7579528933939 99.9193347754836
endloop
endfacet
facet normal 0.707106781186548 0.707106781186547 9.87056997695987e-018
outer loop
vertex 12.4450793488832 -13.5549206511168 99.9193347754836
vertex 8.80000000000001 -10.7579528933939 105.819334775484
vertex 12.4450793488832 -13.5549206511168 105.819334775484
endloop
endfacet
facet normal 0.258819045102522 0.965925826289068 -7.48997648453518e-018
outer loop
vertex 4.55521519380438 -8.99970545731241 105.819334775484
vertex 8.80000000000001 -10.7579528933939 99.9193347754836
vertex 4.55521519380438 -8.99970545731241 99.9193347754836
endloop
endfacet
facet normal 0.5 0.866025403784438 2.38059349242469e-018
outer loop
vertex 8.80000000000001 -10.7579528933939 99.9193347754836
vertex 4.55521519380438 -8.99970545731241 105.819334775484
vertex 8.80000000000001 -10.7579528933939 105.819334775484
endloop
endfacet
facet normal 4.09911055199758e-016 1.0 0.0
outer loop
vertex 0.0 -8.4 105.819334775484
vertex 4.55521519380438 -8.99970545731241 99.9193347754836
vertex 0.0 -8.4 99.9193347754836
endloop
endfacet
facet normal 0.258819045102522 0.965925826289068 -7.48997648453518e-018
outer loop
vertex 4.55521519380438 -8.99970545731241 99.9193347754836
vertex 0.0 -8.4 105.819334775484
vertex 4.55521519380438 -8.99970545731241 105.819334775484
endloop
endfacet
facet normal -0.258819045102521 0.965925826289068 -8.81769279246144e-032
outer loop
vertex -4.55521519380436 -8.9997054573124 105.819334775484
vertex 0.0 -8.4 99.9193347754836
vertex -4.55521519380436 -8.9997054573124 99.9193347754836
endloop
endfacet
facet normal 4.09911055199758e-016 1.0 0.0
outer loop
vertex 0.0 -8.4 99.9193347754836
vertex -4.55521519380436 -8.9997054573124 105.819334775484
vertex 0.0 -8.4 105.819334775484
endloop
endfacet
facet normal -0.5 0.866025403784439 1.20410972468019e-030
outer loop
vertex -8.8 -10.7579528933939 105.819334775484
vertex -4.55521519380436 -8.9997054573124 99.9193347754836
vertex -8.8 -10.7579528933939 99.9193347754836
endloop
endfacet
facet normal -0.258819045102521 0.965925826289068 -8.81769279246144e-032
outer loop
vertex -4.55521519380436 -8.9997054573124 99.9193347754836
vertex -8.8 -10.7579528933939 105.819334775484
vertex -4.55521519380436 -8.9997054573124 105.819334775484
endloop
endfacet
facet normal -0.707106781186547 0.707106781186547 1.2922866526048e-030
outer loop
vertex -12.4450793488832 -13.5549206511168 105.819334775484
vertex -8.8 -10.7579528933939 99.9193347754836
vertex -12.4450793488832 -13.5549206511168 99.9193347754836
endloop
endfacet
facet normal -0.5 0.866025403784439 1.20410972468019e-030
outer loop
vertex -8.8 -10.7579528933939 99.9193347754836
vertex -12.4450793488832 -13.5549206511168 105.819334775484
vertex -8.8 -10.7579528933939 105.819334775484
endloop
endfacet
facet normal -0.707106781186547 0.707106781186547 1.2922866526048e-030
outer loop
vertex -12.4450793488832 -13.5549206511168 105.819334775484
vertex -15.2420471066061 -17.2 99.9193347754836
vertex -15.2420471066061 -17.2 105.819334775484
endloop
endfacet
facet normal -0.866025403784439 0.5 3.52707711698458e-031
outer loop
vertex -15.2420471066061 -17.2 99.9193347754836
vertex -12.4450793488832 -13.5549206511168 105.819334775484
vertex -12.4450793488832 -13.5549206511168 99.9193347754836
endloop
endfacet
facet normal -0.866025403784439 0.5 3.52707711698458e-031
outer loop
vertex -15.2420471066061 -17.2 105.819334775484
vertex -17.0002945426876 -21.4447848061956 99.9193347754836
vertex -17.0002945426876 -21.4447848061956 105.819334775484
endloop
endfacet
facet normal -0.965925826289068 0.258819045102521 -1.06942023132913e-019
outer loop
vertex -17.0002945426876 -21.4447848061956 99.9193347754836
vertex -15.2420471066061 -17.2 105.819334775484
vertex -15.2420471066061 -17.2 99.9193347754836
endloop
endfacet
facet normal -0.965925826289068 0.258819045102521 -1.06942023132913e-019
outer loop
vertex -17.0002945426876 -21.4447848061956 105.819334775484
vertex -17.6 -26.0 99.9193347754836
vertex -17.6 -26.0 105.819334775484
endloop
endfacet
facet normal -1.0 2.5842218697376e-016 -1.06942023133265e-019
outer loop
vertex -17.6 -26.0 99.9193347754836
vertex -17.0002945426876 -21.4447848061956 105.819334775484
vertex -17.0002945426876 -21.4447848061956 99.9193347754836
endloop
endfacet
facet normal -1.0 2.5842218697376e-016 -1.06942023133265e-019
outer loop
vertex -17.6 -26.0 105.819334775484
vertex -17.0002945426876 -30.5552151938044 99.9193347754836
vertex -17.0002945426876 -30.5552151938044 105.819334775484
endloop
endfacet
facet normal -0.965925826289068 -0.258819045102521 0.0
outer loop
vertex -17.0002945426876 -30.5552151938044 99.9193347754836
vertex -17.6 -26.0 105.819334775484
vertex -17.6 -26.0 99.9193347754836
endloop
endfacet
facet normal -0.965925826289068 -0.258819045102521 0.0
outer loop
vertex -17.0002945426876 -30.5552151938044 105.819334775484
vertex -15.2420471066061 -34.8 99.9193347754836
vertex -15.2420471066061 -34.8 105.819334775484
endloop
endfacet
facet normal -0.866025403784439 -0.5 -7.3120970900954e-031
outer loop
vertex -15.2420471066061 -34.8 99.9193347754836
vertex -17.0002945426876 -30.5552151938044 105.819334775484
vertex -17.0002945426876 -30.5552151938044 99.9193347754836
endloop
endfacet
facet normal -0.866025403784439 -0.5 -7.3120970900954e-031
outer loop
vertex -15.2420471066061 -34.8 105.819334775484
vertex -12.4450793488832 -38.4450793488832 99.9193347754836
vertex -12.4450793488832 -38.4450793488832 105.819334775484
endloop
endfacet
facet normal -0.707106781186547 -0.707106781186548 9.87056997695913e-018
outer loop
vertex -12.4450793488832 -38.4450793488832 99.9193347754836
vertex -15.2420471066061 -34.8 105.819334775484
vertex -15.2420471066061 -34.8 99.9193347754836
endloop
endfacet
facet normal -0.499999999999999 -0.866025403784439 9.87056997695986e-018
outer loop
vertex -8.8 -41.2420471066061 105.819334775484
vertex -12.4450793488832 -38.4450793488832 99.9193347754836
vertex -8.8 -41.2420471066061 99.9193347754836
endloop
endfacet
facet normal -0.707106781186547 -0.707106781186548 9.87056997695913e-018
outer loop
vertex -12.4450793488832 -38.4450793488832 99.9193347754836
vertex -8.8 -41.2420471066061 105.819334775484
vertex -12.4450793488832 -38.4450793488832 105.819334775484
endloop
endfacet
facet normal -0.258819045102521 -0.965925826289068 0.0
outer loop
vertex -4.55521519380437 -43.0002945426876 105.819334775484
vertex -8.8 -41.2420471066061 99.9193347754836
vertex -4.55521519380437 -43.0002945426876 99.9193347754836
endloop
endfacet
facet normal -0.499999999999999 -0.866025403784439 9.87056997695986e-018
outer loop
vertex -8.8 -41.2420471066061 99.9193347754836
vertex -4.55521519380437 -43.0002945426876 105.819334775484
vertex -8.8 -41.2420471066061 105.819334775484
endloop
endfacet
facet normal -1.13171095674716e-015 -1.0 3.68521412920649e-030
outer loop
vertex -2.11497486191092e-015 -43.6 105.819334775484
vertex -4.55521519380437 -43.0002945426876 99.9193347754836
vertex -2.11497486191092e-015 -43.6 99.9193347754836
endloop
endfacet
facet normal -0.258819045102521 -0.965925826289068 0.0
outer loop
vertex -4.55521519380437 -43.0002945426876 99.9193347754836
vertex -2.11497486191092e-015 -43.6 105.819334775484
vertex -4.55521519380437 -43.0002945426876 105.819334775484
endloop
endfacet
facet normal 0.25881904510252 -0.965925826289069 3.86156798505572e-030
outer loop
vertex 4.55521519380436 -43.0002945426876 105.819334775484
vertex -2.11497486191092e-015 -43.6 99.9193347754836
vertex 4.55521519380436 -43.0002945426876 99.9193347754836
endloop
endfacet
facet normal -1.13171095674716e-015 -1.0 3.68521412920649e-030
outer loop
vertex -2.11497486191092e-015 -43.6 99.9193347754836
vertex 4.55521519380436 -43.0002945426876 105.819334775484
vertex -2.11497486191092e-015 -43.6 105.819334775484
endloop
endfacet
facet normal 0.5 -0.866025403784439 1.76353855849228e-031
outer loop
vertex 8.8 -41.2420471066061 105.819334775484
vertex 4.55521519380436 -43.0002945426876 99.9193347754836
vertex 8.8 -41.2420471066061 99.9193347754836
endloop
endfacet
facet normal 0.25881904510252 -0.965925826289069 3.86156798505572e-030
outer loop
vertex 4.55521519380436 -43.0002945426876 99.9193347754836
vertex 8.8 -41.2420471066061 105.819334775484
vertex 4.55521519380436 -43.0002945426876 105.819334775484
endloop
endfacet
facet normal -0.707106781186548 -0.707106781186547 -6.43178861918798e-018
outer loop
vertex 11.3844191771034 -14.6155808228966 105.819334775484
vertex 8.05000000000001 -12.0569909990705 99.9193347754836
vertex 11.3844191771034 -14.6155808228966 99.9193347754836
endloop
endfacet
facet normal -0.5 -0.866025403784438 -6.43178861918863e-018
outer loop
vertex 8.05000000000001 -12.0569909990705 99.9193347754836
vertex 11.3844191771034 -14.6155808228966 105.819334775484
vertex 8.05000000000001 -12.0569909990705 105.819334775484
endloop
endfacet
facet normal -0.707106781186548 -0.707106781186547 -6.43178861918798e-018
outer loop
vertex 11.3844191771034 -14.6155808228966 105.819334775484
vertex 13.9430090009295 -17.95 99.9193347754836
vertex 13.9430090009295 -17.95 105.819334775484
endloop
endfacet
facet normal -0.866025403784439 -0.5 -9.9498879257657e-018
outer loop
vertex 13.9430090009295 -17.95 99.9193347754836
vertex 11.3844191771034 -14.6155808228966 105.819334775484
vertex 11.3844191771034 -14.6155808228966 99.9193347754836
endloop
endfacet
facet normal -0.866025403784439 -0.5 -9.9498879257657e-018
outer loop
vertex 13.9430090009295 -17.95 105.819334775484
vertex 15.551405803254 -21.8330133738494 99.9193347754836
vertex 15.551405803254 -21.8330133738494 105.819334775484
endloop
endfacet
facet normal -0.965925826289068 -0.258819045102521 -1.19593216333249e-017
outer loop
vertex 15.551405803254 -21.8330133738494 99.9193347754836
vertex 13.9430090009295 -17.95 105.819334775484
vertex 13.9430090009295 -17.95 99.9193347754836
endloop
endfacet
facet normal -0.965925826289068 -0.258819045102521 -1.19593216333249e-017
outer loop
vertex 15.551405803254 -21.8330133738494 105.819334775484
vertex 16.1 -26.0 99.9193347754836
vertex 16.1 -26.0 105.819334775484
endloop
endfacet
facet normal -1.0 1.42577758330351e-016 -2.00943370755837e-018
outer loop
vertex 16.1 -26.0 99.9193347754836
vertex 15.551405803254 -21.8330133738494 105.819334775484
vertex 15.551405803254 -21.8330133738494 99.9193347754836
endloop
endfacet
facet normal -1.0 1.42577758330351e-016 -2.00943370755837e-018
outer loop
vertex 16.1 -26.0 105.819334775484
vertex 15.551405803254 -30.1669866261506 99.9193347754836
vertex 15.551405803254 -30.1669866261506 105.819334775484
endloop
endfacet
facet normal -0.965925826289068 0.258819045102521 -4.64811359144001e-031
outer loop
vertex 15.551405803254 -30.1669866261506 99.9193347754836
vertex 16.1 -26.0 105.819334775484
vertex 16.1 -26.0 99.9193347754836
endloop
endfacet
facet normal -0.965925826289068 0.258819045102521 -4.64811359144001e-031
outer loop
vertex 15.551405803254 -30.1669866261506 105.819334775484
vertex 13.9430090009295 -34.05 99.9193347754836
vertex 13.9430090009295 -34.05 105.819334775484
endloop
endfacet
facet normal -0.866025403784438 0.5 1.53889235098414e-030
outer loop
vertex 13.9430090009295 -34.05 99.9193347754836
vertex 15.551405803254 -30.1669866261506 105.819334775484
vertex 15.551405803254 -30.1669866261506 99.9193347754836
endloop
endfacet
facet normal -0.866025403784438 0.5 1.53889235098414e-030
outer loop
vertex 13.9430090009295 -34.05 105.819334775484
vertex 11.3844191771034 -37.3844191771034 99.9193347754836
vertex 11.3844191771034 -37.3844191771034 105.819334775484
endloop
endfacet
facet normal -0.707106781186546 0.707106781186549 2.24430777438105e-030
outer loop
vertex 11.3844191771034 -37.3844191771034 99.9193347754836
vertex 13.9430090009295 -34.05 105.819334775484
vertex 13.9430090009295 -34.05 99.9193347754836
endloop
endfacet
facet normal -0.499999999999999 0.866025403784439 -3.4942238924686e-030
outer loop
vertex 8.05 -39.9430090009295 105.819334775484
vertex 11.3844191771034 -37.3844191771034 99.9193347754836
vertex 8.05 -39.9430090009295 99.9193347754836
endloop
endfacet
facet normal -0.707106781186546 0.707106781186549 2.24430777438105e-030
outer loop
vertex 11.3844191771034 -37.3844191771034 99.9193347754836
vertex 8.05 -39.9430090009295 105.819334775484
vertex 11.3844191771034 -37.3844191771034 105.819334775484
endloop
endfacet
facet normal -0.25881904510252 0.965925826289068 -3.4942238924686e-030
outer loop
vertex 4.16698662615058 -41.551405803254 105.819334775484
vertex 8.05 -39.9430090009295 99.9193347754836
vertex 4.16698662615058 -41.551405803254 99.9193347754836
endloop
endfacet
facet normal -0.499999999999999 0.866025403784439 -3.4942238924686e-030
outer loop
vertex 8.05 -39.9430090009295 99.9193347754836
vertex 4.16698662615058 -41.551405803254 105.819334775484
vertex 8.05 -39.9430090009295 105.819334775484
endloop
endfacet
facet normal -1.96044417704232e-016 1.0 3.65513862117488e-030
outer loop
vertex 0.0 -42.1 105.819334775484
vertex 4.16698662615058 -41.551405803254 99.9193347754836
vertex 0.0 -42.1 99.9193347754836
endloop
endfacet
facet normal -0.25881904510252 0.965925826289068 -3.4942238924686e-030
outer loop
vertex 4.16698662615058 -41.551405803254 99.9193347754836
vertex 0.0 -42.1 105.819334775484
vertex 4.16698662615058 -41.551405803254 105.819334775484
endloop
endfacet
facet normal 0.25881904510252 0.965925826289068 3.65513862117488e-030
outer loop
vertex -4.1669866261506 -41.551405803254 105.819334775484
vertex 0.0 -42.1 99.9193347754836
vertex -4.1669866261506 -41.551405803254 99.9193347754836
endloop
endfacet
facet normal -1.96044417704232e-016 1.0 3.65513862117488e-030
outer loop
vertex 0.0 -42.1 99.9193347754836
vertex -4.1669866261506 -41.551405803254 105.819334775484
vertex 0.0 -42.1 105.819334775484
endloop
endfacet
facet normal 0.5 0.866025403784438 -2.80538471797631e-031
outer loop
vertex -8.05000000000001 -39.9430090009295 105.819334775484
vertex -4.1669866261506 -41.551405803254 99.9193347754836
vertex -8.05000000000001 -39.9430090009295 99.9193347754836
endloop
endfacet
facet normal 0.25881904510252 0.965925826289068 3.65513862117488e-030
outer loop
vertex -4.1669866261506 -41.551405803254 99.9193347754836
vertex -8.05000000000001 -39.9430090009295 105.819334775484
vertex -4.1669866261506 -41.551405803254 105.819334775484
endloop
endfacet
facet normal 0.707106781186548 0.707106781186547 -6.43178861919019e-018
outer loop
vertex -11.3844191771034 -37.3844191771034 105.819334775484
vertex -8.05000000000001 -39.9430090009295 99.9193347754836
vertex -11.3844191771034 -37.3844191771034 99.9193347754836
endloop
endfacet
facet normal 0.5 0.866025403784438 -2.80538471797631e-031
outer loop
vertex -8.05000000000001 -39.9430090009295 99.9193347754836
vertex -11.3844191771034 -37.3844191771034 105.819334775484
vertex -8.05000000000001 -39.9430090009295 105.819334775484
endloop
endfacet
facet normal 0.866025403784438 0.5 -1.26366883026887e-017
outer loop
vertex -13.9430090009295 -34.05 99.9193347754836
vertex -11.3844191771034 -37.3844191771034 105.819334775484
vertex -11.3844191771034 -37.3844191771034 99.9193347754836
endloop
endfacet
facet normal 0.707106781186548 0.707106781186547 -6.43178861919019e-018
outer loop
vertex -11.3844191771034 -37.3844191771034 105.819334775484
vertex -13.9430090009295 -34.05 99.9193347754836
vertex -13.9430090009295 -34.05 105.819334775484
endloop
endfacet
facet normal 0.965925826289068 0.258819045102521 -6.20489968349904e-018
outer loop
vertex -15.551405803254 -30.1669866261506 99.9193347754836
vertex -13.9430090009295 -34.05 105.819334775484
vertex -13.9430090009295 -34.05 99.9193347754836
endloop
endfacet
facet normal 0.866025403784438 0.5 -1.26366883026887e-017
outer loop
vertex -13.9430090009295 -34.05 105.819334775484
vertex -15.551405803254 -30.1669866261506 99.9193347754836
vertex -15.551405803254 -30.1669866261506 105.819334775484
endloop
endfacet
facet normal 1.0 -4.00999945304111e-016 -2.4060406425291e-031
outer loop
vertex -16.1 -26.0 99.9193347754836
vertex -15.551405803254 -30.1669866261506 105.819334775484
vertex -15.551405803254 -30.1669866261506 99.9193347754836
endloop
endfacet
facet normal 0.965925826289068 0.258819045102521 -6.20489968349904e-018
outer loop
vertex -15.551405803254 -30.1669866261506 105.819334775484
vertex -16.1 -26.0 99.9193347754836
vertex -16.1 -26.0 105.819334775484
endloop
endfacet
facet normal 0.965925826289068 -0.258819045102521 -6.20489968349917e-018
outer loop
vertex -15.551405803254 -21.8330133738494 99.9193347754836
vertex -16.1 -26.0 105.819334775484
vertex -16.1 -26.0 99.9193347754836
endloop
endfacet
facet normal 1.0 -4.00999945304111e-016 -2.4060406425291e-031
outer loop
vertex -16.1 -26.0 105.819334775484
vertex -15.551405803254 -21.8330133738494 99.9193347754836
vertex -15.551405803254 -21.8330133738494 105.819334775484
endloop
endfacet
facet normal 0.866025403784438 -0.500000000000001 -6.20489968350009e-018
outer loop
vertex -13.9430090009295 -17.95 99.9193347754836
vertex -15.551405803254 -21.8330133738494 105.819334775484
vertex -15.551405803254 -21.8330133738494 99.9193347754836
endloop
endfacet
facet normal 0.965925826289068 -0.258819045102521 -6.20489968349917e-018
outer loop
vertex -15.551405803254 -21.8330133738494 105.819334775484
vertex -13.9430090009295 -17.95 99.9193347754836
vertex -13.9430090009295 -17.95 105.819334775484
endloop
endfacet
facet normal 0.707106781186547 -0.707106781186548 -6.43178861918947e-018
outer loop
vertex -11.3844191771034 -14.6155808228966 99.9193347754836
vertex -13.9430090009295 -17.95 105.819334775484
vertex -13.9430090009295 -17.95 99.9193347754836
endloop
endfacet
facet normal 0.866025403784438 -0.500000000000001 -6.20489968350009e-018
outer loop
vertex -13.9430090009295 -17.95 105.819334775484
vertex -11.3844191771034 -14.6155808228966 99.9193347754836
vertex -11.3844191771034 -14.6155808228966 105.819334775484
endloop
endfacet
facet normal 0.5 -0.866025403784439 -2.68680037692213e-018
outer loop
vertex -8.05 -12.0569909990705 105.819334775484
vertex -11.3844191771034 -14.6155808228966 99.9193347754836
vertex -8.05 -12.0569909990705 99.9193347754836
endloop
endfacet
facet normal 0.707106781186547 -0.707106781186548 -6.43178861918947e-018
outer loop
vertex -11.3844191771034 -14.6155808228966 99.9193347754836
vertex -8.05 -12.0569909990705 105.819334775484
vertex -11.3844191771034 -14.6155808228966 105.819334775484
endloop
endfacet
facet normal 0.25881904510252 -0.965925826289068 3.74498824226639e-018
outer loop
vertex -4.16698662615058 -10.448594196746 105.819334775484
vertex -8.05 -12.0569909990705 99.9193347754836
vertex -4.16698662615058 -10.448594196746 99.9193347754836
endloop
endfacet
facet normal 0.5 -0.866025403784439 -2.68680037692213e-018
outer loop
vertex -8.05 -12.0569909990705 99.9193347754836
vertex -4.16698662615058 -10.448594196746 105.819334775484
vertex -8.05 -12.0569909990705 105.819334775484
endloop
endfacet
facet normal -5.52488813530108e-016 -1.0 -3.00755080316139e-032
outer loop
vertex 1.93872695675168e-015 -9.9 105.819334775484
vertex -4.16698662615058 -10.448594196746 99.9193347754836
vertex 1.93872695675168e-015 -9.9 99.9193347754836
endloop
endfacet
facet normal 0.25881904510252 -0.965925826289068 3.74498824226639e-018
outer loop
vertex -4.16698662615058 -10.448594196746 99.9193347754836
vertex 1.93872695675168e-015 -9.9 105.819334775484
vertex -4.16698662615058 -10.448594196746 105.819334775484
endloop
endfacet
facet normal -0.258819045102521 -0.965925826289068 -1.03214681940421e-031
outer loop
vertex 4.16698662615059 -10.448594196746 105.819334775484
vertex 1.93872695675168e-015 -9.9 99.9193347754836
vertex 4.16698662615059 -10.448594196746 99.9193347754836
endloop
endfacet
facet normal -5.52488813530108e-016 -1.0 -3.00755080316139e-032
outer loop
vertex 1.93872695675168e-015 -9.9 99.9193347754836
vertex 4.16698662615059 -10.448594196746 105.819334775484
vertex 1.93872695675168e-015 -9.9 105.819334775484
endloop
endfacet
facet normal -0.5 -0.866025403784438 -6.43178861918863e-018
outer loop
vertex 8.05000000000001 -12.0569909990705 105.819334775484
vertex 4.16698662615059 -10.448594196746 99.9193347754836
vertex 8.05000000000001 -12.0569909990705 99.9193347754836
endloop
endfacet
facet normal -0.258819045102521 -0.965925826289068 -1.03214681940421e-031
outer loop
vertex 4.16698662615059 -10.448594196746 99.9193347754836
vertex 8.05000000000001 -12.0569909990705 105.819334775484
vertex 4.16698662615059 -10.448594196746 105.819334775484
endloop
endfacet
facet normal -1.85563094064356e-031 1.0 9.39988827515966e-016
outer loop
vertex 26.1735618131013 -23.0 18.2
vertex 28.0578718176293 -23.0 15.2
vertex 26.5578718176293 -23.0 15.2
endloop
endfacet
facet normal -1.85563094064356e-031 1.0 9.39988827515966e-016
outer loop
vertex 28.0578718176293 -23.0 15.2
vertex 26.1735618131013 -23.0 18.2
vertex 27.6735618131013 -23.0 18.2
endloop
endfacet
facet normal -0.0 -0.0 1.0
outer loop
vertex -27.6735618131013 -29.0 18.2
vertex -27.6735618131013 -23.0 18.2
vertex -28.0685193058635 -26.0 18.2
endloop
endfacet
facet normal -0.0 -0.0 1.0
outer loop
vertex -27.6735618131013 -23.0 18.2
vertex -27.6735618131013 -29.0 18.2
vertex -26.1735618131013 -29.0 18.2
endloop
endfacet
facet normal -0.0 -0.0 1.0
outer loop
vertex -27.6735618131013 -23.0 18.2
vertex -26.1735618131013 -29.0 18.2
vertex -26.5685193058635 -26.0 18.2
endloop
endfacet
facet normal -0.0 -0.0 1.0
outer loop
vertex -26.1735618131013 -23.0 18.2
vertex -27.6735618131013 -23.0 18.2
vertex -26.5685193058635 -26.0 18.2
endloop
endfacet
facet normal 1.87997765503193e-015 -1.0 6.99157420476684e-016
outer loop
vertex -26.1735618131013 -29.0 18.2
vertex -28.0578718176293 -29.0 15.2
vertex -26.5578718176293 -29.0 15.2
endloop
endfacet
facet normal 1.87997765503193e-015 -1.0 6.99157420476684e-016
outer loop
vertex -28.0578718176293 -29.0 15.2
vertex -26.1735618131013 -29.0 18.2
vertex -27.6735618131013 -29.0 18.2
endloop
endfacet
facet normal 4.14464767802351e-016 9.39988827515964e-016 -1.0
outer loop
vertex 28.0578718176293 -23.0 15.2
vertex 26.9528293103915 -26.0 15.2
vertex 26.5578718176293 -23.0 15.2
endloop
endfacet
facet normal 4.14464767802351e-016 9.39988827515964e-016 -1.0
outer loop
vertex 26.9528293103915 -26.0 15.2
vertex 28.0578718176293 -29.0 15.2
vertex 26.5578718176293 -29.0 15.2
endloop
endfacet
facet normal 4.14464767802351e-016 9.39988827515964e-016 -1.0
outer loop
vertex 28.0578718176293 -29.0 15.2
vertex 26.9528293103915 -26.0 15.2
vertex 28.0578718176293 -23.0 15.2
endloop
endfacet
facet normal 4.14464767802351e-016 9.39988827515964e-016 -1.0
outer loop
vertex 28.0578718176293 -29.0 15.2
vertex 28.0578718176293 -23.0 15.2
vertex 28.4528293103915 -26.0 15.2
endloop
endfacet
facet normal 0.0 -1.0 0.0
outer loop
vertex 27.6735618131013 -29.0 18.2
vertex 26.5578718176293 -29.0 15.2
vertex 28.0578718176293 -29.0 15.2
endloop
endfacet
facet normal 0.0 -1.0 0.0
outer loop
vertex 26.5578718176293 -29.0 15.2
vertex 27.6735618131013 -29.0 18.2
vertex 26.1735618131013 -29.0 18.2
endloop
endfacet
facet normal -9.39988827515964e-016 1.0 5.90410117277623e-016
outer loop
vertex -27.6735618131013 -23.0 18.2
vertex -26.5578718176293 -23.0 15.2
vertex -28.0578718176293 -23.0 15.2
endloop
endfacet
facet normal -9.39988827515964e-016 1.0 5.90410117277623e-016
outer loop
vertex -26.5578718176293 -23.0 15.2
vertex -27.6735618131013 -23.0 18.2
vertex -26.1735618131013 -23.0 18.2
endloop
endfacet
facet normal -4.14464767802354e-016 9.39988827515966e-016 -1.0
outer loop
vertex -26.5578718176293 -23.0 15.2
vertex -26.9528293103915 -26.0 15.2
vertex -28.0578718176293 -23.0 15.2
endloop
endfacet
facet normal -4.14464767802354e-016 9.39988827515966e-016 -1.0
outer loop
vertex -28.0578718176293 -23.0 15.2
vertex -28.0578718176293 -29.0 15.2
vertex -28.4528293103915 -26.0 15.2
endloop
endfacet
facet normal -4.14464767802354e-016 9.39988827515966e-016 -1.0
outer loop
vertex -28.0578718176293 -29.0 15.2
vertex -28.0578718176293 -23.0 15.2
vertex -26.5578718176293 -29.0 15.2
endloop
endfacet
facet normal -4.14464767802354e-016 9.39988827515966e-016 -1.0
outer loop
vertex -26.5578718176293 -29.0 15.2
vertex -28.0578718176293 -23.0 15.2
vertex -26.9528293103915 -26.0 15.2
endloop
endfacet
facet normal -0.0 -0.0 1.0
outer loop
vertex 27.6735618131013 -29.0 18.2
vertex 26.5685193058635 -26.0 18.2
vertex 26.1735618131013 -29.0 18.2
endloop
endfacet
facet normal -0.0 -0.0 1.0
outer loop
vertex 26.5685193058635 -26.0 18.2
vertex 27.6735618131013 -23.0 18.2
vertex 26.1735618131013 -23.0 18.2
endloop
endfacet
facet normal -0.0 -0.0 1.0
outer loop
vertex 27.6735618131013 -23.0 18.2
vertex 26.5685193058635 -26.0 18.2
vertex 27.6735618131013 -29.0 18.2
endloop
endfacet
facet normal -0.0 -0.0 1.0
outer loop
vertex 27.6735618131013 -23.0 18.2
vertex 27.6735618131013 -29.0 18.2
vertex 28.0685193058635 -26.0 18.2
endloop
endfacet
facet normal -0.991894395036279 3.43854715713515e-016 -0.127064979815894
outer loop
vertex 16.1 -26.0 99.9193347754836
vertex 26.1735618131013 -23.0 18.2
vertex 26.5685193058635 -26.0 18.2
endloop
endfacet
facet normal -0.983543883196232 -0.12948600870959 -0.125995251401541
outer loop
vertex 26.1735618131013 -23.0 18.2
vertex 16.1 -26.0 99.9193347754836
vertex 15.551405803254 -21.8330133738494 99.9193347754836
endloop
endfacet
facet normal -0.983543883196232 -0.12948600870959 -0.125995251401541
outer loop
vertex 26.1735618131013 -23.0 18.2
vertex 15.551405803254 -21.8330133738494 99.9193347754836
vertex 26.5578718176293 -23.0 15.2
endloop
endfacet
facet normal -0.983543883196232 -0.12948600870959 -0.125995251401541
outer loop
vertex 26.5578718176293 -23.0 15.2
vertex 28.9 -26.0 0.0
vertex 26.9528293103915 -26.0 15.2
endloop
endfacet
facet normal -0.991894395036279 3.15173874346783e-016 -0.127064979815894
outer loop
vertex 28.9 -26.0 0.0
vertex 26.5578718176293 -23.0 15.2
vertex 27.9152563797541 -18.5201295965372 0.0
endloop
endfacet
facet normal -0.958096413116914 -0.256721160165832 -0.127064979815894
outer loop
vertex 27.9152563797541 -18.5201295965372 0.0
vertex 26.5578718176293 -23.0 15.2
vertex 15.551405803254 -21.8330133738494 99.9193347754836
endloop
endfacet
facet normal -0.912124494589207 -4.46364599174576e-018 0.409913291282905
outer loop
vertex -7.51003883755829 14.4337939760106 15.0311184465251
vertex -14.3100388375583 43.8837939760106 -0.100000000000007
vertex -14.3100388375583 8.38379397601063 -0.100000000000007
endloop
endfacet
facet normal -0.912124494589207 -4.46364599174576e-018 0.409913291282905
outer loop
vertex -14.3100388375583 43.8837939760106 -0.100000000000007
vertex -7.51003883755829 14.4337939760106 15.0311184465251
vertex -7.51003883755829 37.8337939760106 15.0311184465251
endloop
endfacet
facet normal -0.0 -0.0 1.0
outer loop
vertex 1.03996116243953 20.4837939760106 22.9622368930502
vertex -2.31003883755873 31.7837939760106 22.9622368930502
vertex -2.31003883755873 20.4837939760106 22.9622368930502
endloop
endfacet
facet normal -0.0 -0.0 1.0
outer loop
vertex -2.31003883755873 31.7837939760106 22.9622368930502
vertex 1.03996116243953 20.4837939760106 22.9622368930502
vertex 3.18996116244062 31.7837939760106 22.9622368930502
endloop
endfacet
facet normal -0.0 -0.0 1.0
outer loop
vertex 3.18996116244062 31.7837939760106 22.9622368930502
vertex 1.03996116243953 20.4837939760106 22.9622368930502
vertex 3.18996116244062 20.4837939760106 22.9622368930502
endloop
endfacet
facet normal 0.0 0.0 -1.0
outer loop
vertex 15.5899611624416 43.8837939760106 -0.100000000000007
vertex -14.3100388375583 8.38379397601063 -0.100000000000007
vertex -14.3100388375583 43.8837939760106 -0.100000000000007
endloop
endfacet
facet normal 0.0 0.0 -1.0
outer loop
vertex -14.3100388375583 8.38379397601063 -0.100000000000007
vertex 15.5899611624416 43.8837939760106 -0.100000000000007
vertex 0.639961162441681 8.38379397601063 -0.100000000000007
endloop
endfacet
facet normal 0.0 0.0 -1.0
outer loop
vertex 0.639961162441681 8.38379397601063 -0.100000000000007
vertex 15.5899611624416 43.8837939760106 -0.100000000000007
vertex 0.789961162441652 8.38379397601063 -0.100000000000007
endloop
endfacet
facet normal 0.0 0.0 -1.0
outer loop
vertex 0.789961162441652 8.38379397601063 -0.100000000000007
vertex 15.5899611624416 43.8837939760106 -0.100000000000007
vertex 15.5899611624416 8.38379397601065 -0.100000000000007
endloop
endfacet
facet normal 8.27372392468206e-019 0.928528469645731 0.371261203275211
outer loop
vertex -7.51003883755829 37.8337939760106 15.0311184465251
vertex 15.5899611624416 43.8837939760106 -0.100000000000007
vertex -14.3100388375583 43.8837939760106 -0.100000000000007
endloop
endfacet
facet normal 8.27372392468206e-019 0.928528469645731 0.371261203275211
outer loop
vertex 15.5899611624416 43.8837939760106 -0.100000000000007
vertex -7.51003883755829 37.8337939760106 15.0311184465251
vertex 8.83996116244169 37.8337939760106 15.0311184465251
endloop
endfacet
facet normal 8.25723199988333e-016 -0.92852846964573 0.371261203275212
outer loop
vertex 8.83996116244169 14.4337939760106 15.0311184465251
vertex 0.789961162441652 8.38379397601063 -0.100000000000007
vertex 15.5899611624416 8.38379397601065 -0.100000000000007
endloop
endfacet
facet normal 8.25723199988333e-016 -0.92852846964573 0.371261203275212
outer loop
vertex 0.789961162441652 8.38379397601063 -0.100000000000007
vertex 8.83996116244169 14.4337939760106 15.0311184465251
vertex 0.639961162441681 8.38379397601063 -0.100000000000007
endloop
endfacet
facet normal 8.25723199988333e-016 -0.92852846964573 0.371261203275212
outer loop
vertex 0.639961162441681 8.38379397601063 -0.100000000000007
vertex 8.83996116244169 14.4337939760106 15.0311184465251
vertex -14.3100388375583 8.38379397601063 -0.100000000000007
endloop
endfacet
facet normal 8.25723199988333e-016 -0.92852846964573 0.371261203275212
outer loop
vertex -14.3100388375583 8.38379397601063 -0.100000000000007
vertex 8.83996116244169 14.4337939760106 15.0311184465251
vertex -7.51003883755829 14.4337939760106 15.0311184465251
endloop
endfacet
facet normal 0.913249364773763 3.90057583398669e-018 0.407401028153242
outer loop
vertex 15.5899611624416 43.8837939760106 -0.100000000000007
vertex 8.83996116244169 14.4337939760106 15.0311184465251
vertex 15.5899611624416 8.38379397601065 -0.100000000000007
endloop
endfacet
facet normal 0.913249364773763 3.90057583398669e-018 0.407401028153242
outer loop
vertex 8.83996116244169 14.4337939760106 15.0311184465251
vertex 15.5899611624416 43.8837939760106 -0.100000000000007
vertex 8.83996116244169 37.8337939760106 15.0311184465251
endloop
endfacet
facet normal -0.0 -0.0 1.0
outer loop
vertex 8.83996116244169 14.4337939760106 15.0311184465251
vertex -7.51003883755829 37.8337939760106 15.0311184465251
vertex -7.51003883755829 14.4337939760106 15.0311184465251
endloop
endfacet
facet normal -0.0 -0.0 1.0
outer loop
vertex -7.51003883755829 37.8337939760106 15.0311184465251
vertex 8.83996116244169 14.4337939760106 15.0311184465251
vertex 8.83996116244169 37.8337939760106 15.0311184465251
endloop
endfacet
facet normal -0.83627982730313 -3.66635116036233e-018 0.548302882033139
outer loop
vertex -2.31003883755873 20.4837939760106 22.9622368930502
vertex -7.51003883755829 37.8337939760106 15.0311184465251
vertex -7.51003883755829 14.4337939760106 15.0311184465251
endloop
endfacet
facet normal -0.83627982730313 -3.66635116036233e-018 0.548302882033139
outer loop
vertex -7.51003883755829 37.8337939760106 15.0311184465251
vertex -2.31003883755873 20.4837939760106 22.9622368930502
vertex -2.31003883755873 31.7837939760106 22.9622368930502
endloop
endfacet
facet normal 7.66752400556827e-018 0.79508155554049 0.606502530942217
outer loop
vertex -2.31003883755873 31.7837939760106 22.9622368930502
vertex 8.83996116244169 37.8337939760106 15.0311184465251
vertex -7.51003883755829 37.8337939760106 15.0311184465251
endloop
endfacet
facet normal 7.66752400556827e-018 0.79508155554049 0.606502530942217
outer loop
vertex 8.83996116244169 37.8337939760106 15.0311184465251
vertex -2.31003883755873 31.7837939760106 22.9622368930502
vertex 3.18996116244062 31.7837939760106 22.9622368930502
endloop
endfacet
facet normal 9.81616814388804e-016 -0.795081555540492 0.606502530942214
outer loop
vertex 3.18996116244062 20.4837939760106 22.9622368930502
vertex -7.51003883755829 14.4337939760106 15.0311184465251
vertex 8.83996116244169 14.4337939760106 15.0311184465251
endloop
endfacet
facet normal 9.81616814388804e-016 -0.795081555540492 0.606502530942214
outer loop
vertex -7.51003883755829 14.4337939760106 15.0311184465251
vertex 3.18996116244062 20.4837939760106 22.9622368930502
vertex -2.31003883755873 20.4837939760106 22.9622368930502
endloop
endfacet
facet normal 9.81616814388804e-016 -0.795081555540492 0.606502530942214
outer loop
vertex -2.31003883755873 20.4837939760106 22.9622368930502
vertex 3.18996116244062 20.4837939760106 22.9622368930502
vertex 1.03996116243953 20.4837939760106 22.9622368930502
endloop
endfacet
facet normal 0.814465494890094 6.68680091063512e-018 0.580211993700091
outer loop
vertex 8.83996116244169 37.8337939760106 15.0311184465251
vertex 3.18996116244062 20.4837939760106 22.9622368930502
vertex 8.83996116244169 14.4337939760106 15.0311184465251
endloop
endfacet
facet normal 0.814465494890094 6.68680091063512e-018 0.580211993700091
outer loop
vertex 3.18996116244062 20.4837939760106 22.9622368930502
vertex 8.83996116244169 37.8337939760106 15.0311184465251
vertex 3.18996116244062 31.7837939760106 22.9622368930502
endloop
endfacet
facet normal 0.941342146912233 9.80567140767033e-018 0.337453644885736
outer loop
vertex 3.18996116244062 31.7837939760106 22.9622368930502
vertex 1.54094675087289 21.9267489129047 27.5622368930502
vertex 3.18996116244062 20.4837939760106 22.9622368930502
endloop
endfacet
facet normal 0.941342146912233 9.80567140767033e-018 0.337453644885736
outer loop
vertex 1.54094675087289 21.9267489129047 27.5622368930502
vertex 3.18996116244062 31.7837939760106 22.9622368930502
vertex 1.54094675087289 30.4267489129048 27.5622368930502
endloop
endfacet
facet normal 1.69622722488935e-017 -0.954157288157058 0.299305645547773
outer loop
vertex 1.54094675087289 21.9267489129047 27.5622368930502
vertex 1.03996116243953 20.4837939760106 22.9622368930502
vertex 3.18996116244062 20.4837939760106 22.9622368930502
endloop
endfacet
facet normal 1.69622722488935e-017 -0.954157288157058 0.299305645547773
outer loop
vertex 1.03996116243953 20.4837939760106 22.9622368930502
vertex 1.54094675087289 21.9267489129047 27.5622368930502
vertex -2.31003883755873 20.4837939760106 22.9622368930502
endloop
endfacet
facet normal 1.69622722488935e-017 -0.954157288157058 0.299305645547773
outer loop
vertex -2.31003883755873 20.4837939760106 22.9622368930502
vertex 1.54094675087289 21.9267489129047 27.5622368930502
vertex -1.0590532491271 21.9267489129047 27.5622368930502
endloop
endfacet
facet normal -1.03631251389793e-017 0.959133542402522 0.282953790994907
outer loop
vertex -1.0590532491271 30.4267489129048 27.5622368930502
vertex 3.18996116244062 31.7837939760106 22.9622368930502
vertex -2.31003883755873 31.7837939760106 22.9622368930502
endloop
endfacet
facet normal -1.03631251389793e-017 0.959133542402522 0.282953790994907
outer loop
vertex 3.18996116244062 31.7837939760106 22.9622368930502
vertex -1.0590532491271 30.4267489129048 27.5622368930502
vertex 1.54094675087289 30.4267489129048 27.5622368930502
endloop
endfacet
facet normal -0.964953133452316 4.02064791488295e-019 0.262422274665389
outer loop
vertex -1.0590532491271 21.9267489129047 27.5622368930502
vertex -2.31003883755873 31.7837939760106 22.9622368930502
vertex -2.31003883755873 20.4837939760106 22.9622368930502
endloop
endfacet
facet normal -0.964953133452316 4.02064791488295e-019 0.262422274665389
outer loop
vertex -2.31003883755873 31.7837939760106 22.9622368930502
vertex -1.0590532491271 21.9267489129047 27.5622368930502
vertex -1.0590532491271 30.4267489129048 27.5622368930502
endloop
endfacet
facet normal -0.0 -0.0 1.0
outer loop
vertex 1.54094675087289 21.9267489129047 39.2622368930502
vertex -1.0590532491271 30.4267489129048 39.2622368930502
vertex -1.0590532491271 21.9267489129047 39.2622368930502
endloop
endfacet
facet normal -0.0 -0.0 1.0
outer loop
vertex -1.0590532491271 30.4267489129048 39.2622368930502
vertex 1.54094675087289 21.9267489129047 39.2622368930502
vertex 1.54094675087289 30.4267489129048 39.2622368930502
endloop
endfacet
facet normal 1.0 -0.0 -0.0
outer loop
vertex 1.54094675087289 30.4267489129048 27.5622368930502
vertex 1.54094675087289 21.9267489129047 39.2622368930502
vertex 1.54094675087289 21.9267489129047 27.5622368930502
endloop
endfacet
facet normal 1.0 -0.0 -0.0
outer loop
vertex 1.54094675087289 21.9267489129047 39.2622368930502
vertex 1.54094675087289 30.4267489129048 27.5622368930502
vertex 1.54094675087289 30.4267489129048 39.2622368930502
endloop
endfacet
facet normal -0.0 1.0 -0.0
outer loop
vertex -1.0590532491271 30.4267489129048 39.2622368930502
vertex 1.54094675087289 30.4267489129048 27.5622368930502
vertex -1.0590532491271 30.4267489129048 27.5622368930502
endloop
endfacet
facet normal -0.0 1.0 -0.0
outer loop
vertex 1.54094675087289 30.4267489129048 27.5622368930502
vertex -1.0590532491271 30.4267489129048 39.2622368930502
vertex 1.54094675087289 30.4267489129048 39.2622368930502
endloop
endfacet
facet normal -1.0 0.0 0.0
outer loop
vertex -1.0590532491271 30.4267489129048 39.2622368930502
vertex -1.0590532491271 21.9267489129047 27.5622368930502
vertex -1.0590532491271 21.9267489129047 39.2622368930502
endloop
endfacet
facet normal -1.0 0.0 0.0
outer loop
vertex -1.0590532491271 21.9267489129047 27.5622368930502
vertex -1.0590532491271 30.4267489129048 39.2622368930502
vertex -1.0590532491271 30.4267489129048 27.5622368930502
endloop
endfacet
facet normal 0.0 -1.0 0.0
outer loop
vertex 1.54094675087289 21.9267489129047 39.2622368930502
vertex -1.0590532491271 21.9267489129047 27.5622368930502
vertex 1.54094675087289 21.9267489129047 27.5622368930502
endloop
endfacet
facet normal 0.0 -1.0 0.0
outer loop
vertex -1.0590532491271 21.9267489129047 27.5622368930502
vertex 1.54094675087289 21.9267489129047 39.2622368930502
vertex -1.0590532491271 21.9267489129047 39.2622368930502
endloop
endfacet
endsolid ToolforBoardHousing_SingleChipHead
