solid ToolforBoardHousing_Final_chip_v2
facet normal -0.923878672863426 0.382683076287288 -0.00136416693027611
outer loop
vertex -48.4094791699064 6.0046018463785 2.99999999999999
vertex -46.0882145719775 11.5979360906702 0.0
vertex -48.4054920032568 6.00353348829467 0.0
endloop
endfacet
facet normal -0.923878672863426 0.382683076287288 -0.00136416693027611
outer loop
vertex -46.0882145719775 11.5979360906702 0.0
vertex -48.4094791699064 6.0046018463785 2.99999999999999
vertex -46.091789367799 11.6 2.99999999999999
endloop
endfacet
facet normal 0.130526070768544 0.991443938858023 -0.00136416693027855
outer loop
vertex -26.0 23.2 2.99999999999999
vertex -19.9964665117054 22.4054920032568 0.0
vertex -26.0 23.1958721813403 0.0
endloop
endfacet
facet normal 0.130526070768544 0.991443938858023 -0.00136416693027855
outer loop
vertex -19.9964665117054 22.4054920032568 0.0
vertex -26.0 23.2 2.99999999999999
vertex -19.9953981536215 22.4094791699064 2.99999999999999
endloop
endfacet
facet normal 0.923878672863426 -0.382683076287287 -0.00136416693027823
outer loop
vertex -5.91178542802252 -11.5979360906702 0.0
vertex -3.59052083009362 -6.00460184637847 2.99999999999999
vertex -5.90821063220103 -11.6 2.99999999999999
endloop
endfacet
facet normal 0.923878672863426 -0.382683076287287 -0.00136416693027823
outer loop
vertex -3.59052083009362 -6.00460184637847 2.99999999999999
vertex -5.91178542802252 -11.5979360906702 0.0
vertex -3.59450799674323 -6.00353348829463 0.0
endloop
endfacet
facet normal -0.923878672863426 -0.382683076287287 -0.00136416693027825
outer loop
vertex -48.4094791699064 -6.00460184637845 2.99999999999999
vertex -46.0882145719775 -11.5979360906702 0.0
vertex -46.091789367799 -11.6 2.99999999999999
endloop
endfacet
facet normal -0.923878672863426 -0.382683076287287 -0.00136416693027825
outer loop
vertex -46.0882145719775 -11.5979360906702 0.0
vertex -48.4094791699064 -6.00460184637845 2.99999999999999
vertex -48.4054920032568 -6.00353348829462 0.0
endloop
endfacet
facet normal 0.793352602094881 0.608760862570737 -0.00136416693027832
outer loop
vertex -9.59804148503787 16.4019585149621 0.0
vertex -5.90821063220104 11.6 2.99999999999999
vertex -5.91178542802252 11.5979360906702 0.0
endloop
endfacet
facet normal 0.793352602094881 0.608760862570737 -0.00136416693027832
outer loop
vertex -5.90821063220104 11.6 2.99999999999999
vertex -9.59804148503787 16.4019585149621 0.0
vertex -9.59512267647212 16.4048773235279 2.99999999999999
endloop
endfacet
facet normal -0.608760862570737 -0.793352602094882 -0.00136416693027837
outer loop
vertex -37.6 -20.091789367799 2.99999999999999
vertex -42.4019585149621 -16.4019585149621 0.0
vertex -37.5979360906702 -20.0882145719775 0.0
endloop
endfacet
facet normal -0.608760862570737 -0.793352602094882 -0.00136416693027837
outer loop
vertex -42.4019585149621 -16.4019585149621 0.0
vertex -37.6 -20.091789367799 2.99999999999999
vertex -42.4048773235279 -16.4048773235279 2.99999999999999
endloop
endfacet
facet normal 0.991404331728782 0.130829676248254 -0.00102315306040315
outer loop
vertex -3.59450799674324 6.00353348829464 0.0
vertex -3.1543714065937 2.69171806906623 2.99999999999999
vertex -3.15640015292102 2.69145097954527 0.0
endloop
endfacet
facet normal 0.991404331728782 0.130829676248254 -0.00102315306040315
outer loop
vertex -3.1543714065937 2.69171806906623 2.99999999999999
vertex -3.59450799674324 6.00353348829464 0.0
vertex -3.59052083009363 6.0046018463785 2.99999999999999
endloop
endfacet
facet normal 0.923878672863426 0.382683076287287 -0.00136416693027808
outer loop
vertex -5.91178542802252 11.5979360906702 0.0
vertex -3.59052083009363 6.0046018463785 2.99999999999999
vertex -3.59450799674324 6.00353348829464 0.0
endloop
endfacet
facet normal 0.923878672863426 0.382683076287287 -0.00136416693027808
outer loop
vertex -3.59052083009363 6.0046018463785 2.99999999999999
vertex -5.91178542802252 11.5979360906702 0.0
vertex -5.90821063220104 11.6 2.99999999999999
endloop
endfacet
facet normal -0.130526070768544 -0.991443938858023 -0.00136416693027852
outer loop
vertex -26.0 -23.2 2.99999999999999
vertex -32.0035334882946 -22.4054920032568 0.0
vertex -26.0 -23.1958721813403 0.0
endloop
endfacet
facet normal -0.130526070768544 -0.991443938858023 -0.00136416693027852
outer loop
vertex -32.0035334882946 -22.4054920032568 0.0
vertex -26.0 -23.2 2.99999999999999
vertex -32.0046018463785 -22.4094791699064 2.99999999999999
endloop
endfacet
facet normal 0.382683076287287 -0.923878672863426 -0.00136416693027775
outer loop
vertex -14.4 -20.091789367799 2.99999999999999
vertex -19.9964665117054 -22.4054920032568 0.0
vertex -14.4020639093298 -20.0882145719775 0.0
endloop
endfacet
facet normal 0.382683076287287 -0.923878672863426 -0.00136416693027775
outer loop
vertex -19.9964665117054 -22.4054920032568 0.0
vertex -14.4 -20.091789367799 2.99999999999999
vertex -19.9953981536215 -22.4094791699064 2.99999999999999
endloop
endfacet
facet normal 0.793352602094882 -0.608760862570736 -0.0013641669302785
outer loop
vertex -9.59804148503786 -16.4019585149621 0.0
vertex -5.90821063220103 -11.6 2.99999999999999
vertex -9.5951226764721 -16.4048773235279 2.99999999999999
endloop
endfacet
facet normal 0.793352602094882 -0.608760862570736 -0.0013641669302785
outer loop
vertex -5.90821063220103 -11.6 2.99999999999999
vertex -9.59804148503786 -16.4019585149621 0.0
vertex -5.91178542802252 -11.5979360906702 0.0
endloop
endfacet
facet normal 0.130526070768544 -0.991443938858023 -0.00136416693027789
outer loop
vertex -19.9953981536215 -22.4094791699064 2.99999999999999
vertex -26.0 -23.1958721813403 0.0
vertex -19.9964665117054 -22.4054920032568 0.0
endloop
endfacet
facet normal 0.130526070768544 -0.991443938858023 -0.00136416693027789
outer loop
vertex -26.0 -23.1958721813403 0.0
vertex -19.9953981536215 -22.4094791699064 2.99999999999999
vertex -26.0 -23.2 2.99999999999999
endloop
endfacet
facet normal -0.382683076287287 0.923878672863426 -0.00136416693027808
outer loop
vertex -37.6 20.091789367799 2.99999999999999
vertex -32.0035334882946 22.4054920032568 0.0
vertex -37.5979360906701 20.0882145719775 0.0
endloop
endfacet
facet normal -0.382683076287287 0.923878672863426 -0.00136416693027808
outer loop
vertex -32.0035334882946 22.4054920032568 0.0
vertex -37.6 20.091789367799 2.99999999999999
vertex -32.0046018463785 22.4094791699064 2.99999999999999
endloop
endfacet
facet normal -0.382683076287287 -0.923878672863426 -0.00136416693027805
outer loop
vertex -32.0046018463785 -22.4094791699064 2.99999999999999
vertex -37.5979360906702 -20.0882145719775 0.0
vertex -32.0035334882946 -22.4054920032568 0.0
endloop
endfacet
facet normal -0.382683076287287 -0.923878672863426 -0.00136416693027805
outer loop
vertex -37.5979360906702 -20.0882145719775 0.0
vertex -32.0046018463785 -22.4094791699064 2.99999999999999
vertex -37.6 -20.091789367799 2.99999999999999
endloop
endfacet
facet normal 0.608760862570736 0.793352602094882 -0.00136416693027834
outer loop
vertex -14.4 20.091789367799 2.99999999999999
vertex -9.59804148503787 16.4019585149621 0.0
vertex -14.4020639093298 20.0882145719775 0.0
endloop
endfacet
facet normal 0.608760862570736 0.793352602094882 -0.00136416693027834
outer loop
vertex -9.59804148503787 16.4019585149621 0.0
vertex -14.4 20.091789367799 2.99999999999999
vertex -9.59512267647212 16.4048773235279 2.99999999999999
endloop
endfacet
facet normal -0.793352602094881 0.608760862570737 -0.0013641669302777
outer loop
vertex -46.091789367799 11.6 2.99999999999999
vertex -42.4019585149621 16.4019585149622 0.0
vertex -46.0882145719775 11.5979360906702 0.0
endloop
endfacet
facet normal -0.793352602094881 0.608760862570737 -0.0013641669302777
outer loop
vertex -42.4019585149621 16.4019585149622 0.0
vertex -46.091789367799 11.6 2.99999999999999
vertex -42.4048773235279 16.4048773235279 2.99999999999999
endloop
endfacet
facet normal 0.382683076287286 0.923878672863426 -0.00136416693027836
outer loop
vertex -19.9953981536215 22.4094791699064 2.99999999999999
vertex -14.4020639093298 20.0882145719775 0.0
vertex -19.9964665117054 22.4054920032568 0.0
endloop
endfacet
facet normal 0.382683076287286 0.923878672863426 -0.00136416693027836
outer loop
vertex -14.4020639093298 20.0882145719775 0.0
vertex -19.9953981536215 22.4094791699064 2.99999999999999
vertex -14.4 20.091789367799 2.99999999999999
endloop
endfacet
facet normal -0.793352602094882 -0.608760862570736 -0.00136416693027736
outer loop
vertex -46.091789367799 -11.6 2.99999999999999
vertex -42.4019585149621 -16.4019585149621 0.0
vertex -42.4048773235279 -16.4048773235279 2.99999999999999
endloop
endfacet
facet normal -0.793352602094882 -0.608760862570736 -0.00136416693027736
outer loop
vertex -42.4019585149621 -16.4019585149621 0.0
vertex -46.091789367799 -11.6 2.99999999999999
vertex -46.0882145719775 -11.5979360906702 0.0
endloop
endfacet
facet normal -0.991443938858023 0.130526070768546 -0.00136416693027581
outer loop
vertex -48.4094791699064 6.0046018463785 2.99999999999999
vertex -49.1958721813403 5.19702875428084e-14 0.0
vertex -49.2 2.11497486191092e-14 2.99999999999999
endloop
endfacet
facet normal -0.991443938858023 0.130526070768546 -0.00136416693027581
outer loop
vertex -49.1958721813403 5.19702875428084e-14 0.0
vertex -48.4094791699064 6.0046018463785 2.99999999999999
vertex -48.4054920032568 6.00353348829467 0.0
endloop
endfacet
facet normal -0.608760862570736 0.793352602094882 -0.00136416693027795
outer loop
vertex -42.4048773235279 16.4048773235279 2.99999999999999
vertex -37.5979360906701 20.0882145719775 0.0
vertex -42.4019585149621 16.4019585149622 0.0
endloop
endfacet
facet normal -0.608760862570736 0.793352602094882 -0.00136416693027795
outer loop
vertex -37.5979360906701 20.0882145719775 0.0
vertex -42.4048773235279 16.4048773235279 2.99999999999999
vertex -37.6 20.091789367799 2.99999999999999
endloop
endfacet
facet normal 0.608760862570736 -0.793352602094882 -0.00136416693027843
outer loop
vertex -9.5951226764721 -16.4048773235279 2.99999999999999
vertex -14.4020639093298 -20.0882145719775 0.0
vertex -9.59804148503786 -16.4019585149621 0.0
endloop
endfacet
facet normal 0.608760862570736 -0.793352602094882 -0.00136416693027843
outer loop
vertex -14.4020639093298 -20.0882145719775 0.0
vertex -9.5951226764721 -16.4048773235279 2.99999999999999
vertex -14.4 -20.091789367799 2.99999999999999
endloop
endfacet
facet normal -0.130526070768544 0.991443938858023 -0.00136416693027852
outer loop
vertex -32.0046018463785 22.4094791699064 2.99999999999999
vertex -26.0 23.1958721813403 0.0
vertex -32.0035334882946 22.4054920032568 0.0
endloop
endfacet
facet normal -0.130526070768544 0.991443938858023 -0.00136416693027852
outer loop
vertex -26.0 23.1958721813403 0.0
vertex -32.0046018463785 22.4094791699064 2.99999999999999
vertex -26.0 23.2 2.99999999999999
endloop
endfacet
facet normal -0.991443938858023 -0.130526070768543 -0.00136416693027818
outer loop
vertex -49.2 2.11497486191092e-14 2.99999999999999
vertex -48.4054920032568 -6.00353348829462 0.0
vertex -48.4094791699064 -6.00460184637845 2.99999999999999
endloop
endfacet
facet normal -0.991443938858023 -0.130526070768543 -0.00136416693027818
outer loop
vertex -48.4054920032568 -6.00353348829462 0.0
vertex -49.2 2.11497486191092e-14 2.99999999999999
vertex -49.1958721813403 5.19702875428084e-14 0.0
endloop
endfacet
facet normal -0.608730446449632 0.793312963034111 -0.0100889170513837
outer loop
vertex -20.8 -9.00666419935815 2.99999999999999
vertex -18.6245018764818 -7.37549812351812 0.0
vertex -20.7847352622316 -9.03310350073711 0.0
endloop
endfacet
facet normal -0.608730446449632 0.793312963034111 -0.0100889170513837
outer loop
vertex -18.6245018764818 -7.37549812351812 0.0
vertex -20.8 -9.00666419935815 2.99999999999999
vertex -18.6460894756599 -7.35391052434007 2.99999999999999
endloop
endfacet
facet normal 0.991394402363863 -0.130519549165366 -0.0100889170513831
outer loop
vertex -36.4305294755367 -1.97397653778353e-14 0.0
vertex -36.0456285934063 2.69171806906619 2.99999999999999
vertex -36.4 -2.53796983429311e-14 2.99999999999999
endloop
endfacet
facet normal 0.991394402363863 -0.130519549165366 -0.0100889170513831
outer loop
vertex -36.0456285934063 2.69171806906619 2.99999999999999
vertex -36.4305294755367 -1.97397653778353e-14 0.0
vertex -36.0751178022902 2.69961967877208 0.0
endloop
endfacet
facet normal 0.991394402363862 0.130519549165371 -0.0100889170513835
outer loop
vertex -36.4305294755367 -1.97397653778353e-14 0.0
vertex -36.0456285934063 -2.69171806906624 2.99999999999999
vertex -36.0751178022902 -2.69961967877211 0.0
endloop
endfacet
facet normal 0.991394402363862 0.130519549165371 -0.0100889170513835
outer loop
vertex -36.0456285934063 -2.69171806906624 2.99999999999999
vertex -36.4305294755367 -1.97397653778353e-14 0.0
vertex -36.4 -2.53796983429311e-14 2.99999999999999
endloop
endfacet
facet normal -0.793312963034112 -0.608730446449632 -0.0100889170513836
outer loop
vertex -18.6460894756599 7.35391052434011 2.99999999999999
vertex -16.9668964992629 5.21526473776835 0.0
vertex -16.9933358006418 5.20000000000002 2.99999999999999
endloop
endfacet
facet normal -0.793312963034112 -0.608730446449632 -0.0100889170513836
outer loop
vertex -16.9668964992629 5.21526473776835 0.0
vertex -18.6460894756599 7.35391052434011 2.99999999999999
vertex -18.6245018764819 7.37549812351815 0.0
endloop
endfacet
facet normal 0.793312963034111 0.608730446449634 -0.0100889170513833
outer loop
vertex -35.0331035007371 -5.21526473776835 0.0
vertex -33.3539105243401 -7.35391052434013 2.99999999999999
vertex -33.3754981235181 -7.37549812351816 0.0
endloop
endfacet
facet normal 0.793312963034111 0.608730446449634 -0.0100889170513833
outer loop
vertex -33.3539105243401 -7.35391052434013 2.99999999999999
vertex -35.0331035007371 -5.21526473776835 0.0
vertex -35.0066641993581 -5.20000000000002 2.99999999999999
endloop
endfacet
facet normal -0.382663955914235 0.923832512199478 -0.0100889170513838
outer loop
vertex -23.3082819309337 -10.0456285934063 2.99999999999999
vertex -20.7847352622316 -9.03310350073711 0.0
vertex -23.3003803212279 -10.0751178022902 0.0
endloop
endfacet
facet normal -0.382663955914235 0.923832512199478 -0.0100889170513838
outer loop
vertex -20.7847352622316 -9.03310350073711 0.0
vertex -23.3082819309337 -10.0456285934063 2.99999999999999
vertex -20.8 -9.00666419935815 2.99999999999999
endloop
endfacet
facet normal 0.608730446449633 -0.793312963034111 -0.010088917051384
outer loop
vertex -31.2 9.00666419935815 2.99999999999999
vertex -33.3754981235181 7.37549812351812 0.0
vertex -31.2152647377684 9.03310350073712 0.0
endloop
endfacet
facet normal 0.608730446449633 -0.793312963034111 -0.010088917051384
outer loop
vertex -33.3754981235181 7.37549812351812 0.0
vertex -31.2 9.00666419935815 2.99999999999999
vertex -33.3539105243401 7.35391052434008 2.99999999999999
endloop
endfacet
facet normal -0.793312963034115 0.608730446449629 -0.0100889170513832
outer loop
vertex -18.6460894756599 -7.35391052434007 2.99999999999999
vertex -16.9668964992629 -5.21526473776831 0.0
vertex -18.6245018764818 -7.37549812351812 0.0
endloop
endfacet
facet normal -0.793312963034115 0.608730446449629 -0.0100889170513832
outer loop
vertex -16.9668964992629 -5.21526473776831 0.0
vertex -18.6460894756599 -7.35391052434007 2.99999999999999
vertex -16.9933358006418 -5.19999999999998 2.99999999999999
endloop
endfacet
facet normal 0.608730446449627 0.793312963034116 -0.0100889170513833
outer loop
vertex -33.3539105243401 -7.35391052434013 2.99999999999999
vertex -31.2152647377683 -9.03310350073714 0.0
vertex -33.3754981235181 -7.37549812351816 0.0
endloop
endfacet
facet normal 0.608730446449627 0.793312963034116 -0.0100889170513833
outer loop
vertex -31.2152647377683 -9.03310350073714 0.0
vertex -33.3539105243401 -7.35391052434013 2.99999999999999
vertex -31.2 -9.00666419935818 2.99999999999999
endloop
endfacet
facet normal 0.130519549165362 0.991394402363863 -0.0100889170513833
outer loop
vertex -28.6917180690662 -10.0456285934063 2.99999999999999
vertex -26.0 -10.4305294755367 0.0
vertex -28.6996196787721 -10.0751178022902 0.0
endloop
endfacet
facet normal 0.130519549165362 0.991394402363863 -0.0100889170513833
outer loop
vertex -26.0 -10.4305294755367 0.0
vertex -28.6917180690662 -10.0456285934063 2.99999999999999
vertex -26.0 -10.4 2.99999999999999
endloop
endfacet
facet normal 0.130519549165368 -0.991394402363862 -0.0100889170513836
outer loop
vertex -26.0 10.4 2.99999999999999
vertex -28.6996196787721 10.0751178022902 0.0
vertex -26.0 10.4305294755367 0.0
endloop
endfacet
facet normal 0.130519549165368 -0.991394402363862 -0.0100889170513836
outer loop
vertex -28.6996196787721 10.0751178022902 0.0
vertex -26.0 10.4 2.99999999999999
vertex -28.6917180690662 10.0456285934063 2.99999999999999
endloop
endfacet
facet normal -0.38266395591423 -0.92383251219948 -0.0100889170513829
outer loop
vertex -20.8 9.00666419935818 2.99999999999999
vertex -23.3003803212279 10.0751178022902 0.0
vertex -20.7847352622317 9.03310350073714 0.0
endloop
endfacet
facet normal -0.38266395591423 -0.92383251219948 -0.0100889170513829
outer loop
vertex -23.3003803212279 10.0751178022902 0.0
vertex -20.8 9.00666419935818 2.99999999999999
vertex -23.3082819309338 10.0456285934063 2.99999999999999
endloop
endfacet
facet normal 0.793312963034114 -0.608730446449629 -0.0100889170513844
outer loop
vertex -35.0331035007371 5.21526473776831 0.0
vertex -33.3539105243401 7.35391052434008 2.99999999999999
vertex -35.0066641993582 5.19999999999998 2.99999999999999
endloop
endfacet
facet normal 0.793312963034114 -0.608730446449629 -0.0100889170513844
outer loop
vertex -33.3539105243401 7.35391052434008 2.99999999999999
vertex -35.0331035007371 5.21526473776831 0.0
vertex -33.3754981235181 7.37549812351812 0.0
endloop
endfacet
facet normal 0.923832512199479 0.382663955914233 -0.0100889170513832
outer loop
vertex -36.0751178022902 -2.69961967877211 0.0
vertex -35.0066641993581 -5.20000000000002 2.99999999999999
vertex -35.0331035007371 -5.21526473776835 0.0
endloop
endfacet
facet normal 0.923832512199479 0.382663955914233 -0.0100889170513832
outer loop
vertex -35.0066641993581 -5.20000000000002 2.99999999999999
vertex -36.0751178022902 -2.69961967877211 0.0
vertex -36.0456285934063 -2.69171806906624 2.99999999999999
endloop
endfacet
facet normal 0.92383251219948 -0.38266395591423 -0.0100889170513837
outer loop
vertex -36.0751178022902 2.69961967877208 0.0
vertex -35.0066641993582 5.19999999999998 2.99999999999999
vertex -36.0456285934063 2.69171806906619 2.99999999999999
endloop
endfacet
facet normal 0.92383251219948 -0.38266395591423 -0.0100889170513837
outer loop
vertex -35.0066641993582 5.19999999999998 2.99999999999999
vertex -36.0751178022902 2.69961967877208 0.0
vertex -35.0331035007371 5.21526473776831 0.0
endloop
endfacet
facet normal 0.382663955914234 -0.923832512199478 -0.010088917051384
outer loop
vertex -28.6917180690662 10.0456285934063 2.99999999999999
vertex -31.2152647377684 9.03310350073712 0.0
vertex -28.6996196787721 10.0751178022902 0.0
endloop
endfacet
facet normal 0.382663955914234 -0.923832512199478 -0.010088917051384
outer loop
vertex -31.2152647377684 9.03310350073712 0.0
vertex -28.6917180690662 10.0456285934063 2.99999999999999
vertex -31.2 9.00666419935815 2.99999999999999
endloop
endfacet
facet normal -0.130519549165364 -0.991394402363863 -0.0100889170513833
outer loop
vertex -23.3082819309338 10.0456285934063 2.99999999999999
vertex -26.0 10.4305294755367 0.0
vertex -23.3003803212279 10.0751178022902 0.0
endloop
endfacet
facet normal -0.130519549165364 -0.991394402363863 -0.0100889170513833
outer loop
vertex -26.0 10.4305294755367 0.0
vertex -23.3082819309338 10.0456285934063 2.99999999999999
vertex -26.0 10.4 2.99999999999999
endloop
endfacet
facet normal -0.923832512199479 -0.382663955914234 -0.0100889170513836
outer loop
vertex -16.9933358006418 5.20000000000002 2.99999999999999
vertex -15.9248821977098 2.69961967877211 0.0
vertex -15.9543714065937 2.69171806906624 2.99999999999999
endloop
endfacet
facet normal -0.923832512199479 -0.382663955914234 -0.0100889170513836
outer loop
vertex -15.9248821977098 2.69961967877211 0.0
vertex -16.9933358006418 5.20000000000002 2.99999999999999
vertex -16.9668964992629 5.21526473776835 0.0
endloop
endfacet
facet normal -0.608730446449629 -0.793312963034114 -0.0100889170513831
outer loop
vertex -18.6460894756599 7.35391052434011 2.99999999999999
vertex -20.7847352622317 9.03310350073714 0.0
vertex -18.6245018764819 7.37549812351815 0.0
endloop
endfacet
facet normal -0.608730446449629 -0.793312963034114 -0.0100889170513831
outer loop
vertex -20.7847352622317 9.03310350073714 0.0
vertex -18.6460894756599 7.35391052434011 2.99999999999999
vertex -20.8 9.00666419935818 2.99999999999999
endloop
endfacet
facet normal -0.92383251219948 0.38266395591423 -0.0100889170513829
outer loop
vertex -16.9933358006418 -5.19999999999998 2.99999999999999
vertex -15.9248821977098 -2.69961967877208 0.0
vertex -16.9668964992629 -5.21526473776831 0.0
endloop
endfacet
facet normal -0.92383251219948 0.38266395591423 -0.0100889170513829
outer loop
vertex -15.9248821977098 -2.69961967877208 0.0
vertex -16.9933358006418 -5.19999999999998 2.99999999999999
vertex -15.9543714065937 -2.69171806906619 2.99999999999999
endloop
endfacet
facet normal -0.13051954916537 0.991394402363862 -0.0100889170513835
outer loop
vertex -26.0 -10.4 2.99999999999999
vertex -23.3003803212279 -10.0751178022902 0.0
vertex -26.0 -10.4305294755367 0.0
endloop
endfacet
facet normal -0.13051954916537 0.991394402363862 -0.0100889170513835
outer loop
vertex -23.3003803212279 -10.0751178022902 0.0
vertex -26.0 -10.4 2.99999999999999
vertex -23.3082819309337 -10.0456285934063 2.99999999999999
endloop
endfacet
facet normal 0.382663955914229 0.923832512199481 -0.0100889170513832
outer loop
vertex -31.2 -9.00666419935818 2.99999999999999
vertex -28.6996196787721 -10.0751178022902 0.0
vertex -31.2152647377683 -9.03310350073714 0.0
endloop
endfacet
facet normal 0.382663955914229 0.923832512199481 -0.0100889170513832
outer loop
vertex -28.6996196787721 -10.0751178022902 0.0
vertex -31.2 -9.00666419935818 2.99999999999999
vertex -28.6917180690662 -10.0456285934063 2.99999999999999
endloop
endfacet
facet normal -0.0 -0.0 1.0
outer loop
vertex -37.6 -20.091789367799 2.99999999999999
vertex -36.0456285934063 -2.69171806906624 2.99999999999999
vertex -36.4 -2.53796983429311e-14 2.99999999999999
endloop
endfacet
facet normal -0.0 -0.0 1.0
outer loop
vertex -36.0456285934063 -2.69171806906624 2.99999999999999
vertex -37.6 -20.091789367799 2.99999999999999
vertex -32.0046018463785 -22.4094791699064 2.99999999999999
endloop
endfacet
facet normal -0.0 -0.0 1.0
outer loop
vertex -36.0456285934063 -2.69171806906624 2.99999999999999
vertex -32.0046018463785 -22.4094791699064 2.99999999999999
vertex -35.0066641993581 -5.20000000000002 2.99999999999999
endloop
endfacet
facet normal -0.0 -0.0 1.0
outer loop
vertex -35.0066641993581 -5.20000000000002 2.99999999999999
vertex -32.0046018463785 -22.4094791699064 2.99999999999999
vertex -33.3539105243401 -7.35391052434013 2.99999999999999
endloop
endfacet
facet normal -0.0 -0.0 1.0
outer loop
vertex -33.3539105243401 -7.35391052434013 2.99999999999999
vertex -32.0046018463785 -22.4094791699064 2.99999999999999
vertex -31.2 -9.00666419935818 2.99999999999999
endloop
endfacet
facet normal -0.0 -0.0 1.0
outer loop
vertex -31.2 -9.00666419935818 2.99999999999999
vertex -32.0046018463785 -22.4094791699064 2.99999999999999
vertex -26.0 -23.2 2.99999999999999
endloop
endfacet
facet normal -0.0 -0.0 1.0
outer loop
vertex -31.2 -9.00666419935818 2.99999999999999
vertex -26.0 -23.2 2.99999999999999
vertex -28.6917180690662 -10.0456285934063 2.99999999999999
endloop
endfacet
facet normal -0.0 -0.0 1.0
outer loop
vertex -28.6917180690662 -10.0456285934063 2.99999999999999
vertex -26.0 -23.2 2.99999999999999
vertex -26.0 -10.4 2.99999999999999
endloop
endfacet
facet normal -0.0 -0.0 1.0
outer loop
vertex -26.0 -10.4 2.99999999999999
vertex -26.0 -23.2 2.99999999999999
vertex -19.9953981536215 -22.4094791699064 2.99999999999999
endloop
endfacet
facet normal -0.0 -0.0 1.0
outer loop
vertex -26.0 -10.4 2.99999999999999
vertex -19.9953981536215 -22.4094791699064 2.99999999999999
vertex -23.3082819309337 -10.0456285934063 2.99999999999999
endloop
endfacet
facet normal -0.0 -0.0 1.0
outer loop
vertex -23.3082819309337 -10.0456285934063 2.99999999999999
vertex -19.9953981536215 -22.4094791699064 2.99999999999999
vertex -20.8 -9.00666419935815 2.99999999999999
endloop
endfacet
facet normal -0.0 -0.0 1.0
outer loop
vertex -20.8 -9.00666419935815 2.99999999999999
vertex -19.9953981536215 -22.4094791699064 2.99999999999999
vertex -18.6460894756599 -7.35391052434007 2.99999999999999
endloop
endfacet
facet normal -0.0 -0.0 1.0
outer loop
vertex -18.6460894756599 -7.35391052434007 2.99999999999999
vertex -19.9953981536215 -22.4094791699064 2.99999999999999
vertex -14.4 -20.091789367799 2.99999999999999
endloop
endfacet
facet normal -0.0 -0.0 1.0
outer loop
vertex -18.6460894756599 -7.35391052434007 2.99999999999999
vertex -14.4 -20.091789367799 2.99999999999999
vertex -16.9933358006418 -5.19999999999998 2.99999999999999
endloop
endfacet
facet normal -0.0 -0.0 1.0
outer loop
vertex -16.9933358006418 -5.19999999999998 2.99999999999999
vertex -14.4 -20.091789367799 2.99999999999999
vertex -15.9543714065937 -2.69171806906619 2.99999999999999
endloop
endfacet
facet normal -0.0 -0.0 1.0
outer loop
vertex -15.9543714065937 -2.69171806906619 2.99999999999999
vertex -14.4 -20.091789367799 2.99999999999999
vertex -3.15437140659369 -2.69171806906619 2.99999999999999
endloop
endfacet
facet normal -0.0 -0.0 1.0
outer loop
vertex -3.15437140659369 -2.69171806906619 2.99999999999999
vertex -14.4 -20.091789367799 2.99999999999999
vertex -9.5951226764721 -16.4048773235279 2.99999999999999
endloop
endfacet
facet normal -0.0 -0.0 1.0
outer loop
vertex -3.15437140659369 -2.69171806906619 2.99999999999999
vertex -9.5951226764721 -16.4048773235279 2.99999999999999
vertex -5.90821063220103 -11.6 2.99999999999999
endloop
endfacet
facet normal -0.0 -0.0 1.0
outer loop
vertex -3.15437140659369 -2.69171806906619 2.99999999999999
vertex -5.90821063220103 -11.6 2.99999999999999
vertex -3.59052083009362 -6.00460184637847 2.99999999999999
endloop
endfacet
facet normal -0.0 -0.0 1.0
outer loop
vertex -48.4094791699064 -6.00460184637845 2.99999999999999
vertex -48.4094791699064 6.0046018463785 2.99999999999999
vertex -49.2 2.11497486191092e-14 2.99999999999999
endloop
endfacet
facet normal -0.0 -0.0 1.0
outer loop
vertex -48.4094791699064 6.0046018463785 2.99999999999999
vertex -48.4094791699064 -6.00460184637845 2.99999999999999
vertex -46.091789367799 -11.6 2.99999999999999
endloop
endfacet
facet normal -0.0 -0.0 1.0
outer loop
vertex -48.4094791699064 6.0046018463785 2.99999999999999
vertex -46.091789367799 -11.6 2.99999999999999
vertex -46.091789367799 11.6 2.99999999999999
endloop
endfacet
facet normal -0.0 -0.0 1.0
outer loop
vertex -46.091789367799 11.6 2.99999999999999
vertex -46.091789367799 -11.6 2.99999999999999
vertex -42.4048773235279 -16.4048773235279 2.99999999999999
endloop
endfacet
facet normal -0.0 -0.0 1.0
outer loop
vertex -46.091789367799 11.6 2.99999999999999
vertex -42.4048773235279 -16.4048773235279 2.99999999999999
vertex -42.4048773235279 16.4048773235279 2.99999999999999
endloop
endfacet
facet normal -0.0 -0.0 1.0
outer loop
vertex -42.4048773235279 16.4048773235279 2.99999999999999
vertex -42.4048773235279 -16.4048773235279 2.99999999999999
vertex -37.6 20.091789367799 2.99999999999999
endloop
endfacet
facet normal -0.0 -0.0 1.0
outer loop
vertex -37.6 20.091789367799 2.99999999999999
vertex -42.4048773235279 -16.4048773235279 2.99999999999999
vertex -37.6 -20.091789367799 2.99999999999999
endloop
endfacet
facet normal -0.0 -0.0 1.0
outer loop
vertex -37.6 20.091789367799 2.99999999999999
vertex -37.6 -20.091789367799 2.99999999999999
vertex -36.4 -2.53796983429311e-14 2.99999999999999
endloop
endfacet
facet normal -0.0 -0.0 1.0
outer loop
vertex -37.6 20.091789367799 2.99999999999999
vertex -36.4 -2.53796983429311e-14 2.99999999999999
vertex -36.0456285934063 2.69171806906619 2.99999999999999
endloop
endfacet
facet normal -0.0 -0.0 1.0
outer loop
vertex -37.6 20.091789367799 2.99999999999999
vertex -36.0456285934063 2.69171806906619 2.99999999999999
vertex -32.0046018463785 22.4094791699064 2.99999999999999
endloop
endfacet
facet normal -0.0 -0.0 1.0
outer loop
vertex -32.0046018463785 22.4094791699064 2.99999999999999
vertex -36.0456285934063 2.69171806906619 2.99999999999999
vertex -35.0066641993582 5.19999999999998 2.99999999999999
endloop
endfacet
facet normal -0.0 -0.0 1.0
outer loop
vertex -32.0046018463785 22.4094791699064 2.99999999999999
vertex -35.0066641993582 5.19999999999998 2.99999999999999
vertex -33.3539105243401 7.35391052434008 2.99999999999999
endloop
endfacet
facet normal -0.0 -0.0 1.0
outer loop
vertex -32.0046018463785 22.4094791699064 2.99999999999999
vertex -33.3539105243401 7.35391052434008 2.99999999999999
vertex -31.2 9.00666419935815 2.99999999999999
endloop
endfacet
facet normal -0.0 -0.0 1.0
outer loop
vertex -32.0046018463785 22.4094791699064 2.99999999999999
vertex -31.2 9.00666419935815 2.99999999999999
vertex -26.0 23.2 2.99999999999999
endloop
endfacet
facet normal -0.0 -0.0 1.0
outer loop
vertex -26.0 23.2 2.99999999999999
vertex -31.2 9.00666419935815 2.99999999999999
vertex -28.6917180690662 10.0456285934063 2.99999999999999
endloop
endfacet
facet normal -0.0 -0.0 1.0
outer loop
vertex -26.0 23.2 2.99999999999999
vertex -28.6917180690662 10.0456285934063 2.99999999999999
vertex -26.0 10.4 2.99999999999999
endloop
endfacet
facet normal -0.0 -0.0 1.0
outer loop
vertex -26.0 23.2 2.99999999999999
vertex -26.0 10.4 2.99999999999999
vertex -23.3082819309338 10.0456285934063 2.99999999999999
endloop
endfacet
facet normal -0.0 -0.0 1.0
outer loop
vertex -26.0 23.2 2.99999999999999
vertex -23.3082819309338 10.0456285934063 2.99999999999999
vertex -19.9953981536215 22.4094791699064 2.99999999999999
endloop
endfacet
facet normal -0.0 -0.0 1.0
outer loop
vertex -19.9953981536215 22.4094791699064 2.99999999999999
vertex -23.3082819309338 10.0456285934063 2.99999999999999
vertex -20.8 9.00666419935818 2.99999999999999
endloop
endfacet
facet normal -0.0 -0.0 1.0
outer loop
vertex -19.9953981536215 22.4094791699064 2.99999999999999
vertex -20.8 9.00666419935818 2.99999999999999
vertex -18.6460894756599 7.35391052434011 2.99999999999999
endloop
endfacet
facet normal -0.0 -0.0 1.0
outer loop
vertex -19.9953981536215 22.4094791699064 2.99999999999999
vertex -18.6460894756599 7.35391052434011 2.99999999999999
vertex -14.4 20.091789367799 2.99999999999999
endloop
endfacet
facet normal -0.0 -0.0 1.0
outer loop
vertex -14.4 20.091789367799 2.99999999999999
vertex -18.6460894756599 7.35391052434011 2.99999999999999
vertex -16.9933358006418 5.20000000000002 2.99999999999999
endloop
endfacet
facet normal -0.0 -0.0 1.0
outer loop
vertex -14.4 20.091789367799 2.99999999999999
vertex -16.9933358006418 5.20000000000002 2.99999999999999
vertex -15.9543714065937 2.69171806906624 2.99999999999999
endloop
endfacet
facet normal -0.0 -0.0 1.0
outer loop
vertex -14.4 20.091789367799 2.99999999999999
vertex -15.9543714065937 2.69171806906624 2.99999999999999
vertex -3.1543714065937 2.69171806906623 2.99999999999999
endloop
endfacet
facet normal -0.0 -0.0 1.0
outer loop
vertex -14.4 20.091789367799 2.99999999999999
vertex -3.1543714065937 2.69171806906623 2.99999999999999
vertex -9.59512267647212 16.4048773235279 2.99999999999999
endloop
endfacet
facet normal -0.0 -0.0 1.0
outer loop
vertex -9.59512267647212 16.4048773235279 2.99999999999999
vertex -3.1543714065937 2.69171806906623 2.99999999999999
vertex -5.90821063220104 11.6 2.99999999999999
endloop
endfacet
facet normal -0.0 -0.0 1.0
outer loop
vertex -5.90821063220104 11.6 2.99999999999999
vertex -3.1543714065937 2.69171806906623 2.99999999999999
vertex -3.59052083009363 6.0046018463785 2.99999999999999
endloop
endfacet
facet normal 0.991404331728782 -0.130829676248253 -0.00102315306040373
outer loop
vertex -3.59450799674323 -6.00353348829463 0.0
vertex -3.15437140659369 -2.69171806906619 2.99999999999999
vertex -3.59052083009362 -6.00460184637847 2.99999999999999
endloop
endfacet
facet normal 0.991404331728782 -0.130829676248253 -0.00102315306040373
outer loop
vertex -3.15437140659369 -2.69171806906619 2.99999999999999
vertex -3.59450799674323 -6.00353348829463 0.0
vertex -3.15640015292101 -2.69145097954523 0.0
endloop
endfacet
facet normal 0.991404331728782 -0.130829676248253 -0.00102315306040373
outer loop
vertex -3.59450799674323 -6.00353348829463 0.0
vertex -3.15437140659369 -2.69171806906619 2.99999999999999
vertex -3.59052083009362 -6.00460184637847 2.99999999999999
endloop
endfacet
facet normal 0.991404331728782 -0.130829676248253 -0.00102315306040373
outer loop
vertex -3.15437140659369 -2.69171806906619 2.99999999999999
vertex -3.59450799674323 -6.00353348829463 0.0
vertex -3.15640015292101 -2.69145097954523 0.0
endloop
endfacet
facet normal 0.991404331728782 0.130829676248254 -0.00102315306040315
outer loop
vertex -3.59450799674324 6.00353348829464 0.0
vertex -3.1543714065937 2.69171806906623 2.99999999999999
vertex -3.15640015292102 2.69145097954527 0.0
endloop
endfacet
facet normal 0.991404331728782 0.130829676248254 -0.00102315306040315
outer loop
vertex -3.1543714065937 2.69171806906623 2.99999999999999
vertex -3.59450799674324 6.00353348829464 0.0
vertex -3.59052083009363 6.0046018463785 2.99999999999999
endloop
endfacet
facet normal -0.000319088568675507 -0.99999913770661 -0.0012738793202347
outer loop
vertex -3.1543714065937 2.69171806906623 2.99999999999999
vertex -15.9248821977098 2.69961967877211 0.0
vertex -3.15640015292102 2.69145097954527 0.0
endloop
endfacet
facet normal -0.000319088568675507 -0.99999913770661 -0.0012738793202347
outer loop
vertex -15.9248821977098 2.69961967877211 0.0
vertex -3.1543714065937 2.69171806906623 2.99999999999999
vertex -15.9543714065937 2.69171806906624 2.99999999999999
endloop
endfacet
facet normal 0.0 0.0 -1.0
outer loop
vertex -37.5979360906701 20.0882145719775 0.0
vertex -36.0751178022902 2.69961967877208 0.0
vertex -36.4305294755367 -1.97397653778353e-14 0.0
endloop
endfacet
facet normal 0.0 0.0 -1.0
outer loop
vertex -36.0751178022902 2.69961967877208 0.0
vertex -37.5979360906701 20.0882145719775 0.0
vertex -32.0035334882946 22.4054920032568 0.0
endloop
endfacet
facet normal 0.0 0.0 -1.0
outer loop
vertex -36.0751178022902 2.69961967877208 0.0
vertex -32.0035334882946 22.4054920032568 0.0
vertex -35.0331035007371 5.21526473776831 0.0
endloop
endfacet
facet normal 0.0 0.0 -1.0
outer loop
vertex -35.0331035007371 5.21526473776831 0.0
vertex -32.0035334882946 22.4054920032568 0.0
vertex -33.3754981235181 7.37549812351812 0.0
endloop
endfacet
facet normal 0.0 0.0 -1.0
outer loop
vertex -33.3754981235181 7.37549812351812 0.0
vertex -32.0035334882946 22.4054920032568 0.0
vertex -31.2152647377684 9.03310350073712 0.0
endloop
endfacet
facet normal 0.0 0.0 -1.0
outer loop
vertex -31.2152647377684 9.03310350073712 0.0
vertex -32.0035334882946 22.4054920032568 0.0
vertex -26.0 23.1958721813403 0.0
endloop
endfacet
facet normal 0.0 0.0 -1.0
outer loop
vertex -31.2152647377684 9.03310350073712 0.0
vertex -26.0 23.1958721813403 0.0
vertex -28.6996196787721 10.0751178022902 0.0
endloop
endfacet
facet normal 0.0 0.0 -1.0
outer loop
vertex -28.6996196787721 10.0751178022902 0.0
vertex -26.0 23.1958721813403 0.0
vertex -26.0 10.4305294755367 0.0
endloop
endfacet
facet normal 0.0 0.0 -1.0
outer loop
vertex -26.0 10.4305294755367 0.0
vertex -26.0 23.1958721813403 0.0
vertex -23.3003803212279 10.0751178022902 0.0
endloop
endfacet
facet normal 0.0 0.0 -1.0
outer loop
vertex -23.3003803212279 10.0751178022902 0.0
vertex -26.0 23.1958721813403 0.0
vertex -19.9964665117054 22.4054920032568 0.0
endloop
endfacet
facet normal 0.0 0.0 -1.0
outer loop
vertex -23.3003803212279 10.0751178022902 0.0
vertex -19.9964665117054 22.4054920032568 0.0
vertex -20.7847352622317 9.03310350073714 0.0
endloop
endfacet
facet normal 0.0 0.0 -1.0
outer loop
vertex -20.7847352622317 9.03310350073714 0.0
vertex -19.9964665117054 22.4054920032568 0.0
vertex -18.6245018764819 7.37549812351815 0.0
endloop
endfacet
facet normal 0.0 0.0 -1.0
outer loop
vertex -18.6245018764819 7.37549812351815 0.0
vertex -19.9964665117054 22.4054920032568 0.0
vertex -14.4020639093298 20.0882145719775 0.0
endloop
endfacet
facet normal 0.0 0.0 -1.0
outer loop
vertex -18.6245018764819 7.37549812351815 0.0
vertex -14.4020639093298 20.0882145719775 0.0
vertex -16.9668964992629 5.21526473776835 0.0
endloop
endfacet
facet normal 0.0 0.0 -1.0
outer loop
vertex -16.9668964992629 5.21526473776835 0.0
vertex -14.4020639093298 20.0882145719775 0.0
vertex -15.9248821977098 2.69961967877211 0.0
endloop
endfacet
facet normal 0.0 0.0 -1.0
outer loop
vertex -15.9248821977098 2.69961967877211 0.0
vertex -14.4020639093298 20.0882145719775 0.0
vertex -3.15640015292102 2.69145097954527 0.0
endloop
endfacet
facet normal 0.0 0.0 -1.0
outer loop
vertex -3.15640015292102 2.69145097954527 0.0
vertex -14.4020639093298 20.0882145719775 0.0
vertex -9.59804148503787 16.4019585149621 0.0
endloop
endfacet
facet normal 0.0 0.0 -1.0
outer loop
vertex -3.15640015292102 2.69145097954527 0.0
vertex -9.59804148503787 16.4019585149621 0.0
vertex -5.91178542802252 11.5979360906702 0.0
endloop
endfacet
facet normal 0.0 0.0 -1.0
outer loop
vertex -3.15640015292102 2.69145097954527 0.0
vertex -5.91178542802252 11.5979360906702 0.0
vertex -3.59450799674324 6.00353348829464 0.0
endloop
endfacet
facet normal 0.0 0.0 -1.0
outer loop
vertex -48.4054920032568 6.00353348829467 0.0
vertex -48.4054920032568 -6.00353348829462 0.0
vertex -49.1958721813403 5.19702875428084e-14 0.0
endloop
endfacet
facet normal 0.0 0.0 -1.0
outer loop
vertex -48.4054920032568 -6.00353348829462 0.0
vertex -48.4054920032568 6.00353348829467 0.0
vertex -46.0882145719775 -11.5979360906702 0.0
endloop
endfacet
facet normal 0.0 0.0 -1.0
outer loop
vertex -46.0882145719775 -11.5979360906702 0.0
vertex -48.4054920032568 6.00353348829467 0.0
vertex -46.0882145719775 11.5979360906702 0.0
endloop
endfacet
facet normal 0.0 0.0 -1.0
outer loop
vertex -46.0882145719775 -11.5979360906702 0.0
vertex -46.0882145719775 11.5979360906702 0.0
vertex -42.4019585149621 -16.4019585149621 0.0
endloop
endfacet
facet normal 0.0 0.0 -1.0
outer loop
vertex -42.4019585149621 -16.4019585149621 0.0
vertex -46.0882145719775 11.5979360906702 0.0
vertex -42.4019585149621 16.4019585149622 0.0
endloop
endfacet
facet normal 0.0 0.0 -1.0
outer loop
vertex -42.4019585149621 -16.4019585149621 0.0
vertex -42.4019585149621 16.4019585149622 0.0
vertex -37.5979360906702 -20.0882145719775 0.0
endloop
endfacet
facet normal 0.0 0.0 -1.0
outer loop
vertex -37.5979360906702 -20.0882145719775 0.0
vertex -42.4019585149621 16.4019585149622 0.0
vertex -37.5979360906701 20.0882145719775 0.0
endloop
endfacet
facet normal 0.0 0.0 -1.0
outer loop
vertex -37.5979360906702 -20.0882145719775 0.0
vertex -37.5979360906701 20.0882145719775 0.0
vertex -36.4305294755367 -1.97397653778353e-14 0.0
endloop
endfacet
facet normal 0.0 0.0 -1.0
outer loop
vertex -37.5979360906702 -20.0882145719775 0.0
vertex -36.4305294755367 -1.97397653778353e-14 0.0
vertex -36.0751178022902 -2.69961967877211 0.0
endloop
endfacet
facet normal 0.0 0.0 -1.0
outer loop
vertex -37.5979360906702 -20.0882145719775 0.0
vertex -36.0751178022902 -2.69961967877211 0.0
vertex -32.0035334882946 -22.4054920032568 0.0
endloop
endfacet
facet normal 0.0 0.0 -1.0
outer loop
vertex -32.0035334882946 -22.4054920032568 0.0
vertex -36.0751178022902 -2.69961967877211 0.0
vertex -35.0331035007371 -5.21526473776835 0.0
endloop
endfacet
facet normal 0.0 0.0 -1.0
outer loop
vertex -32.0035334882946 -22.4054920032568 0.0
vertex -35.0331035007371 -5.21526473776835 0.0
vertex -33.3754981235181 -7.37549812351816 0.0
endloop
endfacet
facet normal 0.0 0.0 -1.0
outer loop
vertex -32.0035334882946 -22.4054920032568 0.0
vertex -33.3754981235181 -7.37549812351816 0.0
vertex -31.2152647377683 -9.03310350073714 0.0
endloop
endfacet
facet normal 0.0 0.0 -1.0
outer loop
vertex -32.0035334882946 -22.4054920032568 0.0
vertex -31.2152647377683 -9.03310350073714 0.0
vertex -26.0 -23.1958721813403 0.0
endloop
endfacet
facet normal 0.0 0.0 -1.0
outer loop
vertex -26.0 -23.1958721813403 0.0
vertex -31.2152647377683 -9.03310350073714 0.0
vertex -28.6996196787721 -10.0751178022902 0.0
endloop
endfacet
facet normal 0.0 0.0 -1.0
outer loop
vertex -26.0 -23.1958721813403 0.0
vertex -28.6996196787721 -10.0751178022902 0.0
vertex -26.0 -10.4305294755367 0.0
endloop
endfacet
facet normal 0.0 0.0 -1.0
outer loop
vertex -26.0 -23.1958721813403 0.0
vertex -26.0 -10.4305294755367 0.0
vertex -19.9964665117054 -22.4054920032568 0.0
endloop
endfacet
facet normal 0.0 0.0 -1.0
outer loop
vertex -19.9964665117054 -22.4054920032568 0.0
vertex -26.0 -10.4305294755367 0.0
vertex -23.3003803212279 -10.0751178022902 0.0
endloop
endfacet
facet normal 0.0 0.0 -1.0
outer loop
vertex -19.9964665117054 -22.4054920032568 0.0
vertex -23.3003803212279 -10.0751178022902 0.0
vertex -20.7847352622316 -9.03310350073711 0.0
endloop
endfacet
facet normal 0.0 0.0 -1.0
outer loop
vertex -19.9964665117054 -22.4054920032568 0.0
vertex -20.7847352622316 -9.03310350073711 0.0
vertex -18.6245018764818 -7.37549812351812 0.0
endloop
endfacet
facet normal 0.0 0.0 -1.0
outer loop
vertex -19.9964665117054 -22.4054920032568 0.0
vertex -18.6245018764818 -7.37549812351812 0.0
vertex -14.4020639093298 -20.0882145719775 0.0
endloop
endfacet
facet normal 0.0 0.0 -1.0
outer loop
vertex -14.4020639093298 -20.0882145719775 0.0
vertex -18.6245018764818 -7.37549812351812 0.0
vertex -16.9668964992629 -5.21526473776831 0.0
endloop
endfacet
facet normal 0.0 0.0 -1.0
outer loop
vertex -14.4020639093298 -20.0882145719775 0.0
vertex -16.9668964992629 -5.21526473776831 0.0
vertex -15.9248821977098 -2.69961967877208 0.0
endloop
endfacet
facet normal 0.0 0.0 -1.0
outer loop
vertex -14.4020639093298 -20.0882145719775 0.0
vertex -15.9248821977098 -2.69961967877208 0.0
vertex -3.15640015292101 -2.69145097954523 0.0
endloop
endfacet
facet normal 0.0 0.0 -1.0
outer loop
vertex -14.4020639093298 -20.0882145719775 0.0
vertex -3.15640015292101 -2.69145097954523 0.0
vertex -9.59804148503786 -16.4019585149621 0.0
endloop
endfacet
facet normal 0.0 0.0 -1.0
outer loop
vertex -9.59804148503786 -16.4019585149621 0.0
vertex -3.15640015292101 -2.69145097954523 0.0
vertex -5.91178542802252 -11.5979360906702 0.0
endloop
endfacet
facet normal 0.0 0.0 -1.0
outer loop
vertex -5.91178542802252 -11.5979360906702 0.0
vertex -3.15640015292101 -2.69145097954523 0.0
vertex -3.59450799674323 -6.00353348829463 0.0
endloop
endfacet
facet normal -0.000319088568675851 0.99999913770661 -0.00127387932023652
outer loop
vertex -15.9543714065937 -2.69171806906619 2.99999999999999
vertex -3.15640015292101 -2.69145097954523 0.0
vertex -15.9248821977098 -2.69961967877208 0.0
endloop
endfacet
facet normal -0.000319088568675851 0.99999913770661 -0.00127387932023652
outer loop
vertex -3.15640015292101 -2.69145097954523 0.0
vertex -15.9543714065937 -2.69171806906619 2.99999999999999
vertex -3.15437140659369 -2.69171806906619 2.99999999999999
endloop
endfacet
facet normal -0.000319088568675507 -0.99999913770661 -0.0012738793202347
outer loop
vertex -3.1543714065937 2.69171806906623 2.99999999999999
vertex -15.9248821977098 2.69961967877211 0.0
vertex -3.15640015292102 2.69145097954527 0.0
endloop
endfacet
facet normal -0.000319088568675507 -0.99999913770661 -0.0012738793202347
outer loop
vertex -15.9248821977098 2.69961967877211 0.0
vertex -3.1543714065937 2.69171806906623 2.99999999999999
vertex -15.9543714065937 2.69171806906624 2.99999999999999
endloop
endfacet
facet normal -0.000319088568675851 0.99999913770661 -0.00127387932023652
outer loop
vertex -15.9543714065937 -2.69171806906619 2.99999999999999
vertex -3.15640015292101 -2.69145097954523 0.0
vertex -15.9248821977098 -2.69961967877208 0.0
endloop
endfacet
facet normal -0.000319088568675851 0.99999913770661 -0.00127387932023652
outer loop
vertex -3.15640015292101 -2.69145097954523 0.0
vertex -15.9543714065937 -2.69171806906619 2.99999999999999
vertex -3.15437140659369 -2.69171806906619 2.99999999999999
endloop
endfacet
endsolid ToolforBoardHousing_Final_chip_v2
