solid ToolforBoardHousing_Final_head~
facet normal 1.04820117994741e-15 2.51199755577056e-17 1.0
outer loop
vertex 11.1041692630066 -2.75521519380438 25.1
vertex 11.1041692630066 6.35521519380438 25.1
vertex 10.5044638056942 1.8 25.1
endloop
endfacet
facet normal 1.04820117994741e-15 2.51199755577056e-17 1.0
outer loop
vertex 11.1041692630066 6.35521519380438 25.1
vertex 11.1041692630066 -2.75521519380438 25.1
vertex 12.8624166990881 -7.0 25.1
endloop
endfacet
facet normal 1.04820117994741e-15 2.51199755577056e-17 1.0
outer loop
vertex 11.1041692630066 6.35521519380438 25.1
vertex 12.8624166990881 -7.0 25.1
vertex 12.8624166990881 10.6 25.1
endloop
endfacet
facet normal 1.04820117994741e-15 2.51199755577056e-17 1.0
outer loop
vertex 12.8624166990881 10.6 25.1
vertex 12.8624166990881 -7.0 25.1
vertex 14.2609005779495 -8.82253967444163 25.1
endloop
endfacet
facet normal 1.04820117994741e-15 2.51199755577056e-17 1.0
outer loop
vertex 12.8624166990881 10.6 25.1
vertex 14.2609005779495 -8.82253967444163 25.1
vertex 14.2609005779495 12.4225396744416 25.1
endloop
endfacet
facet normal 1.04820117994741e-15 2.51199755577056e-17 1.0
outer loop
vertex 14.2609005779495 12.4225396744416 25.1
vertex 14.2609005779495 -8.82253967444163 25.1
vertex 14.2609005779495 3.1 25.1
endloop
endfacet
facet normal 0.130526192220053 -0.99144486137381 0.0
outer loop
vertex 32.6596789994986 -15.2002945426876 25.1
vertex 28.1044638056942 -15.8 1.49810719385357e-14
vertex 32.6596789994986 -15.2002945426876 1.49810719385357e-14
endloop
endfacet
facet normal 0.130526192220053 -0.99144486137381 0.0
outer loop
vertex 28.1044638056942 -15.8 1.49810719385357e-14
vertex 32.6596789994986 -15.2002945426876 25.1
vertex 28.1044638056942 -15.8 25.1
endloop
endfacet
facet normal -0.130526192220052 -0.99144486137381 9.34921897374088e-19
outer loop
vertex 28.1044638056942 -15.8 25.1
vertex 23.5492486118898 -15.2002945426876 1.49810719385357e-14
vertex 28.1044638056942 -15.8 1.49810719385357e-14
endloop
endfacet
facet normal -0.130526192220052 -0.99144486137381 9.34921897374088e-19
outer loop
vertex 23.5492486118898 -15.2002945426876 1.49810719385357e-14
vertex 28.1044638056942 -15.8 25.1
vertex 23.5492486118898 -15.2002945426876 25.1
endloop
endfacet
facet normal -0.382683432365091 -0.923879532511287 -4.8690870177518e-33
outer loop
vertex 23.5492486118898 -15.2002945426876 25.1
vertex 19.3044638056942 -13.4420471066061 1.49810719385357e-14
vertex 23.5492486118898 -15.2002945426876 1.49810719385357e-14
endloop
endfacet
facet normal -0.382683432365091 -0.923879532511287 -4.8690870177518e-33
outer loop
vertex 19.3044638056942 -13.4420471066061 1.49810719385357e-14
vertex 23.5492486118898 -15.2002945426876 25.1
vertex 19.3044638056942 -13.4420471066061 25.1
endloop
endfacet
facet normal -0.60876142900872 -0.793353340291236 0.0
outer loop
vertex 19.3044638056942 -13.4420471066061 25.1
vertex 15.659384456811 -10.6450793488832 1.49810719385357e-14
vertex 19.3044638056942 -13.4420471066061 1.49810719385357e-14
endloop
endfacet
facet normal -0.60876142900872 -0.793353340291236 0.0
outer loop
vertex 15.659384456811 -10.6450793488832 1.49810719385357e-14
vertex 19.3044638056942 -13.4420471066061 25.1
vertex 15.659384456811 -10.6450793488832 25.1
endloop
endfacet
facet normal -0.793353340291234 -0.608761429008722 -4.91950858292775e-17
outer loop
vertex 14.2609005779495 -8.82253967444163 25.1
vertex 15.659384456811 -10.6450793488832 1.49810719385357e-14
vertex 15.659384456811 -10.6450793488832 25.1
endloop
endfacet
facet normal -0.793353340291234 -0.608761429008722 -4.91950858292775e-17
outer loop
vertex 15.659384456811 -10.6450793488832 1.49810719385357e-14
vertex 14.2609005779495 -8.82253967444163 25.1
vertex 12.8624166990881 -7.0 1.49810719385357e-14
endloop
endfacet
facet normal -0.793353340291234 -0.608761429008722 -4.91950858292775e-17
outer loop
vertex 12.8624166990881 -7.0 1.49810719385357e-14
vertex 14.2609005779495 -8.82253967444163 25.1
vertex 12.8624166990881 -7.0 25.1
endloop
endfacet
facet normal -0.923879532511286 -0.382683432365092 0.0
outer loop
vertex 11.1041692630066 -2.75521519380438 25.1
vertex 12.8624166990881 -7.0 1.49810719385357e-14
vertex 12.8624166990881 -7.0 25.1
endloop
endfacet
facet normal -0.923879532511286 -0.382683432365092 0.0
outer loop
vertex 12.8624166990881 -7.0 1.49810719385357e-14
vertex 11.1041692630066 -2.75521519380438 25.1
vertex 11.1041692630066 -2.75521519380438 1.49810719385357e-14
endloop
endfacet
facet normal -0.991444861373811 -0.13052619222005 0.0
outer loop
vertex 10.5044638056942 1.8 25.1
vertex 11.1041692630066 -2.75521519380438 1.49810719385357e-14
vertex 11.1041692630066 -2.75521519380438 25.1
endloop
endfacet
facet normal -0.991444861373811 -0.13052619222005 0.0
outer loop
vertex 11.1041692630066 -2.75521519380438 1.49810719385357e-14
vertex 10.5044638056942 1.8 25.1
vertex 10.5044638056942 1.8 1.49810719385357e-14
endloop
endfacet
facet normal -0.99144486137381 0.130526192220052 0.0
outer loop
vertex 11.1041692630066 6.35521519380438 25.1
vertex 10.5044638056942 1.8 1.49810719385357e-14
vertex 10.5044638056942 1.8 25.1
endloop
endfacet
facet normal -0.99144486137381 0.130526192220052 0.0
outer loop
vertex 10.5044638056942 1.8 1.49810719385357e-14
vertex 11.1041692630066 6.35521519380438 25.1
vertex 11.1041692630066 6.35521519380438 1.49810719385357e-14
endloop
endfacet
facet normal -0.923879532511287 0.382683432365089 0.0
outer loop
vertex 12.8624166990881 10.6 25.1
vertex 11.1041692630066 6.35521519380438 1.49810719385357e-14
vertex 11.1041692630066 6.35521519380438 25.1
endloop
endfacet
facet normal -0.923879532511287 0.382683432365089 0.0
outer loop
vertex 11.1041692630066 6.35521519380438 1.49810719385357e-14
vertex 12.8624166990881 10.6 25.1
vertex 12.8624166990881 10.6 1.49810719385357e-14
endloop
endfacet
facet normal -0.793353340291234 0.608761429008723 2.98297310458493e-17
outer loop
vertex 14.2609005779495 12.4225396744416 25.1
vertex 12.8624166990881 10.6 1.49810719385357e-14
vertex 12.8624166990881 10.6 25.1
endloop
endfacet
facet normal -0.793353340291234 0.608761429008723 2.98297310458493e-17
outer loop
vertex 12.8624166990881 10.6 1.49810719385357e-14
vertex 14.2609005779495 12.4225396744416 25.1
vertex 15.659384456811 14.2450793488832 1.49810719385357e-14
endloop
endfacet
facet normal -0.793353340291234 0.608761429008723 2.98297310458493e-17
outer loop
vertex 15.659384456811 14.2450793488832 1.49810719385357e-14
vertex 14.2609005779495 12.4225396744416 25.1
vertex 15.659384456811 14.2450793488832 25.1
endloop
endfacet
facet normal -0.60876142900872 0.793353340291236 4.36038453720829e-18
outer loop
vertex 15.659384456811 14.2450793488832 25.1
vertex 19.3044638056942 17.0420471066061 1.49810719385357e-14
vertex 15.659384456811 14.2450793488832 1.49810719385357e-14
endloop
endfacet
facet normal -0.60876142900872 0.793353340291236 4.36038453720829e-18
outer loop
vertex 19.3044638056942 17.0420471066061 1.49810719385357e-14
vertex 15.659384456811 14.2450793488832 25.1
vertex 19.3044638056942 17.0420471066061 25.1
endloop
endfacet
facet normal -0.38268343236509 0.923879532511287 -0.0
outer loop
vertex 19.3044638056942 17.0420471066061 25.1
vertex 23.5492486118898 18.8002945426876 1.49810719385357e-14
vertex 19.3044638056942 17.0420471066061 1.49810719385357e-14
endloop
endfacet
facet normal -0.38268343236509 0.923879532511287 -0.0
outer loop
vertex 23.5492486118898 18.8002945426876 1.49810719385357e-14
vertex 19.3044638056942 17.0420471066061 25.1
vertex 23.5492486118898 18.8002945426876 25.1
endloop
endfacet
facet normal -0.130526192220051 0.99144486137381 1.66075490670551e-33
outer loop
vertex 23.5492486118898 18.8002945426876 25.1
vertex 28.1044638056942 19.4 1.49810719385357e-14
vertex 23.5492486118898 18.8002945426876 1.49810719385357e-14
endloop
endfacet
facet normal -0.130526192220051 0.99144486137381 1.66075490670551e-33
outer loop
vertex 28.1044638056942 19.4 1.49810719385357e-14
vertex 23.5492486118898 18.8002945426876 25.1
vertex 28.1044638056942 19.4 25.1
endloop
endfacet
facet normal 0.130526192220052 0.99144486137381 -0.0
outer loop
vertex 28.1044638056942 19.4 25.1
vertex 32.6596789994986 18.8002945426876 1.49810719385357e-14
vertex 28.1044638056942 19.4 1.49810719385357e-14
endloop
endfacet
facet normal 0.130526192220052 0.99144486137381 -0.0
outer loop
vertex 32.6596789994986 18.8002945426876 1.49810719385357e-14
vertex 28.1044638056942 19.4 25.1
vertex 32.6596789994986 18.8002945426876 25.1
endloop
endfacet
facet normal 0.382683432365092 0.923879532511286 -0.0
outer loop
vertex 32.6596789994986 18.8002945426876 25.1
vertex 36.9044638056942 17.0420471066061 1.49810719385357e-14
vertex 32.6596789994986 18.8002945426876 1.49810719385357e-14
endloop
endfacet
facet normal 0.382683432365092 0.923879532511286 -0.0
outer loop
vertex 36.9044638056942 17.0420471066061 1.49810719385357e-14
vertex 32.6596789994986 18.8002945426876 25.1
vertex 36.9044638056942 17.0420471066061 25.1
endloop
endfacet
facet normal 0.608761429008721 0.793353340291235 -4.3603845372083e-18
outer loop
vertex 36.9044638056942 17.0420471066061 25.1
vertex 40.5495431545774 14.2450793488832 1.49810719385357e-14
vertex 36.9044638056942 17.0420471066061 1.49810719385357e-14
endloop
endfacet
facet normal 0.608761429008721 0.793353340291235 -4.3603845372083e-18
outer loop
vertex 40.5495431545774 14.2450793488832 1.49810719385357e-14
vertex 36.9044638056942 17.0420471066061 25.1
vertex 40.5495431545774 14.2450793488832 25.1
endloop
endfacet
facet normal 0.793353340291236 0.60876142900872 4.14354390431657e-18
outer loop
vertex 40.5495431545774 14.2450793488832 1.49810719385357e-14
vertex 43.3465109123003 10.6 25.1
vertex 43.3465109123003 10.6 1.49810719385357e-14
endloop
endfacet
facet normal 0.793353340291236 0.60876142900872 4.14354390431657e-18
outer loop
vertex 43.3465109123003 10.6 25.1
vertex 40.5495431545774 14.2450793488832 1.49810719385357e-14
vertex 41.9480270334389 12.4225396744416 25.1
endloop
endfacet
facet normal 0.793353340291236 0.60876142900872 4.14354390431657e-18
outer loop
vertex 41.9480270334389 12.4225396744416 25.1
vertex 40.5495431545774 14.2450793488832 1.49810719385357e-14
vertex 40.5495431545774 14.2450793488832 25.1
endloop
endfacet
facet normal 0.923879532511287 0.382683432365089 -0.0
outer loop
vertex 43.3465109123003 10.6 1.49810719385357e-14
vertex 45.1047583483818 6.35521519380436 25.1
vertex 45.1047583483818 6.35521519380436 1.49810719385357e-14
endloop
endfacet
facet normal 0.923879532511287 0.382683432365089 -0.0
outer loop
vertex 45.1047583483818 6.35521519380436 25.1
vertex 43.3465109123003 10.6 1.49810719385357e-14
vertex 43.3465109123003 10.6 25.1
endloop
endfacet
facet normal 0.99144486137381 0.130526192220053 -0.0
outer loop
vertex 45.1047583483818 6.35521519380436 1.49810719385357e-14
vertex 45.7044638056942 1.8 25.1
vertex 45.7044638056942 1.8 1.49810719385357e-14
endloop
endfacet
facet normal 0.99144486137381 0.130526192220053 -0.0
outer loop
vertex 45.7044638056942 1.8 25.1
vertex 45.1047583483818 6.35521519380436 1.49810719385357e-14
vertex 45.1047583483818 6.35521519380436 25.1
endloop
endfacet
facet normal 0.99144486137381 -0.130526192220052 -0.0
outer loop
vertex 45.7044638056942 1.8 1.49810719385357e-14
vertex 45.1047583483818 -2.75521519380438 25.1
vertex 45.1047583483818 -2.75521519380438 1.49810719385357e-14
endloop
endfacet
facet normal 0.99144486137381 -0.130526192220052 -0.0
outer loop
vertex 45.1047583483818 -2.75521519380438 25.1
vertex 45.7044638056942 1.8 1.49810719385357e-14
vertex 45.7044638056942 1.8 25.1
endloop
endfacet
facet normal 0.923879532511288 -0.382683432365088 -0.0
outer loop
vertex 45.1047583483818 -2.75521519380438 1.49810719385357e-14
vertex 43.3465109123003 -7.00000000000002 25.1
vertex 43.3465109123003 -7.00000000000002 1.49810719385357e-14
endloop
endfacet
facet normal 0.923879532511288 -0.382683432365088 -0.0
outer loop
vertex 43.3465109123003 -7.00000000000002 25.1
vertex 45.1047583483818 -2.75521519380438 1.49810719385357e-14
vertex 45.1047583483818 -2.75521519380438 25.1
endloop
endfacet
facet normal 0.793353340291233 -0.608761429008724 6.82702164801598e-17
outer loop
vertex 43.3465109123003 -7.00000000000002 1.49810719385357e-14
vertex 40.5495431545774 -10.6450793488832 25.1
vertex 40.5495431545774 -10.6450793488832 1.49810719385357e-14
endloop
endfacet
facet normal 0.793353340291233 -0.608761429008724 6.82702164801598e-17
outer loop
vertex 40.5495431545774 -10.6450793488832 25.1
vertex 43.3465109123003 -7.00000000000002 1.49810719385357e-14
vertex 41.9480270334389 -8.82253967444163 25.1
endloop
endfacet
facet normal 0.793353340291233 -0.608761429008724 6.82702164801598e-17
outer loop
vertex 41.9480270334389 -8.82253967444163 25.1
vertex 43.3465109123003 -7.00000000000002 1.49810719385357e-14
vertex 43.3465109123003 -7.00000000000002 25.1
endloop
endfacet
facet normal 0.608761429008721 -0.793353340291235 -4.3603845372083e-18
outer loop
vertex 40.5495431545774 -10.6450793488832 25.1
vertex 36.9044638056942 -13.4420471066061 1.49810719385357e-14
vertex 40.5495431545774 -10.6450793488832 1.49810719385357e-14
endloop
endfacet
facet normal 0.608761429008721 -0.793353340291235 -4.3603845372083e-18
outer loop
vertex 36.9044638056942 -13.4420471066061 1.49810719385357e-14
vertex 40.5495431545774 -10.6450793488832 25.1
vertex 36.9044638056942 -13.4420471066061 25.1
endloop
endfacet
facet normal 0.382683432365089 -0.923879532511287 0.0
outer loop
vertex 36.9044638056942 -13.4420471066061 25.1
vertex 32.6596789994986 -15.2002945426876 1.49810719385357e-14
vertex 36.9044638056942 -13.4420471066061 1.49810719385357e-14
endloop
endfacet
facet normal 0.382683432365089 -0.923879532511287 0.0
outer loop
vertex 32.6596789994986 -15.2002945426876 1.49810719385357e-14
vertex 36.9044638056942 -13.4420471066061 25.1
vertex 32.6596789994986 -15.2002945426876 25.1
endloop
endfacet
facet normal -1.04865027948514e-15 -2.31976044527306e-17 1.0
outer loop
vertex 43.3465109123003 -7.00000000000002 25.1
vertex 41.9480270334389 0.600000000000005 25.1
vertex 41.9480270334389 -8.82253967444163 25.1
endloop
endfacet
facet normal -1.04865027948514e-15 -2.31976044527306e-17 1.0
outer loop
vertex 41.9480270334389 0.600000000000005 25.1
vertex 43.3465109123003 -7.00000000000002 25.1
vertex 41.9480270334389 12.4225396744416 25.1
endloop
endfacet
facet normal -1.04865027948514e-15 -2.31976044527306e-17 1.0
outer loop
vertex 41.9480270334389 12.4225396744416 25.1
vertex 43.3465109123003 -7.00000000000002 25.1
vertex 43.3465109123003 10.6 25.1
endloop
endfacet
facet normal -1.04865027948514e-15 -2.31976044527306e-17 1.0
outer loop
vertex 43.3465109123003 10.6 25.1
vertex 43.3465109123003 -7.00000000000002 25.1
vertex 45.1047583483818 -2.75521519380438 25.1
endloop
endfacet
facet normal -1.04865027948514e-15 -2.31976044527306e-17 1.0
outer loop
vertex 43.3465109123003 10.6 25.1
vertex 45.1047583483818 -2.75521519380438 25.1
vertex 45.1047583483818 6.35521519380436 25.1
endloop
endfacet
facet normal -1.04865027948514e-15 -2.31976044527306e-17 1.0
outer loop
vertex 45.1047583483818 6.35521519380436 25.1
vertex 45.1047583483818 -2.75521519380438 25.1
vertex 45.7044638056942 1.8 25.1
endloop
endfacet
facet normal 3.95808791582217e-17 4.96756256787614e-16 1.0
outer loop
vertex 15.659384456811 -10.6450793488832 25.1
vertex 32.3044638056942 -8.82253967444163 25.1
vertex 14.2609005779495 -8.82253967444163 25.1
endloop
endfacet
facet normal 3.95808791582217e-17 4.96756256787614e-16 1.0
outer loop
vertex 32.3044638056942 -8.82253967444163 25.1
vertex 15.659384456811 -10.6450793488832 25.1
vertex 19.3044638056942 -13.4420471066061 25.1
endloop
endfacet
facet normal 3.95808791582217e-17 4.96756256787614e-16 1.0
outer loop
vertex 32.3044638056942 -8.82253967444163 25.1
vertex 19.3044638056942 -13.4420471066061 25.1
vertex 23.5492486118898 -15.2002945426876 25.1
endloop
endfacet
facet normal 3.95808791582217e-17 4.96756256787614e-16 1.0
outer loop
vertex 32.3044638056942 -8.82253967444163 25.1
vertex 23.5492486118898 -15.2002945426876 25.1
vertex 28.1044638056942 -15.8 25.1
endloop
endfacet
facet normal 3.95808791582217e-17 4.96756256787614e-16 1.0
outer loop
vertex 32.3044638056942 -8.82253967444163 25.1
vertex 28.1044638056942 -15.8 25.1
vertex 32.6596789994986 -15.2002945426876 25.1
endloop
endfacet
facet normal 3.95808791582217e-17 4.96756256787614e-16 1.0
outer loop
vertex 32.3044638056942 -8.82253967444163 25.1
vertex 32.6596789994986 -15.2002945426876 25.1
vertex 41.9480270334389 -8.82253967444163 25.1
endloop
endfacet
facet normal 3.95808791582217e-17 4.96756256787614e-16 1.0
outer loop
vertex 41.9480270334389 -8.82253967444163 25.1
vertex 32.6596789994986 -15.2002945426876 25.1
vertex 36.9044638056942 -13.4420471066061 25.1
endloop
endfacet
facet normal 3.95808791582217e-17 4.96756256787614e-16 1.0
outer loop
vertex 41.9480270334389 -8.82253967444163 25.1
vertex 36.9044638056942 -13.4420471066061 25.1
vertex 40.5495431545774 -10.6450793488832 25.1
endloop
endfacet
facet normal -4.04945237878386e-17 -4.96403734829061e-16 1.0
outer loop
vertex 23.8044638056942 12.4225396744416 25.1
vertex 15.659384456811 14.2450793488832 25.1
vertex 14.2609005779495 12.4225396744416 25.1
endloop
endfacet
facet normal -4.04945237878386e-17 -4.96403734829061e-16 1.0
outer loop
vertex 15.659384456811 14.2450793488832 25.1
vertex 23.8044638056942 12.4225396744416 25.1
vertex 19.3044638056942 17.0420471066061 25.1
endloop
endfacet
facet normal -4.04945237878386e-17 -4.96403734829061e-16 1.0
outer loop
vertex 19.3044638056942 17.0420471066061 25.1
vertex 23.8044638056942 12.4225396744416 25.1
vertex 23.5492486118898 18.8002945426876 25.1
endloop
endfacet
facet normal -4.04945237878386e-17 -4.96403734829061e-16 1.0
outer loop
vertex 23.5492486118898 18.8002945426876 25.1
vertex 23.8044638056942 12.4225396744416 25.1
vertex 28.1044638056942 19.4 25.1
endloop
endfacet
facet normal -4.04945237878386e-17 -4.96403734829061e-16 1.0
outer loop
vertex 28.1044638056942 19.4 25.1
vertex 23.8044638056942 12.4225396744416 25.1
vertex 41.9480270334389 12.4225396744416 25.1
endloop
endfacet
facet normal -4.04945237878386e-17 -4.96403734829061e-16 1.0
outer loop
vertex 28.1044638056942 19.4 25.1
vertex 41.9480270334389 12.4225396744416 25.1
vertex 32.6596789994986 18.8002945426876 25.1
endloop
endfacet
facet normal -4.04945237878386e-17 -4.96403734829061e-16 1.0
outer loop
vertex 32.6596789994986 18.8002945426876 25.1
vertex 41.9480270334389 12.4225396744416 25.1
vertex 36.9044638056942 17.0420471066061 25.1
endloop
endfacet
facet normal -4.04945237878386e-17 -4.96403734829061e-16 1.0
outer loop
vertex 36.9044638056942 17.0420471066061 25.1
vertex 41.9480270334389 12.4225396744416 25.1
vertex 40.5495431545774 14.2450793488832 25.1
endloop
endfacet
facet normal -3.95874977501346e-19 7.56512709511329e-19 1.0
outer loop
vertex 32.3044638056942 -8.82253967444163 25.1
vertex 14.2609005779495 3.1 25.1
vertex 14.2609005779495 -8.82253967444163 25.1
endloop
endfacet
facet normal -3.95874977501346e-19 7.56512709511329e-19 1.0
outer loop
vertex 14.2609005779495 3.1 25.1
vertex 32.3044638056942 -8.82253967444163 25.1
vertex 14.2609005779495 12.4225396744416 25.1
endloop
endfacet
facet normal -3.95874977501346e-19 7.56512709511329e-19 1.0
outer loop
vertex 14.2609005779495 12.4225396744416 25.1
vertex 32.3044638056942 -8.82253967444163 25.1
vertex 23.8044638056942 12.4225396744416 25.1
endloop
endfacet
facet normal -3.95874977501346e-19 7.56512709511329e-19 1.0
outer loop
vertex 23.8044638056942 12.4225396744416 25.1
vertex 32.3044638056942 -8.82253967444163 25.1
vertex 41.9480270334389 12.4225396744416 25.1
endloop
endfacet
facet normal -3.95874977501346e-19 7.56512709511329e-19 1.0
outer loop
vertex 41.9480270334389 12.4225396744416 25.1
vertex 32.3044638056942 -8.82253967444163 25.1
vertex 41.9480270334389 -8.82253967444163 25.1
endloop
endfacet
facet normal -3.95874977501346e-19 7.56512709511329e-19 1.0
outer loop
vertex 41.9480270334389 12.4225396744416 25.1
vertex 41.9480270334389 -8.82253967444163 25.1
vertex 41.9480270334389 0.600000000000005 25.1
endloop
endfacet
facet normal 2.54047196520362e-17 -0.975064356627586 0.221922284672882
outer loop
vertex 41.9480270334389 -8.82253967444163 25.1
vertex 14.2609005779495 -8.82253967444163 25.1
vertex 32.3044638056942 -8.82253967444163 25.1
endloop
endfacet
facet normal 2.54047196520362e-17 -0.975064356627586 0.221922284672882
outer loop
vertex 14.2609005779495 -8.82253967444163 25.1
vertex 41.9480270334389 -8.82253967444163 25.1
vertex 32.3044638056942 0.600000000000005 66.5
endloop
endfacet
facet normal 2.54047196520362e-17 -0.975064356627586 0.221922284672882
outer loop
vertex 14.2609005779495 -8.82253967444163 25.1
vertex 32.3044638056942 0.600000000000005 66.5
vertex 23.8044638056942 0.600000000000005 66.5
endloop
endfacet
facet normal 0.973926705580379 -4.16667730665733e-17 0.226862892861194
outer loop
vertex 41.9480270334389 0.600000000000005 25.1
vertex 32.3044638056942 0.600000000000005 66.5
vertex 41.9480270334389 -8.82253967444163 25.1
endloop
endfacet
facet normal 0.973926705580379 -4.16667730665733e-17 0.226862892861194
outer loop
vertex 32.3044638056942 0.600000000000005 66.5
vertex 41.9480270334389 0.600000000000005 25.1
vertex 41.9480270334389 12.4225396744416 25.1
endloop
endfacet
facet normal 0.973926705580379 -4.16667730665733e-17 0.226862892861194
outer loop
vertex 32.3044638056942 0.600000000000005 66.5
vertex 41.9480270334389 12.4225396744416 25.1
vertex 32.3044638056942 3.1 66.5
endloop
endfacet
facet normal -0.974444198149206 -1.19024839408012e-17 0.224629705723332
outer loop
vertex 23.8044638056942 0.600000000000005 66.5
vertex 14.2609005779495 3.1 25.1
vertex 14.2609005779495 -8.82253967444163 25.1
endloop
endfacet
facet normal -0.974444198149206 -1.19024839408012e-17 0.224629705723332
outer loop
vertex 14.2609005779495 3.1 25.1
vertex 23.8044638056942 0.600000000000005 66.5
vertex 23.8044638056942 3.1 66.5
endloop
endfacet
facet normal -0.974444198149206 -1.19024839408012e-17 0.224629705723332
outer loop
vertex 14.2609005779495 3.1 25.1
vertex 23.8044638056942 3.1 66.5
vertex 14.2609005779495 12.4225396744416 25.1
endloop
endfacet
facet normal -6.34614411976236e-18 0.975571692180037 0.219681299652428
outer loop
vertex 14.2609005779495 12.4225396744416 25.1
vertex 41.9480270334389 12.4225396744416 25.1
vertex 23.8044638056942 12.4225396744416 25.1
endloop
endfacet
facet normal -6.34614411976236e-18 0.975571692180037 0.219681299652428
outer loop
vertex 41.9480270334389 12.4225396744416 25.1
vertex 14.2609005779495 12.4225396744416 25.1
vertex 23.8044638056942 3.1 66.5
endloop
endfacet
facet normal -6.34614411976236e-18 0.975571692180037 0.219681299652428
outer loop
vertex 41.9480270334389 12.4225396744416 25.1
vertex 23.8044638056942 3.1 66.5
vertex 32.3044638056942 3.1 66.5
endloop
endfacet
facet normal -0.0 -0.0 1.0
outer loop
vertex 32.3044638056942 0.600000000000005 66.5
vertex 23.8044638056942 3.1 66.5
vertex 23.8044638056942 0.600000000000005 66.5
endloop
endfacet
facet normal -0.0 -0.0 1.0
outer loop
vertex 23.8044638056942 3.1 66.5
vertex 32.3044638056942 0.600000000000005 66.5
vertex 32.3044638056942 3.1 66.5
endloop
endfacet
facet normal -6.75596141266941e-33 -1.54542617314813e-31 -1.0
outer loop
vertex 14.5753758840356 5.42510818293807 13.3
vertex 14.5753758840356 -1.82510818293808 13.3
vertex 14.0981213377273 1.8 13.3
endloop
endfacet
facet normal -6.75596141266941e-33 -1.54542617314813e-31 -1.0
outer loop
vertex 14.5753758840356 -1.82510818293808 13.3
vertex 14.5753758840356 5.42510818293807 13.3
vertex 15.9746154143301 8.80317123398344 13.3
endloop
endfacet
facet normal -6.75596141266941e-33 -1.54542617314813e-31 -1.0
outer loop
vertex 14.5753758840356 -1.82510818293808 13.3
vertex 15.9746154143301 8.80317123398344 13.3
vertex 15.97461541433 -5.20317123398344 13.3
endloop
endfacet
facet normal -6.75596141266941e-33 -1.54542617314813e-31 -1.0
outer loop
vertex 15.97461541433 -5.20317123398344 13.3
vertex 15.9746154143301 8.80317123398344 13.3
vertex 18.2004840669737 -8.10397973872051 13.3
endloop
endfacet
facet normal -6.75596141266941e-33 -1.54542617314813e-31 -1.0
outer loop
vertex 18.2004840669737 -8.10397973872051 13.3
vertex 15.9746154143301 8.80317123398344 13.3
vertex 18.2004840669737 11.7039797387205 13.3
endloop
endfacet
facet normal -6.75596141266941e-33 -1.54542617314813e-31 -1.0
outer loop
vertex 18.2004840669737 -8.10397973872051 13.3
vertex 18.2004840669737 11.7039797387205 13.3
vertex 21.1012925717108 -10.3298483913641 13.3
endloop
endfacet
facet normal -6.75596141266941e-33 -1.54542617314813e-31 -1.0
outer loop
vertex 21.1012925717108 -10.3298483913641 13.3
vertex 18.2004840669737 11.7039797387205 13.3
vertex 21.1012925717108 13.9298483913642 13.3
endloop
endfacet
facet normal -6.75596141266941e-33 -1.54542617314813e-31 -1.0
outer loop
vertex 21.1012925717108 -10.3298483913641 13.3
vertex 21.1012925717108 13.9298483913642 13.3
vertex 24.4793556227561 -11.7290879216586 13.3
endloop
endfacet
facet normal -6.75596141266941e-33 -1.54542617314813e-31 -1.0
outer loop
vertex 24.4793556227561 -11.7290879216586 13.3
vertex 21.1012925717108 13.9298483913642 13.3
vertex 24.4793556227561 15.3290879216586 13.3
endloop
endfacet
facet normal -6.75596141266941e-33 -1.54542617314813e-31 -1.0
outer loop
vertex 24.4793556227561 -11.7290879216586 13.3
vertex 24.4793556227561 15.3290879216586 13.3
vertex 28.1044638056942 -12.2063424679669 13.3
endloop
endfacet
facet normal -6.75596141266941e-33 -1.54542617314813e-31 -1.0
outer loop
vertex 28.1044638056942 -12.2063424679669 13.3
vertex 24.4793556227561 15.3290879216586 13.3
vertex 28.1044638056942 15.8063424679669 13.3
endloop
endfacet
facet normal -6.75596141266941e-33 -1.54542617314813e-31 -1.0
outer loop
vertex 28.1044638056942 -12.2063424679669 13.3
vertex 28.1044638056942 15.8063424679669 13.3
vertex 31.7295719886323 15.3290879216586 13.3
endloop
endfacet
facet normal -6.75596141266941e-33 -1.54542617314813e-31 -1.0
outer loop
vertex 28.1044638056942 -12.2063424679669 13.3
vertex 31.7295719886323 15.3290879216586 13.3
vertex 31.7295719886323 -11.7290879216586 13.3
endloop
endfacet
facet normal -6.75596141266941e-33 -1.54542617314813e-31 -1.0
outer loop
vertex 31.7295719886323 -11.7290879216586 13.3
vertex 31.7295719886323 15.3290879216586 13.3
vertex 35.1076350396776 -10.3298483913642 13.3
endloop
endfacet
facet normal -6.75596141266941e-33 -1.54542617314813e-31 -1.0
outer loop
vertex 35.1076350396776 -10.3298483913642 13.3
vertex 31.7295719886323 15.3290879216586 13.3
vertex 35.1076350396776 13.9298483913641 13.3
endloop
endfacet
facet normal -6.75596141266941e-33 -1.54542617314813e-31 -1.0
outer loop
vertex 35.1076350396776 -10.3298483913642 13.3
vertex 35.1076350396776 13.9298483913641 13.3
vertex 38.0084435444147 -8.10397973872051 13.3
endloop
endfacet
facet normal -6.75596141266941e-33 -1.54542617314813e-31 -1.0
outer loop
vertex 38.0084435444147 -8.10397973872051 13.3
vertex 35.1076350396776 13.9298483913641 13.3
vertex 38.0084435444147 11.7039797387205 13.3
endloop
endfacet
facet normal -6.75596141266941e-33 -1.54542617314813e-31 -1.0
outer loop
vertex 38.0084435444147 -8.10397973872051 13.3
vertex 38.0084435444147 11.7039797387205 13.3
vertex 40.2343121970584 8.80317123398343 13.3
endloop
endfacet
facet normal -6.75596141266941e-33 -1.54542617314813e-31 -1.0
outer loop
vertex 38.0084435444147 -8.10397973872051 13.3
vertex 40.2343121970584 8.80317123398343 13.3
vertex 40.2343121970584 -5.20317123398345 13.3
endloop
endfacet
facet normal -6.75596141266941e-33 -1.54542617314813e-31 -1.0
outer loop
vertex 40.2343121970584 -5.20317123398345 13.3
vertex 40.2343121970584 8.80317123398343 13.3
vertex 41.6335517273528 5.42510818293807 13.3
endloop
endfacet
facet normal -6.75596141266941e-33 -1.54542617314813e-31 -1.0
outer loop
vertex 40.2343121970584 -5.20317123398345 13.3
vertex 41.6335517273528 5.42510818293807 13.3
vertex 41.6335517273528 -1.82510818293809 13.3
endloop
endfacet
facet normal -6.75596141266941e-33 -1.54542617314813e-31 -1.0
outer loop
vertex 41.6335517273528 -1.82510818293809 13.3
vertex 41.6335517273528 5.42510818293807 13.3
vertex 42.1108062736611 1.8 13.3
endloop
endfacet
facet normal 0.0 0.0 -1.0
outer loop
vertex 11.1041692630066 6.35521519380438 1.49810719385357e-14
vertex 11.1041692630066 -2.75521519380438 1.49810719385357e-14
vertex 10.5044638056942 1.8 1.49810719385357e-14
endloop
endfacet
facet normal 0.0 0.0 -1.0
outer loop
vertex 11.1041692630066 -2.75521519380438 1.49810719385357e-14
vertex 11.1041692630066 6.35521519380438 1.49810719385357e-14
vertex 12.8624166990881 -7.0 1.49810719385357e-14
endloop
endfacet
facet normal 0.0 0.0 -1.0
outer loop
vertex 12.8624166990881 -7.0 1.49810719385357e-14
vertex 11.1041692630066 6.35521519380438 1.49810719385357e-14
vertex 12.8624166990881 10.6 1.49810719385357e-14
endloop
endfacet
facet normal 0.0 0.0 -1.0
outer loop
vertex 12.8624166990881 -7.0 1.49810719385357e-14
vertex 12.8624166990881 10.6 1.49810719385357e-14
vertex 15.659384456811 14.2450793488832 1.49810719385357e-14
endloop
endfacet
facet normal 0.0 0.0 -1.0
outer loop
vertex 12.8624166990881 -7.0 1.49810719385357e-14
vertex 15.659384456811 14.2450793488832 1.49810719385357e-14
vertex 14.0981213377273 1.8 1.49810719385357e-14
endloop
endfacet
facet normal 0.0 0.0 -1.0
outer loop
vertex 14.0981213377273 1.8 1.49810719385357e-14
vertex 15.659384456811 14.2450793488832 1.49810719385357e-14
vertex 14.5753758840356 5.42510818293807 1.49810719385357e-14
endloop
endfacet
facet normal 0.0 0.0 -1.0
outer loop
vertex 14.5753758840356 5.42510818293807 1.49810719385357e-14
vertex 15.659384456811 14.2450793488832 1.49810719385357e-14
vertex 15.9746154143301 8.80317123398344 1.49810719385357e-14
endloop
endfacet
facet normal 0.0 0.0 -1.0
outer loop
vertex 15.9746154143301 8.80317123398344 1.49810719385357e-14
vertex 15.659384456811 14.2450793488832 1.49810719385357e-14
vertex 19.3044638056942 17.0420471066061 1.49810719385357e-14
endloop
endfacet
facet normal 0.0 0.0 -1.0
outer loop
vertex 15.9746154143301 8.80317123398344 1.49810719385357e-14
vertex 19.3044638056942 17.0420471066061 1.49810719385357e-14
vertex 18.2004840669737 11.7039797387205 1.49810719385357e-14
endloop
endfacet
facet normal 0.0 0.0 -1.0
outer loop
vertex 18.2004840669737 11.7039797387205 1.49810719385357e-14
vertex 19.3044638056942 17.0420471066061 1.49810719385357e-14
vertex 21.1012925717108 13.9298483913642 1.49810719385357e-14
endloop
endfacet
facet normal 0.0 0.0 -1.0
outer loop
vertex 21.1012925717108 13.9298483913642 1.49810719385357e-14
vertex 19.3044638056942 17.0420471066061 1.49810719385357e-14
vertex 23.5492486118898 18.8002945426876 1.49810719385357e-14
endloop
endfacet
facet normal 0.0 0.0 -1.0
outer loop
vertex 21.1012925717108 13.9298483913642 1.49810719385357e-14
vertex 23.5492486118898 18.8002945426876 1.49810719385357e-14
vertex 24.4793556227561 15.3290879216586 1.49810719385357e-14
endloop
endfacet
facet normal 0.0 0.0 -1.0
outer loop
vertex 24.4793556227561 15.3290879216586 1.49810719385357e-14
vertex 23.5492486118898 18.8002945426876 1.49810719385357e-14
vertex 28.1044638056942 19.4 1.49810719385357e-14
endloop
endfacet
facet normal 0.0 0.0 -1.0
outer loop
vertex 24.4793556227561 15.3290879216586 1.49810719385357e-14
vertex 28.1044638056942 19.4 1.49810719385357e-14
vertex 28.1044638056942 15.8063424679669 1.49810719385357e-14
endloop
endfacet
facet normal 0.0 0.0 -1.0
outer loop
vertex 28.1044638056942 15.8063424679669 1.49810719385357e-14
vertex 28.1044638056942 19.4 1.49810719385357e-14
vertex 32.6596789994986 18.8002945426876 1.49810719385357e-14
endloop
endfacet
facet normal 0.0 0.0 -1.0
outer loop
vertex 28.1044638056942 15.8063424679669 1.49810719385357e-14
vertex 32.6596789994986 18.8002945426876 1.49810719385357e-14
vertex 31.7295719886323 15.3290879216586 1.49810719385357e-14
endloop
endfacet
facet normal 0.0 0.0 -1.0
outer loop
vertex 31.7295719886323 15.3290879216586 1.49810719385357e-14
vertex 32.6596789994986 18.8002945426876 1.49810719385357e-14
vertex 35.1076350396776 13.9298483913641 1.49810719385357e-14
endloop
endfacet
facet normal 0.0 0.0 -1.0
outer loop
vertex 35.1076350396776 13.9298483913641 1.49810719385357e-14
vertex 32.6596789994986 18.8002945426876 1.49810719385357e-14
vertex 36.9044638056942 17.0420471066061 1.49810719385357e-14
endloop
endfacet
facet normal 0.0 0.0 -1.0
outer loop
vertex 35.1076350396776 13.9298483913641 1.49810719385357e-14
vertex 36.9044638056942 17.0420471066061 1.49810719385357e-14
vertex 38.0084435444147 11.7039797387205 1.49810719385357e-14
endloop
endfacet
facet normal 0.0 0.0 -1.0
outer loop
vertex 38.0084435444147 11.7039797387205 1.49810719385357e-14
vertex 36.9044638056942 17.0420471066061 1.49810719385357e-14
vertex 40.5495431545774 14.2450793488832 1.49810719385357e-14
endloop
endfacet
facet normal 0.0 0.0 -1.0
outer loop
vertex 38.0084435444147 11.7039797387205 1.49810719385357e-14
vertex 40.5495431545774 14.2450793488832 1.49810719385357e-14
vertex 40.2343121970584 8.80317123398343 1.49810719385357e-14
endloop
endfacet
facet normal 0.0 0.0 -1.0
outer loop
vertex 40.2343121970584 8.80317123398343 1.49810719385357e-14
vertex 40.5495431545774 14.2450793488832 1.49810719385357e-14
vertex 41.6335517273528 5.42510818293807 1.49810719385357e-14
endloop
endfacet
facet normal 0.0 0.0 -1.0
outer loop
vertex 41.6335517273528 5.42510818293807 1.49810719385357e-14
vertex 40.5495431545774 14.2450793488832 1.49810719385357e-14
vertex 43.3465109123003 10.6 1.49810719385357e-14
endloop
endfacet
facet normal 0.0 0.0 -1.0
outer loop
vertex 41.6335517273528 5.42510818293807 1.49810719385357e-14
vertex 43.3465109123003 10.6 1.49810719385357e-14
vertex 42.1108062736611 1.8 1.49810719385357e-14
endloop
endfacet
facet normal 0.0 0.0 -1.0
outer loop
vertex 14.0981213377273 1.8 1.49810719385357e-14
vertex 15.659384456811 -10.6450793488832 1.49810719385357e-14
vertex 12.8624166990881 -7.0 1.49810719385357e-14
endloop
endfacet
facet normal 0.0 0.0 -1.0
outer loop
vertex 15.659384456811 -10.6450793488832 1.49810719385357e-14
vertex 14.0981213377273 1.8 1.49810719385357e-14
vertex 14.5753758840356 -1.82510818293808 1.49810719385357e-14
endloop
endfacet
facet normal 0.0 0.0 -1.0
outer loop
vertex 15.659384456811 -10.6450793488832 1.49810719385357e-14
vertex 14.5753758840356 -1.82510818293808 1.49810719385357e-14
vertex 15.97461541433 -5.20317123398344 1.49810719385357e-14
endloop
endfacet
facet normal 0.0 0.0 -1.0
outer loop
vertex 15.659384456811 -10.6450793488832 1.49810719385357e-14
vertex 15.97461541433 -5.20317123398344 1.49810719385357e-14
vertex 19.3044638056942 -13.4420471066061 1.49810719385357e-14
endloop
endfacet
facet normal 0.0 0.0 -1.0
outer loop
vertex 19.3044638056942 -13.4420471066061 1.49810719385357e-14
vertex 15.97461541433 -5.20317123398344 1.49810719385357e-14
vertex 18.2004840669737 -8.10397973872051 1.49810719385357e-14
endloop
endfacet
facet normal 0.0 0.0 -1.0
outer loop
vertex 19.3044638056942 -13.4420471066061 1.49810719385357e-14
vertex 18.2004840669737 -8.10397973872051 1.49810719385357e-14
vertex 21.1012925717108 -10.3298483913641 1.49810719385357e-14
endloop
endfacet
facet normal 0.0 0.0 -1.0
outer loop
vertex 19.3044638056942 -13.4420471066061 1.49810719385357e-14
vertex 21.1012925717108 -10.3298483913641 1.49810719385357e-14
vertex 23.5492486118898 -15.2002945426876 1.49810719385357e-14
endloop
endfacet
facet normal 0.0 0.0 -1.0
outer loop
vertex 23.5492486118898 -15.2002945426876 1.49810719385357e-14
vertex 21.1012925717108 -10.3298483913641 1.49810719385357e-14
vertex 24.4793556227561 -11.7290879216586 1.49810719385357e-14
endloop
endfacet
facet normal 0.0 0.0 -1.0
outer loop
vertex 23.5492486118898 -15.2002945426876 1.49810719385357e-14
vertex 24.4793556227561 -11.7290879216586 1.49810719385357e-14
vertex 28.1044638056942 -15.8 1.49810719385357e-14
endloop
endfacet
facet normal 0.0 0.0 -1.0
outer loop
vertex 28.1044638056942 -15.8 1.49810719385357e-14
vertex 24.4793556227561 -11.7290879216586 1.49810719385357e-14
vertex 28.1044638056942 -12.2063424679669 1.49810719385357e-14
endloop
endfacet
facet normal 0.0 0.0 -1.0
outer loop
vertex 28.1044638056942 -15.8 1.49810719385357e-14
vertex 28.1044638056942 -12.2063424679669 1.49810719385357e-14
vertex 31.7295719886323 -11.7290879216586 1.49810719385357e-14
endloop
endfacet
facet normal 0.0 0.0 -1.0
outer loop
vertex 28.1044638056942 -15.8 1.49810719385357e-14
vertex 31.7295719886323 -11.7290879216586 1.49810719385357e-14
vertex 32.6596789994986 -15.2002945426876 1.49810719385357e-14
endloop
endfacet
facet normal 0.0 0.0 -1.0
outer loop
vertex 32.6596789994986 -15.2002945426876 1.49810719385357e-14
vertex 31.7295719886323 -11.7290879216586 1.49810719385357e-14
vertex 35.1076350396776 -10.3298483913642 1.49810719385357e-14
endloop
endfacet
facet normal 0.0 0.0 -1.0
outer loop
vertex 32.6596789994986 -15.2002945426876 1.49810719385357e-14
vertex 35.1076350396776 -10.3298483913642 1.49810719385357e-14
vertex 36.9044638056942 -13.4420471066061 1.49810719385357e-14
endloop
endfacet
facet normal 0.0 0.0 -1.0
outer loop
vertex 36.9044638056942 -13.4420471066061 1.49810719385357e-14
vertex 35.1076350396776 -10.3298483913642 1.49810719385357e-14
vertex 38.0084435444147 -8.10397973872051 1.49810719385357e-14
endloop
endfacet
facet normal 0.0 0.0 -1.0
outer loop
vertex 36.9044638056942 -13.4420471066061 1.49810719385357e-14
vertex 38.0084435444147 -8.10397973872051 1.49810719385357e-14
vertex 40.5495431545774 -10.6450793488832 1.49810719385357e-14
endloop
endfacet
facet normal 0.0 0.0 -1.0
outer loop
vertex 40.5495431545774 -10.6450793488832 1.49810719385357e-14
vertex 38.0084435444147 -8.10397973872051 1.49810719385357e-14
vertex 40.2343121970584 -5.20317123398345 1.49810719385357e-14
endloop
endfacet
facet normal 0.0 0.0 -1.0
outer loop
vertex 40.5495431545774 -10.6450793488832 1.49810719385357e-14
vertex 40.2343121970584 -5.20317123398345 1.49810719385357e-14
vertex 41.6335517273528 -1.82510818293809 1.49810719385357e-14
endloop
endfacet
facet normal 0.0 0.0 -1.0
outer loop
vertex 40.5495431545774 -10.6450793488832 1.49810719385357e-14
vertex 41.6335517273528 -1.82510818293809 1.49810719385357e-14
vertex 43.3465109123003 -7.00000000000002 1.49810719385357e-14
endloop
endfacet
facet normal 0.0 0.0 -1.0
outer loop
vertex 43.3465109123003 -7.00000000000002 1.49810719385357e-14
vertex 41.6335517273528 -1.82510818293809 1.49810719385357e-14
vertex 42.1108062736611 1.8 1.49810719385357e-14
endloop
endfacet
facet normal 0.0 0.0 -1.0
outer loop
vertex 43.3465109123003 -7.00000000000002 1.49810719385357e-14
vertex 42.1108062736611 1.8 1.49810719385357e-14
vertex 43.3465109123003 10.6 1.49810719385357e-14
endloop
endfacet
facet normal 0.0 0.0 -1.0
outer loop
vertex 43.3465109123003 -7.00000000000002 1.49810719385357e-14
vertex 43.3465109123003 10.6 1.49810719385357e-14
vertex 45.1047583483818 6.35521519380436 1.49810719385357e-14
endloop
endfacet
facet normal 0.0 0.0 -1.0
outer loop
vertex 43.3465109123003 -7.00000000000002 1.49810719385357e-14
vertex 45.1047583483818 6.35521519380436 1.49810719385357e-14
vertex 45.1047583483818 -2.75521519380438 1.49810719385357e-14
endloop
endfacet
facet normal 0.0 0.0 -1.0
outer loop
vertex 45.1047583483818 -2.75521519380438 1.49810719385357e-14
vertex 45.1047583483818 6.35521519380436 1.49810719385357e-14
vertex 45.7044638056942 1.8 1.49810719385357e-14
endloop
endfacet
facet normal 0.793353340291234 -0.608761429008722 -0.0
outer loop
vertex 18.2004840669737 11.7039797387205 1.49810719385357e-14
vertex 15.9746154143301 8.80317123398344 13.3
vertex 15.9746154143301 8.80317123398344 1.49810719385357e-14
endloop
endfacet
facet normal 0.793353340291234 -0.608761429008722 -0.0
outer loop
vertex 15.9746154143301 8.80317123398344 13.3
vertex 18.2004840669737 11.7039797387205 1.49810719385357e-14
vertex 18.2004840669737 11.7039797387205 13.3
endloop
endfacet
facet normal 0.923879532511287 -0.38268343236509 -0.0
outer loop
vertex 15.9746154143301 8.80317123398344 1.49810719385357e-14
vertex 14.5753758840356 5.42510818293807 13.3
vertex 14.5753758840356 5.42510818293807 1.49810719385357e-14
endloop
endfacet
facet normal 0.923879532511287 -0.38268343236509 -0.0
outer loop
vertex 14.5753758840356 5.42510818293807 13.3
vertex 15.9746154143301 8.80317123398344 1.49810719385357e-14
vertex 15.9746154143301 8.80317123398344 13.3
endloop
endfacet
facet normal 0.99144486137381 -0.130526192220052 -0.0
outer loop
vertex 14.5753758840356 5.42510818293807 1.49810719385357e-14
vertex 14.0981213377273 1.8 13.3
vertex 14.0981213377273 1.8 1.49810719385357e-14
endloop
endfacet
facet normal 0.99144486137381 -0.130526192220052 -0.0
outer loop
vertex 14.0981213377273 1.8 13.3
vertex 14.5753758840356 5.42510818293807 1.49810719385357e-14
vertex 14.5753758840356 5.42510818293807 13.3
endloop
endfacet
facet normal 0.99144486137381 0.130526192220052 -0.0
outer loop
vertex 14.0981213377273 1.8 1.49810719385357e-14
vertex 14.5753758840356 -1.82510818293808 13.3
vertex 14.5753758840356 -1.82510818293808 1.49810719385357e-14
endloop
endfacet
facet normal 0.99144486137381 0.130526192220052 -0.0
outer loop
vertex 14.5753758840356 -1.82510818293808 13.3
vertex 14.0981213377273 1.8 1.49810719385357e-14
vertex 14.0981213377273 1.8 13.3
endloop
endfacet
facet normal 0.923879532511287 0.382683432365089 -0.0
outer loop
vertex 14.5753758840356 -1.82510818293808 1.49810719385357e-14
vertex 15.97461541433 -5.20317123398344 13.3
vertex 15.97461541433 -5.20317123398344 1.49810719385357e-14
endloop
endfacet
facet normal 0.923879532511287 0.382683432365089 -0.0
outer loop
vertex 15.97461541433 -5.20317123398344 13.3
vertex 14.5753758840356 -1.82510818293808 1.49810719385357e-14
vertex 14.5753758840356 -1.82510818293808 13.3
endloop
endfacet
facet normal 0.793353340291236 0.608761429008719 -0.0
outer loop
vertex 15.97461541433 -5.20317123398344 1.49810719385357e-14
vertex 18.2004840669737 -8.10397973872051 13.3
vertex 18.2004840669737 -8.10397973872051 1.49810719385357e-14
endloop
endfacet
facet normal 0.793353340291236 0.608761429008719 -0.0
outer loop
vertex 18.2004840669737 -8.10397973872051 13.3
vertex 15.97461541433 -5.20317123398344 1.49810719385357e-14
vertex 15.97461541433 -5.20317123398344 13.3
endloop
endfacet
facet normal 0.608761429008718 0.793353340291237 3.91018184078741e-18
outer loop
vertex 18.2004840669737 -8.10397973872051 13.3
vertex 21.1012925717108 -10.3298483913641 1.49810719385357e-14
vertex 18.2004840669737 -8.10397973872051 1.49810719385357e-14
endloop
endfacet
facet normal 0.608761429008718 0.793353340291237 3.91018184078741e-18
outer loop
vertex 21.1012925717108 -10.3298483913641 1.49810719385357e-14
vertex 18.2004840669737 -8.10397973872051 13.3
vertex 21.1012925717108 -10.3298483913641 13.3
endloop
endfacet
facet normal 0.382683432365088 0.923879532511288 -0.0
outer loop
vertex 21.1012925717108 -10.3298483913641 13.3
vertex 24.4793556227561 -11.7290879216586 1.49810719385357e-14
vertex 21.1012925717108 -10.3298483913641 1.49810719385357e-14
endloop
endfacet
facet normal 0.382683432365088 0.923879532511288 -0.0
outer loop
vertex 24.4793556227561 -11.7290879216586 1.49810719385357e-14
vertex 21.1012925717108 -10.3298483913641 13.3
vertex 24.4793556227561 -11.7290879216586 13.3
endloop
endfacet
facet normal 0.130526192220054 0.99144486137381 -0.0
outer loop
vertex 24.4793556227561 -11.7290879216586 13.3
vertex 28.1044638056942 -12.2063424679669 1.49810719385357e-14
vertex 24.4793556227561 -11.7290879216586 1.49810719385357e-14
endloop
endfacet
facet normal 0.130526192220054 0.99144486137381 -0.0
outer loop
vertex 28.1044638056942 -12.2063424679669 1.49810719385357e-14
vertex 24.4793556227561 -11.7290879216586 13.3
vertex 28.1044638056942 -12.2063424679669 13.3
endloop
endfacet
facet normal -0.130526192220052 0.99144486137381 5.95713852554491e-33
outer loop
vertex 28.1044638056942 -12.2063424679669 13.3
vertex 31.7295719886323 -11.7290879216586 1.49810719385357e-14
vertex 28.1044638056942 -12.2063424679669 1.49810719385357e-14
endloop
endfacet
facet normal -0.130526192220052 0.99144486137381 5.95713852554491e-33
outer loop
vertex 31.7295719886323 -11.7290879216586 1.49810719385357e-14
vertex 28.1044638056942 -12.2063424679669 13.3
vertex 31.7295719886323 -11.7290879216586 13.3
endloop
endfacet
facet normal -0.382683432365088 0.923879532511288 -0.0
outer loop
vertex 31.7295719886323 -11.7290879216586 13.3
vertex 35.1076350396776 -10.3298483913642 1.49810719385357e-14
vertex 31.7295719886323 -11.7290879216586 1.49810719385357e-14
endloop
endfacet
facet normal -0.382683432365088 0.923879532511288 -0.0
outer loop
vertex 35.1076350396776 -10.3298483913642 1.49810719385357e-14
vertex 31.7295719886323 -11.7290879216586 13.3
vertex 35.1076350396776 -10.3298483913642 13.3
endloop
endfacet
facet normal -0.608761429008719 0.793353340291236 9.00603002812444e-18
outer loop
vertex 35.1076350396776 -10.3298483913642 13.3
vertex 38.0084435444147 -8.10397973872051 1.49810719385357e-14
vertex 35.1076350396776 -10.3298483913642 1.49810719385357e-14
endloop
endfacet
facet normal -0.608761429008719 0.793353340291236 9.00603002812444e-18
outer loop
vertex 38.0084435444147 -8.10397973872051 1.49810719385357e-14
vertex 35.1076350396776 -10.3298483913642 13.3
vertex 38.0084435444147 -8.10397973872051 13.3
endloop
endfacet
facet normal -0.793353340291235 0.608761429008721 0.0
outer loop
vertex 40.2343121970584 -5.20317123398345 13.3
vertex 38.0084435444147 -8.10397973872051 1.49810719385357e-14
vertex 38.0084435444147 -8.10397973872051 13.3
endloop
endfacet
facet normal -0.793353340291235 0.608761429008721 0.0
outer loop
vertex 38.0084435444147 -8.10397973872051 1.49810719385357e-14
vertex 40.2343121970584 -5.20317123398345 13.3
vertex 40.2343121970584 -5.20317123398345 1.49810719385357e-14
endloop
endfacet
facet normal -0.923879532511287 0.382683432365091 0.0
outer loop
vertex 41.6335517273528 -1.82510818293809 13.3
vertex 40.2343121970584 -5.20317123398345 1.49810719385357e-14
vertex 40.2343121970584 -5.20317123398345 13.3
endloop
endfacet
facet normal -0.923879532511287 0.382683432365091 0.0
outer loop
vertex 40.2343121970584 -5.20317123398345 1.49810719385357e-14
vertex 41.6335517273528 -1.82510818293809 13.3
vertex 41.6335517273528 -1.82510818293809 1.49810719385357e-14
endloop
endfacet
facet normal -0.99144486137381 0.130526192220051 -9.04979189109621e-32
outer loop
vertex 42.1108062736611 1.8 13.3
vertex 41.6335517273528 -1.82510818293809 1.49810719385357e-14
vertex 41.6335517273528 -1.82510818293809 13.3
endloop
endfacet
facet normal -0.99144486137381 0.130526192220051 -9.04979189109621e-32
outer loop
vertex 41.6335517273528 -1.82510818293809 1.49810719385357e-14
vertex 42.1108062736611 1.8 13.3
vertex 42.1108062736611 1.8 1.49810719385357e-14
endloop
endfacet
facet normal -0.99144486137381 -0.130526192220052 0.0
outer loop
vertex 41.6335517273528 5.42510818293807 13.3
vertex 42.1108062736611 1.8 1.49810719385357e-14
vertex 42.1108062736611 1.8 13.3
endloop
endfacet
facet normal -0.99144486137381 -0.130526192220052 0.0
outer loop
vertex 42.1108062736611 1.8 1.49810719385357e-14
vertex 41.6335517273528 5.42510818293807 13.3
vertex 41.6335517273528 5.42510818293807 1.49810719385357e-14
endloop
endfacet
facet normal -0.923879532511287 -0.382683432365091 0.0
outer loop
vertex 40.2343121970584 8.80317123398343 13.3
vertex 41.6335517273528 5.42510818293807 1.49810719385357e-14
vertex 41.6335517273528 5.42510818293807 13.3
endloop
endfacet
facet normal -0.923879532511287 -0.382683432365091 0.0
outer loop
vertex 41.6335517273528 5.42510818293807 1.49810719385357e-14
vertex 40.2343121970584 8.80317123398343 13.3
vertex 40.2343121970584 8.80317123398343 1.49810719385357e-14
endloop
endfacet
facet normal -0.793353340291236 -0.60876142900872 5.09584818733714e-18
outer loop
vertex 38.0084435444147 11.7039797387205 13.3
vertex 40.2343121970584 8.80317123398343 1.49810719385357e-14
vertex 40.2343121970584 8.80317123398343 13.3
endloop
endfacet
facet normal -0.793353340291236 -0.60876142900872 5.09584818733714e-18
outer loop
vertex 40.2343121970584 8.80317123398343 1.49810719385357e-14
vertex 38.0084435444147 11.7039797387205 13.3
vertex 38.0084435444147 11.7039797387205 1.49810719385357e-14
endloop
endfacet
facet normal -0.60876142900872 -0.793353340291235 9.0060300281245e-18
outer loop
vertex 38.0084435444147 11.7039797387205 13.3
vertex 35.1076350396776 13.9298483913641 1.49810719385357e-14
vertex 38.0084435444147 11.7039797387205 1.49810719385357e-14
endloop
endfacet
facet normal -0.60876142900872 -0.793353340291235 9.0060300281245e-18
outer loop
vertex 35.1076350396776 13.9298483913641 1.49810719385357e-14
vertex 38.0084435444147 11.7039797387205 13.3
vertex 35.1076350396776 13.9298483913641 13.3
endloop
endfacet
facet normal -0.382683432365091 -0.923879532511287 0.0
outer loop
vertex 35.1076350396776 13.9298483913641 13.3
vertex 31.7295719886323 15.3290879216586 1.49810719385357e-14
vertex 35.1076350396776 13.9298483913641 1.49810719385357e-14
endloop
endfacet
facet normal -0.382683432365091 -0.923879532511287 0.0
outer loop
vertex 31.7295719886323 15.3290879216586 1.49810719385357e-14
vertex 35.1076350396776 13.9298483913641 13.3
vertex 31.7295719886323 15.3290879216586 13.3
endloop
endfacet
facet normal -0.130526192220051 -0.99144486137381 -5.95713852554489e-33
outer loop
vertex 31.7295719886323 15.3290879216586 13.3
vertex 28.1044638056942 15.8063424679669 1.49810719385357e-14
vertex 31.7295719886323 15.3290879216586 1.49810719385357e-14
endloop
endfacet
facet normal -0.130526192220051 -0.99144486137381 -5.95713852554489e-33
outer loop
vertex 28.1044638056942 15.8063424679669 1.49810719385357e-14
vertex 31.7295719886323 15.3290879216586 13.3
vertex 28.1044638056942 15.8063424679669 13.3
endloop
endfacet
facet normal 0.130526192220052 -0.99144486137381 0.0
outer loop
vertex 28.1044638056942 15.8063424679669 13.3
vertex 24.4793556227561 15.3290879216586 1.49810719385357e-14
vertex 28.1044638056942 15.8063424679669 1.49810719385357e-14
endloop
endfacet
facet normal 0.130526192220052 -0.99144486137381 0.0
outer loop
vertex 24.4793556227561 15.3290879216586 1.49810719385357e-14
vertex 28.1044638056942 15.8063424679669 13.3
vertex 24.4793556227561 15.3290879216586 13.3
endloop
endfacet
facet normal 0.382683432365089 -0.923879532511287 0.0
outer loop
vertex 24.4793556227561 15.3290879216586 13.3
vertex 21.1012925717108 13.9298483913642 1.49810719385357e-14
vertex 24.4793556227561 15.3290879216586 1.49810719385357e-14
endloop
endfacet
facet normal 0.382683432365089 -0.923879532511287 0.0
outer loop
vertex 21.1012925717108 13.9298483913642 1.49810719385357e-14
vertex 24.4793556227561 15.3290879216586 13.3
vertex 21.1012925717108 13.9298483913642 13.3
endloop
endfacet
facet normal 0.608761429008722 -0.793353340291234 -1.81040895602431e-32
outer loop
vertex 21.1012925717108 13.9298483913642 13.3
vertex 18.2004840669737 11.7039797387205 1.49810719385357e-14
vertex 21.1012925717108 13.9298483913642 1.49810719385357e-14
endloop
endfacet
facet normal 0.608761429008722 -0.793353340291234 -1.81040895602431e-32
outer loop
vertex 18.2004840669737 11.7039797387205 1.49810719385357e-14
vertex 21.1012925717108 13.9298483913642 13.3
vertex 18.2004840669737 11.7039797387205 13.3
endloop
endfacet
endsolid ToolforBoardHousing_Final_head~
